<?xml version="1.0" encoding="UTF-8" standalone="no"?>
<svg width="32" height="32" viewBox="0 0 24 24" version="1.1" id="svg1" sodipodi:docname="aeroport.svg" inkscape:version="1.3.2 (1:1.3.2+202311252150+091e20ef0f)"
  xmlns:inkscape="http://www.inkscape.org/namespaces/inkscape"
  xmlns:sodipodi="http://sodipodi.sourceforge.net/DTD/sodipodi-0.dtd"
  xmlns="http://www.w3.org/2000/svg"
  xmlns:svg="http://www.w3.org/2000/svg">
  <defs id="defs1" />
  <sodipodi:namedview id="namedview1" pagecolor="#ffffff" bordercolor="#666666" borderopacity="1.0" inkscape:showpageshadow="2" inkscape:pageopacity="0.0" inkscape:pagecheckerboard="0" inkscape:deskcolor="#d1d1d1" showguides="true" inkscape:zoom="24.25" inkscape:cx="16" inkscape:cy="16" inkscape:window-width="1920" inkscape:window-height="1022" inkscape:window-x="1920" inkscape:window-y="0" inkscape:window-maximized="1" inkscape:current-layer="svg1">
    <sodipodi:guide position="3,18.680412" orientation="1,0" id="guide1" inkscape:locked="false" />
  </sodipodi:namedview>
  <path fill="currentColor" d="M 20.986449,15.59458 V 13.79729 L 13.347967,9.3040653 V 4.3615184 c 0,-0.7458753 -0.602092,-1.3479673 -1.347967,-1.3479673 -0.745875,0 -1.347967,0.602092 -1.347967,1.3479673 V 9.3040653 L 3.0135511,13.79729 v 1.79729 l 7.6384819,-2.246613 v 4.942547 l -2.2466126,1.347968 v 1.347967 L 12,20.087804 l 3.59458,0.898645 v -1.347967 l -2.246613,-1.347968 v -4.942547 z" id="path2" style="stroke-width:4.5735;fill:#ffffff;fill-opacity:1;stroke:#ffffff;stroke-dasharray:none" />
  <path fill="currentColor" d="M 20.986449,15.59458 V 13.79729 L 13.347967,9.3040653 V 4.3615184 c 0,-0.7458753 -0.602092,-1.3479673 -1.347967,-1.3479673 -0.745875,0 -1.347967,0.602092 -1.347967,1.3479673 V 9.3040653 L 3.0135511,13.79729 v 1.79729 l 7.6384819,-2.246613 v 4.942547 l -2.2466126,1.347968 v 1.347967 L 12,20.087804 l 3.59458,0.898645 v -1.347967 l -2.246613,-1.347968 v -4.942547 z" id="path1" style="stroke-width:0.898645;fill:#000000;fill-opacity:1" />
</svg>
