<?xml version="1.0" encoding="UTF-8" standalone="no"?>
<svg width="32" height="32" viewBox="0 0 32 32" version="1.1" id="svg2" sodipodi:docname="balise.svg" inkscape:version="1.3.2 (1:1.3.2+202311252150+091e20ef0f)" inkscape:export-filename="balise.png" inkscape:export-xdpi="192" inkscape:export-ydpi="192"
  xmlns:inkscape="http://www.inkscape.org/namespaces/inkscape"
  xmlns:sodipodi="http://sodipodi.sourceforge.net/DTD/sodipodi-0.dtd"
  xmlns="http://www.w3.org/2000/svg"
  xmlns:svg="http://www.w3.org/2000/svg">
  <defs id="defs2" />
  <sodipodi:namedview id="namedview2" pagecolor="#ffffff" bordercolor="#666666" borderopacity="1.0" inkscape:showpageshadow="2" inkscape:pageopacity="0.0" inkscape:pagecheckerboard="0" inkscape:deskcolor="#d1d1d1" showguides="true" inkscape:zoom="22.863119" inkscape:cx="12.684184" inkscape:cy="13.515216" inkscape:window-width="1920" inkscape:window-height="1022" inkscape:window-x="1920" inkscape:window-y="0" inkscape:window-maximized="1" inkscape:current-layer="svg2">
    <sodipodi:guide position="3.9587629,22.948454" orientation="1,0" id="guide2" inkscape:locked="false" />
  </sodipodi:namedview>
  <path id="path2" d="M 7.4398713,4.7253165 C 7.1795646,4.7433725 6.9245236,4.8670374 6.7439641,5.0897274 4.9142942,7.3527401 3.9626863,10.03669 3.9626863,12.829344 c 0,2.792654 0.9516079,5.476603 2.7812778,7.739617 0.361119,0.445379 1.0227959,0.50566 1.4200268,0.09639 l 0.096392,-0.09639 C 8.6215024,20.207842 8.6086187,19.65403 8.2956491,19.268836 6.7669117,17.415092 6.0080892,15.080319 6.0080893,12.829344 c 0,-2.250975 0.7588224,-4.5857482 2.2875598,-6.4394927 C 8.6086189,6.0046576 8.6215025,5.4508465 8.2603835,5.0897274 L 8.1639909,4.9933349 C 7.9653754,4.7947193 7.700178,4.7072606 7.4398713,4.7253165 Z m 17.1202577,0 c -0.260307,-0.018056 -0.525505,0.069402 -0.724119,0.2680184 l -0.0964,0.096392 c -0.36112,0.3611191 -0.348236,0.9149302 -0.03527,1.3001239 1.5167,1.8417072 2.287559,4.1885182 2.287559,6.4394932 0,2.250975 -0.758822,4.585748 -2.287559,6.439492 -0.337044,0.397231 -0.276764,0.999851 0.0964,1.373006 0.421305,0.421306 1.119752,0.37278 1.492909,-0.08463 1.88986,-2.263015 2.743665,-4.947247 2.743665,-7.727864 0,-2.792654 -0.951608,-5.4766043 -2.781278,-7.739617 -0.18056,-0.22269 -0.435601,-0.3463549 -0.695907,-0.3644109 z M 10.324594,7.6170931 C 10.059775,7.6351491 9.7998433,7.7621993 9.6192836,7.9909082 8.5238889,9.4113102 7.9359403,11.120047 7.9359402,12.829344 c 0,1.709297 0.5879487,3.418034 1.6833434,4.838436 0.3611182,0.457417 1.0366194,0.505661 1.4458884,0.09639 l 0.108143,-0.108143 c 0.325007,-0.325007 0.385288,-0.854368 0.09639,-1.215487 -0.854647,-1.0954 -1.2883668,-2.395433 -1.2883668,-3.6112 0,-1.300029 0.4201778,-2.599779 1.2507528,-3.6229498 0.300932,-0.3611182 0.254758,-0.9022341 -0.08229,-1.2272413 l -0.08463,-0.084637 C 10.86054,7.689882 10.589418,7.5990377 10.324597,7.6170937 Z m 11.357864,0.00235 a 0.9593739,0.9593739 0 0 0 -0.74763,0.2750714 l -0.0964,0.096392 c -0.325004,0.3250111 -0.385285,0.8543718 -0.09639,1.21549 0.842611,1.1074315 1.276614,2.4071815 1.276614,3.6229495 0,1.287991 -0.408987,2.564514 -1.215487,3.587684 -0.312969,0.385193 -0.264726,0.95076 0.09639,1.311878 0.433343,0.433343 1.143263,0.385382 1.516419,-0.108143 1.083358,-1.420402 1.648078,-3.106193 1.648078,-4.791415 -0.0963,-1.69726 -0.612024,-3.4062794 -1.683343,-4.8266808 A 0.9593739,0.9593739 0 0 0 21.682458,7.6194441 Z m -5.760042,2.2029224 c -0.242086,0.00578 -0.489299,0.039591 -0.740578,0.105796 -0.962984,0.2527835 -1.758858,1.0236425 -2.047753,1.9866275 -0.385194,1.275953 0.07429,2.456364 0.916904,3.178602 l -3.564173,10.676063 c -0.252783,0.746313 0.301404,1.504665 1.083828,1.504665 0.49353,0 0.927344,-0.313441 1.083829,-0.782896 l 0.540739,-1.624567 h 5.621332 l 0.540737,1.624567 a 1.1423411,1.1423411 0 1 0 2.167658,-0.721769 L 17.963116,15.093392 c 0.637978,-0.553715 1.046212,-1.349215 1.046212,-2.264049 0,-1.685223 -1.39231,-3.0474629 -3.086912,-3.0069775 z M 16,16.440538 l 2.010137,6.018657 h -4.020274 z" style="stroke-width:6.704;stroke:#ffffff;stroke-opacity:1;stroke-dasharray:none;fill:#1f2937;fill-opacity:1" />
  <path id="path1" d="M 7.4398713,4.7253165 C 7.1795646,4.7433725 6.9245236,4.8670374 6.7439641,5.0897274 4.9142942,7.3527401 3.9626863,10.03669 3.9626863,12.829344 c 0,2.792654 0.9516079,5.476603 2.7812778,7.739617 0.361119,0.445379 1.0227959,0.50566 1.4200268,0.09639 l 0.096392,-0.09639 C 8.6215024,20.207842 8.6086187,19.65403 8.2956491,19.268836 6.7669117,17.415092 6.0080892,15.080319 6.0080893,12.829344 c 0,-2.250975 0.7588224,-4.5857482 2.2875598,-6.4394927 C 8.6086189,6.0046576 8.6215025,5.4508465 8.2603835,5.0897274 L 8.1639909,4.9933349 C 7.9653754,4.7947193 7.700178,4.7072606 7.4398713,4.7253165 Z m 17.1202577,0 c -0.260307,-0.018056 -0.525505,0.069402 -0.724119,0.2680184 l -0.0964,0.096392 c -0.36112,0.3611191 -0.348236,0.9149302 -0.03527,1.3001239 1.5167,1.8417072 2.287559,4.1885182 2.287559,6.4394932 0,2.250975 -0.758822,4.585748 -2.287559,6.439492 -0.337044,0.397231 -0.276764,0.999851 0.0964,1.373006 0.421305,0.421306 1.119752,0.37278 1.492909,-0.08463 1.88986,-2.263015 2.743665,-4.947247 2.743665,-7.727864 0,-2.792654 -0.951608,-5.4766043 -2.781278,-7.739617 -0.18056,-0.22269 -0.435601,-0.3463549 -0.695907,-0.3644109 z M 10.324594,7.6170931 C 10.059775,7.6351491 9.7998433,7.7621993 9.6192836,7.9909082 8.5238889,9.4113102 7.9359403,11.120047 7.9359402,12.829344 c 0,1.709297 0.5879487,3.418034 1.6833434,4.838436 0.3611182,0.457417 1.0366194,0.505661 1.4458884,0.09639 l 0.108143,-0.108143 c 0.325007,-0.325007 0.385288,-0.854368 0.09639,-1.215487 -0.854647,-1.0954 -1.2883668,-2.395433 -1.2883668,-3.6112 0,-1.300029 0.4201778,-2.599779 1.2507528,-3.6229498 0.300932,-0.3611182 0.254758,-0.9022341 -0.08229,-1.2272413 l -0.08463,-0.084637 C 10.86054,7.689882 10.589418,7.5990377 10.324597,7.6170937 Z m 11.357864,0.00235 a 0.9593739,0.9593739 0 0 0 -0.74763,0.2750714 l -0.0964,0.096392 c -0.325004,0.3250111 -0.385285,0.8543718 -0.09639,1.21549 0.842611,1.1074315 1.276614,2.4071815 1.276614,3.6229495 0,1.287991 -0.408987,2.564514 -1.215487,3.587684 -0.312969,0.385193 -0.264726,0.95076 0.09639,1.311878 0.433343,0.433343 1.143263,0.385382 1.516419,-0.108143 1.083358,-1.420402 1.648078,-3.106193 1.648078,-4.791415 -0.0963,-1.69726 -0.612024,-3.4062794 -1.683343,-4.8266808 A 0.9593739,0.9593739 0 0 0 21.682458,7.6194441 Z m -5.760042,2.2029224 c -0.242086,0.00578 -0.489299,0.039591 -0.740578,0.105796 -0.962984,0.2527835 -1.758858,1.0236425 -2.047753,1.9866275 -0.385194,1.275953 0.07429,2.456364 0.916904,3.178602 l -3.564173,10.676063 c -0.252783,0.746313 0.301404,1.504665 1.083828,1.504665 0.49353,0 0.927344,-0.313441 1.083829,-0.782896 l 0.540739,-1.624567 h 5.621332 l 0.540737,1.624567 a 1.1423411,1.1423411 0 1 0 2.167658,-0.721769 L 17.963116,15.093392 c 0.637978,-0.553715 1.046212,-1.349215 1.046212,-2.264049 0,-1.685223 -1.39231,-3.0474629 -3.086912,-3.0069775 z M 16,16.440538 l 2.010137,6.018657 h -4.020274 z" style="stroke-width:1.20373;fill:#000000;fill-opacity:1" />
</svg>
