<?xml version="1.0" encoding="UTF-8" standalone="no"?>
<svg width="32" height="32" viewBox="0 0 24 24" version="1.1" id="svg1" sodipodi:docname="culte.svg" inkscape:version="1.3.2 (1:1.3.2+202311252150+091e20ef0f)" inkscape:export-filename="culte.png" inkscape:export-xdpi="96" inkscape:export-ydpi="96"
  xmlns:inkscape="http://www.inkscape.org/namespaces/inkscape"
  xmlns:sodipodi="http://sodipodi.sourceforge.net/DTD/sodipodi-0.dtd"
  xmlns="http://www.w3.org/2000/svg"
  xmlns:svg="http://www.w3.org/2000/svg">
  <defs id="defs1" />
  <sodipodi:namedview id="namedview1" pagecolor="#ffffff" bordercolor="#666666" borderopacity="1.0" inkscape:showpageshadow="2" inkscape:pageopacity="0.0" inkscape:pagecheckerboard="0" inkscape:deskcolor="#d1d1d1" showguides="true" inkscape:zoom="24.25" inkscape:cx="15.958763" inkscape:cy="16" inkscape:window-width="1920" inkscape:window-height="1048" inkscape:window-x="0" inkscape:window-y="0" inkscape:window-maximized="1" inkscape:current-layer="svg1">
    <sodipodi:guide position="2.9793714,21.961992" orientation="1,0" id="guide1" inkscape:locked="false" />
  </sodipodi:namedview>
  <path fill="currentColor" d="m 2.9874941,21.463131 v -7.210005 l 3.6050023,-1.59972 V 9.7468736 L 11.098749,7.4937471 V 6.1418712 H 9.2962482 V 4.33937 H 11.098749 V 2.5368689 h 1.802502 V 4.33937 h 1.802501 v 1.8025012 h -1.802501 v 1.3518759 l 4.506253,2.2531265 v 2.9065324 l 3.605002,1.59972 v 7.210005 h -7.210005 v -2.703752 q 0,-0.743531 -0.529033,-1.272565 Q 12.744433,16.95778 12,16.956878 q -0.744433,-9.02e-4 -1.272566,0.529936 -0.528133,0.530836 -0.529935,1.272565 v 2.703752 z M 12,13.802501 q 0.563282,0 0.958029,-0.393846 0.394748,-0.393847 0.393847,-0.958029 -9.01e-4,-0.564183 -0.393847,-0.957129 Q 12.565084,11.100552 12,11.098749 q -0.565084,-0.0018 -0.957128,0.394748 -0.392044,0.39655 -0.394747,0.957129 -0.0028,0.560578 0.394747,0.958029 Q 11.440323,13.806106 12,13.802501" id="path2" style="fill:#ffffff;fill-opacity:1;stroke-width:4.5015;stroke:#ffffff;stroke-opacity:1;stroke-dasharray:none" />
  <path fill="currentColor" d="m 2.9874941,21.463131 v -7.210005 l 3.6050023,-1.59972 V 9.7468736 L 11.098749,7.4937471 V 6.1418712 H 9.2962482 V 4.33937 H 11.098749 V 2.5368689 h 1.802502 V 4.33937 h 1.802501 v 1.8025012 h -1.802501 v 1.3518759 l 4.506253,2.2531265 v 2.9065324 l 3.605002,1.59972 v 7.210005 h -7.210005 v -2.703752 q 0,-0.743531 -0.529033,-1.272565 Q 12.744433,16.95778 12,16.956878 q -0.744433,-9.02e-4 -1.272566,0.529936 -0.528133,0.530836 -0.529935,1.272565 v 2.703752 z M 12,13.802501 q 0.563282,0 0.958029,-0.393846 0.394748,-0.393847 0.393847,-0.958029 -9.01e-4,-0.564183 -0.393847,-0.957129 Q 12.565084,11.100552 12,11.098749 q -0.565084,-0.0018 -0.957128,0.394748 -0.392044,0.39655 -0.394747,0.957129 -0.0028,0.560578 0.394747,0.958029 Q 11.440323,13.806106 12,13.802501" id="path1" style="fill:#000000;fill-opacity:1;stroke-width:0.901251" />
</svg>
