<?xml version="1.0" encoding="UTF-8" standalone="no"?>
<svg viewBox="0 0 32 32" height="32" width="32" version="1.1" id="svg4" sodipodi:docname="ecluse.svg" inkscape:version="1.3.2 (1:1.3.2+202311252150+091e20ef0f)" inkscape:export-filename="triangle.png" inkscape:export-xdpi="96" inkscape:export-ydpi="96"
  xmlns:inkscape="http://www.inkscape.org/namespaces/inkscape"
  xmlns:sodipodi="http://sodipodi.sourceforge.net/DTD/sodipodi-0.dtd"
  xmlns="http://www.w3.org/2000/svg"
  xmlns:svg="http://www.w3.org/2000/svg"
  xmlns:rdf="http://www.w3.org/1999/02/22-rdf-syntax-ns#"
  xmlns:cc="http://creativecommons.org/ns#"
  xmlns:dc="http://purl.org/dc/elements/1.1/">
  <defs id="defs4" />
  <sodipodi:namedview id="namedview4" pagecolor="#ffffff" bordercolor="#666666" borderopacity="1.0" inkscape:showpageshadow="2" inkscape:pageopacity="0.0" inkscape:pagecheckerboard="0" inkscape:deskcolor="#d1d1d1" showguides="true" inkscape:zoom="23.515152" inkscape:cx="16.5" inkscape:cy="16.5" inkscape:window-width="1920" inkscape:window-height="1022" inkscape:window-x="1920" inkscape:window-y="0" inkscape:window-maximized="1" inkscape:current-layer="svg4">
    <sodipodi:guide position="3.9974227,25.706186" orientation="1,0" id="guide4" inkscape:locked="false" />
  </sodipodi:namedview>
  <title id="title1">triangle.svg</title>
  <path fill="#000000" d="m 16.050515,8.7433439 c -0.388957,0 -0.644259,0.2337962 -0.811954,0.5074381 L 7.5251315,21.835803 c -0.1014613,0.101461 -0.1014613,0.304383 -0.1014613,0.507438 0,0.710493 0.5074382,0.913415 0.9134152,0.913415 H 23.662352 c 0.507437,0 0.913414,-0.202922 0.913414,-0.913415 0,-0.202922 0,-0.304515 -0.101461,-0.507438 L 16.862337,9.250782 C 16.696357,8.9762165 16.379967,8.7433439 16.050515,8.7433439 Z" id="path5" style="fill:#ffffff;stroke:#ffffff;stroke-width:5.0352;stroke-dasharray:none;stroke-opacity:1" />
  <path fill="#000000" d="m 16.050794,8.7437576 c -0.388935,0 -0.644222,0.2337829 -0.811908,0.5074092 L 7.5258963,21.83547 c -0.1014554,0.101455 -0.1014554,0.304366 -0.1014554,0.507409 0,0.710453 0.5074092,0.913363 0.913363,0.913363 H 23.662196 c 0.507409,0 0.913363,-0.20291 0.913363,-0.913363 0,-0.20291 0,-0.304498 -0.101456,-0.507409 L 16.86257,9.2511668 C 16.6966,8.976617 16.380227,8.7437576 16.050794,8.7437576 Z" id="path4" style="fill:#000000;fill-opacity:1;stroke-width:1.31964;stroke-dasharray:none" />
  <metadata id="metadata4">
    <rdf:RDF>
      <cc:Work rdf:about="">
        <dc:title>triangle.svg</dc:title>
      </cc:Work>
    </rdf:RDF>
  </metadata>
</svg>
