<?xml version="1.0" encoding="UTF-8" standalone="no"?>
<svg width="32" height="32" viewBox="0 0 24 24" version="1.1" id="svg1" sodipodi:docname="fontaine.svg" inkscape:version="1.3.2 (1:1.3.2+202311252150+091e20ef0f)" inkscape:export-filename="fontaine.png" inkscape:export-xdpi="96" inkscape:export-ydpi="96"
  xmlns:inkscape="http://www.inkscape.org/namespaces/inkscape"
  xmlns:sodipodi="http://sodipodi.sourceforge.net/DTD/sodipodi-0.dtd"
  xmlns="http://www.w3.org/2000/svg"
  xmlns:svg="http://www.w3.org/2000/svg">
  <defs id="defs1" />
  <sodipodi:namedview id="namedview1" pagecolor="#ffffff" bordercolor="#666666" borderopacity="1.0" inkscape:showpageshadow="2" inkscape:pageopacity="0.0" inkscape:pagecheckerboard="0" inkscape:deskcolor="#d1d1d1" showguides="true" inkscape:zoom="24.25" inkscape:cx="16" inkscape:cy="16" inkscape:window-width="1920" inkscape:window-height="1022" inkscape:window-x="1920" inkscape:window-y="0" inkscape:window-maximized="1" inkscape:current-layer="svg1">
    <sodipodi:guide position="3,19.824742" orientation="1,0" id="guide1" inkscape:locked="false" />
  </sodipodi:namedview>
  <path fill="currentColor" d="m 14.7,3.0001724 a 3.6,3.6 0 0 1 3.6,3.6 0.9,0.9 0 0 1 -1.7937,0.1053 L 16.5,6.6001724 a 1.8,1.8 0 0 0 -3.5955,-0.135 l -0.0045,0.135 v 8.1000006 h 0.9 v -3.6 a 2.7,2.7 0 0 1 5.4,0 0.9,0.9 0 0 1 -1.7937,0.1053 L 17.4,11.100173 a 0.9,0.9 0 0 0 -1.7937,-0.1053 l -0.0063,0.1053 v 3.6 h 4.5 a 0.9,0.9 0 0 1 0.8937,0.7947 L 21,15.600173 v 1.8 a 3.6,3.6 0 0 1 -3.42,3.5955 l -0.18,0.0045 H 6.6 a 3.6,3.6 0 0 1 -3.5955,-3.42 L 3,17.400173 v -1.8 a 0.9,0.9 0 0 1 0.7947,-0.8937 L 3.9,14.700173 h 4.5 v -3.6 a 0.9,0.9 0 0 0 -1.7937,-0.1053 L 6.6,11.100173 a 0.9,0.9 0 0 1 -1.8,0 2.7,2.7 0 0 1 5.3955,-0.1584 l 0.0045,0.1584 v 3.6 h 0.9 V 6.6001724 a 1.8,1.8 0 1 0 -3.6,0 0.9,0.9 0 1 1 -1.8,0 3.6,3.6 0 0 1 6.3009,-2.3805 3.582,3.582 0 0 1 2.6991,-1.2195" id="path2" style="stroke-width:5.4;fill:#ffffff;fill-opacity:1;stroke:#ffffff;stroke-opacity:1;stroke-dasharray:none" />
  <path fill="currentColor" d="m 14.7,3.0001724 a 3.6,3.6 0 0 1 3.6,3.6 0.9,0.9 0 0 1 -1.7937,0.1053 L 16.5,6.6001724 a 1.8,1.8 0 0 0 -3.5955,-0.135 l -0.0045,0.135 v 8.1000006 h 0.9 v -3.6 a 2.7,2.7 0 0 1 5.4,0 0.9,0.9 0 0 1 -1.7937,0.1053 L 17.4,11.100173 a 0.9,0.9 0 0 0 -1.7937,-0.1053 l -0.0063,0.1053 v 3.6 h 4.5 a 0.9,0.9 0 0 1 0.8937,0.7947 L 21,15.600173 v 1.8 a 3.6,3.6 0 0 1 -3.42,3.5955 l -0.18,0.0045 H 6.6 a 3.6,3.6 0 0 1 -3.5955,-3.42 L 3,17.400173 v -1.8 a 0.9,0.9 0 0 1 0.7947,-0.8937 L 3.9,14.700173 h 4.5 v -3.6 a 0.9,0.9 0 0 0 -1.7937,-0.1053 L 6.6,11.100173 a 0.9,0.9 0 0 1 -1.8,0 2.7,2.7 0 0 1 5.3955,-0.1584 l 0.0045,0.1584 v 3.6 h 0.9 V 6.6001724 a 1.8,1.8 0 1 0 -3.6,0 0.9,0.9 0 1 1 -1.8,0 3.6,3.6 0 0 1 6.3009,-2.3805 3.582,3.582 0 0 1 2.6991,-1.2195" id="path1" style="display:inline;fill:#000000;fill-opacity:1;stroke-width:0.9" />
</svg>
