<?xml version="1.0" encoding="UTF-8" standalone="no"?>
<!-- Created with Inkscape (http://www.inkscape.org/) -->

<svg width="128" height="128" viewBox="0 0 33.866666 33.866666" version="1.1" id="svg1" inkscape:version="1.3.2 (1:1.3.2+202311252150+091e20ef0f)" sodipodi:docname="gravier.svg" inkscape:export-filename="gravier.png" inkscape:export-xdpi="96" inkscape:export-ydpi="96"
  xmlns:inkscape="http://www.inkscape.org/namespaces/inkscape"
  xmlns:sodipodi="http://sodipodi.sourceforge.net/DTD/sodipodi-0.dtd"
  xmlns="http://www.w3.org/2000/svg"
  xmlns:svg="http://www.w3.org/2000/svg">
  <sodipodi:namedview id="namedview1" pagecolor="#ffffff" bordercolor="#666666" borderopacity="1.0" inkscape:showpageshadow="2" inkscape:pageopacity="0.0" inkscape:pagecheckerboard="0" inkscape:deskcolor="#d1d1d1" inkscape:document-units="mm" inkscape:zoom="5.5304153" inkscape:cx="61.659022" inkscape:cy="58.946749" inkscape:window-width="1920" inkscape:window-height="1022" inkscape:window-x="1920" inkscape:window-y="0" inkscape:window-maximized="1" inkscape:current-layer="layer1" />
  <defs id="defs1" />
  <g inkscape:label="Calque 1" inkscape:groupmode="layer" id="layer1">
    <rect style="fill:#cccccc;stroke:#a1af8e;stroke-width:0;stroke-linecap:round;stroke-linejoin:round;stroke-opacity:0.491331;paint-order:stroke markers fill;fill-opacity:1" id="rect1" width="33.866665" height="33.866665" x="0" y="0" />
    <path d="m 4.9550298,32.632221 c -0.132943,-0.349666 -0.368121,-0.71388 -0.522618,-0.809365 -0.154497,-0.09548 -0.280904,-0.404706 -0.280904,-0.687159 0,-0.366768 0.182874,-0.513552 0.639819,-0.513552 0.3519,0 0.82815,-0.07227 1.058334,-0.160599 0.230183,-0.08833 0.418514,-0.04368 0.418514,0.09922 0,0.1429 -0.357187,0.331256 -0.79375,0.418568 -0.732533,0.146507 -1.144384,0.701146 -0.520641,0.701146 0.150211,0 0.35857,0.223085 0.463021,0.495743 0.151204,0.3947 0.316999,0.448239 0.813428,0.262676 0.509047,-0.190279 0.591934,-0.358906 0.451481,-0.918513 -0.124696,-0.496828 -0.07785,-0.654086 0.170233,-0.57148 0.423864,0.141134 0.572685,0.833765 0.360659,1.678543 -0.131835,0.525273 -0.327667,0.640531 -1.088312,0.640531 -0.735935,0 -0.977483,-0.131335 -1.169264,-0.635757 z m 12.6902282,0.371174 c 0,-0.145521 0.238125,-0.264583 0.529166,-0.264583 0.291042,0 0.529167,0.119062 0.529167,0.264583 0,0.145521 -0.238125,0.264583 -0.529167,0.264583 -0.291041,0 -0.529166,-0.119062 -0.529166,-0.264583 z m 5.688541,0 c 0.08994,-0.145521 0.335089,-0.264583 0.544782,-0.264583 0.209693,0 0.38126,0.119062 0.38126,0.264583 0,0.145521 -0.245152,0.264583 -0.544782,0.264583 -0.29963,0 -0.471197,-0.119062 -0.38126,-0.264583 z m 4.630209,-0.132292 c 0,-0.218281 0.174857,-0.396875 0.388571,-0.396875 0.236694,0 0.329045,0.155123 0.236276,0.396875 -0.08376,0.218281 -0.25862,0.396875 -0.388572,0.396875 -0.129951,0 -0.236275,-0.178594 -0.236275,-0.396875 z m 2.910416,0 c 0,-0.218281 0.119063,-0.396875 0.264584,-0.396875 0.14552,0 0.264583,0.178594 0.264583,0.396875 0,0.218281 -0.119063,0.396875 -0.264583,0.396875 -0.145521,0 -0.264584,-0.178594 -0.264584,-0.396875 z M 0.18275778,32.357551 c 0,-0.226869 0.119063,-0.412489 0.264584,-0.412489 0.145521,0 0.264583,0.112035 0.264583,0.248968 0,0.136933 -0.119062,0.322553 -0.264583,0.41249 -0.145521,0.08994 -0.264584,-0.0221 -0.264584,-0.248969 z M 11.477159,32.567935 c -0.345043,-0.345043 -0.180312,-0.622873 0.369314,-0.622873 0.307907,0 0.504986,0.138685 0.446484,0.314192 -0.128882,0.386647 -0.570669,0.55381 -0.815798,0.308681 z M 2.2994248,31.945062 c 0,-0.145521 0.238125,-0.264584 0.529167,-0.264584 0.291041,0 0.529166,0.119063 0.529166,0.264584 0,0.14552 -0.238125,0.264583 -0.529166,0.264583 -0.291042,0 -0.529167,-0.119063 -0.529167,-0.264583 z m 6.085417,0 c 0,-0.145521 0.238125,-0.264584 0.529166,-0.264584 0.291042,0 0.529167,0.119063 0.529167,0.264584 0,0.14552 -0.238125,0.264583 -0.529167,0.264583 -0.291041,0 -0.529166,-0.119063 -0.529166,-0.264583 z M 0.71192478,31.01902 c 0,-0.218377 0.234263,-0.396875 0.52086302,-0.396875 0.354287,0 0.472157,0.126923 0.368567,0.396875 -0.08376,0.218281 -0.31815,0.396875 -0.520862,0.396875 -0.20271302,0 -0.36856802,-0.178594 -0.36856802,-0.396875 z M 26.376508,31.151312 c 0,-0.145521 0.238125,-0.264584 0.529166,-0.264584 0.291042,0 0.529167,0.119063 0.529167,0.264584 0,0.14552 -0.238125,0.264583 -0.529167,0.264583 -0.291041,0 -0.529166,-0.119063 -0.529166,-0.264583 z m -12.7,-0.264584 c 0,-0.145521 0.119062,-0.264583 0.264583,-0.264583 0.145521,0 0.264583,0.119062 0.264583,0.264583 0,0.145521 -0.119062,0.264584 -0.264583,0.264584 -0.145521,0 -0.264583,-0.119063 -0.264583,-0.264584 z m 3.96875,0 c 0,-0.145521 0.238125,-0.264583 0.529166,-0.264583 0.291042,0 0.529167,0.119062 0.529167,0.264583 0,0.145521 -0.238125,0.264584 -0.529167,0.264584 -0.291041,0 -0.529166,-0.119063 -0.529166,-0.264584 z m 5.55625,-0.661458 c 0,-0.218281 0.178593,-0.396875 0.396875,-0.396875 0.218281,0 0.396875,0.178594 0.396875,0.396875 0,0.218281 -0.178594,0.396875 -0.396875,0.396875 -0.218282,0 -0.396875,-0.178594 -0.396875,-0.396875 z m 6.085416,0.132291 c 0,-0.14552 0.238125,-0.264583 0.529167,-0.264583 0.291042,0 0.529167,0.119063 0.529167,0.264583 0,0.145521 -0.238125,0.264584 -0.529167,0.264584 -0.291042,0 -0.529167,-0.119063 -0.529167,-0.264584 z M 7.3265078,29.828395 c 0,-0.293982 0.176389,-0.529167 0.396875,-0.529167 0.220487,0 0.396875,0.235185 0.396875,0.529167 0,0.293981 -0.176388,0.529166 -0.396875,0.529166 -0.220486,0 -0.396875,-0.235185 -0.396875,-0.529166 z m -4.630208,0 c -0.221467,-0.358341 0.07737,-0.79375 0.544782,-0.79375 0.209693,0 0.38126,0.238125 0.38126,0.529166 0,0.547769 -0.63831,0.730143 -0.926042,0.264584 z m 13.2787752,0.09371 c -0.374522,-0.374521 -0.162595,-0.887456 0.366666,-0.887456 0.369878,0 0.520702,0.143682 0.463021,0.441096 -0.09444,0.48696 -0.546101,0.729947 -0.829687,0.44636 z m 8.549349,-1.152044 c 0,-0.293981 0.176389,-0.529166 0.396875,-0.529166 0.220486,0 0.396875,0.235185 0.396875,0.529166 0,0.293982 -0.176389,0.529167 -0.396875,0.529167 -0.220486,0 -0.396875,-0.235185 -0.396875,-0.529167 z M 5.2098418,28.240895 c 0,-0.145521 0.238125,-0.264584 0.529166,-0.264584 0.291042,0 0.529167,0.119063 0.529167,0.264584 0,0.145521 -0.238125,0.264583 -0.529167,0.264583 -0.291041,0 -0.529166,-0.119062 -0.529166,-0.264583 z m 8.4666662,-0.264584 c 0,-0.291041 0.119062,-0.529166 0.264583,-0.529166 0.145521,0 0.264583,0.238125 0.264583,0.529166 0,0.291042 -0.119062,0.529167 -0.264583,0.529167 -0.145521,0 -0.264583,-0.238125 -0.264583,-0.529167 z m 5.159375,0.264584 c -0.08994,-0.145521 0.0221,-0.264584 0.248968,-0.264584 0.226869,0 0.41249,0.119063 0.41249,0.264584 0,0.145521 -0.112036,0.264583 -0.248969,0.264583 -0.136932,0 -0.322553,-0.119062 -0.412489,-0.264583 z m 12.038541,0 c 0,-0.145521 0.238125,-0.264584 0.529167,-0.264584 0.291042,0 0.529167,0.119063 0.529167,0.264584 0,0.145521 -0.238125,0.264583 -0.529167,0.264583 -0.291042,0 -0.529167,-0.119062 -0.529167,-0.264583 z M 15.753922,27.598947 c -0.16087,-0.353071 -0.21558,-0.948383 -0.121579,-1.322916 0.150317,-0.598908 0.307407,-0.68097 1.30358,-0.68097 1.247298,0 1.772071,0.351209 1.759253,1.177396 -0.01439,0.927598 -0.633177,1.468438 -1.680072,1.468438 -0.768662,0 -1.029089,-0.132558 -1.261182,-0.641948 z m 2.103002,-0.469302 c 0.174625,-0.174625 0.3175,-0.528836 0.3175,-0.787136 0,-0.386413 -0.152379,-0.441164 -0.859896,-0.30897 -1.07744,0.201311 -1.319137,0.414053 -1.104845,0.972488 0.196457,0.511958 1.184735,0.586124 1.647241,0.123618 z m 4.16259,0.860633 c -0.232632,-0.376407 0.06403,-0.807717 0.555551,-0.807717 0.231814,0 0.364609,0.185886 0.315114,0.441096 -0.103061,0.531406 -0.631341,0.753855 -0.870665,0.366621 z M 10.236921,27.163161 c 0,-0.378645 0.142483,-0.521127 0.459983,-0.459982 0.689698,0.132823 0.766616,1.008549 0.08858,1.008549 -0.378645,0 -0.548567,-0.169922 -0.548567,-0.548567 z M 1.2410918,26.124228 c 0,-0.398502 0.138152,-0.541362 0.463021,-0.478798 0.254661,0.04904 0.46302,0.264503 0.46302,0.478798 0,0.214295 -0.208359,0.429754 -0.46302,0.478798 -0.324869,0.06256 -0.463021,-0.0803 -0.463021,-0.478798 z m 5.291666,-0.396875 c 0,-0.218281 0.178594,-0.396875 0.396875,-0.396875 0.218282,0 0.396875,0.178594 0.396875,0.396875 0,0.218281 -0.178593,0.396875 -0.396875,0.396875 -0.218281,0 -0.396875,-0.178594 -0.396875,-0.396875 z m 25.1354162,0 c 0,-0.218281 0.178594,-0.396875 0.396875,-0.396875 0.218282,0 0.396875,0.178594 0.396875,0.396875 0,0.218281 -0.178593,0.396875 -0.396875,0.396875 -0.218281,0 -0.396875,-0.178594 -0.396875,-0.396875 z M 12.403375,25.399662 c 0.132824,-0.689699 1.008549,-0.766617 1.008549,-0.08858 0,0.378645 -0.169922,0.548567 -0.548567,0.548567 -0.378645,0 -0.521127,-0.142483 -0.459982,-0.459983 z m 7.14375,0 c 0.132824,-0.689699 1.008549,-0.766617 1.008549,-0.08858 0,0.378645 -0.169922,0.548567 -0.548567,0.548567 -0.378645,0 -0.521127,-0.142483 -0.459982,-0.459983 z m 2.331466,0.195399 c 0,-0.14552 0.245152,-0.264583 0.544781,-0.264583 0.29963,0 0.471197,0.119063 0.381261,0.264583 -0.08994,0.145521 -0.335089,0.264584 -0.544782,0.264584 -0.209693,0 -0.38126,-0.119063 -0.38126,-0.264584 z m 3.439583,-0.529166 c 0,-0.293982 0.176389,-0.529167 0.396875,-0.529167 0.220486,0 0.396875,0.235185 0.396875,0.529167 0,0.293981 -0.176389,0.529166 -0.396875,0.529166 -0.220486,0 -0.396875,-0.235185 -0.396875,-0.529166 z M 4.7822858,24.684475 c -0.447101,-1.165127 0.846946,-2.178588 2.40785,-1.885761 1.2356,0.2318 1.637857,0.777688 1.189879,1.614742 -0.310207,0.579627 -0.522276,0.652439 -1.90027,0.652439 -1.106741,0 -1.593024,-0.109268 -1.697459,-0.38142 z m 2.884963,-0.748662 c -0.268353,-0.97543 -0.529364,-1.079658 -1.412327,-0.563981 -1.319283,0.770504 -1.248873,1.080317 0.207481,0.912942 0.693539,-0.07971 1.23572,-0.236739 1.204846,-0.348961 z m 1.511343,0.336332 c 0,-0.293982 0.176389,-0.529167 0.396875,-0.529167 0.220486,0 0.396875,0.235185 0.396875,0.529167 0,0.293981 -0.176389,0.529166 -0.396875,0.529166 -0.220486,0 -0.396875,-0.235185 -0.396875,-0.529166 z m 7.4083322,0.0194 c 0,-0.378645 0.169922,-0.548567 0.548567,-0.548567 0.678033,0 0.601115,0.875726 -0.08858,1.00855 -0.3175,0.06114 -0.459983,-0.08134 -0.459983,-0.459983 z m 12.766146,0.179037 c 0.06063,-0.181901 0.268993,-0.330729 0.463021,-0.330729 0.194028,0 0.402387,0.148828 0.463021,0.330729 0.06558,0.196742 -0.122003,0.330729 -0.463021,0.330729 -0.341019,0 -0.528601,-0.133987 -0.463021,-0.330729 z M 0.84421678,23.742978 c -0.221467,-0.358341 0.07737,-0.79375 0.54478102,-0.79375 0.209693,0 0.38126,0.238125 0.38126,0.529167 0,0.547768 -0.63831,0.730143 -0.92604102,0.264583 z m 31.61770722,0 c 0,-0.145521 0.119063,-0.264583 0.264584,-0.264583 0.14552,0 0.264583,0.119062 0.264583,0.264583 0,0.145521 -0.119063,0.264583 -0.264583,0.264583 -0.145521,0 -0.264584,-0.119062 -0.264584,-0.264583 z M 3.4075418,22.753829 c 0.132824,-0.689699 1.00855,-0.766617 1.00855,-0.08858 0,0.378645 -0.169922,0.548567 -0.548567,0.548567 -0.378645,0 -0.521128,-0.142482 -0.459983,-0.459982 z m 22.9689662,-0.06918 c 0,-0.291042 0.119062,-0.529167 0.264583,-0.529167 0.145521,0 0.264583,0.238125 0.264583,0.529167 0,0.291041 -0.119062,0.529166 -0.264583,0.529166 -0.145521,0 -0.264583,-0.238125 -0.264583,-0.529166 z m -5.291667,-0.245183 c 0,-0.378645 0.169922,-0.548567 0.548567,-0.548567 0.378645,0 0.521127,0.142482 0.459982,0.459982 -0.132823,0.689699 -1.008549,0.766617 -1.008549,0.08858 z M 7.8556748,22.155478 c 0,-0.145521 0.238125,-0.264583 0.529167,-0.264583 0.291041,0 0.529166,0.119062 0.529166,0.264583 0,0.145521 -0.238125,0.264583 -0.529166,0.264583 -0.291042,0 -0.529167,-0.119062 -0.529167,-0.264583 z m 7.9374992,-0.79375 c 0,-0.145521 0.238125,-0.264583 0.529167,-0.264583 0.291042,0 0.529167,0.119062 0.529167,0.264583 0,0.145521 -0.238125,0.264583 -0.529167,0.264583 -0.291042,0 -0.529167,-0.119062 -0.529167,-0.264583 z m 7.408334,-0.132292 c 0,-0.218281 0.178593,-0.396875 0.396875,-0.396875 0.218281,0 0.396875,0.178594 0.396875,0.396875 0,0.218281 -0.178594,0.396875 -0.396875,0.396875 -0.218282,0 -0.396875,-0.178594 -0.396875,-0.396875 z m 5.820833,-0.396875 c 0,-0.291041 0.119062,-0.529166 0.264583,-0.529166 0.145521,0 0.264584,0.238125 0.264584,0.529166 0,0.291042 -0.119063,0.529167 -0.264584,0.529167 -0.145521,0 -0.264583,-0.238125 -0.264583,-0.529167 z M 10.236925,20.587378 c 0,-0.378645 0.169922,-0.548567 0.548567,-0.548567 0.678032,0 0.601114,0.875726 -0.08858,1.00855 -0.3175,0.06114 -0.459983,-0.08134 -0.459983,-0.459983 z m 22.224999,0.128506 c 0,-0.226869 0.119063,-0.412489 0.264584,-0.412489 0.14552,0 0.264583,0.112035 0.264583,0.248968 0,0.136933 -0.119063,0.322553 -0.264583,0.41249 -0.145521,0.08994 -0.264584,-0.0221 -0.264584,-0.248969 z M 7.3265078,19.774228 c 0,-0.291042 0.119063,-0.529167 0.264584,-0.529167 0.145521,0 0.264583,0.238125 0.264583,0.529167 0,0.291042 -0.119062,0.529167 -0.264583,0.529167 -0.145521,0 -0.264584,-0.238125 -0.264584,-0.529167 z m 10.8479162,0 c 0,-0.293982 0.176389,-0.529167 0.396875,-0.529167 0.220486,0 0.396875,0.235185 0.396875,0.529167 0,0.293981 -0.176389,0.529167 -0.396875,0.529167 -0.220486,0 -0.396875,-0.235186 -0.396875,-0.529167 z m 2.910417,0.0194 c 0,-0.378645 0.169922,-0.548567 0.548567,-0.548567 0.378645,0 0.521127,0.142483 0.459982,0.459983 -0.132823,0.689699 -1.008549,0.766617 -1.008549,0.08858 z m -5.55625,-0.81315 c 0,-0.293982 0.176389,-0.529167 0.396875,-0.529167 0.220486,0 0.396875,0.235185 0.396875,0.529167 0,0.293981 -0.176389,0.529167 -0.396875,0.529167 -0.220486,0 -0.396875,-0.235186 -0.396875,-0.529167 z m 15.345833,0 c 0,-0.291042 0.119063,-0.529167 0.264584,-0.529167 0.14552,0 0.264583,0.238125 0.264583,0.529167 0,0.291042 -0.119063,0.529167 -0.264583,0.529167 -0.145521,0 -0.264584,-0.238125 -0.264584,-0.529167 z M 0.71192478,18.451311 c 0,-0.145521 0.238125,-0.264583 0.52916702,-0.264583 0.291041,0 0.529166,0.119062 0.529166,0.264583 0,0.145521 -0.238125,0.264584 -0.529166,0.264584 -0.29104202,0 -0.52916702,-0.119063 -0.52916702,-0.264584 z m 23.81249922,0 c 0,-0.145521 0.119063,-0.264583 0.264584,-0.264583 0.14552,0 0.264583,0.119062 0.264583,0.264583 0,0.145521 -0.119063,0.264584 -0.264583,0.264584 -0.145521,0 -0.264584,-0.119063 -0.264584,-0.264584 z m -17.9916662,-1.5875 c 0,-0.145521 0.178594,-0.264583 0.396875,-0.264583 0.218282,0 0.396875,0.119062 0.396875,0.264583 0,0.145521 -0.178593,0.264583 -0.396875,0.264583 -0.218281,0 -0.396875,-0.119062 -0.396875,-0.264583 z m 5.8208332,0 c 0,-0.145521 0.238125,-0.264583 0.529166,-0.264583 0.291042,0 0.529167,0.119062 0.529167,0.264583 0,0.145521 -0.238125,0.264583 -0.529167,0.264583 -0.291041,0 -0.529166,-0.119062 -0.529166,-0.264583 z m 3.175,-0.132292 c 0,-0.218281 0.119062,-0.396875 0.264583,-0.396875 0.145521,0 0.264584,0.178594 0.264584,0.396875 0,0.218282 -0.119063,0.396875 -0.264584,0.396875 -0.145521,0 -0.264583,-0.178593 -0.264583,-0.396875 z m 7.14375,0.132292 c 0,-0.145521 0.178594,-0.264583 0.396875,-0.264583 0.218281,0 0.396875,0.119062 0.396875,0.264583 0,0.145521 -0.178594,0.264583 -0.396875,0.264583 -0.218281,0 -0.396875,-0.119062 -0.396875,-0.264583 z M 3.0931748,16.334644 c 0,-0.599733 0.274374,-0.678125 0.740833,-0.211666 0.46646,0.466459 0.388067,0.740833 -0.211666,0.740833 -0.352778,0 -0.529167,-0.176389 -0.529167,-0.529167 z m 15.7427082,0.264584 c -0.08994,-0.145521 0.08163,-0.264584 0.38126,-0.264584 0.29963,0 0.544781,0.119063 0.544781,0.264584 0,0.145521 -0.171567,0.264583 -0.38126,0.264583 -0.209693,0 -0.454845,-0.119062 -0.544781,-0.264583 z m 8.598958,-0.264584 c 0,-0.352777 0.176389,-0.529166 0.529167,-0.529166 0.352777,0 0.529166,0.176389 0.529166,0.529166 0,0.352778 -0.176389,0.529167 -0.529166,0.529167 -0.352778,0 -0.529167,-0.176389 -0.529167,-0.529167 z M 8.7577038,15.441435 c -0.224159,-0.58415 0.07406,-0.882369 0.478214,-0.478214 0.23863,0.238629 0.239644,0.386537 0.0043,0.621916 -0.235379,0.23538 -0.350125,0.201204 -0.482478,-0.143702 z m 10.4831082,-0.33349 c -0.653403,-0.68839 -0.653403,-0.68839 0.132292,-1.317031 0.678387,-0.542783 2.240904,-0.889212 2.240904,-0.496836 0,0.07394 -0.47625,0.324992 -1.058334,0.557895 -1.272102,0.508995 -1.336526,0.792025 -0.235334,1.033887 0.589187,0.129407 0.943549,0.06021 1.247322,-0.24356 0.276229,-0.27623 0.312192,-0.424322 0.103042,-0.424322 -0.176704,0 -0.32128,-0.119063 -0.32128,-0.264584 0,-0.368685 0.885628,-0.331455 1.270491,0.05341 0.2476,0.2476 0.13856,0.481877 -0.492579,1.058334 -1.024644,0.935867 -2.024775,0.9507 -2.886524,0.04281 z m 4.540231,-0.294654 c 0.04904,-0.254661 0.264502,-0.463021 0.478798,-0.463021 0.214295,0 0.429754,0.20836 0.478798,0.463021 0.06256,0.324869 -0.0803,0.463021 -0.478798,0.463021 -0.398502,0 -0.541362,-0.138152 -0.478798,-0.463021 z m 7.933877,0.05217 c 0.119663,-0.574704 0.589232,-0.60987 0.696635,-0.05217 0.05577,0.289614 -0.074,0.463021 -0.346506,0.463021 -0.254192,0 -0.400041,-0.171142 -0.350129,-0.410851 z M 5.4974148,14.393226 c -0.182057,-0.340176 -0.291473,-0.965254 -0.243147,-1.389062 0.07503,-0.65798 0.21642,-0.782893 0.967758,-0.854962 0.70607,-0.06773 0.908172,0.02374 1.023046,0.463021 0.07873,0.301082 0.235592,0.547421 0.348571,0.547421 0.323787,0 0.554173,0.819277 0.382494,1.360191 -0.246024,0.775151 -2.0453,0.683247 -2.478722,-0.126609 z m 1.90889,-0.52477 c -0.356295,-0.576498 -0.995843,-1.237978 -1.196931,-1.237978 -0.237583,0 -0.273778,0.837861 -0.06024,1.394344 0.09175,0.239107 0.38398,0.333711 0.790667,0.255968 0.380465,-0.07273 0.571842,-0.241887 0.466499,-0.412334 z m -3.51938,0.349522 c 0,-0.145521 0.171567,-0.264584 0.38126,-0.264584 0.209693,0 0.454845,0.119063 0.544782,0.264584 0.08994,0.145521 -0.08163,0.264583 -0.38126,0.264583 -0.29963,0 -0.544782,-0.119062 -0.544782,-0.264583 z m 7.4083322,-0.151692 c 0,-0.246391 0.180015,-0.381364 0.441096,-0.330729 0.663779,0.128733 0.754921,0.747004 0.11012,0.747004 -0.324998,0 -0.551216,-0.170838 -0.551216,-0.416275 z m 18.939656,-0.341964 c -0.113975,-0.184415 -0.135773,-0.406754 -0.04844,-0.494086 0.236792,-0.236792 0.494974,0.111469 0.367079,0.495153 -0.08962,0.268863 -0.151941,0.268654 -0.318638,-0.0011 z M 15.793174,13.159644 c 0,-0.14552 0.119063,-0.264583 0.264584,-0.264583 0.14552,0 0.264583,0.119063 0.264583,0.264583 0,0.145521 -0.119063,0.264584 -0.264583,0.264584 -0.145521,0 -0.264584,-0.119063 -0.264584,-0.264584 z m 2.38125,-0.529166 c 0,-0.293982 0.176389,-0.529167 0.396875,-0.529167 0.220486,0 0.396875,0.235185 0.396875,0.529167 0,0.293981 -0.176389,0.529166 -0.396875,0.529166 -0.220486,0 -0.396875,-0.235185 -0.396875,-0.529166 z M 3.3577578,12.233603 c 0,-0.220486 0.235186,-0.396875 0.529167,-0.396875 0.293982,0 0.529167,0.176389 0.529167,0.396875 0,0.220486 -0.235185,0.396875 -0.529167,0.396875 -0.293981,0 -0.529167,-0.176389 -0.529167,-0.396875 z m 24.0770832,0 c 0,-0.220486 0.235185,-0.396875 0.529167,-0.396875 0.293981,0 0.529166,0.176389 0.529166,0.396875 0,0.220486 -0.235185,0.396875 -0.529166,0.396875 -0.293982,0 -0.529167,-0.176389 -0.529167,-0.396875 z M 10.236925,12.101311 c 0,-0.145521 0.245152,-0.264583 0.544782,-0.264583 0.299629,0 0.471196,0.119062 0.381259,0.264583 -0.08994,0.145521 -0.335088,0.264583 -0.544781,0.264583 -0.209693,0 -0.38126,-0.119062 -0.38126,-0.264583 z m 10.583333,-0.507118 c 0,-0.324998 0.170838,-0.551215 0.416275,-0.551215 0.24639,0 0.381363,0.180014 0.330729,0.441095 -0.128733,0.663779 -0.747004,0.754921 -0.747004,0.11012 z m 10.31875,-0.701909 c 0,-0.553703 0.110468,-0.664171 0.595312,-0.595313 0.382576,0.05434 0.625526,0.297285 0.679861,0.679861 0.06886,0.484844 -0.04161,0.595312 -0.595313,0.595312 -0.553703,0 -0.67986,-0.126157 -0.67986,-0.67986 z M 2.2994248,10.778394 c 0,-0.388055 0.176389,-0.529166 0.661458,-0.529166 0.48507,0 0.661459,0.141111 0.661459,0.529166 0,0.388056 -0.176389,0.529167 -0.661459,0.529167 -0.485069,0 -0.661458,-0.141111 -0.661458,-0.529167 z m 14.2874992,0.132292 c 0,-0.218281 0.119063,-0.396875 0.264584,-0.396875 0.14552,0 0.264583,0.178594 0.264583,0.396875 0,0.218281 -0.119063,0.396875 -0.264583,0.396875 -0.145521,0 -0.264584,-0.178594 -0.264584,-0.396875 z m 6.531901,0.225998 c -0.374521,-0.374522 -0.162595,-0.887456 0.366666,-0.887456 0.369878,0 0.520702,0.143682 0.463021,0.441095 -0.09444,0.486961 -0.5461,0.729947 -0.829687,0.446361 z M 5.2098418,9.7200608 c 0,-0.145521 0.238125,-0.264583 0.529166,-0.264583 0.291042,0 0.529167,0.119062 0.529167,0.264583 0,0.145521 -0.238125,0.264583 -0.529167,0.264583 -0.291041,0 -0.529166,-0.119062 -0.529166,-0.264583 z m 13.6260412,0 c 0.08994,-0.145521 0.275557,-0.264583 0.412489,-0.264583 0.136933,0 0.248969,0.119062 0.248969,0.264583 0,0.145521 -0.185621,0.264583 -0.41249,0.264583 -0.226869,0 -0.338905,-0.119062 -0.248968,-0.264583 z M 7.5910918,9.1714938 c 0,-0.378645 0.142482,-0.521128 0.459982,-0.459983 0.689699,0.132824 0.766617,1.00855 0.08858,1.00855 -0.378645,0 -0.548567,-0.169922 -0.548567,-0.548567 z m 17.9916662,0.0194 c 0,-0.291041 0.119062,-0.529166 0.264583,-0.529166 0.145521,0 0.264583,0.238125 0.264583,0.529166 0,0.291042 -0.119062,0.529167 -0.264583,0.529167 -0.145521,0 -0.264583,-0.238125 -0.264583,-0.529167 z m -12.253516,0.09371 c -0.374522,-0.374522 -0.162595,-0.887457 0.366666,-0.887457 0.369877,0 0.520701,0.143682 0.463021,0.441096 -0.09444,0.48696 -0.546101,0.729947 -0.829687,0.446361 z m 16.486849,-0.210384 c 0,-0.226869 0.119062,-0.412489 0.264583,-0.412489 0.145521,0 0.264584,0.112035 0.264584,0.248968 0,0.136933 -0.119063,0.322553 -0.264584,0.41249 -0.145521,0.08994 -0.264583,-0.0221 -0.264583,-0.248969 z M 0.35914678,7.9561718 c -0.324686,-0.324686 -0.181037,-0.611512 0.286632,-0.57232 0.254662,0.02134 0.81319902,0.01994 1.24119502,-0.0031 0.742983,-0.04002 0.754948,-0.05949 0.264583,-0.430382 -0.282475,-0.213653 -0.781481,-0.392246 -1.108903,-0.396875 -0.32742202,-0.0046 -0.59531202,-0.127477 -0.59531202,-0.272997 0,-0.440935 2.11252302,-0.31866 2.28556902,0.132291 0.08376,0.218281 0.318151,0.396875 0.520863,0.396875 0.400134,0 0.458171,0.252387 0.207969,0.904402 -0.118099,0.30776 -0.526543,0.418515 -1.543403,0.418515 -0.760542,0 -1.46217902,-0.07937 -1.55919302,-0.176389 z M 20.820258,7.6033938 c 0,-0.145521 0.178593,-0.264583 0.396875,-0.264583 0.218281,0 0.396875,0.119062 0.396875,0.264583 0,0.145521 -0.178594,0.264584 -0.396875,0.264584 -0.218282,0 -0.396875,-0.119063 -0.396875,-0.264584 z m 3.96875,-0.264583 c 0,-0.352778 0.176388,-0.529167 0.529166,-0.529167 0.352778,0 0.529167,0.176389 0.529167,0.529167 0,0.352778 -0.176389,0.529167 -0.529167,0.529167 -0.352778,0 -0.529166,-0.176389 -0.529166,-0.529167 z m 3.439583,0.297656 c 0,-0.127331 -0.357188,-0.302948 -0.79375,-0.39026 -0.663172,-0.132635 -0.79375,-0.285087 -0.79375,-0.926718 0,-1.018454 0.53838,-1.415842 1.767473,-1.304607 1.010652,0.09147 1.010652,0.09147 0.08461,0.36344 -1.210552,0.355534 -1.437077,1.297232 -0.361507,1.50284 1.051921,0.201088 1.441719,-0.02452 1.264228,-0.731697 -0.217166,-0.865258 0.35841,-1.087826 0.726124,-0.280782 0.469742,1.030973 -0.06012,1.999295 -1.094006,1.999295 -0.439682,0 -0.799422,-0.10418 -0.799422,-0.231511 z m 3.704167,-1.091403 c 0,-0.291042 0.119062,-0.529167 0.264583,-0.529167 0.145521,0 0.264583,0.238125 0.264583,0.529167 0,0.291042 -0.119062,0.529167 -0.264583,0.529167 -0.145521,0 -0.264583,-0.238125 -0.264583,-0.529167 z M 9.1785918,6.0158938 c 0,-0.145521 0.119062,-0.264583 0.264583,-0.264583 0.145521,0 0.264583,0.119062 0.264583,0.264583 0,0.145521 -0.119062,0.264584 -0.264583,0.264584 -0.145521,0 -0.264583,-0.119063 -0.264583,-0.264584 z m 6.6145822,-0.116677 c 0,-0.209693 0.119063,-0.454844 0.264584,-0.544781 0.14552,-0.08994 0.264583,0.08163 0.264583,0.38126 0,0.29963 -0.119063,0.544782 -0.264583,0.544782 -0.145521,0 -0.264584,-0.171568 -0.264584,-0.381261 z M 5.7390078,5.0898518 c 0,-0.220486 0.235186,-0.396875 0.529167,-0.396875 0.293982,0 0.529167,0.176389 0.529167,0.396875 0,0.220487 -0.235185,0.396875 -0.529167,0.396875 -0.293981,0 -0.529167,-0.176388 -0.529167,-0.396875 z M 30.080674,4.9575608 c 0,-0.145521 0.119063,-0.264584 0.264584,-0.264584 0.14552,0 0.264583,0.119063 0.264583,0.264584 0,0.145521 -0.119063,0.264583 -0.264583,0.264583 -0.145521,0 -0.264584,-0.119062 -0.264584,-0.264583 z m 2.645834,0 c 0,-0.145521 0.119062,-0.264584 0.264583,-0.264584 0.145521,0 0.264583,0.119063 0.264583,0.264584 0,0.145521 -0.119062,0.264583 -0.264583,0.264583 -0.145521,0 -0.264583,-0.119062 -0.264583,-0.264583 z M 13.329242,4.7866838 c -0.374522,-0.374522 -0.162595,-0.887457 0.366666,-0.887457 0.369877,0 0.520701,0.143683 0.463021,0.441096 -0.09444,0.48696 -0.546101,0.729947 -0.829687,0.446361 z m -2.827734,-0.622873 c 0,-0.145521 0.238125,-0.264584 0.529166,-0.264584 0.291042,0 0.529167,0.119063 0.529167,0.264584 0,0.145521 -0.238125,0.264583 -0.529167,0.264583 -0.291041,0 -0.529166,-0.119062 -0.529166,-0.264583 z m 15.08125,0 c 0,-0.145521 0.119062,-0.264584 0.264583,-0.264584 0.145521,0 0.264583,0.119063 0.264583,0.264584 0,0.145521 -0.119062,0.264583 -0.264583,0.264583 -0.145521,0 -0.264583,-0.119062 -0.264583,-0.264583 z M 4.2597878,3.7997678 c -0.22416,-0.58415 0.07406,-0.882369 0.478213,-0.478214 0.23863,0.238629 0.239644,0.386537 0.0043,0.621916 -0.235379,0.23538 -0.350125,0.201204 -0.482477,-0.143702 z M 19.232758,3.6540438 c 0,-0.378644 0.169922,-0.548567 0.548567,-0.548567 0.378644,0 0.521127,0.142483 0.459982,0.459983 -0.132824,0.689699 -1.008549,0.766617 -1.008549,0.08858 z m 3.439583,-0.283983 c 0,-0.145521 0.119062,-0.264584 0.264583,-0.264584 0.145521,0 0.264584,0.119063 0.264584,0.264584 0,0.145521 -0.119063,0.264583 -0.264584,0.264583 -0.145521,0 -0.264583,-0.119062 -0.264583,-0.264583 z M 5.7967308,3.0645998 c 0.137329,-0.411986 0.729259,-0.484133 0.750003,-0.09141 0.0077,0.145522 -0.184619,0.305721 -0.427346,0.355999 -0.275886,0.05715 -0.396839,-0.04204 -0.322657,-0.264584 z m -4.291056,-0.48829 c 0,-0.145521 0.238125,-0.264584 0.529167,-0.264584 0.291041,0 0.529166,0.119063 0.529166,0.264584 0,0.145521 -0.238125,0.264583 -0.529166,0.264583 -0.291042,0 -0.529167,-0.119062 -0.529167,-0.264583 z m 26.4583332,0 c 0,-0.145521 0.119062,-0.264584 0.264583,-0.264584 0.145521,0 0.264583,0.119063 0.264583,0.264584 0,0.145521 -0.119062,0.264583 -0.264583,0.264583 -0.145521,0 -0.264583,-0.119062 -0.264583,-0.264583 z m 2.910416,-0.132292 c 0,-0.220486 0.235185,-0.396875 0.529167,-0.396875 0.293981,0 0.529167,0.176389 0.529167,0.396875 0,0.220486 -0.235186,0.396875 -0.529167,0.396875 -0.293982,0 -0.529167,-0.176389 -0.529167,-0.396875 z M 8.5171328,2.3895978 c -1.435599,-0.184519 -1.717373,-1.929959 -0.311561,-1.929959 0.422131,0 0.452623,0.0675 0.17927,0.396875 -0.207702,0.250266 -0.225438,0.396875 -0.04801,0.396875 0.154751,0 0.35495,-0.119062 0.444887,-0.264583 0.242359,-0.392146 0.907464,-0.320959 1.3756612,0.147239 0.372708,0.372707 0.359399,0.460662 -0.140127,0.926041 -0.3035722,0.282821 -0.5866942,0.495165 -0.6291592,0.471877 -0.04246,-0.02329 -0.434396,-0.08825 -0.870959,-0.144365 z m 0.926042,-0.739334 c 0,-0.07276 -0.05953,-0.132292 -0.132292,-0.132292 -0.07276,0 -0.132291,0.05953 -0.132291,0.132292 0,0.07276 0.05953,0.132292 0.132291,0.132292 0.07276,0 0.132292,-0.05953 0.132292,-0.132292 z m 15.5277342,0.490586 c -0.374522,-0.374522 -0.162595,-0.887457 0.366666,-0.887457 0.369877,0 0.520701,0.143682 0.46302,0.441096 -0.09444,0.48696 -0.5461,0.729947 -0.829686,0.446361 z m -7.275868,-0.818273 c 0.132824,-0.689699 1.00855,-0.766617 1.00855,-0.08858 0,0.378645 -0.169922,0.548567 -0.548567,0.548567 -0.378645,0 -0.521128,-0.142483 -0.459983,-0.459983 z m -6.399784,-0.598351 c 0,-0.14552 0.238125,-0.264583 0.529167,-0.264583 0.291042,0 0.529167,0.119063 0.529167,0.264583 0,0.145521 -0.238125,0.264584 -0.529167,0.264584 -0.291042,0 -0.529167,-0.119063 -0.529167,-0.264584 z" style="fill:#000000;fill-opacity:0.45019835" id="path1" sodipodi:nodetypes="sssssssssssssssssssssssssssssssssssssssssssssssssssssssssssssssssssssssssssssssssssssssssssssssssssssssssssssssssssssssssssssssssssssssssssssssssssssssssssssssssssssssssssssssssssssssssssssssssssssssssssssssssssssssscssscssccsssssssssssssssssssssscssssssssssssscssscssccsssssssssssssssssssssssssssssssssssssssssssssssssscssscscccsssssssssssssssssssssscccssscsssccsssssscsscssccsssssssssssssssssssssssssssssssssssssssssssssssssssssscssscssccsssssssssscssscscscscsssccsssssssssssssscssssssssssssssssssssssssssssssssssssssssssssscsssccccccssccscssscscccssssssssssssssssscsssscssssssssssssssssssssss" />
  </g>
</svg>
