<?xml version="1.0" encoding="UTF-8" standalone="no"?>
<svg width="32" height="32" viewBox="0 0 24 24" version="1.1" id="svg2" sodipodi:docname="monument.svg" inkscape:version="1.3.2 (1:1.3.2+202311252150+091e20ef0f)" inkscape:export-filename="monument.png" inkscape:export-xdpi="96" inkscape:export-ydpi="96"
  xmlns:inkscape="http://www.inkscape.org/namespaces/inkscape"
  xmlns:sodipodi="http://sodipodi.sourceforge.net/DTD/sodipodi-0.dtd"
  xmlns="http://www.w3.org/2000/svg"
  xmlns:svg="http://www.w3.org/2000/svg">
  <defs id="defs2" />
  <sodipodi:namedview id="namedview2" pagecolor="#ffffff" bordercolor="#666666" borderopacity="1.0" inkscape:showpageshadow="2" inkscape:pageopacity="0.0" inkscape:pagecheckerboard="0" inkscape:deskcolor="#d1d1d1" showguides="true" inkscape:zoom="25.0625" inkscape:cx="16" inkscape:cy="16" inkscape:window-width="1920" inkscape:window-height="1048" inkscape:window-x="0" inkscape:window-y="0" inkscape:window-maximized="1" inkscape:current-layer="svg2">
    <sodipodi:guide position="3,19.840399" orientation="1,0" id="guide2" inkscape:locked="false" />
  </sodipodi:namedview>
  <rect style="display:none;fill:#ff0000;stroke:#ffffff;stroke-width:4.875;stroke-linecap:round;stroke-linejoin:round;stroke-opacity:1;paint-order:stroke markers fill" id="rect3" width="24" height="24" x="0" y="0" />
  <g fill="none" fill-rule="evenodd" id="g2" transform="translate(0,0.24863673)">
    <path fill="currentColor" d="M 16,17 V 5.236 L 16.888,3.46 A 1.01,1.01 0 0 0 16.11,2.006 L 12.155,1.512 a 1.3,1.3 0 0 0 -0.31,0 L 7.89,2.006 A 1.01,1.01 0 0 0 7.112,3.46 L 8,5.236 V 17 H 6.25 C 5.56,17 5,17.56 5,18.25 V 20 H 4 a 1,1 0 1 0 0,2 h 16 a 1,1 0 1 0 0,-2 H 19 V 18.25 C 19,17.56 18.44,17 17.75,17 Z M 12,3.508 9.527,3.817 9.789,4.342 A 2,2 0 0 1 10,5.236 V 17 h 4 V 5.236 A 2,2 0 0 1 14.211,4.342 L 14.473,3.817 Z M 17,20 V 19 H 7 v 1 z" id="path3" style="fill:none;fill-opacity:1;stroke:#ffffff;stroke-width:2.94975;stroke-dasharray:none;stroke-opacity:1" />
    <path fill="currentColor" d="M 16,17 V 5.236 L 16.888,3.46 A 1.01,1.01 0 0 0 16.11,2.006 L 12.155,1.512 a 1.3,1.3 0 0 0 -0.31,0 L 7.89,2.006 A 1.01,1.01 0 0 0 7.112,3.46 L 8,5.236 V 17 H 6.25 C 5.56,17 5,17.56 5,18.25 V 20 H 4 a 1,1 0 1 0 0,2 h 16 a 1,1 0 1 0 0,-2 H 19 V 18.25 C 19,17.56 18.44,17 17.75,17 Z M 12,3.508 9.527,3.817 9.789,4.342 A 2,2 0 0 1 10,5.236 V 17 h 4 V 5.236 A 2,2 0 0 1 14.211,4.342 L 14.473,3.817 Z M 17,20 V 19 H 7 v 1 z" id="path2" style="fill:#000000;fill-opacity:1" />
  </g>
</svg>
