<?xml version="1.0" encoding="UTF-8" standalone="no"?>
<!-- Created with Inkscape (http://www.inkscape.org/) -->

<svg width="128" height="128" viewBox="0 0 33.866666 33.866666" version="1.1" id="svg1" inkscape:version="1.3.2 (1:1.3.2+202311252150+091e20ef0f)" sodipodi:docname="hydro_rock.svg" inkscape:export-filename="hydro_rock.png" inkscape:export-xdpi="96" inkscape:export-ydpi="96"
  xmlns:inkscape="http://www.inkscape.org/namespaces/inkscape"
  xmlns:sodipodi="http://sodipodi.sourceforge.net/DTD/sodipodi-0.dtd"
  xmlns="http://www.w3.org/2000/svg"
  xmlns:svg="http://www.w3.org/2000/svg">
  <sodipodi:namedview id="namedview1" pagecolor="#ffffff" bordercolor="#666666" borderopacity="1.0" inkscape:showpageshadow="2" inkscape:pageopacity="0.0" inkscape:pagecheckerboard="0" inkscape:deskcolor="#d1d1d1" inkscape:document-units="mm" inkscape:zoom="2.7652076" inkscape:cx="111.38404" inkscape:cy="129.10423" inkscape:window-width="1920" inkscape:window-height="1022" inkscape:window-x="1920" inkscape:window-y="0" inkscape:window-maximized="1" inkscape:current-layer="layer1" />
  <defs id="defs1" />
  <g inkscape:label="Calque 1" inkscape:groupmode="layer" id="layer1">
    <rect style="fill:#cccccc;stroke-width:0;stroke-linecap:round;stroke-linejoin:round;stroke-opacity:0.491331;paint-order:stroke markers fill;fill-opacity:1" id="rect1" width="33.866665" height="33.866665" x="0" y="0" />
    <path d="m -0.00138193,35.548381 c 0,-0.35158 0.07183,-0.36966 0.396875,-0.0999 0.218281,0.18116 0.396875,0.37433 0.396875,0.42928 0,0.0549 -0.178594,0.0999 -0.396875,0.0999 -0.218282,0 -0.396875,-0.19317 -0.396875,-0.42927 z m 1.67212403,-0.10349 c 0.04472,-0.29301 0.240088,-0.67996 0.434156,-0.85989 0.288425,-0.26741 0.315833,-0.23052 0.150105,0.20203 -0.111511,0.29104 -0.20841,0.67799 -0.21533,0.85989 -0.0069,0.1819 -0.111055,0.33073 -0.231409,0.33073 -0.120354,0 -0.182239,-0.23974 -0.137522,-0.53276 z m 2.429669,0.006 c -0.225529,-0.71058 0.0355,-1.0607 0.790784,-1.0607 0.395641,0 0.690157,0.1958 0.795964,0.52917 0.316619,0.99757 2.513542,0.44128 2.513542,-0.63647 0,-0.36624 -0.165348,-0.41483 -0.926042,-0.27212 -0.724927,0.136 -0.926041,0.0873 -0.926041,-0.22428 0,-0.43541 0.518875,-0.70763 1.410702,-0.7401 0.31552,-0.0115 0.424845,-0.081 0.242944,-0.15434 -0.522856,-0.21098 -0.386044,-0.57107 0.264583,-0.69638 0.424229,-0.0817 0.344736,-0.12502 -0.27661,-0.1507 -0.609727,-0.0252 -1.070829,0.16288 -1.533381,0.62543 -0.688391,0.68839 -1.166572,0.85107 -1.166572,0.39687 0,-0.14552 -0.119062,-0.26458 -0.264583,-0.26458 -0.145521,0 -0.264583,0.23813 -0.264583,0.52917 0,0.61605 -0.665794,0.71508 -0.889431,0.13229 -0.192038,-0.50045 -0.62638,-0.5 -1.588209,0.002 -0.987179,0.51485 -1.226527,0.49845 -1.226527,-0.084 0,-0.2636 -0.23812503,-0.73488 -0.52916703,-1.04727 -0.628347,-0.67446 -0.68149,-1.26881 -0.132291,-1.47955 0.503014,-0.19303 0.498477,-1.20295 -0.0084,-1.87312 -0.561803,-0.74277 -0.497739,-1.2965 0.130978,-1.13208 0.72215403,0.18884 1.16555203,-0.44657 0.97532603,-1.3977 -0.11886,-0.5943 -0.0608,-0.79309 0.231642,-0.79309 0.239889,0 0.39026,0.25487 0.39026,0.66146 0,0.38544 0.152091,0.66146 0.364478,0.66146 0.640032,0 0.947518,-0.65604 0.782913,-1.67038 -0.128931,-0.79451 -0.270806,-0.97546 -0.764834,-0.97546 -0.333597,0 -0.977891,0.31247 -1.431764,0.69438 -0.96875703,0.81516 -1.25633403,0.68911 -0.79497003,-0.34845 0.354515,-0.79727 2.05221403,-1.76851 2.83279903,-1.62062 0.308808,0.0585 0.494623,0.37845 0.549496,0.94613 0.07083,0.73274 0.186494,0.85826 0.79375,0.86134 1.117315,0.006 1.901466,0.2897 1.901466,0.68871 0,0.20131 0.138906,0.36601 0.30868,0.36601 0.684276,0 -0.08525,0.33813 -0.894634,0.3931 -1.177475,0.08 -2.85363,1.11258 -2.85363,1.75801 0,0.28123 -0.169388,0.57633 -0.376417,0.65578 -0.652898,0.25054 -0.710782,0.93695 -0.158017,1.87381 0.632135,1.07139 0.642902,1.14014 0.178566,1.14014 -0.195727,0 -0.556371,0.22155 -0.80143,0.49234 -0.433249,0.47873 -0.389068,0.48252 1.598612,0.13687 2.389668,-0.41555 2.944533,-0.7992 2.461432,-1.70188 -0.274733,-0.51334 -0.250892,-0.65863 0.157033,-0.95691 0.264519,-0.19342 0.823203,-0.35167 1.241518,-0.35167 0.856147,0 1.78412,-0.4177 1.78412,-0.80306 0,-0.1404 -0.357187,-0.25528 -0.79375,-0.25528 -0.436562,0 -0.79375,-0.11906 -0.79375,-0.26458 0,-0.29205 1.041814,-0.35584 1.698152,-0.10398 0.230183,0.0883 0.418515,0.32261 0.418515,0.52064 0,0.26293 0.160563,0.30001 0.5953119,0.13747 0.408121,-0.15258 0.569284,-0.39949 0.512536,-0.78522 -0.0919,-0.62464 0.206143,-0.73034 0.691318,-0.24516 0.246945,0.24694 0.3175,0.24694 0.3175,0 0,-0.17462 0.178594,-0.3175 0.396875,-0.3175 0.478418,0 0.511494,0.30871 0.07937,0.74083 -0.246944,0.24695 -0.04116,0.3175 0.926042,0.3175 1.079034,0 1.243542,0.0721 1.243542,0.54479 0,0.32163 -0.116671,0.47267 -0.284832,0.36874 -0.239629,-0.1481 -2.096418,-0.34362 -2.096418,-0.22075 0,0.0223 0.17786,0.38152 0.395245,0.79833 0.663944,1.27306 0.544342,1.41931 -1.160688,1.41931 -1.2124339,0 -1.5969019,0.0983 -1.7287529,0.44187 -0.181688,0.47347 0.241907,0.8704 0.9359199,0.877 0.234354,0.002 0.86472,0.3017 1.400812,0.66551 0.536093,0.3638 1.192972,0.66145 1.459733,0.66145 0.698957,0 1.053194,0.5514 0.892387,1.38907 -0.124606,0.64909 -0.253791,0.7276 -1.197197,0.7276 -1.017611,0 -1.053249,-0.0291 -0.944349,-0.77108 0.107601,-0.73313 0.05527,-0.77976 -1.063509,-0.94753 -0.8954149,-0.13428 -1.2766809,-0.0764 -1.5950449,0.24191 -0.381432,0.38143 -0.380271,0.41837 0.01316,0.41837 0.237338,0 0.500976,0.14883 0.585863,0.33073 0.1232389,0.26408 0.1855529,0.26375 0.3092299,-0.002 0.08519,-0.18281 0.269565,-0.26151 0.409723,-0.17488 0.156828,0.0969 0.135678,0.30106 -0.055,0.53081 -0.233295,0.2811 -1.0490229,0.37332 -3.3023099,0.37332 -2.755626,0 -3.005716,-0.0417 -3.159681,-0.5268 z m 6.2169569,-1.98674 c 0,-0.0728 -0.05953,-0.13229 -0.132292,-0.13229 -0.07276,0 -0.132292,0.0595 -0.132292,0.13229 0,0.0728 0.05953,0.13229 0.132292,0.13229 0.07276,0 0.132292,-0.0595 0.132292,-0.13229 z m -2.3812499,-2.64583 c 0,-0.21829 -0.178594,-0.39688 -0.396875,-0.39688 -0.218282,0 -0.396875,0.17859 -0.396875,0.39688 0,0.21828 0.178593,0.39687 0.396875,0.39687 0.218281,0 0.396875,-0.17859 0.396875,-0.39687 z m 0.79375,0.13229 c 0,-0.14552 -0.05251,-0.26459 -0.116677,-0.26459 -0.06417,0 -0.190261,0.11907 -0.280198,0.26459 -0.08994,0.14552 -0.03743,0.26458 0.116676,0.26458 0.154109,0 0.280199,-0.11906 0.280199,-0.26458 z m 2.6458329,-0.79375 c 0,-0.42838 -0.176389,-0.52917 -0.926042,-0.52917 -0.5953119,0 -0.9260409,0.12599 -0.9260409,0.35278 0,0.53016 0.274045,0.70555 1.1024299,0.70555 0.573264,0 0.749653,-0.12451 0.749653,-0.52916 z m -2.4694439,-0.17639 c -0.09701,-0.097 -0.176389,-0.0176 -0.176389,0.17639 0,0.19402 0.07937,0.2734 0.176389,0.17639 0.09701,-0.097 0.09701,-0.25577 0,-0.35278 z m 5.5356549,5.5342 c 0.316252,-0.68938 0.242346,-2.27059 -0.111643,-2.38858 -0.169804,-0.0566 -0.308735,-0.39065 -0.308735,-0.74232 0,-0.35168 -0.238125,-0.87754 -0.529166,-1.16858 -0.291042,-0.29104 -0.529167,-0.64823 -0.529167,-0.79375 0,-0.47574 1.018608,-0.27739 1.17955,0.22969 0.08628,0.27185 0.376543,0.69307 0.645026,0.93604 0.467875,0.42342 0.484317,0.39656 0.395867,-0.6467 -0.06445,-0.76022 0.0034,-1.05658 0.224929,-0.98273 0.464614,0.15488 1.373644,-1.64395 1.013011,-2.00458 -0.41487,-0.41487 -0.345705,-0.78725 0.113492,-0.61104 0.700422,0.26878 0.473022,-1.04326 -0.264583,-1.52656 -0.912076,-0.59761 -0.831869,-0.97122 0.165675,-0.77171 0.61503,0.123 0.88979,0.0535 1.07148,-0.2712 0.3059,-0.54661 1.01181,-0.57277 1.01181,-0.0375 0,0.5596 0.92678,-0.0322 1.28638,-0.82148 0.30117,-0.66098 0.16086,-0.90055 -0.52742,-0.90055 -0.26167,0 -0.6032,-0.23813 -0.75896,-0.52917 -0.37638,-0.70327 -0.95925,-0.67209 -1.15111,0.0616 -0.11515,0.44035 -0.23086,0.51437 -0.454501,0.29073 -0.203329,-0.20333 -0.567955,-0.22317 -1.131398,-0.0616 -1.146432,0.32879 -1.12706,0.33619 -1.50407,-0.574 -0.277985,-0.67111 -0.44571,-0.78503 -0.964237,-0.65489 -0.485223,0.12179 -0.676501,0.0257 -0.842631,-0.42342 -0.154635,-0.41802 -0.2729,-0.48715 -0.421647,-0.24648 -0.132747,0.21479 0.183067,0.73168 0.88247,1.44432 1.00311,1.02209 1.376712,1.75539 0.890763,1.74837 -0.109141,-0.002 -0.615156,-0.57933 -1.124479,-1.2839 -0.872248,-1.20662 -1.430651,-1.60217 -2.8442709,-2.01473 -0.327422,-0.0956 -0.595313,-0.28579 -0.595313,-0.42274 0,-0.13695 -0.238125,-0.10028 -0.529166,0.0815 -0.593884,0.37088 -0.686231,0.99861 -0.216077,1.46877 0.474862,0.47486 0.0027,0.74579 -0.6209,0.35631 -0.363704,-0.22713 -0.636966,-0.25379 -0.81158,-0.0792 -0.495865,0.49587 0.065,0.84415 1.09432,0.67955 0.973829,-0.15572 1.001963,-0.13767 1.024568,0.65736 0.03273,1.15121 0.157256,1.26615 1.5406929,1.42209 1.24362,0.14017 1.884015,0.64032 1.417369,1.10697 -0.161929,0.16193 -0.571606,0.13879 -1.132247,-0.0639 -0.483179,-0.17472 -1.1311939,-0.31767 -1.4400319,-0.31767 -0.308839,0 -0.741593,-0.25708 -0.961676,-0.5713 -0.337355,-0.48164 -0.465277,-0.51724 -0.815147,-0.22688 -0.228248,0.18943 -0.441884,0.29769 -0.474748,0.24057 -0.03286,-0.0571 -0.19186,-0.34197 -0.353326,-0.63301 -0.216851,-0.39088 -0.510725,-0.50667 -1.124479,-0.44308 -0.692228,0.0717 -0.830905,-0.006 -0.830905,-0.46303 0,-0.40277 0.168725,-0.5491 0.633151,-0.5491 0.348233,0 0.701684,-0.1786 0.785446,-0.39688 0.09277,-0.24175 4.19e-4,-0.39687 -0.236276,-0.39687 -0.213714,0 -0.388571,-0.11907 -0.388571,-0.26459 0,-0.14552 -0.178594,-0.26458 -0.396875,-0.26458 -0.443727,0 -0.495731,-0.22823 -0.169288,-0.74295 0.142667,-0.22495 0.465352,-0.28436 0.92199,-0.16975 0.494708,0.12416 0.714427,0.07 0.742806,-0.1831 0.06833,-0.6094 0.135345,-0.87055 0.351932,-1.37146 0.114836,-0.26558 0.07252,-0.93773 -0.09404,-1.49366 -0.16656,-0.55593 -0.222026,-1.22136 -0.123258,-1.47875 0.128771,-0.33557 0.08528,-0.40969 -0.15373,-0.26198 -0.230179,0.14226 -0.274463,0.50362 -0.143124,1.16789 0.427966,2.16452 0.366477,2.5881 -0.252764,1.74123 -0.313512,-0.42875 -1.332838,-0.26156 -1.063387,0.17442 0.339568,0.54943 -0.210855,0.73798 -0.878097,0.30078 -0.766891,-0.50248 -0.751998,-0.57843 -0.169064,0.86212 0.10309,0.25476 0.0083,0.39688 -0.264583,0.39688 -0.267753,0 -0.425183,-0.22619 -0.425183,-0.61089 0,-0.92209 -0.591778,-1.57006 -1.33774,-1.46476 -0.512661,0.0724 -0.663812,0.26943 -0.729544,0.95117 -0.08843,0.91712 -0.426678,1.05877 -1.17386203,0.49158 -0.346554,-0.26307 -0.46302,-0.73423 -0.46302,-1.87311 0,-1.52163 0,-1.52163 0.926041,-1.34791 0.57853103,0.10853 0.92604203,0.0699 0.92604203,-0.10284 0,-0.15212 0.119062,-0.27658 0.264583,-0.27658 0.145521,0 0.264584,0.16402 0.264584,0.36448 0,0.52997 0.793273,1.10455 1.386251,1.0041 0.281164,-0.0476 0.713462,0.0964 0.960662,0.32014 0.406493,0.36787 0.479061,0.35934 0.759213,-0.0892 0.245151,-0.39255 0.229452,-0.56266 -0.07527,-0.81555 -0.211764,-0.17575 -0.385026,-0.54812 -0.385026,-0.82748 0,-0.69632 -0.548361,-1.22479 -1.116667,-1.07618 -0.258958,0.0677 -0.470833,-0.0193 -0.470833,-0.19334 0,-0.21167 -0.25449,-0.26057 -0.768562,-0.14766 -1.023774,0.22486 -1.351455,-0.31925 -0.554355,-0.92051 0.558618,-0.42136 0.556458,-1.05833 -0.0036,-1.05833 -0.130318,0 -0.559487,-0.32255 -0.953709,-0.71677 -0.68221203,-0.68221 -0.72654003,-0.69178 -0.91947203,-0.19843 -0.169109,0.43242 -0.205787,0.44329 -0.221301,0.0656 -0.01023,-0.24899 0.206736,-0.66571 0.482142,-0.92604 0.419446,-0.39649 0.468891,-0.67946 0.304566,-1.7430303 -0.107894,-0.69834 -0.333227,-1.40676 -0.500738,-1.57427 -0.167512,-0.16752 -0.304566,-0.83499 -0.304566,-1.48329 0,-1.14332 0.01517,-1.16498 0.505204,-0.72151 0.481745,0.43598 0.51375303,0.43027 0.68929503,-0.12281 0.229013,-0.72156 -0.33565803,-1.84825 -0.83102903,-1.65816 -0.213212,0.0818 -0.36347,-0.0324 -0.36347,-0.2763 0,-0.36098 0.164918,-0.34509 1.25134903,0.12061 0.688242,0.29502 1.168529,0.45357 1.067305,0.35235 -0.101223,-0.10122 0.109576,-0.415 0.468443,-0.69729 0.807255,-0.63499 0.835603,-1.3749 0.07314,-1.90896 -0.757596,-0.53064 -0.413717,-0.8583 0.475553,-0.45312 0.879869,0.4009 1.349906,0.0522 1.579534,-1.17184 0.160776,-0.85701 0.209828,-0.88839 1.352982,-0.86544 1.186159,0.0238 1.186159,0.0238 1.007412,0.98198 -0.178746,0.95817 -0.178746,0.95817 0.486517,0.33514 0.775111,-0.72591 1.229742,-0.5649 1.242978,0.44021 0.0052,0.39159 0.166792,0.99598 0.35919,1.34308 0.349814,0.6311 0.349814,0.6311 0.480496,-0.0525 0.07188,-0.37599 -4.63e-4,-0.81727 -0.160752,-0.98061 -0.213125,-0.21718 -0.131471,-0.42775 0.303878,-0.78364 0.7142619,-0.58389 0.7601709,-0.9814 0.1322909,-1.14548 -0.2546609,-0.0665 0.191823,-0.13103 0.992188,-0.14328 1.298801,-0.0199 1.402863,0.0174 0.968191,0.34675 -0.3405,0.25801 -0.43214,0.54194 -0.304608,0.94375 0.161514,0.50889 0.310191,0.55556 1.297888,0.40745 0.907994,-0.13616 1.202937,-0.0706 1.585675,0.35228 0.463561,0.51223 0.48168,0.50649 1.283976,-0.40728 0.563002,-0.64122 0.971254,-0.88566 1.324787,-0.79321 0.40177,0.10506 0.48243,0.0243 0.37732,-0.37761 -0.1128,-0.43137 0.007,-0.51124 0.76758,-0.51124 1.2219,0 1.15142,0.43808 -0.29961,1.86216 -0.91848,0.90141 -1.253286,1.09379 -1.423702,0.81805 -0.159224,-0.25762 -0.354771,-0.28667 -0.685174,-0.10177 -0.311931,0.17457 -0.365223,0.31879 -0.1638,0.44327 0.460646,0.2847 0.353457,1.34451 -0.185294,1.83208 -0.695712,0.62961 -0.839063,0.55063 -0.839063,-0.46228 0,-0.77178 -0.118837,-0.94158 -0.833232,-1.19062 -1.148948,-0.40053 -1.561044,-0.3677 -1.377822,0.10977 0.08447,0.22014 0.03358,0.54756 -0.113105,0.72761 -0.311829,0.38276 -0.607334,2.30278 -0.358739,2.33087 1.426493,0.1612 2.070558,0.072 2.047343,-0.28359 -0.03174,-0.48609 1.158254,-0.70328 1.431438,-0.26126 0.410934,0.6649 2.53853,-1.92602 2.23376,-2.72022 -0.10315,-0.26882 0.0994,-0.48267 0.63336,-0.66882 0.43175,-0.15051 0.86378,-0.52189 0.96008,-0.82528 0.0963,-0.3034 0.34565,-0.55163 0.55412,-0.55163 0.51056,0 0.47701,0.33147 -0.11023,1.08879 -0.48419,0.62445 -0.48159,0.63727 0.25068,1.23491 0.69294,0.56555 0.75536,0.57396 0.98268,0.13229 0.13351,-0.25939 0.18559,-0.63182 0.11574,-0.82762 -0.0831,-0.23286 0.0418,-0.32349 0.36101,-0.26201 0.26841,0.0517 0.60684,0.43183 0.75205,0.84475 0.21835,0.62088 0.17794,0.81372 -0.23358,1.11463 -0.44945,0.32865 -0.45527,0.38011 -0.0601,0.53174 0.24062,0.0923 0.43749,0.39327 0.43749,0.66874 0,0.5971 -0.40948,0.66525 -0.62485,0.10398 -0.21723,-0.56607 -0.55827,-0.49101 -0.93068,0.20485 -0.17712,0.33094 -0.67698,0.83696 -1.1108,1.12448 -0.58017,0.38451 -0.76922,0.69768 -0.71486,1.18422 0.0894,0.79979 1.05712,1.03894 1.68073,0.41533 0.22844,-0.22843 0.64723,-0.41533 0.93064,-0.41533 0.41755,0 0.48382,0.12549 0.3493,0.66145 -0.10229,0.40757 -0.0534,0.66146 0.12725,0.66146 0.1613,0 0.29327,-0.39026 0.29327,-0.86724 0,-0.57037 0.20378,-1.04354 0.59531,-1.38226 0.51609,-0.44649 0.53564,-0.52694 0.14695,-0.60455 -0.80799,-0.16132 0.23417,-1.90845 1.13839,-1.90845 0.86256,0 1.42336,3.23193 0.61464,3.54227 -0.27987,0.1074 -0.35895,0.33625 -0.24272,0.70246 0.0948,0.29874 0.0331,0.71105 -0.13722,0.91623 -0.24218,0.29181 -0.18141,0.60118 0.27896,1.4203003 0.32372,0.57598 0.7211,0.99272 0.88307,0.92608 0.65735,-0.27045 2.01428,-2.4266003 2.01428,-3.2006803 0,-1.56452 -0.30052,-2.4209 -0.89008,-2.53639 -0.55622,-0.10896 -0.55587,-0.11127 0.0223,-0.14674 0.32306,-0.0198 0.85147,-0.39321 1.17423,-0.82978 0.61136,-0.8269 1.54567,-1.07475 1.54567,-0.41002 0,0.21105 -0.19345,0.49199 -0.42989,0.6243 -0.35737,0.2 -0.31275,0.26297 0.26458,0.37334 0.38196,0.073 0.69447,0.0195 0.69447,-0.11888 0,-0.13839 0.25891,-0.46127 0.57535,-0.71751 0.57534,-0.46588 0.57534,-0.46588 -0.018,-1.29918 -0.57563,-0.80839 -1.08649,-1.08595 -1.08649,-0.59029 0,0.13365 -0.38696,0.48295 -0.8599,0.77621 -0.47294,0.29327 -1.13771,0.79312 -1.47727,1.11077 -0.39566,0.37015 -0.70885,0.48608 -0.8721,0.32283 -0.16325,-0.16325 0.0822,-0.51173 0.68352,-0.97036 1.1162,-0.85137 1.13756,-0.99451 0.27679,-1.85528 -0.36381,-0.3638 -0.66322,-0.87523 -0.66536,-1.1365 -0.003,-0.36199 -0.0833,-0.31819 -0.33738,0.18406 -0.47662,0.94205 -1.24622,1.03142 -1.24622,0.14473 0,-0.37959 -0.19229,-0.98364 -0.42731,-1.34232 -0.42205,-0.64413 -0.41735,-0.65215 0.38188,-0.65215 0.53624,0 0.9481,0.19835 1.22105,0.58804 0.22653,0.32342 0.41188,0.4663 0.41188,0.3175 0,-0.1488 -0.14288,-0.41341 -0.3175,-0.58804 -0.24695,-0.24694 -0.1,-0.3175 0.66146,-0.3175 0.97868,0 0.97896,3.2e-4 0.97896,1.14962 0,0.7645 0.15713,1.29182 0.46906,1.57412 0.57308,0.51863 1.21248,0.21046 0.95508,-0.46032 -0.1495,-0.3896 -0.0819,-0.44087 0.38555,-0.2925 0.81544,0.25881 1.22405,-0.0676 0.7613,-0.60812 -0.20564,-0.24022 -0.44779,-0.64511 -0.5381,-0.89978 -0.14208,-0.40062 0.0118,-0.46302 1.14211,-0.46302 1.06377,0 1.27747,0.0752 1.15098,0.40476 -0.10576,0.27562 -0.3346,0.34786 -0.71722,0.22642 -0.49735,-0.15785 -0.52043,-0.12836 -0.20086,0.2567 0.19858,0.23927 0.49707,0.43504 0.66331,0.43504 0.16623,0 0.74654,0.23812 1.28956,0.52917 1.25894,0.67475 1.37101,0.6662 1.73483,-0.1323 0.24308,-0.5335 0.22997,-0.66145 -0.0678,-0.66145 -0.20303,0 -0.42134,0.14882 -0.48513,0.33073 -0.076,0.21667 -0.30865,0.10262 -0.6747,-0.33073 -0.3073,-0.36381 -0.56269,-0.73774 -0.56754,-0.83096 -0.005,-0.0932 0.76511,-0.18111 1.71099,-0.1953 1.9332,-0.029 2.16004,0.24927 1.08199,1.32731 -0.46139,0.4614 -0.65932,0.98772 -0.71559,1.90291 -0.0693,1.12651 0.0135,1.35043 0.75574,2.04411 0.45845,0.42845 0.89953,0.77901 0.98018,0.77901 0.38369,0 0.0768,-0.75901 -0.51482,-1.27345 -0.3638,-0.31633 -0.66145,-0.67789 -0.66145,-0.80347 0,-0.12559 0.8632,-0.30847 1.91822,-0.40641 1.36919,-0.12709 2.06431,-0.32402 2.4286,-0.688 0.50407,-0.50364 0.5014,-0.51334 -0.21566,-0.78597 -1.10539,-0.42027 -1.40062,-0.34439 -2.0145,0.51772 -0.31086,0.43656 -0.79522,0.79375 -1.07635,0.79375 -0.64009,0 -0.64812,-0.28237 -0.027,-0.94909 0.2663,-0.28584 0.69671,-0.84407 0.95647,-1.24052 0.4226,-0.64496 0.42733,-0.72081 0.045,-0.72081 -0.23502,0 -0.4273,-0.11906 -0.4273,-0.26458 0,-0.14552 0.61376,-0.26459 1.36392,-0.26459 1.29225,0 1.34147,0.0248 0.93664,0.47214 -0.39392,0.43528 -0.39196,0.49353 0.0251,0.74608 0.64687,0.39166 1.73061,0.0556 2.03651,-0.63155 0.14365,-0.32267 0.40899,-0.58667 0.58964,-0.58667 0.25449,0 0.26048,0.14923 0.0266,0.66258 -0.3498,0.76772 -0.2145,1.00929 0.42734,0.763 0.32367,-0.12421 0.40925,-0.35439 0.29741,-0.79998 -0.12876,-0.51301 -0.0542,-0.6256 0.41405,-0.6256 0.52953,0 0.5597,0.0959 0.41487,1.31879 -0.15619,1.31879 -0.15619,1.31879 0.60249,0.54267 0.41727,-0.42687 0.83618,-1.02032 0.93091,-1.31879 0.12209,-0.38465 0.39818,-0.54267 0.94816,-0.54267 0.69004,0 0.77592,0.0901 0.77592,0.81405 0,0.81405 0,0.81405 0.68498,0 0.73738,-0.87633 1.96085,-1.13082 1.96085,-0.40786 0,0.31467 0.11139,0.34657 0.49438,0.1416 0.5637,-0.30168 0.85524,-0.13149 0.6575,0.38383 -0.15921,0.41489 0.9251,1.07013 1.23537,0.74654 0.11758,-0.12262 0.25362,-0.51939 0.30233,-0.8817 0.0526,-0.39162 0.29086,-0.69735 0.58744,-0.75392 0.4064,-0.0775 0.47524,0.0286 0.37129,0.57236 -0.19315,1.01039 0.76514,1.15253 1.70426,0.2528 0.73285,-0.70212 0.73285,-0.70212 0.73285,-0.0441 0,0.36192 -0.14585,0.80389 -0.32411,0.98214 -0.25574,0.25575 -0.25574,0.43356 0,0.84308 0.48896,0.78294 0.43158,3.70115 -0.0728,3.70115 -0.21828,0 -0.39687,0.11056 -0.39687,0.24569 0,0.13512 0.17859,0.42428 0.39687,0.64256 0.21828,0.21828 0.39688,0.82131 0.39688,1.34006 0,0.94319 0,0.94319 -0.64218,0.38483 -0.3532,-0.30711 -0.78436,-0.90163 -0.95814,-1.32117 -0.55873,-1.34888 -1.60008,-0.83562 -1.75133,0.8632 -0.14263,1.60203 0.20036,2.0586 0.99226,1.32083 0.83781,-0.78053 1.19145,-0.70922 0.64193,0.12945 -0.83642,1.2765403 -0.92405,2.0929703 -0.37869,3.5282403 0.27872,0.73353 0.49621,1.3633 0.48331,1.39948 -0.0129,0.0362 0.0588,0.50405 0.15925,1.03969 0.12109,0.64549 0.29904,0.92926 0.5277,0.84152 0.23647,-0.0907 0.43635,0.2936 0.63544,1.22193 0.45348,2.11452 0.40515,2.32202 -0.37101,1.59286 -0.66146,-0.62141 -0.66146,-0.62141 -0.66146,0.21846 0,0.46193 -0.007,0.92917 -0.0156,1.03831 -0.009,0.10914 0.25867,0.26319 0.59392,0.34233 0.33525,0.0791 0.64415,0.32362 0.68645,0.54328 0.0597,0.30973 -0.12909,0.37534 -0.84076,0.29225 -0.80894,-0.0944 -0.90138,-0.0448 -0.78008,0.41905 0.0757,0.2894 0.008,0.60618 -0.15003,0.70395 -0.1582,0.0978 -0.28764,0.30438 -0.28764,0.45913 0,0.17399 0.15574,0.15212 0.40809,-0.0573 0.6727,-0.55829 1.13436,0.12194 0.53342,0.78597 -0.46032,0.50865 -0.44969,0.54961 0.35021,1.34952 0.8614,0.86139 1.16577,2.37174 0.47796,2.37174 -0.63574,0 -1.53886,1.06431 -1.3658,1.60957 0.10265,0.3234 0.0175,0.56505 -0.23289,0.66115 -0.67307,0.25828 -0.68891,0.8226 -0.0402,1.43202 0.62172,0.58408 0.62172,0.58408 1.05846,-0.26047 0.40657,-0.78623 0.40621,-0.87829 -0.005,-1.33299 -0.50365,-0.55653 -0.37319,-0.92449 0.39944,-1.12653 0.49298,-0.12892 0.53329,-0.0135 0.53329,1.52725 0,1.25326 -0.1006,1.70532 -0.40553,1.82233 -0.33312,0.12783 -0.38555,0.55809 -0.29362,2.40956 0.0895,1.80171 0.0381,2.25394 -0.25593,2.25394 -0.22969,0 -0.36784,-0.28881 -0.36784,-0.76898 0,-0.63872 -0.0896,-0.74554 -0.52916,-0.6306 -0.43394,0.11348 -0.53481,0.002 -0.5605,-0.62008 -0.0172,-0.41716 -0.0172,-0.84776 0,-0.9569 0.073,-0.46261 -0.42277,-0.11997 -1.22544,0.84687 -0.47294,0.56967 -0.8599,1.2819 -0.8599,1.58273 0,0.43369 -0.16761,0.54696 -0.80936,0.54696 -0.84989,0 -0.85134,-0.164 -0.0103,-1.16428 0.40587,-0.48271 0.38311,-0.4966 -0.56941,-0.34736 -0.5457,0.0855 -0.99036,0.0736 -0.98814,-0.0263 0.01,-0.44956 0.46423,-0.81429 1.31928,-1.05938 0.5091,-0.14593 0.76734,-0.27606 0.57388,-0.28918 -0.24844,-0.0169 -0.30217,-0.24961 -0.18295,-0.79243 0.0967,-0.44041 0.0494,-0.84236 -0.11087,-0.94141 -0.17123,-0.10583 -0.25418,0.064 -0.21393,0.43783 0.0421,0.39144 -0.0743,0.61069 -0.32433,0.61069 -0.24783,0 -0.41501,-0.30758 -0.45848,-0.84351 -0.0522,-0.64407 0.0556,-0.88288 0.45623,-1.01002 0.40595,-0.12884 0.52462,-0.40188 0.52462,-1.20701 0,-0.9241 -0.0716,-1.04051 -0.63982,-1.04051 -0.9114,0 -1.47684,0.26294 -1.47684,0.68674 0,0.39754 -0.79455,1.42993 -1.1005,1.42993 -0.10404,0 -0.12153,-0.41672 -0.0389,-0.92604 0.0827,-0.50932 0.0645,-0.92604 -0.0404,-0.92604 -0.3296,0 -1.1835,1.17037 -1.1927,1.63474 -0.0108,0.54262 -0.70608,1.27567 -1.21002,1.27567 -0.23364,0 -0.31369,-0.17038 -0.21754,-0.46302 0.0837,-0.25466 -0.0969,-0.0761 -0.40129,0.39688 -0.32339,0.50247 -0.775,0.85989 -1.08648,0.85989 -0.63872,0 -0.65485,-0.17306 -0.13263,-1.42289 0.36429,-0.87188 0.36174,-0.95836 -0.0283,-0.95836 -0.30657,0 -0.3729,-0.13193 -0.23281,-0.46302 0.10776,-0.25466 0.18658,-0.68264 0.17516,-0.95107 -0.0165,-0.3884 0.11131,-0.4549 0.62613,-0.32569 0.45485,0.11416 0.6469,0.0527 0.6469,-0.20715 0,-0.60499 -0.73189,-1.03637 -1.45177,-0.8557 -0.76208,0.19127 -0.89197,-0.20996 -0.20187,-0.62361 0.44097,-0.26432 0.44097,-0.29468 0,-0.63763 -0.25467,-0.19805 -0.46302,-0.43626 -0.46302,-0.52936 0,-0.33104 0.99891,-0.16279 1.3183,0.22205 0.2537,0.30569 0.4449,0.32702 0.87383,0.0975 0.5324,-0.28493 0.53404,-0.30484 0.0539,-0.6559 -0.283,-0.20693 -1.14677,-0.36204 -2.01609,-0.36204 -1.52096,0 -1.52096,0 -1.60308,0.93157 -0.10479,1.18884 -0.58529,1.32236 -0.69419,0.19291 -0.13297,-1.37914 -0.84313,-1.1188 -0.84313,0.30909 0,1.31583 -0.19855,2.00601 -0.57709,2.00601 -0.14074,0 -0.23649,-0.56555 -0.21277,-1.25677 0.083,-2.41896 -0.11818,-2.81993 -0.73016,-1.45521 -0.17946,0.40018 -0.73118,1.16639 -1.22605,1.70268 -0.66088,0.7162 -0.80214,1.01253 -0.53205,1.11617 0.61443,0.23578 0.41652,0.81088 -0.58384,1.69653 -0.75812,0.67119 -1.18488,0.84243 -2.09944,0.84243 -0.63135,0 -1.45622,0.11722 -1.83305,0.2605 -0.68514,0.26049 -0.68514,0.26049 0.0179,1.32291 0.90262,1.36395 1.35846,1.38218 1.17635,0.047 -0.0335,-0.24521 0.12338,-0.29945 0.51051,-0.17658 0.65185,0.20689 1.27798,-0.23175 1.62185,-1.13621 0.13177,-0.34657 0.59561,-0.76452 1.03077,-0.92878 0.43516,-0.16425 0.7912,-0.3916 0.7912,-0.50522 0,-0.11361 0.35718,-0.20657 0.79375,-0.20657 0.84576,0 1.85208,0.7926 1.85208,1.45876 0,0.35522 0.11166,0.35377 0.98911,-0.0129 1.86898,-0.7809 3.01151,0.2518 1.31748,1.19084 -0.55164,0.30578 -0.78109,0.32834 -0.92978,0.0914 -0.14885,-0.23716 -0.4076,-0.21276 -1.0517,0.0992 -0.94763,0.45895 -1.11799,1.22076 -0.46582,2.08301 0.44716,0.59119 0.53008,1.43964 0.14071,1.43964 -0.14552,0 -0.26458,-0.11609 -0.26458,-0.25797 0,-0.14552 -0.346,-0.18877 -0.79375,-0.0992 -0.72068,0.14413 -0.79375,0.0948 -0.79375,-0.53578 0,-0.80312 -0.071,-0.82534 -1.01751,-0.31841 -0.38626,0.20687 -0.923,0.44599 -1.19276,0.5314 -0.32043,0.10144 -0.43336,0.30409 -0.32575,0.58453 0.14198,0.37 0.009,0.405 -0.96474,0.25353 -0.6212,-0.0966 -1.26164,-0.35035 -1.4232,-0.56378 -0.41,-0.54161 -0.81017,-0.48361 -0.97354,0.14111 -0.1684,0.64397 -1.51084,0.76151 -1.51084,0.1323 0,-0.21829 0.12757,-0.39688 0.28348,-0.39688 0.15592,0 0.46208,-0.17859 0.68036,-0.39687 0.3049,-0.30491 0.31585,-0.39654 0.0472,-0.3954 -0.82591,0.003 -2.29128,0.5711 -2.73222,1.05834 -0.26265,0.29022 -0.77281,0.52768 -1.13368,0.52768 -0.65613,0 -0.65613,0 0.0435,-0.55035 0.7847,-0.61725 0.71798,-1.06291 -0.12609,-0.84218 -0.43877,0.11474 -0.53518,0.04 -0.45853,-0.35557 0.10947,-0.5649 1.08328,-0.66139 3.72663,-0.36925 0.83675,0.0925 1.52136,0.10449 1.52136,0.0267 0,-0.45418 -1.51929,-1.37307 -2.08988,-1.264 -0.3525,0.0674 -1.00875,-0.001 -1.45833,-0.15277 -0.987,-0.33241 -0.84636,-0.20689 -1.07931,-0.96322 -0.1891,-0.61399 -0.15973,-0.62943 0.92153,-0.4844 1.04219,0.13979 1.07959,0.12369 0.55934,-0.2407 -0.30664,-0.21478 -0.55752,-0.56235 -0.55752,-0.77238 0,-0.70527 -1.48503,-0.45957 -2.08961,0.34573 -0.45678,0.60845 -0.58858,0.66298 -0.8048,0.33295 -0.18111,-0.27646 -0.34204,-0.31119 -0.53728,-0.11595 -0.26596,0.26596 -0.081,2.16011 0.4051,4.14863 0.13861,0.56704 0.0835,0.7276 -0.24986,0.7276 -0.23524,0 -0.42772,-0.116 -0.42772,-0.25779 0,-0.14178 -0.38695,-0.46113 -0.85989,-0.70966 -0.8599,-0.45188 -0.8599,-0.45188 -0.19844,-0.61404 0.81739,-0.20038 0.90576,-0.96559 0.0987,-0.85479 -0.63552,0.0873 -0.96273,-0.4661 -0.60746,-1.02729 0.47918,-0.75695 0.26118,-1.00302 -0.84354,-0.95214 -0.77329,0.0356 -1.1721,-0.0801 -1.3797,-0.40024 -0.40883,-0.63048 -0.003,-0.92309 0.68502,-0.49358 0.56224,0.35112 0.56566,0.34512 0.15608,-0.2746 -0.23029,-0.34847 -0.69704,-0.67478 -1.0372,-0.72513 -0.53764,-0.0796 -0.57301,-0.0368 -0.27061,0.3276 0.29164,0.3514 0.2789,0.44562 -0.0788,0.58288 -0.23468,0.09 -0.42668,0.32959 -0.42668,0.5323 0,0.20271 -0.18381,0.36857 -0.40847,0.36857 -0.22466,0 -0.38915,-0.14883 -0.36553,-0.33073 0.10525,-0.81052 -0.0622,-0.99219 -0.91439,-0.99219 -0.71672,0 -1.03953,0.18996 -1.623207,0.95521 -0.646056,0.84702 -0.668039,0.93599 -0.194097,0.78557 0.545995,-0.1733 1.918194,0.29948 1.918194,0.66089 0,0.11004 -0.50601,0.37117 -1.12448,0.58029 -1.201986,0.40644 -1.356587,0.92247 -0.547584,1.82773 0.240588,0.26921 0.328344,0.65988 0.222874,0.99218 -0.142317,0.44841 -0.392491,0.54813 -1.375071,0.54813 -1.048437,0 -1.174105,-0.0588 -0.988694,-0.46302 z m 1.696289,-0.19844 c 0,-0.0728 -0.05953,-0.13229 -0.132292,-0.13229 -0.07276,0 -0.132291,0.0595 -0.132291,0.13229 0,0.0728 0.05953,0.13229 0.132291,0.13229 0.07276,0 0.132292,-0.0595 0.132292,-0.13229 z m 17.462507,-0.52916 c 0,-0.0728 -0.0595,-0.1323 -0.1323,-0.1323 -0.0728,0 -0.13229,0.0595 -0.13229,0.1323 0,0.0728 0.0595,0.13229 0.13229,0.13229 0.0728,0 0.1323,-0.0595 0.1323,-0.13229 z m 2.19986,-1.45521 c 0.0998,0 0.18139,0.25888 0.18139,0.57528 0,0.57529 0,0.57529 0.61641,-0.004 0.47417,-0.44546 0.62334,-0.88347 0.64646,-1.8982 0.0165,-0.72551 -0.0243,-1.31912 -0.0908,-1.31912 -0.58832,0 -3.2887,2.28179 -3.2887,2.77891 0,0.15964 0.14204,0.4323 0.31565,0.60591 0.24447,0.24447 0.44221,0.19675 0.87695,-0.21167 0.30871,-0.29002 0.64292,-0.52731 0.74268,-0.52731 z m 16.78834,-1.24169 c 0.58898,-0.63552 0.628,-0.80196 0.36107,-1.54014 -0.1646,-0.45519 -0.29927,-1.02752 -0.29927,-1.27185 0,-0.26568 -0.20963,-0.44424 -0.52152,-0.44424 -0.47778,0 -0.5166,0.16631 -0.46302,1.98327 0.0322,1.0908 0.10437,1.98377 0.16045,1.98438 0.0561,6e-4 0.3991,-0.31953 0.76229,-0.71142 z m -14.10471,-1.12128 c 0.0837,-0.13547 0.0312,-0.32109 -0.11668,-0.41249 -0.14789,-0.0914 -0.2689,0.0194 -0.2689,0.2463 0,0.46475 0.15877,0.53318 0.38558,0.16619 z m -15.25073,-1.80576 c -0.0518,-0.581 0.0426,-0.98394 0.24692,-1.05385 0.21427,-0.0733 0.33073,0.15537 0.33073,0.64948 0,0.71436 0.0581,0.75589 0.91677,0.65565 0.88451,-0.10327 1.93913,-0.84505 1.20144,-0.84505 -0.19645,0 -0.27295,-0.20991 -0.19087,-0.52377 0.16948,-0.64809 -1.11447,-1.48253 -2.39036,-1.55348 -0.87679,-0.0488 -1.0737,0.17011 -0.58906,0.65475 0.18472,0.18472 0.10823,0.41799 -0.24058,0.73366 -0.4974,0.45014 -0.45709,1.37165 0.0994,2.27204 0.33034,0.5345 0.69867,-0.0575 0.61563,-0.98943 z m 8.84588,0.75494 c 0.45295,-0.17261 0.72761,-0.47361 0.72761,-0.79738 0,-0.8507 -0.49936,-0.90855 -1.55112,-0.17967 -1.31318,0.91003 -1.43737,0.87342 -1.22861,-0.36219 0.1772,-1.04885 0.1772,-1.04885 -0.65437,-0.63401 -0.76535,0.3818 -0.79868,0.45119 -0.41853,0.87125 0.22717,0.25103 0.41304,0.57205 0.41304,0.71339 0,0.87755 1.03852,1.02636 2.71198,0.38861 z m 13.29531,0.23879 c 0.0899,-0.14552 0.10399,-0.26459 0.0312,-0.26459 -0.0728,0 -0.20587,0.11907 -0.29581,0.26459 -0.0899,0.14552 -0.10399,0.26458 -0.0312,0.26458 0.0728,0 0.20588,-0.11906 0.29581,-0.26458 z m -10.9802,-0.94809 c 0,-0.46724 -0.56959,-0.38587 -0.73312,0.10473 -0.0576,0.1728 0.0838,0.31419 0.31419,0.31419 0.23041,0 0.41893,-0.18852 0.41893,-0.41892 z m 12.75212,-1.43316 c 0.26237,0 0.47704,-0.11907 0.47704,-0.26459 0,-0.14552 0.2311,-0.26458 0.51355,-0.26458 0.28246,0 0.58714,0.11906 0.67708,0.26458 0.0899,0.14552 0.52659,0.26459 0.97034,0.26459 0.73815,0 0.79202,-0.0589 0.63299,-0.69257 -0.11892,-0.47382 -0.0315,-0.84989 0.27691,-1.19063 0.54398,-0.60109 1.28561,-0.67143 1.06679,-0.10118 -0.0917,0.23903 -10e-4,0.39688 0.22696,0.39688 0.2086,0 0.51816,0.25952 0.68791,0.57671 0.30865,0.57672 0.30865,0.57672 0.83152,-0.14106 0.41388,-0.56816 0.59967,-0.65405 0.89129,-0.41203 0.2942,0.24416 0.36841,0.19784 0.36841,-0.22993 0,-0.35732 -0.26428,-0.62781 -0.79375,-0.81238 -0.48192,-0.168 -0.79375,-0.17817 -0.79375,-0.0259 0,0.13795 -0.11906,0.25082 -0.26458,0.25082 -0.42343,0 -0.30658,-0.669 0.23771,-1.36096 0.403,-0.51233 0.44005,-0.72371 0.1874,-1.06922 -0.22059,-0.30168 -0.44346,-0.35872 -0.74414,-0.19044 -0.23609,0.13211 -0.5883,0.17234 -0.78271,0.0894 -0.63281,-0.27 -1.57404,-1.67346 -1.62582,-2.42423 -0.0427,-0.61905 0.0523,-0.73308 0.61089,-0.73308 0.47896,0 0.6842,-0.15977 0.74388,-0.57905 0.0513,-0.36073 0.30072,-0.61011 0.66145,-0.66146 0.46103,-0.0656 0.63626,0.10633 0.85977,0.84363 0.28072,0.92604 0.28072,0.92604 0.30719,-0.35548 0.02,-0.96574 0.158,-1.37364 0.56022,-1.65537 0.42749,-0.29943 0.49033,-0.51833 0.31567,-1.09973 -0.3826,-1.27356 -0.58686,-1.65171 -0.8968,-1.66023 -0.16633,-0.005 -0.51634,-0.30223 -0.77779,-0.66146 -0.40818,-0.56083 -0.41753,-0.65315 -0.0661,-0.65315 0.39384,0 0.59278,-1.05117 0.26162,-1.38233 -0.31397,-0.31397 -1.22729,0.16168 -1.45364,0.75704 -0.13076,0.34391 -0.41928,0.62529 -0.64116,0.62529 -0.48802,0 -0.4998,0.11745 -0.0793,0.79074 0.25788,0.41294 0.25424,0.58789 -0.0178,0.85631 -0.27758,0.27385 -0.41325,0.24069 -0.72098,-0.17626 -0.34481,-0.46718 -0.37906,-0.37773 -0.37906,0.98994 0,1.18495 -0.10539,1.56936 -0.49737,1.81415 -0.45143,0.28192 -0.46389,0.39075 -0.13493,1.17808 0.44171,1.05715 0.24169,1.69079 -0.53372,1.69079 -0.57794,0 -1.21523,0.44402 -1.21523,0.84667 0,0.40639 1.03431,0.20787 1.30957,-0.25135 0.26432,-0.44098 0.29468,-0.44098 0.63763,0 0.19805,0.25466 0.53687,0.46302 0.75294,0.46302 0.21606,0 0.59766,0.22632 0.84799,0.50293 0.3934,0.4347 0.41357,0.65902 0.14868,1.65364 -0.16855,0.6329 -0.45588,1.32931 -0.6385,1.54759 -0.18263,0.21828 -0.40594,0.60524 -0.49625,0.8599 -0.0903,0.25466 -0.29503,0.46302 -0.45492,0.46302 -0.35676,0 -0.0801,-1.01676 0.43769,-1.60833 0.40934,-0.46771 0.49244,-1.30209 0.12968,-1.30209 -0.12974,0 -0.31061,-0.29765 -0.40191,-0.66145 -0.16102,-0.64154 -0.58934,-0.80876 -1.80958,-0.7065 -0.25467,0.0213 -0.46302,-0.13839 -0.46302,-0.35496 0,-0.21656 -0.21537,-0.39375 -0.4786,-0.39375 -0.26323,0 -0.68658,-0.15208 -0.94079,-0.33796 -0.41233,-0.30151 -0.42665,-0.47082 -0.13273,-1.56975 0.21034,-0.78644 0.50305,-1.27719 0.80959,-1.35735 0.31278,-0.0818 0.42332,-0.27359 0.31714,-0.55029 -0.0896,-0.2336 -0.0248,-0.5912 0.14405,-0.79468 0.21022,-0.2533 0.21956,-0.42401 0.0296,-0.54141 -0.44883,-0.27739 -0.31821,-0.6694 0.22305,-0.6694 0.31319,0 0.56261,0.24754 0.6665,0.66146 0.21024,0.83767 0.62723,0.85186 0.83391,0.0284 0.11888,-0.47366 0.0187,-3.84916 -0.12847,-4.32786 -0.0632,-0.20573 -0.64276,-0.0107 -0.98494,0.33149 -0.35379,0.35379 -0.3517,0.41526 0.0189,0.55748 0.2291,0.0879 0.41654,0.32569 0.41654,0.5284 0,0.40276 -1.02381,0.47778 -2.71198,0.19875 -1.08804,-0.17984 -1.39407,-0.88851 -0.38369,-0.88851 0.84157,0 2.83108,-1.33954 2.83108,-1.90616 0,-0.27535 -0.26978,-0.53272 -0.66146,-0.63103 -0.3638,-0.0913 -0.66145,-0.2474703 -0.66145,-0.3470403 0,-0.24324 2.36076,-0.86383 2.63689,-0.69318 0.11994,0.0741 0.29838,-0.0729 0.39653,-0.32672 0.1427,-0.36905 0.27364,-0.25628 0.65363,0.56294 0.50648,1.0919103 0.644,1.0512103 0.92821,-0.27473 0.0988,-0.46079 0.35089,-0.90353 0.56028,-0.98388 0.58031,-0.22269 0.49159,-1.48562 -0.10436,-1.48562 -0.26679,0 -0.56952,0.0845 -0.67273,0.18766 -0.10322,0.10321 -0.67253,0.15265 -1.26514,0.10986 -0.91133,-0.0658 -1.21361,0.0542 -1.96039,0.77797 -0.53335,0.51694 -1.26939,0.91866 -1.85903,1.01462 -0.53685,0.0874 -1.05966,0.33744 -1.16178,0.55572 -0.10213,0.21828 -0.45454,0.9539303 -0.78315,1.6347703 -0.52296,1.08353 -0.55858,1.35572 -0.28561,2.18281 0.17152,0.51971 0.42578,0.94492 0.56503,0.94492 0.15116,0 0.18295,0.55972 0.0789,1.38907 -0.17427,1.38906 -0.17427,1.38906 0.86194,0.39687 1.32717,-1.27079 2.00129,-1.30096 0.89417,-0.04 -0.76832,0.87507 -0.79927,0.97903 -0.38228,1.28394 0.41399,0.30271 0.38107,0.3855 -0.37574,0.94504 -0.63281,0.46785 -0.79416,0.75395 -0.68054,1.20667 0.0996,0.39694 -0.0359,0.77822 -0.40922,1.15158 -0.5975,0.5975 -0.54659,0.81939 0.48957,2.13341 0.51326,0.6509 0.53387,0.65403 1.30512,0.19844 0.94041,-0.55551 1.09886,-0.57148 1.09886,-0.11074 0,0.19369 -0.29619,0.51068 -0.6582,0.70443 -0.49171,0.26315 -0.58724,0.43775 -0.37766,0.69028 0.46278,0.55761 1.39779,0.54409 1.87298,-0.0271 0.5895,-0.70857 0.93326,-0.30692 0.47314,0.55282 -0.20143,0.37638 -0.37028,1.11844 -0.37523,1.64903 -0.0103,1.10159 -0.73357,1.48209 -1.31246,0.69041 -0.30926,-0.42294 -0.37873,-0.3917 -0.83082,0.37362 -0.27134,0.45934 -0.57285,0.83516 -0.67003,0.83516 -0.0972,0 -0.23319,0.29551 -0.30223,0.6567 -0.12554,0.65669 -0.12554,0.65669 0.94732,-0.1323 0.59007,-0.43394 1.28753,-0.78898 1.5499,-0.78898 z m 2.85829,-10.80713 c 0,-0.13076 0.4678,-0.31255 1.03956,-0.40397 0.57176,-0.0914 1.2181,-0.34477 1.43631,-0.56299 0.56388,-0.56387 0.69913,-0.49785 0.69913,0.34129 0,0.71869 -0.0416,0.73968 -1.5875,0.80073 -0.87312,0.0345 -1.5875,-0.0443 -1.5875,-0.17506 z m -0.26458,-0.96004 c 0,-0.42348 1.29216,-1.19742 1.99922,-1.19742 0.31611,0 0.20154,0.22088 -0.41172,0.79375 -0.91768,0.85725 -1.5875,1.02757 -1.5875,0.40367 z m -29.17122,12.1067 c 1.38816,-0.4485 1.38816,-0.4485 0.54341,-1.32006 -0.90731,-0.93611 -2.02913,-1.15413 -2.57211,-0.49988 -0.25363,0.3056 -0.11826,0.40382 0.76135,0.55242 1.35075,0.22821 1.37004,0.54776 0.0459,0.75951 -0.56319,0.0901 -1.1483,0.31363 -1.30025,0.49684 -0.43596,0.52562 0.911,0.53159 2.52175,0.0112 z m 12.50247,-1.43199 c 0,-0.1575 -0.2865,-0.62685 -0.63667,-1.043 -0.51723,-0.61469 -0.69222,-0.6897 -0.93279,-0.39982 -0.22609,0.27241 -0.19072,0.39726 0.14951,0.52782 0.38798,0.14888 0.35089,0.26991 -0.28673,0.93544 -0.40281,0.42044 -0.65957,0.88224 -0.57059,1.02622 0.199,0.32198 2.27727,-0.63322 2.27727,-1.04666 z m -3.87928,-0.24962 c 0.20966,-0.29933 0.32095,-0.77466 0.2473,-1.05629 -0.13923,-0.53239 0.30133,-0.71336 0.59194,-0.24315 0.0914,0.14789 0.2828,0.19683 0.42534,0.10874 0.16408,-0.10142 0.14902,-0.29286 -0.0411,-0.5219 -0.35106,-0.423 -0.12412,-0.91407 0.42243,-0.91407 0.61622,0 0.43702,-0.52106 -0.2719,-0.7906 -0.35924,-0.13658 -0.80459,-0.49082 -0.98969,-0.7872 -0.18509,-0.29638 -0.47945,-0.53887 -0.65414,-0.53887 -0.17469,0 -0.3912,-0.11906 -0.48114,-0.26458 -0.35882,-0.58059 0.89224,-0.21263 2.24896,0.66146 0.79055,0.50932 1.61997,0.92242 1.84316,0.91799 0.3292,-0.007 0.31839,-0.059 -0.0572,-0.27773 -0.59997,-0.34945 -0.62834,-1.15719 -0.0326,-0.92859 0.45329,0.17395 1.15709,-0.25335 1.15709,-0.70251 0,-0.15308 -0.15979,-0.13197 -0.37917,0.0501 -0.29766,0.24703 -0.52475,0.21929 -1.05641,-0.12906 -0.63741,-0.41765 -1.21156,-0.40831 -2.3763,0.0386 -0.56586,0.21714 -0.54574,-0.40713 0.0266,-0.82564 0.3981,-0.2911 0.35558,-0.34794 -0.38136,-0.5098 -0.45618,-0.1002 -1.05925,-0.0592 -1.34015,0.0912 -0.62508,0.33453 -1.88579,-0.16917 -1.92038,-0.76727 -0.0204,-0.35278 -0.0387,-0.35278 -0.16479,0 -0.078,0.21828 -0.33651,0.55093 -0.57443,0.73923 -0.33487,0.26503 -0.43258,0.81361 -0.43258,2.42849 0,1.94033 0.0312,2.0579 0.44635,1.68224 0.24549,-0.22213 0.56434,-0.33096 0.70855,-0.24183 0.14421,0.0891 0.34015,-0.0835 0.43541,-0.38365 0.1908,-0.60118 -0.25891,-1.31407 -0.82896,-1.31407 -0.20046,0 -0.36448,-0.13394 -0.36448,-0.29765 0,-0.18836 0.28602,-0.24046 0.77896,-0.14187 0.62119,0.12424 0.81236,0.0505 0.94387,-0.3638 0.30377,-0.95709 0.65842,-0.5328 0.65842,0.78771 0,0.71901 0.11906,1.38088 0.26459,1.47082 0.14552,0.0899 0.26458,0.46689 0.26458,0.83767 0,0.50306 -0.10511,0.63382 -0.41418,0.51522 -0.32822,-0.12595 -0.37573,-0.0357 -0.22892,0.43471 0.10189,0.32651 0.31459,0.67647 0.47266,0.7777 0.15807,0.10123 0.18526,0.27983 0.0604,0.39688 -0.12485,0.11705 -0.28015,0.064 -0.34512,-0.11791 -0.065,-0.1819 -0.34213,-0.33073 -0.61592,-0.33073 -0.51474,0 -1.15506,-0.86068 -0.8599,-1.15583 0.0919,-0.0919 -0.002,-0.16332 -0.20775,-0.15872 -0.3561,0.008 -1.99788,1.28361 -1.79441,1.39427 1.62483,0.88368 2.48668,1.21692 2.5621,0.99067 0.14396,-0.4319 0.84186,-0.3245 0.84186,0.12955 0,0.52279 0.85576,0.10477 1.41239,-0.68993 z m 22.92928,0.84531 c 0,-0.12771 -0.1786,-0.38041 -0.39688,-0.56157 -0.32186,-0.26712 -0.39687,-0.25658 -0.39687,0.0558 0,0.21185 0.0794,0.46455 0.17639,0.56156 0.25127,0.25128 0.61736,0.21819 0.61736,-0.0558 z m -21.82813,-0.56157 c 0.0899,-0.14552 0.0374,-0.26458 -0.11667,-0.26458 -0.15411,0 -0.2802,0.11906 -0.2802,0.26458 0,0.14552 0.0525,0.26459 0.11668,0.26459 0.0642,0 0.19026,-0.11907 0.28019,-0.26459 z m 5.70956,-0.46302 c 0.20626,-0.40018 0.49427,-0.82596 0.64002,-0.94618 0.17168,-0.1416 0.14686,-0.2664 -0.0705,-0.35435 -0.1845,-0.0747 -0.53212,-0.33244 -0.77249,-0.57281 -0.31876,-0.31877 -0.46665,-0.34817 -0.54649,-0.10867 -0.14405,0.43217 -0.59452,0.42349 -0.59452,-0.0115 0,-0.18691 -0.35719,-0.55083 -0.79375,-0.80871 -0.65402,-0.38634 -0.79375,-0.40137 -0.79375,-0.0853 0,0.21094 -0.16935,0.44851 -0.37634,0.52794 -0.23148,0.0888 -0.32103,0.35591 -0.23265,0.69389 0.18519,0.70814 0.5769,0.94373 0.94954,0.57109 0.49626,-0.49626 0.71778,-0.33217 0.71778,0.5317 0,0.64243 0.0755,0.76347 0.3396,0.5443 0.41065,-0.34081 1.12859,0.0325 0.86931,0.45205 -0.1,0.16179 -0.0758,0.29417 0.0537,0.29417 0.12952,0 0.40425,-0.32743 0.61051,-0.72761 z m 9.2394,0.46302 c 0,-0.14552 -0.11906,-0.26458 -0.26458,-0.26458 -0.14552,0 -0.26458,0.11906 -0.26458,0.26458 0,0.14552 0.11906,0.26459 0.26458,0.26459 0.14552,0 0.26458,-0.11907 0.26458,-0.26459 z m -27.60486,-0.44097 c -0.097,-0.097 -0.17639,-0.0176 -0.17639,0.17639 0,0.19403 0.0794,0.2734 0.17639,0.17639 0.097,-0.097 0.097,-0.25576 0,-0.35278 z m 5.18142,-0.60217 c 0.40111,-0.20106 0.72761,-0.58491 0.72761,-0.85542 0,-0.56897 -1.43229,-3.19949 -1.99749,-3.66857 -0.21107,-0.17517 -0.38376,-0.40486 -0.38376,-0.51042 0,-0.36542 1.65981,-0.23726 2.29202,0.17697 0.74009,0.48493 0.7572,0.47388 0.96586,-0.62392 0.11694,-0.61522 0.0508,-0.87744 -0.25045,-0.99305 -0.51291,-0.19682 -0.89076,0.0245 -0.89076,0.52171 0,0.20969 -0.1786,0.38126 -0.39688,0.38126 -0.21828,0 -0.39687,-0.11906 -0.39687,-0.26458 0,-0.46017 -0.95675,-0.28622 -1.45521,0.26458 -0.26339,0.29104 -0.73964,0.52917 -1.05834,0.52917 -0.31869,0 -0.79494,-0.23813 -1.05833,-0.52917 -0.46325,-0.51189 -1.984377,-0.75265 -1.984377,-0.31408 0,0.34839 1.375257,1.49255 2.461957,2.04823 0.55371,0.28315 1.24909,0.77208 1.5453,1.08652 0.64322,0.68281 0.55617,1.58287 -0.14129,1.461 -0.40243,-0.0703 -0.36238,0.0709 0.24647,0.86913 0.39983,0.5242 0.79895,0.91534 0.88695,0.86921 0.088,-0.0461 0.48741,-0.24798 0.88759,-0.44857 z m 8.04775,0.073 c -0.097,-0.097 -0.17639,-0.0176 -0.17639,0.17639 0,0.19403 0.0794,0.27341 0.17639,0.17639 0.097,-0.097 0.097,-0.25576 0,-0.35278 z m 23.10694,-1.27881 c 0,-0.0728 -0.0595,-0.1323 -0.13229,-0.1323 -0.0728,0 -0.13229,0.0595 -0.13229,0.1323 0,0.0728 0.0595,0.13229 0.13229,0.13229 0.0728,0 0.13229,-0.0595 0.13229,-0.13229 z m -16.93333,-0.66146 c 0,-0.14552 0.1649,-0.26459 0.36644,-0.26459 0.40272,0 1.22106,-1.10369 1.22106,-1.64683 0,-0.1884 0.24933,-0.49825 0.55407,-0.68857 0.50705,-0.31666 0.51882,-0.38497 0.13869,-0.80501 -0.29944,-0.33087 -0.69309,-0.42657 -1.4103,-0.34284 -0.92667,0.10818 -0.96826,0.084 -0.60642,-0.35195 0.35324,-0.42563 0.28319,-0.5588 -0.77194,-1.46754 -0.63824,-0.54969 -1.32073,-0.93793 -1.51664,-0.86275 -0.24242,0.093 -0.35621,-0.0837 -0.35621,-0.55307 0,-0.71075 0.59711,-0.95741 0.94704,-0.39121 0.12449,0.20142 0.2687,0.14813 0.44327,-0.1638 0.1788,-0.3195 0.16165,-0.52237 -0.0555,-0.65657 -0.21581,-0.13338 -0.0183,-0.50805 0.63068,-1.19613 0.60246,-0.6388 0.94493,-0.85265 0.94493,-0.59008 0,0.22651 0.14537,0.4603 0.32304,0.51952 0.24623,0.0821 0.22698,0.35471 -0.0809,1.14653 -0.36345,0.9346 -0.36268,1.11252 0.008,1.77309 0.36495,0.65092 0.36663,0.76306 0.0148,0.98814 -0.22939,0.14674 -0.26587,0.2556 -0.0865,0.25794 0.17074,0.002 0.68333,0.31782 1.13909,0.70132 0.72265,0.60807 0.9148,0.65803 1.50195,0.3905 0.3703,-0.16872 0.73445,-0.54068 0.80922,-0.82658 0.0748,-0.2859 0.25027,-0.44916 0.39002,-0.36279 0.34648,0.21414 1.56396,-0.965 1.35144,-1.30886 -0.0935,-0.15137 -0.1606,-0.93773 -0.149,-1.74748 0.0116,-0.80975 -0.0322,-1.17461 -0.0973,-0.81081 -0.0651,0.3638 -0.22384,0.89958 -0.35266,1.19062 -0.12883,0.29105 -0.33968,0.87892 -0.46856,1.30639 -0.12887,0.42746 -0.3757,0.82434 -0.54851,0.88194 -0.39464,0.13155 -0.41402,-0.79204 -0.0248,-1.18126 0.15917,-0.15917 0.24847,-0.5019 0.19844,-0.76163 -0.087,-0.45165 -0.11182,-0.45137 -0.56961,0.006 -0.46181,0.46182 -0.50602,0.45244 -1.25677,-0.26683 -0.81311,-0.77901 -1.02724,-1.32786 -0.4284,-1.09807 0.43047,0.16519 1.05208,-0.7514 1.1758,-1.73378 0.14738,-1.17023 -0.65621,-1.261 -1.54313,-0.17431 -0.40448,0.4956 -0.82323,0.81328 -0.93055,0.70596 -0.10732,-0.10732 0.008,-0.41927 0.25565,-0.69322 0.42469,-0.46928 0.42459,-0.50815 -0.002,-0.67175 -0.24889,-0.0955 -0.5755,-0.0507 -0.72579,0.0996 -0.26349,0.26348 -1.22576,0.39012 -1.22576,0.16131 0,-0.0616 0.36692,-0.47885 0.81537,-0.92731 0.95899,-0.95899 0.89749,-1.4742903 -0.17596,-1.4742903 -0.67943,0 -0.81916,0.1423703 -1.16858,1.1906303 -0.21828,0.65484 -0.54989,1.45851 -0.73691,1.78593 -0.37024,0.64819 -0.99691,0.82908 -0.76331,0.22034 0.0791,-0.20624 -0.0211,-0.4383 -0.2228,-0.51569 -0.25083,-0.0962 -0.31546,-0.007 -0.20456,0.28181 0.13253,0.34535 0.0213,0.39526 -0.60878,0.27327 -0.48875,-0.0946 -0.92925,-0.007 -1.20346,0.23887 -0.39953,0.35851 -0.39463,0.46658 0.0643,1.41634 0.27323,0.56552 0.42537,1.21433 0.33808,1.4418 -0.0876,0.22832 -0.0215,0.41358 0.14769,0.41358 0.16851,0 0.47871,0.41242 0.68932,0.9165 0.21062,0.50407 0.63985,1.05399 0.95386,1.22204 0.48252,0.25824 0.63777,0.21691 1.00275,-0.26696 0.47468,-0.62931 0.80846,-0.48965 0.80846,0.33827 0,0.29379 0.24523,0.7952 0.54496,1.11425 0.54496,0.58008 0.54496,0.58008 -0.46013,1.40856 -0.87144,0.71831 -0.96047,0.88972 -0.66957,1.28905 0.18453,0.25332 0.40548,0.66894 0.49098,0.9236 0.16304,0.48557 1.15209,0.65592 1.15209,0.19844 z m 1.5875,-7.14375 c 0,-0.34412 0.17639,-0.52917 0.5044,-0.52917 0.37413,0 0.46865,0.13666 0.36601,0.52917 -0.0761,0.29104 -0.30309,0.52916 -0.5044,0.52916 -0.2013,0 -0.36601,-0.23812 -0.36601,-0.52916 z m -3.70417,-1.7198 c 0,-0.21828 0.11906,-0.39687 0.26459,-0.39687 0.14552,0 0.26458,0.17859 0.26458,0.39687 0,0.21829 -0.11906,0.39688 -0.26458,0.39688 -0.14553,0 -0.26459,-0.17859 -0.26459,-0.39688 z m 5.09685,8.7974 c 0.14255,-0.41405 -0.3137,-1.78594 -0.59396,-1.78594 -0.37684,0 -0.50655,1.10969 -0.18911,1.61799 0.36158,0.57898 0.62231,0.6349 0.78307,0.16795 z m -4.83226,-0.33073 c 0,-0.0728 -0.0595,-0.13229 -0.1323,-0.13229 -0.0728,0 -0.13229,0.0595 -0.13229,0.13229 0,0.0728 0.0595,0.13229 0.13229,0.13229 0.0728,0 0.1323,-0.0595 0.1323,-0.13229 z m 7.53344,-0.12067 c 0.086,-0.13912 -0.14512,-0.45047 -0.51356,-0.69188 -0.36843,-0.24141 -0.66988,-0.5443 -0.66988,-0.67309 0,-0.38179 0.76063,-0.26771 1.52603,0.22887 0.71366,0.46302 0.71366,0.46302 -0.0755,-0.65311 -0.90814,-1.28447 -1.45057,-1.61271 -1.45057,-0.87777 0,0.27667 -0.22759,0.57527 -0.50574,0.66355 -0.46297,0.14694 -0.56551,0.7949 -0.32569,2.05796 0.0552,0.29066 1.83123,0.2426 2.01487,-0.0545 z m -19.03106,-1.05093 c -0.0954,-0.15442 -0.43478,-0.41662 -0.7541,-0.58268 -0.55352,-0.28784 -0.55073,-0.26946 0.0599,0.39441 0.60931,0.66247 1.0634,0.78562 0.69422,0.18827 z m -7.884438,-1.19538 c 0.03565,-0.50089 -0.05364,-0.98393 -0.198438,-1.07342 -0.144793,-0.0895 -0.263261,-0.51286 -0.263261,-0.94084 0,-0.80474 -0.443471,-1.02258 -0.98312,-0.48293 -0.217216,0.21722 -0.456444,0.18227 -0.905538,-0.13229 -0.832478,-0.58309 -0.88007,-0.55823 -0.955454,0.49908 -0.03629,0.50903 0.053,0.92551 0.198437,0.92551 0.145434,0 0.264425,-0.11907 0.264425,-0.26459 0,-0.44845 0.916894,-0.29242 1.366365,0.23252 0.234098,0.27341 0.58798,0.55171 0.786405,0.61844 0.287591,0.0967 0.294962,0.2011 0.03634,0.5146 -0.248691,0.30147 -0.25178,0.46594 -0.01323,0.70449 0.483366,0.48336 0.597212,0.38087 0.667069,-0.60057 z m 17.391868,-1.53562 c -0.30518,-1.45679 -1.15225,-3.16375 -1.51108,-3.04503 -0.18436,0.061 -0.51379,0.45853 -0.73207,0.88343 -0.21828,0.42489 -0.54736,0.86868 -0.73129,0.98618 -0.47613,0.30418 0.13005,0.86099 1.19102,1.09402 0.45464,0.0999 0.96849,0.3525 1.14189,0.56143 0.539,0.64945 0.83219,0.43006 0.64153,-0.48003 z m 9.92769,0.46302 c 0,-0.0728 -0.0595,-0.13229 -0.1323,-0.13229 -0.0728,0 -0.13229,0.0595 -0.13229,0.13229 0,0.0728 0.0595,0.13229 0.13229,0.13229 0.0728,0 0.1323,-0.0595 0.1323,-0.13229 z m -32.182126,-1.58746 c -0.01938,-0.72763 -0.121419,-1.53132 -0.226745,-1.78598 -0.153665,-0.37154 -0.05522,-0.46302 0.498265,-0.46302 0.379371,0 0.689766,0.11906 0.689766,0.26458 0,0.14552 0.252703,0.26459 0.561563,0.26459 0.451008,0 0.501117,-0.0728 0.254528,-0.36996 -0.347597,-0.41883 -0.204513,-1.60528 0.261277,-2.16652 0.250821,-0.30222 0.202639,-0.37394 -0.251221,-0.37394 -0.30886,0 -0.561564,-0.13294 -0.561564,-0.29543 0,-0.17177 0.27449,-0.24295 0.65578,-0.17007 0.768321,0.14688 1.498377,-0.73843 1.393584,-1.68994 -0.04058,-0.36843 0.135625,-0.69559 0.469078,-0.87097 0.696702,-0.36642 1.733284,-1.4163303 1.648746,-1.6699403 -0.03638,-0.10915 0.307007,-0.37704 0.763089,-0.59532 0.86281,-0.41295 1.61438,-1.85224 1.26358,-2.41984 -0.10411,-0.16845 -0.0223,-0.43703 0.18187,-0.59686 0.20413,-0.15982 0.38306,-0.43942 0.39761,-0.62132 0.0145,-0.1819 0.0443,-0.50932 0.0661,-0.7276 0.0218,-0.21828 0.29627,-0.39688 0.60987,-0.39688 0.55693,0 0.55884,-0.0125 0.0823,-0.53915 -0.44655,-0.49343 -0.50901,-0.50148 -0.73651,-0.095 -0.13672,0.2443 -0.82084,1.01344 -1.52026,1.70919 -1.003783,0.99851 -1.289237,1.47734 -1.355024,2.27295 -0.06829,0.82592 -0.214527,1.0538 -0.809747,1.26186 -0.623431,0.21792 -0.837982,0.14701 -1.513536,-0.50021 -0.665436,-0.63753 -0.812576,-0.68783 -0.951687,-0.32531 -0.0905,0.23585 -0.391677,0.5009 -0.669275,0.58901 -0.314354,0.0998 -0.504725,0.40295 -0.504725,0.80382 0,0.38401 -0.153788,0.64363 -0.38126,0.64363 -0.557344,0 -0.640681,-0.27388 -0.442804,-1.45521 0.14303,-0.8539 0.278077,-1.04457 0.699107,-0.98708 0.294821,0.0403 0.666684,-0.16117 0.854804,-0.46302 0.267572,-0.42934 0.267572,-0.53393 0,-0.53253 -0.584615,0.003 -1.915383,1.02902 -1.917973,1.47867 -0.0015,0.26698 -0.4557529,0.61134 -1.1809249,0.89533 -1.414543,0.55394 -1.566655,0.8505 -0.679721,1.32517 0.367137,0.19649 0.667522,0.4707703 0.667522,0.6095203 0,0.13875 0.171394,0.11003 0.380876,-0.0638 0.5705319,-0.4735003 1.8451959,-0.24229 1.9586529,0.35528 0.07362,0.38772 -0.02385,0.46976 -0.431469,0.36316 -0.790039,-0.2066 -1.2981159,0.18321 -0.886011,0.67976 0.386313,0.46548 0.220287,0.59705 -1.0554249,0.83637 -0.813508,0.15262 -1.005118,0.32992 -1.290264,1.19392 -0.303991,0.9211 -0.282797,1.0809 0.229799,1.73255 0.447258,0.5686 0.564675,1.08182 0.564675,2.46813 0,1.75026 0,1.75026 1.124479,1.75029 1.1244789,4e-5 1.1244789,4e-5 1.0892349,-1.32291 z m 0.05,-5.40012 c -0.195447,-0.31624 0.104787,-1.08221 0.424189,-1.08221 0.137522,0 0.374556,-0.35719 0.526742,-0.79375 0.320364,-0.919 1.119262,-1.06542 1.538545,-0.28198 0.363244,0.67873 0.346108,0.81114 -0.104966,0.81114 -0.208372,0 -0.633199,0.35719 -0.944059,0.79375 -0.560773,0.78754 -1.154617,1.01554 -1.440451,0.55305 z m 3.452275,-3.3550503 c -0.229272,-0.59747 0.03481,-0.90216 0.781916,-0.90216 0.769259,0 0.821934,0.28779 0.161989,0.88503 -0.601538,0.5443903 -0.74061,0.5469103 -0.943905,0.0171 z m 33.659181,9.4620103 c 0.1192,-0.81006 -0.39207,-0.71926 -0.54818,0.0974 -0.0811,0.42405 -0.0192,0.63602 0.16759,0.57458 0.16283,-0.0535 0.33409,-0.35592 0.38059,-0.67194 z m -27.22878,-0.14826 c 0.21212,-0.25558 0.23143,-0.69455 0.0634,-1.44217 -0.13281,-0.59111 -0.16616,-1.15866 -0.0741,-1.26123 0.0921,-0.10256 -0.1956,0.0221 -0.63925,0.27713 -1.04665,0.60156 -1.62467,1.81807 -1.12999,2.37822 0.44272,0.50133 1.38265,0.5267 1.77989,0.048 z m -4.0766,-0.16175 c 0.08994,-0.14552 0.03743,-0.26458 -0.116676,-0.26458 -0.154109,0 -0.280199,0.11906 -0.280199,0.26458 0,0.14552 0.0525,0.26459 0.116677,0.26459 0.06417,0 0.190262,-0.11907 0.280198,-0.26459 z m 10.71563,-0.69385 c 0,-0.47531 -0.38078,-0.4652 -0.78413,0.0208 -0.43584,0.52515 -0.0925,1.07125 0.41081,0.6535 0.20532,-0.1704 0.37332,-0.47384 0.37332,-0.6743 z m -3.46383,0.29698 c 0.35047,0 0.68781,-0.14883 0.74965,-0.33073 0.0765,-0.22501 -0.19855,-0.33073 -0.86042,-0.33073 -0.75684,0 -1.00421,-0.1199 -1.11407,-0.53999 -0.18754,-0.71717 -0.68128,-0.52391 -0.74125,0.29014 -0.0509,0.6906 0.61867,1.37586 1.06138,1.08628 0.14712,-0.0962 0.55424,-0.17497 0.90471,-0.17497 z m -23.34728593,-0.0441 c -0.09701,-0.097 -0.255764,-0.097 -0.352778,0 -0.09701,0.097 -0.01764,0.17639 0.176389,0.17639 0.194028,0 0.273403,-0.0794 0.176389,-0.17639 z m 25.22361593,0.0441 c 0,-0.0728 -0.0595,-0.13229 -0.13229,-0.13229 -0.0728,0 -0.13229,0.0595 -0.13229,0.13229 0,0.0728 0.0595,0.13229 0.13229,0.13229 0.0728,0 0.13229,-0.0595 0.13229,-0.13229 z m -7.83302,-0.89702 c 0.42537,-0.44399 0.62007,-0.83431 0.46421,-0.93064 -0.25146,-0.15541 -0.35408,-1.74422 -0.11265,-1.74422 0.061,0 0.29363,0.18271 0.51693,0.40601 0.25817,0.25817 0.51623,0.31813 0.70871,0.16467 0.75442,-0.60148 1.53927,-0.61975 2.1458,-0.0499 0.60747,0.57068 0.60747,0.57068 1.26018,-0.0412 0.60558,-0.56768 2.05609,-2.67551 2.05609,-2.98785 0,-0.0756 -0.3307,-0.13755 -0.73488,-0.13755 -0.86337,0 -1.91095,-0.66093 -1.91095,-1.20563 0,-0.5303 1.03351,-0.48068 1.68995,0.0811 0.53464,0.45758 0.53608,0.45525 0.12311,-0.19844 -0.53728,-0.8504503 -1.52357,-0.9704903 -2.26887,-0.27614 -0.60694,0.56545 -1.39628,0.7254 -1.39628,0.28294 0,-0.14179 0.35719,-0.4425 0.79375,-0.66826 0.97329,-0.5033003 1.01062,-0.8615203 0.11326,-1.0867503 -0.54142,-0.13588 -0.86584,0.009 -1.5875,0.70832 -0.84525,0.8192603 -1.24165,1.5425203 -0.64242,1.1721803 0.3201,-0.19783 0.34533,0.65361 0.0339,1.1448 -0.12241,0.19308 -0.38848,0.3278 -0.59126,0.29938 -0.84043,-0.11777 -1.06401,0.0168 -0.89787,0.5402 0.13098,0.41269 0.0475,0.52917 -0.37905,0.52917 -0.30085,0 -0.55128,-0.14883 -0.556513,-0.33073 -0.0052,-0.1819 -0.276985,-0.65739 -0.603892,-1.05663 -0.594376,-0.7259 -0.594376,-0.7259 -0.654224,0 -0.03292,0.39924 -0.177884,0.76559 -0.32215,0.81409 -0.56244,0.18911 -0.220202,0.44596 0.590976,0.44353 0.625148,-0.002 0.87971,0.13054 0.95214,0.49524 0.126043,0.63464 -0.463148,1.75116 -0.924086,1.75116 -0.43848,0 -0.458531,-0.58155 -0.03467,-1.00541 0.669027,-0.66903 -0.775805,-0.31597 -1.678293,0.4101 -0.963757,0.77537 -1.044359,1.39899 -0.290676,2.24896 0.54348,0.61291 0.933537,0.58955 0.732495,-0.0439 -0.293315,-0.92415 0.406644,-0.87986 1.343742,0.085 0.507992,0.52307 1.014671,0.95103 1.125961,0.95103 0.11129,0 0.53204,-0.34413 0.935,-0.76473 z m 3.86427,-3.6009 c 0,-0.25036 -0.25234,-0.39687 -0.68351,-0.39687 -1.10088,0 -0.59798,-0.64324 0.63398,-0.81089 0.60392,-0.0822 1.17782,-0.22921 1.27533,-0.32672 0.14505,-0.14505 0.89087,0.94342 0.89087,1.30014 0,0.0561 -0.35719,0.10205 -0.79375,0.10205 -0.43657,0 -0.79375,0.11906 -0.79375,0.26458 0,0.14552 -0.11907,0.26459 -0.26459,0.26459 -0.14552,0 -0.26458,-0.1786 -0.26458,-0.39688 z m 7.9099,3.78233 c 0.2591,-0.41489 0.27748,-0.61223 0.0636,-0.68351 -0.16535,-0.0551 -0.30063,-0.21637 -0.30063,-0.35836 0,-0.14198 0.11906,-0.18456 0.26458,-0.0946 0.14552,0.0899 0.26458,0.0374 0.26458,-0.11667 0,-0.35586 -1.50109,-0.36948 -1.71979,-0.0156 -0.27345,0.44245 -0.66146,0.29605 -0.66146,-0.24958 0,-0.57813 0.99094,-1.3911 1.43218,-1.17497 0.15819,0.0775 0.0495,-0.0525 -0.24155,-0.28888 -0.47227,-0.38354 -0.53837,-0.38565 -0.61472,-0.0196 -0.047,0.22558 -0.25541,0.41014 -0.46302,0.41014 -0.20761,0 -0.37747,0.21431 -0.37747,0.47625 0,0.26193 -0.11105,0.58936 -0.24677,0.7276 -0.33035,0.33648 0.17371,0.982 1.17281,1.50194 1.05471,0.54888 1.01142,0.55234 1.42761,-0.11409 z m -3.94982,-1.0042 c 0.1882,0 0.2609,-0.17044 0.16927,-0.39688 -0.0883,-0.21828 -0.23287,-0.57547 -0.3212,-0.79375 -0.0973,-0.24047 -0.0144,-0.39687 0.21051,-0.39687 0.23585,0 0.39383,-0.33751 0.43347,-0.92605 0.0765,-1.13657 -0.49521,-1.25309 -1.19863,-0.24428 -0.26146,0.37496 -0.8028,1.03391 -1.20298,1.46433 -0.40018,0.43042 -0.7276,0.82635 -0.7276,0.87986 0,0.0535 0.35718,0.2218 0.79375,0.37399 0.43656,0.15219 0.79753,0.43172 0.80216,0.6212 0.006,0.22671 0.12858,0.18619 0.3599,-0.11853 0.19331,-0.25466 0.49992,-0.46302 0.68135,-0.46302 z m 5.58587,-1.28378 c -0.24625,-0.46012 -1.35137,-0.71875 -1.33982,-0.31356 0.0101,0.35436 0.43831,0.75219 0.92199,0.85657 0.7051,0.15216 0.7551,0.0872 0.41783,-0.54301 z M 6.2567581,14.810981 c 0.222969,0 0.356443,-0.31019 0.356443,-0.82837 0,-0.80433 -0.02782,-0.82385 -0.958824,-0.67277 -0.527354,0.0856 -1.003346,0.20012 -1.057762,0.25453 -0.05441,0.0544 0.109165,0.59237 0.363512,1.19544 0.410065,0.97229 0.489507,1.03729 0.701319,0.57384 0.131378,-0.28747 0.399269,-0.52267 0.595312,-0.52267 z m 0.532832,0.61736 c -0.09701,-0.097 -0.255764,-0.097 -0.352778,0 -0.09701,0.097 -0.01764,0.17639 0.176389,0.17639 0.194028,0 0.273403,-0.0794 0.176389,-0.17639 z m 35.0131979,-1.01423 c 0,-1.13052 -0.31166,-1.19495 -0.70749,-0.14625 -0.2483,0.65781 -0.22633,0.79786 0.14043,0.89535 0.23912,0.0635 0.46453,0.12937 0.50091,0.14625 0.0364,0.0169 0.0662,-0.38603 0.0662,-0.89535 z m -10.84792,-2.43075 c 0,-0.39105 -0.42294,-0.46873 -0.63998,-0.11755 -0.0781,0.12641 -0.62093,0.30641 -1.20624,0.4 -1.25274,0.20033 -1.32387,0.40877 -0.33612,0.98496 0.69562,0.40577 0.75867,0.39502 1.45474,-0.24794 0.40018,-0.36966 0.7276,-0.82842 0.7276,-1.01947 z m 3.96875,0.31408 c 0,-0.0728 -0.0595,-0.13229 -0.13229,-0.13229 -0.0728,0 -0.13229,0.0595 -0.13229,0.13229 0,0.0728 0.0595,0.13229 0.13229,0.13229 0.0728,0 0.13229,-0.0595 0.13229,-0.13229 z m -17.43592,-1.38379 c -0.37369,-0.28764 -0.37681,-0.35715 -0.0266,-0.5915 0.21828,-0.14606 0.59066,-0.26739 0.8275,-0.26962 0.67649,-0.006 1.06376,-0.6458103 0.80869,-1.3353103 -0.18079,-0.48874 -0.25515,-0.52474 -0.38499,-0.1864 -0.0885,0.23064 -0.55505,0.61087 -1.03678,0.84496 -1.015476,0.49346 -2.058136,1.7310403 -1.458404,1.7310403 0.202521,0 0.590749,0.24589 0.862734,0.54642 0.46623,0.51518 0.50414,0.51898 0.6629,0.0664 0.10244,-0.29205 0.003,-0.60769 -0.25507,-0.80598 z m -13.9680949,0.0631 c -0.09115,-0.56171 -0.02008,-1.0802303 0.181323,-1.3229103 0.265413,-0.31981 0.264728,-0.47925 -0.0034,-0.80239 -0.438022,-0.52778 -0.178832,-0.75864 0.625182,-0.55685 0.726342,0.1823 1.161567,1.33367 0.709869,1.8779403 -0.341648,0.41166 -0.08143,1.19885 0.396306,1.19885 0.190585,0 0.406572,0.14883 0.479971,0.33073 0.08427,0.20885 0.14115,0.17053 0.15434,-0.10399 0.01149,-0.23909 -0.157705,-0.50324 -0.375987,-0.587 -0.592911,-0.22753 -0.479543,-0.67974 0.238882,-0.95289 0.980123,-0.3726403 1.038333,-0.7424503 0.147657,-0.9380803 -1.047871,-0.23015 -0.649868,-0.79072 0.747367,-1.05264 1.748174,-0.3277 2.717254,-0.84787 2.522942,-1.35424 -0.13409,-0.34944 -0.05728,-0.4276 0.333421,-0.33928 0.312323,0.0706 0.7729529,-0.15951 1.1971719,-0.59803 0.636984,-0.65847 0.651526,-0.72272 0.190842,-0.84319 -0.274274,-0.0717 -0.465497,-0.28154 -0.42494,-0.46626 0.04056,-0.18472 -0.268233,-0.5061 -0.6861999,-0.71418 -0.722237,-0.35955 -0.790683,-0.34074 -1.379548,0.37922 -0.340783,0.41664 -0.623888,0.85534 -0.629121,0.97487 -0.01563,0.35712 -0.814865,1.04989 -0.998903,0.86585 -0.09374,-0.0937 -0.01761,-0.59308 0.169179,-1.10964 0.186791,-0.51656 0.269916,-1.0089 0.184722,-1.0941 -0.08519,-0.0852 0.08247,-0.32115 0.372586,-0.52436 0.612934,-0.42931 0.691542,-0.86862 0.155428,-0.86862 -0.368166,0 -1.793881,1.83537 -2.517717,3.24114 -0.40883,0.794 -0.814394,0.9587 -0.814394,0.33073 0,-0.21828 -0.148828,-0.3985 -0.330729,-0.40049 -0.181901,-0.002 -0.628385,-0.0822 -0.992187,-0.17817 -0.570174,-0.15047 -0.615762,-0.11878 -0.330336,0.22963 0.67636,0.82563 0.416731,2.91627 -0.528928,4.25917 -0.270815,0.3845703 -0.260245,0.5148903 0.05785,0.7132203 0.214067,0.13346 0.304397,0.32748 0.200733,0.43114 -0.245144,0.24514 0.299335,0.89863 0.748734,0.89863 0.24961,0 0.305507,-0.26089 0.197931,-0.92381 z m 5.210265,-5.8404603 c 0,-0.63076 0.523611,-1.47248 0.807025,-1.29732 0.138219,0.0854 0.251308,0.50548 0.251308,0.93345 0,0.60175 -0.119952,0.77814 -0.529167,0.77814 -0.303856,0 -0.529166,-0.17639 -0.529166,-0.41427 z M 41.962638,11.178461 c -0.26895,-0.26895 -0.49087,0.13597 -0.2702,0.49302 0.1667,0.26973 0.22902,0.26993 0.31864,10e-4 0.0613,-0.18383 0.0395,-0.40617 -0.0484,-0.49409 z m 7.67202,-0.22618 c -0.23222,-0.75608 -0.30889,-0.83262 -0.37832,-0.37763 -0.1034,0.67768 0.10984,1.32591 0.43617,1.32591 0.12837,0 0.10234,-0.42673 -0.0579,-0.94828 z m -40.6402069,0.41911 c 0,-0.14552 -0.386953,-0.26276 -0.859896,-0.26053 -0.652521,0.003 -0.764184,0.0659 -0.463021,0.26053 0.520037,0.33607 1.322917,0.33607 1.322917,0 z m 16.1395869,0.13229 c 0,-0.0728 -0.0595,-0.13229 -0.13229,-0.13229 -0.0728,0 -0.13229,0.0595 -0.13229,0.13229 0,0.0728 0.0595,0.13229 0.13229,0.13229 0.0728,0 0.13229,-0.0595 0.13229,-0.13229 z m 4.13353,-0.92604 c 1.31809,-1.0892103 2.05154,-1.3613103 1.78298,-0.6614603 -0.0838,0.2182803 -0.28838,0.3987003 -0.45471,0.4009303 -0.16634,0.002 -0.12466,0.11643 0.0926,0.25379 0.2926,0.18498 0.44709,0.10899 0.59583,-0.29307 0.25253,-0.6826503 0.0497,-1.0231103 -0.6096,-1.0231103 -0.28478,0 -0.51355,-0.18049 -0.51355,-0.40518 0,-0.22284 -0.18303,-0.47541 -0.40673,-0.56125 -0.62113,-0.23835 -1.4448,0.67246 -1.4494,1.60275 -0.005,0.9456203 -0.48199,1.8184003 -0.70015,1.2802603 -0.14533,-0.35847 -0.61872,-0.19343 -0.61872,0.2157 0,0.56579 1.08171,0.18205 2.28145,-0.80936 z m 1.15814,0.80936 c 0,-0.13693 -0.11907,-0.32255 -0.26459,-0.41249 -0.14552,-0.0899 -0.26458,0.0221 -0.26458,0.24897 0,0.22687 0.11906,0.41249 0.26458,0.41249 0.14552,0 0.26459,-0.11203 0.26459,-0.24897 z m 2.37719,0.0505 c -0.002,-0.10915 -0.11633,-0.37604 -0.25356,-0.59311 -0.20306,-0.32118 -0.31273,-0.33145 -0.58905,-0.0551 -0.27633,0.27632 -0.26606,0.38598 0.0551,0.58905 0.47903,0.30285 0.79294,0.32644 0.78748,0.0592 z m 2.03536,-0.82477 c -0.0845,-0.43556 0.0647,-1.0216203 0.39815,-1.5639603 0.63289,-1.02923 0.4657,-1.33407 -1.12511,-2.05142 -0.92488,-0.41706 -1.11506,-0.43243 -1.32445,-0.10702 -0.19693,0.30606 -0.27582,0.26574 -0.40552,-0.20726 -0.15282,-0.55729 -0.20006,-0.56707 -0.92604,-0.19165 -0.82987,0.42915 -0.97011,1.0587 -0.40729,1.82841 0.33723,0.46119 0.36782,0.44893 0.53421,-0.21402 0.0971,-0.38676 0.29329,-0.70321 0.43604,-0.70321 0.36845,0 0.32208,0.88996 -0.0666,1.27867 -0.2585,0.25849 -0.19939,0.35931 0.28489,0.48595 0.33607,0.0879 0.72241,0.4527 0.85851,0.81069 0.13611,0.3579903 0.48416,0.7127903 0.77345,0.7884403 0.28929,0.0756 0.52599,0.30928 0.52599,0.51918 0,0.2099 0.13027,0.30112 0.28949,0.20271 0.15923,-0.0984 0.22867,-0.49238 0.15431,-0.87551 z m 17.77172,-0.36814 c -0.0685,-0.2957703 -0.24468,-0.3381003 -0.69846,-0.16781 -0.52364,0.19651 -0.56547,0.30515 -0.3049,0.79203 0.2683,0.50132 0.34623,0.52004 0.69846,0.16781 0.21806,-0.21806 0.35527,-0.57448 0.3049,-0.79203 z m -13.15469,0.39916 c 0.32911,-0.41965 0.31975,-0.42901 -0.0999,-0.0999 -0.44073,0.34564 -0.58088,0.56292 -0.36312,0.56292 0.0549,0 0.2633,-0.20836 0.46302,-0.46302 z M 7.9361181,10.445311 c 0,-0.0728 -0.05953,-0.13229 -0.132292,-0.13229 -0.07276,0 -0.132292,0.0595 -0.132292,0.13229 0,0.0728 0.05953,0.13229 0.132292,0.13229 0.07276,0 0.132292,-0.0595 0.132292,-0.13229 z M 38.988048,9.6515607 c 0.0838,-0.21828 0.037,-0.39688 -0.10398,-0.39688 -0.14096,0 -0.25628,0.1786 -0.25628,0.39688 0,0.21828 0.0468,0.3968703 0.10398,0.3968703 0.0572,0 0.17252,-0.1785903 0.25628,-0.3968703 z m 2.55016,0.10361 c 0,-0.17749 0.25083,-0.23031 0.63537,-0.1338 0.50333,0.12633 0.80875,-0.038 1.46966,-0.79074 0.93789,-1.0682 0.96955,-1.85908 0.0706,-1.76252 -0.37178,0.0399 -0.73595,-0.17434 -1.01178,-0.59532 -0.66933,-1.02153 -0.99254,-0.81364 -0.80964,0.52077 0.15818,1.15409 -0.22253,1.99654 -0.90225,1.99654 -0.13513,0 -0.24568,0.23812 -0.24568,0.52917 0,0.29398 0.17638,0.5291603 0.39687,0.5291603 0.21828,0 0.39688,-0.1319703 0.39688,-0.2932603 z m -1.32292,-1.16195 c 0,-0.0728 -0.0595,-0.13229 -0.13229,-0.13229 -0.0728,0 -0.13229,0.0595 -0.13229,0.13229 0,0.0728 0.0595,0.1323 0.13229,0.1323 0.0728,0 0.13229,-0.0595 0.13229,-0.1323 z m -2.00602,-0.29284 c 0.23019,-0.0883 0.41852,-0.38598 0.41852,-0.66145 0,-0.38396 -0.19188,-0.50086 -0.82206,-0.50086 -0.64091,0 -0.78667,0.0922 -0.66146,0.41851 0.0883,0.23018 0.1606,0.52784 0.1606,0.66146 0,0.28162 0.31126,0.30996 0.9044,0.0823 z m 6.76852,-0.23627 c 0,-0.0728 -0.0595,-0.13229 -0.13229,-0.13229 -0.0728,0 -0.13229,0.0595 -0.13229,0.13229 0,0.0728 0.0595,0.13229 0.13229,0.13229 0.0728,0 0.13229,-0.0595 0.13229,-0.13229 z m -4.15674,-0.92631 c -0.15444,-0.59056 -0.29423,-0.63411 -0.86906,-0.27071 -0.33933,0.21452 -0.32093,0.30467 0.12938,0.63394 0.64568,0.47214 0.92257,0.33617 0.73968,-0.36323 z m -11.42992,-0.57329 c 0.21981,-0.41073 0.15698,-0.48478 -0.41132,-0.48478 -0.57476,0 -0.67077,0.11826 -0.67077,0.82615 0,0.71725 0.0542,0.78115 0.41132,0.48478 0.22622,-0.18775 0.52807,-0.55952 0.67077,-0.82615 z m 16.78428,0.62465 c -0.0815,-0.0815 -0.29495,-1.6e-4 -0.47443,0.18066 -0.25936,0.2613 -0.22897,0.2917 0.14812,0.14811 0.26093,-0.0994 0.40778,-0.2473 0.32631,-0.32877 z m -9.82544,-0.10943 c 0.46265,-0.43218 0.22912,-1.19827 -0.64366,-2.11156 -0.67858,-0.71006 -0.7258,-0.72204 -0.85774,-0.21752 -0.0768,0.29366 -0.37977,0.62354 -0.67328,0.73307 -0.66224,0.24712 -0.31718,0.82287 0.88062,1.46934 0.97219,0.52471 0.87785,0.51547 1.29406,0.12667 z m -21.137809,-0.20625 c -0.08994,-0.14552 -0.282584,-0.26458 -0.428104,-0.26458 -0.145521,0 -0.190999,0.11906 -0.101062,0.26458 0.08994,0.14552 0.282584,0.26459 0.428105,0.26459 0.14552,0 0.190998,-0.11907 0.101061,-0.26459 z m 24.209379,-0.64584 c 0,-0.0642 -0.11906,-0.19026 -0.26458,-0.2802 -0.14553,-0.0899 -0.26459,-0.0374 -0.26459,0.11668 0,0.15411 0.11906,0.2802 0.26459,0.2802 0.14552,0 0.26458,-0.0525 0.26458,-0.11668 z m -8.6303,-0.55852 c 0.0904,-0.23546 0.046,-0.34167 -0.10398,-0.24897 -0.14386,0.0889 -0.26155,0.27368 -0.26155,0.41061 0,0.38059 0.18964,0.29672 0.36553,-0.16164 z m 10.2178,0.0137 c 0,-0.21828 -0.18329,-0.39688 -0.40731,-0.39688 -0.33652,0 -0.34802,0.0672 -0.0661,0.38681 0.43369,0.49173 0.47345,0.49258 0.47345,0.0101 z m 4.60646,-0.0335 c 0.2219,-0.57825 -0.18968,-1.02108 -1.57017,-1.68936 -1.01727,-0.49245 -1.16384,-0.67453 -1.23536,-1.53459 -0.0618,-0.74339 -0.20719,-0.99226 -0.61031,-1.04477 -0.40686,-0.053 -0.67088,0.24379 -1.14231,1.28407 -0.33723,0.74414 -0.53758,1.54906 -0.44523,1.78871 0.15284,0.3966 0.19153,0.39367 0.43085,-0.0326 0.14461,-0.2576 0.18811,-0.70408 0.0967,-0.99219 -0.11389,-0.35882 -0.0445,-0.52383 0.22014,-0.52383 0.41989,0 0.70759,0.54513 0.70759,1.34071 0,0.62592 1.7287,1.79747 2.68367,1.81873 0.41256,0.009 0.76702,-0.16092 0.86446,-0.41485 z m 2.47423,0.24862 c -0.25297,-0.0662 -0.72922,-0.0686 -1.05834,-0.005 -0.32911,0.0633 -0.12214,0.11747 0.45994,0.12041 0.58208,0.003 0.85136,-0.0488 0.5984,-0.11507 z m -9.72652,-0.61196 c 0,-0.14552 -0.11907,-0.26458 -0.26459,-0.26458 -0.14552,0 -0.26458,0.11906 -0.26458,0.26458 0,0.14552 0.11906,0.26459 0.26458,0.26459 0.14552,0 0.26459,-0.11907 0.26459,-0.26459 z m 12.96053,-0.74322 c 0.002,-0.19049 -0.11501,-0.27276 -0.26053,-0.18282 -0.14553,0.0899 -0.26276,0.42439 -0.26054,0.74322 0.003,0.47129 0.052,0.50548 0.26054,0.18282 0.14106,-0.21828 0.2583,-0.55273 0.26053,-0.74322 z m 2.40269,0.73391 c 0.71252,-0.38133 0.68747,-1.86634 -0.0426,-2.52707 -0.54637,-0.49446 -0.56171,-0.49271 -1.05833,0.1206 -0.5845,0.72183 -0.61953,1.07883 -0.19688,2.00646 0.33884,0.74366 0.53993,0.80564 1.29784,0.40001 z M 5.2990071,4.6245207 c 0.359042,-0.48948 0.353427,-0.50193 -0.07487,-0.16604 -0.254662,0.19972 -0.463021,0.48746 -0.463021,0.63941 0,0.15196 0.03369,0.22668 0.07487,0.16604 0.04118,-0.0606 0.249537,-0.34836 0.463021,-0.63941 z m 45.4042809,-0.73292 c 0.21941,-0.4243 0.33958,-0.83082 0.26703,-0.90336 -0.0725,-0.0726 -0.9743,-0.12402 -2.00389,-0.11438 -1.48128,0.0139 -1.87197,-0.0639 -1.87197,-0.37268 0,-0.21461 0.21737,-0.3902 0.48304,-0.3902 0.73613,0 1.81312,-1.24925 1.4178,-1.64457 -0.24315,-0.24315 -0.61224,0.007 -1.62413,1.10228 -0.72021,0.77931 -1.37102,1.57732 -1.44625,1.77336 -0.15061,0.3925 -0.68255,0.49189 -0.68255,0.12753 0,-0.1259 0.24612,-0.54178 0.54692,-0.9242 0.54987,-0.69904 0.62187,-2.00398 0.11454,-2.0758 -0.3398,-0.0481 -1.69944,1.9058 -1.711,2.45883 -0.009,0.43029 1.01299,1.03466 1.74961,1.03466 0.22582,0 0.78577,0.16792 1.24432,0.37316 2.35528,1.05416 2.76849,1.00191 3.51653,-0.44463 z m -16.59431,-0.004 c -0.0157,-0.24226 -0.0537,-0.23997 -0.15434,0.009 -0.0734,0.1819 -0.30212,0.33073 -0.50828,0.33073 -0.20615,0 -0.37482,0.12325 -0.37482,0.27389 0,0.1857 0.17039,0.1827 0.52917,-0.009 0.29104,-0.15576 0.51976,-0.42784 0.50827,-0.60462 z m 5.44099,-0.40994 c -0.23316,-0.0487 -0.60897,-0.0175 -0.83514,0.0693 -0.32309,0.12398 -0.34434,0.23838 -0.0992,0.53381 0.26777,0.32263 0.38632,0.3128 0.83515,-0.0693 0.44901,-0.38223 0.46305,-0.45782 0.0992,-0.53381 z m -27.654476,-1.82971 c 0.0052,-0.1819 -0.220726,-0.33073 -0.501961,-0.33073 -0.638013,0 -0.96996,0.94557 -0.521601,1.48581 0.292351,0.35226 0.375857,0.3261 0.673942,-0.21113 0.187135,-0.33727 0.344464,-0.76205 0.34962,-0.94395 z m 20.382296,1.38906 c 0,-0.0728 -0.0595,-0.13229 -0.13229,-0.13229 -0.0728,0 -0.13229,0.0595 -0.13229,0.13229 0,0.0728 0.0595,0.1323 0.13229,0.1323 0.0728,0 0.13229,-0.0595 0.13229,-0.1323 z M 6.0084231,2.5739907 c 0.0069,-0.1819 0.09903,-0.53908 0.204696,-0.79375 0.1474,-0.35525 0.06236,-0.46302 -0.365361,-0.46302 -0.600919,0 -0.634056,0.0841 -0.39071,0.99219 0.17095,0.6379 0.530605,0.81049 0.551375,0.26458 z m 48.8912349,-0.88061 c -1.03828,-0.88045 -1.71979,-1.14323 -1.71979,-0.66311 0,0.29261 2.45807,1.8558 2.64584,1.6826 0.0728,-0.0671 -0.34396,-0.52589 -0.92605,-1.01949 z m -23.41562,0.5655 c 0,-0.0642 -0.11906,-0.19026 -0.26458,-0.2802 -0.14553,-0.0899 -0.26459,-0.0374 -0.26459,0.11668 0,0.15411 0.11906,0.2802 0.26459,0.2802 0.14552,0 0.26458,-0.0525 0.26458,-0.11668 z m 2.64583,-0.1386 c 0,-0.3326 -0.93903,-0.83416 -1.15583,-0.61736 -0.39336,0.39336 -0.12184,0.87264 0.49437,0.87264 0.36381,0 0.66146,-0.11488 0.66146,-0.25528 z m -25.9291669,-0.1416 c 0,-0.0728 -0.05953,-0.13229 -0.132292,-0.13229 -0.07276,0 -0.132291,0.0595 -0.132291,0.13229 0,0.0728 0.05953,0.13229 0.132291,0.13229 0.07276,0 0.132292,-0.0595 0.132292,-0.13229 z m 43.6562569,-0.2294 c 0,-0.3532 -0.85419,-0.94306 -1.37976,-0.95281 -0.42295,-0.008 -1.11367,0.84955 -0.87593,1.08729 0.2191,0.2191 2.25569,0.0977 2.25569,-0.13448 z M 17.782228,35.663751 c -0.24212,-0.24212 -0.22783,-0.40897 0.0625,-0.72982 0.20703,-0.22876 0.47445,-1.00071 0.59428,-1.71544 0.27101,-1.61649 0.86525,-1.95113 0.89505,-0.50404 0.0115,0.55783 0.0809,0.8654 0.15434,0.6835 0.15196,-0.37659 1.307,-0.45053 1.52511,-0.0976 0.0792,0.12821 -0.26438,0.51298 -0.76359,0.85505 -0.49922,0.34207 -1.03072,0.89201 -1.18112,1.2221 -0.30064,0.65985 -0.80156,0.77131 -1.2866,0.28627 z m 1.56472,-0.14552 c 0.68843,-0.87095 1.42314,-1.37509 2.01678,-1.38387 0.78738,-0.0116 0.75446,0.11846 -0.26459,1.0455 -0.96958,0.88205 -2.40031,1.15835 -1.75219,0.33837 z m 3.40584,-0.33434 c 0,-0.43656 0.11906,-0.79375 0.26458,-0.79375 0.14552,0 0.26459,0.16886 0.26459,0.37524 0,0.20638 0.0723,0.56356 0.16059,0.79375 0.10539,0.27463 0.0144,0.41851 -0.26458,0.41851 -0.29604,0 -0.42518,-0.2411 -0.42518,-0.79375 z m 17.64286,0.62134 c -0.26066,-0.26066 -0.22207,-1.41509 0.0473,-1.41509 0.12521,0 0.661,-0.29407 1.19063,-0.65348 0.96296,-0.65349 0.96296,-0.65349 0.96296,-0.004 0,0.6239 0.0358,0.61053 0.90489,-0.33781 0.49769,-0.54307 0.99502,-0.89727 1.10519,-0.7871 0.32587,0.32587 -1.25396,1.80875 -2.53925,2.38342 -0.65484,0.29279 -1.25829,0.63628 -1.34099,0.76333 -0.0827,0.12704 -0.23153,0.14982 -0.33073,0.0506 z m 3.97108,-0.21187 c -0.21135,-0.21135 -0.45798,-0.31057 -0.54807,-0.22048 -0.0901,0.0901 -0.16379,-0.0105 -0.16379,-0.22349 0,-0.53158 1.90165,-2.34675 2.45855,-2.34675 0.49431,0 0.60798,0.40146 0.18729,0.66146 -0.39503,0.24413 -0.31937,1.17364 0.13229,1.6253 0.21828,0.21828 0.39687,0.50743 0.39687,0.64256 0,0.39649 -2.04301,0.28153 -2.46314,-0.1386 z m 1.31661,-0.32128 c -0.097,-0.097 -0.17638,-0.0176 -0.17638,0.17639 0,0.19403 0.0794,0.27341 0.17638,0.17639 0.097,-0.097 0.097,-0.25576 0,-0.35278 z m 10.14237,0.57327 c 0,-0.0728 0.0595,-0.13229 0.13229,-0.13229 0.0728,0 0.13229,0.0595 0.13229,0.13229 0,0.0728 -0.0595,0.13229 -0.13229,0.13229 -0.0728,0 -0.13229,-0.0595 -0.13229,-0.13229 z m -3.175,-1.56545 c 0,-0.23041 0.18851,-0.41893 0.41892,-0.41893 0.23041,0 0.37179,0.14139 0.31419,0.3142 -0.16353,0.49059 -0.73311,0.57196 -0.73311,0.10473 z m -4.8507,-0.33073 c -0.097,-0.097 -0.17639,-0.39467 -0.17639,-0.66146 0,-0.28015 -0.19002,-0.48507 -0.44979,-0.48507 -0.34984,0 -0.37924,-0.0706 -0.13229,-0.3175 0.17462,-0.17462 0.3175,-0.65087 0.3175,-1.05833 0,-0.75564 0.24955,-0.86551 1.1564,-0.50914 0.51434,0.20212 0.83196,1.81498 0.54054,2.74487 -0.14288,0.45592 -0.91131,0.63129 -1.25597,0.28663 z m -26.36248,-0.87161 c -0.21406,-0.13538 -0.30849,-0.32686 -0.20984,-0.42551 0.24211,-0.24212 0.99593,0.0658 0.99593,0.40687 0,0.33605 -0.27392,0.34254 -0.78609,0.0186 z M 3.4382011,29.345781 c 0,-0.17464 0.267891,-0.5483 0.595312,-0.83035 0.327422,-0.28206 0.932404,-0.81157 1.344403,-1.1767 0.716406,-0.63491 0.765093,-0.64275 1.115847,-0.17967 0.316522,0.41788 0.308724,0.52044 -0.05693,0.74879 -0.233028,0.14552 -0.735159,0.51618 -1.115847,0.82369 -0.889025,0.71813 -1.882784,1.04233 -1.882785,0.61424 z m 34.6604169,-0.48358 c 0,-0.12995 0.18833,-0.30855 0.41852,-0.39688 0.59136,-0.22692 0.63982,-0.20903 0.63982,0.23628 0,0.22048 -0.23519,0.39687 -0.52917,0.39687 -0.29104,0 -0.52917,-0.10632 -0.52917,-0.23627 z m -1.05833,-0.29289 c 0,-0.14552 0.11906,-0.26459 0.26458,-0.26459 0.14552,0 0.26459,0.11907 0.26459,0.26459 0,0.14552 -0.11907,0.26458 -0.26459,0.26458 -0.14552,0 -0.26458,-0.11906 -0.26458,-0.26458 z m 3.30729,-0.79375 c 0.0899,-0.14552 0.27556,-0.26459 0.41249,-0.26459 0.13693,0 0.24897,0.11907 0.24897,0.26459 0,0.14552 -0.18562,0.26458 -0.41249,0.26458 -0.22687,0 -0.33891,-0.11906 -0.24897,-0.26458 z m 0.92604,-0.26459 c 0,-0.14552 0.18562,-0.26458 0.41249,-0.26458 0.22687,0 0.33891,0.11906 0.24897,0.26458 -0.0899,0.14552 -0.27556,0.26459 -0.41249,0.26459 -0.13693,0 -0.24897,-0.11907 -0.24897,-0.26459 z m -27.78125,-0.52916 c 0,-0.14552 0.119062,-0.26459 0.264583,-0.26459 0.145521,0 0.264583,0.11907 0.264583,0.26459 0,0.14552 -0.119062,0.26458 -0.264583,0.26458 -0.145521,0 -0.264583,-0.11906 -0.264583,-0.26458 z m 0.09579,-1.25677 c -0.252011,-0.54571 -0.793378,-1.38329 -1.203038,-1.86129 -0.409661,-0.47801 -0.744838,-0.98403 -0.744838,-1.12448 0,-0.44723 0.500213,-0.27469 0.79375,0.27379 0.155761,0.29104 0.189716,0.52961 0.07545,0.53015 -0.11426,5.5e-4 0.204441,0.25227 0.708225,0.55938 0.585841,0.35714 0.951387,0.45214 1.014236,0.2636 0.05405,-0.16214 0.279675,-0.2948 0.501399,-0.2948 0.282907,0 0.344138,0.13809 0.205315,0.46302 -0.1088,0.25466 -0.225248,0.76068 -0.258773,1.12448 -0.09298,1.00903 -0.110751,1.05833 -0.38136,1.05833 -0.138693,0 -0.45836,-0.44648 -0.710371,-0.99218 z m 1.750985,0.58891 c -0.184076,-0.22179 -0.263321,-0.47463 -0.1761,-0.56185 0.270949,-0.27095 0.975156,0.13342 0.975156,0.55994 0,0.51822 -0.369825,0.51911 -0.799056,0.002 z m 40.507445,-2.39689 c 0.0127,-0.30822 0.0754,-0.37092 0.15986,-0.15985 0.0764,0.19099 0.067,0.4192 -0.0209,0.50712 -0.0879,0.0879 -0.15045,-0.0684 -0.13897,-0.34727 z M 9.5236181,23.727441 c 0,-0.49082 0.5541059,-0.97896 1.1112499,-0.97896 0.331611,0 0.47625,0.20089 0.47625,0.66146 0,0.55857 -0.123473,0.66146 -0.79375,0.66146 -0.4748929,0 -0.7937499,-0.13817 -0.7937499,-0.34396 z m -9.52500003,-1.37362 c 0,-0.57228 0.106773,-0.89349 0.264583,-0.79596 0.145521,0.0899 0.264583,0.0374 0.264583,-0.11668 0,-0.15411 0.238125,-0.2802 0.52916703,-0.2802 0.293981,0 0.529167,-0.17639 0.529167,-0.39687 0,-0.21828 0.178593,-0.39688 0.396875,-0.39688 0.218281,0 0.396875,-0.11906 0.396875,-0.26458 0,-0.14552 0.238125,-0.26458 0.529166,-0.26458 0.612238,0 0.696045,0.58907 0.160061,1.12505 -0.210206,0.21021 -0.313629,0.65932 -0.240241,1.04322 0.115927,0.60644 0.0268,0.69223 -0.887665,0.85453 -0.559091,0.0992 -1.22488903,0.24162 -1.47955103,0.31643 -0.380856,0.11187 -0.46302,-0.0343 -0.46302,-0.82348 z m 0.05158,-7.41055 c 0.0054,-0.43656 0.06469,-0.58312 0.131773,-0.32569 0.06708,0.25743 0.06267,0.61462 -0.0098,0.79375 -0.07248,0.17913 -0.127362,-0.0315 -0.12197,-0.46806 z M 55.296538,14.810981 c 0,-0.14552 0.11906,-0.26458 0.26458,-0.26458 0.14552,0 0.26459,0.11906 0.26459,0.26458 0,0.14552 -0.11907,0.26459 -0.26459,0.26459 -0.14552,0 -0.26458,-0.11907 -0.26458,-0.26459 z m 0.31658,-3.57187 c -0.674,-2.5853703 -0.66771,-2.5135403 -0.22017,-2.5135403 0.53345,0 0.75346,0.85978 0.64768,2.5310703 -0.0826,1.30538 -0.0826,1.30538 -0.42751,-0.0175 z M 26.192368,6.4766107 c 0,-0.21828 0.11906,-0.39688 0.26459,-0.39688 0.14552,0 0.26458,0.1786 0.26458,0.39688 0,0.21828 -0.11906,0.39687 -0.26458,0.39687 -0.14553,0 -0.26459,-0.17859 -0.26459,-0.39687 z m -12.611806,-2.68986 c 0.09701,-0.097 0.255764,-0.097 0.352778,0 0.09701,0.097 0.01764,0.17639 -0.176389,0.17639 -0.194028,0 -0.273403,-0.0794 -0.176389,-0.17639 z m -13.58194393,-1.44812 c 0,-0.31138 0.208359,-0.72431 0.46302,-0.91763 0.440973,-0.33474 0.440973,-0.35188 0,-0.3599 -0.362399,-0.007 -0.46302,-0.2384 -0.46302,-1.06674 0,-0.58209 0.126089,-1.05834 0.280198,-1.05834 0.154109,0 0.205071,0.12156 0.11325,0.27013 -0.09182,0.14857 0.258339,0.44783 0.77813503,0.66501 0.952471,0.39797 1.173871,0.74432 0.673483,1.05357 -0.14938,0.0923 -0.243519,0.30771 -0.209197,0.47864 0.1025,0.51046 -0.66994103,1.5014 -1.17034703,1.5014 -0.299269,0 -0.465522,-0.20219 -0.465522,-0.56614 z M 25.927788,2.1266407 c 0,-0.28246 0.11906,-0.58714 0.26458,-0.67708 0.15006,-0.0927 0.26459,0.12955 0.26459,0.51356 0,0.37239 -0.11907,0.67707 -0.26459,0.67707 -0.14552,0 -0.26458,-0.2311 -0.26458,-0.51355 z m -2.22958,-0.58543 c -0.47468,-0.95152 -0.53512,-1.54685 -0.15705,-1.54685 0.22673,0 1.3283,1.85633 1.3283,2.23841 0,0.4905 -0.82439,0.004 -1.17125,-0.69156 z m -2.26834,-1.84584 c -1.45521,-0.72617 -1.45521,-0.72617 0.088,-0.70749 1.57535,0.0191 2.03865,0.33177 1.58779,1.07167 -0.17857,0.29304 -0.49776,0.22367 -1.67579,-0.36418 z m -13.1409729,-0.67119 c 0.09701,-0.097 0.255764,-0.097 0.352778,0 0.09701,0.097 0.01764,0.17639 -0.176389,0.17639 -0.194027,0 -0.273402,-0.0794 -0.176389,-0.17639 z m -5.776736,-0.35278 c -0.363802,0 -0.661458,-0.10632 -0.661458,-0.23628 z m 2.645834,-1e-5 c -0.509323,0 -0.926042,-0.0762 -0.926042,-0.16927 z m 7.6337029,0 m 8.002922,-0.0263 m 9.20965,-0.0333 m 8.39134,0.0595" style="fill:#000000" id="path1" />
  </g>
</svg>
