<?xml version="1.0" encoding="UTF-8" standalone="no"?>
<svg width="32" height="32" viewBox="0 0 512 512" version="1.1" id="svg1" sodipodi:docname="station-pompage.svg" inkscape:version="1.3.2 (1:1.3.2+202311252150+091e20ef0f)"
  xmlns:inkscape="http://www.inkscape.org/namespaces/inkscape"
  xmlns:sodipodi="http://sodipodi.sourceforge.net/DTD/sodipodi-0.dtd"
  xmlns="http://www.w3.org/2000/svg"
  xmlns:svg="http://www.w3.org/2000/svg">
  <defs id="defs1" />
  <sodipodi:namedview id="namedview1" pagecolor="#ffffff" bordercolor="#666666" borderopacity="1.0" inkscape:showpageshadow="2" inkscape:pageopacity="0.0" inkscape:pagecheckerboard="0" inkscape:deskcolor="#d1d1d1" showguides="true" inkscape:zoom="17.147339" inkscape:cx="11.896889" inkscape:cy="13.121569" inkscape:window-width="1920" inkscape:window-height="1022" inkscape:window-x="1920" inkscape:window-y="0" inkscape:window-maximized="1" inkscape:current-layer="svg1">
    <sodipodi:guide position="64.02574,314.69915" orientation="1,0" id="guide1" inkscape:locked="false" />
  </sodipodi:namedview>
  <path fill="currentColor" d="m 138.97405,85.767718 c -17.62038,0 -31.91617,14.295782 -31.91617,31.916172 V 255.98728 H 96.419159 c -17.620385,0 -31.916169,14.29578 -31.916169,31.91617 v 63.83233 c 0,5.31937 1.329841,10.37276 3.590569,14.76123 2.526697,-1.13036 5.186378,-2.06125 7.979042,-2.72617 8.710455,-2.06125 17.753369,-6.51622 24.801519,-12.36752 14.76123,-12.434 36.10517,-13.36489 51.93027,-2.26072 11.96856,8.24501 26.6633,13.49788 39.36327,13.49788 14.02982,0 27.92665,-5.65183 39.36328,-13.49788 14.69473,-10.30627 34.30988,-10.30627 49.00461,0 12.23454,8.44448 26.33084,13.49788 39.36328,13.49788 12.63348,0 27.39471,-5.25287 39.36327,-13.49788 15.8251,-11.10417 37.10255,-10.17328 51.93027,2.26072 7.04815,5.8513 16.09107,10.37276 24.80152,12.36752 2.79267,0.66492 5.45235,1.59581 7.97904,2.72617 2.19424,-4.38847 3.52408,-9.44186 3.52408,-14.76123 v -63.83233 c 0,-17.62039 -14.29578,-31.91617 -31.91617,-31.91617 h -31.91617 v -97.54379 l 16.88898,16.88897 c 8.3115,8.3115 21.80938,8.3115 30.12088,0 8.3115,-8.3115 8.3115,-21.80938 0,-30.12088 L 377.48092,92.017968 c -8.31151,-8.311503 -21.80939,-8.311503 -30.12089,0 l -53.19361,53.193612 c -8.3115,8.3115 -8.3115,21.80938 0,30.12088 8.3115,8.3115 21.80938,8.3115 30.12088,0 l 16.82248,-16.88897 v 97.54379 H 256 V 117.68389 C 256,100.0635 241.70422,85.767718 224.08383,85.767718 Z M 268.30102,366.29754 c -7.38061,-5.25287 -17.22143,-5.25287 -24.60204,0 -14.96071,10.30626 -33.24601,17.35441 -51.53132,17.35441 -17.88635,0 -36.77008,-7.18114 -51.46482,-17.35441 -7.91255,-5.65183 -18.68425,-5.18638 -26.06487,1.13036 -9.57485,7.91255 -21.609904,13.96332 -33.644959,16.75599 -11.436627,2.65968 -18.551273,14.09631 -15.891593,25.53293 2.659681,11.43663 14.096308,18.55128 25.532935,15.8916 16.290547,-3.79005 29.854917,-10.97119 38.698357,-16.62301 19.28268,10.37276 40.89259,17.22143 62.83495,17.22143 21.21096,0 40.29417,-6.58271 53.45959,-12.56699 3.85653,-1.79528 7.38061,-3.52407 10.37275,-5.11988 2.99214,1.59581 6.44973,3.39109 10.37275,5.11988 13.16542,5.98428 32.24863,12.56699 53.45959,12.56699 21.94236,0 43.55227,-6.84867 62.83495,-17.15494 8.90993,5.58533 22.40781,12.83296 38.69836,16.62301 11.43662,2.65968 22.87325,-4.45497 25.53293,-15.89159 2.65968,-11.43663 -4.45496,-22.87326 -15.89159,-25.53294 -12.03506,-2.79266 -24.07011,-8.84344 -33.64496,-16.75599 -7.38062,-6.25025 -18.15232,-6.71569 -26.06487,-1.13036 -14.62825,10.10678 -33.57847,17.28792 -51.46482,17.28792 -18.28531,0 -36.57061,-7.04815 -51.53132,-17.35441" id="path2" style="stroke-width:104.672;fill:#ffffff;fill-opacity:1;stroke:#ffffff;stroke-opacity:1;stroke-dasharray:none" />
  <path fill="currentColor" d="m 138.97405,85.767718 c -17.62038,0 -31.91617,14.295782 -31.91617,31.916172 V 255.98728 H 96.419159 c -17.620385,0 -31.916169,14.29578 -31.916169,31.91617 v 63.83233 c 0,5.31937 1.329841,10.37276 3.590569,14.76123 2.526697,-1.13036 5.186378,-2.06125 7.979042,-2.72617 8.710455,-2.06125 17.753369,-6.51622 24.801519,-12.36752 14.76123,-12.434 36.10517,-13.36489 51.93027,-2.26072 11.96856,8.24501 26.6633,13.49788 39.36327,13.49788 14.02982,0 27.92665,-5.65183 39.36328,-13.49788 14.69473,-10.30627 34.30988,-10.30627 49.00461,0 12.23454,8.44448 26.33084,13.49788 39.36328,13.49788 12.63348,0 27.39471,-5.25287 39.36327,-13.49788 15.8251,-11.10417 37.10255,-10.17328 51.93027,2.26072 7.04815,5.8513 16.09107,10.37276 24.80152,12.36752 2.79267,0.66492 5.45235,1.59581 7.97904,2.72617 2.19424,-4.38847 3.52408,-9.44186 3.52408,-14.76123 v -63.83233 c 0,-17.62039 -14.29578,-31.91617 -31.91617,-31.91617 h -31.91617 v -97.54379 l 16.88898,16.88897 c 8.3115,8.3115 21.80938,8.3115 30.12088,0 8.3115,-8.3115 8.3115,-21.80938 0,-30.12088 L 377.48092,92.017968 c -8.31151,-8.311503 -21.80939,-8.311503 -30.12089,0 l -53.19361,53.193612 c -8.3115,8.3115 -8.3115,21.80938 0,30.12088 8.3115,8.3115 21.80938,8.3115 30.12088,0 l 16.82248,-16.88897 v 97.54379 H 256 V 117.68389 C 256,100.0635 241.70422,85.767718 224.08383,85.767718 Z M 268.30102,366.29754 c -7.38061,-5.25287 -17.22143,-5.25287 -24.60204,0 -14.96071,10.30626 -33.24601,17.35441 -51.53132,17.35441 -17.88635,0 -36.77008,-7.18114 -51.46482,-17.35441 -7.91255,-5.65183 -18.68425,-5.18638 -26.06487,1.13036 -9.57485,7.91255 -21.609904,13.96332 -33.644959,16.75599 -11.436627,2.65968 -18.551273,14.09631 -15.891593,25.53293 2.659681,11.43663 14.096308,18.55128 25.532935,15.8916 16.290547,-3.79005 29.854917,-10.97119 38.698357,-16.62301 19.28268,10.37276 40.89259,17.22143 62.83495,17.22143 21.21096,0 40.29417,-6.58271 53.45959,-12.56699 3.85653,-1.79528 7.38061,-3.52407 10.37275,-5.11988 2.99214,1.59581 6.44973,3.39109 10.37275,5.11988 13.16542,5.98428 32.24863,12.56699 53.45959,12.56699 21.94236,0 43.55227,-6.84867 62.83495,-17.15494 8.90993,5.58533 22.40781,12.83296 38.69836,16.62301 11.43662,2.65968 22.87325,-4.45497 25.53293,-15.89159 2.65968,-11.43663 -4.45496,-22.87326 -15.89159,-25.53294 -12.03506,-2.79266 -24.07011,-8.84344 -33.64496,-16.75599 -7.38062,-6.25025 -18.15232,-6.71569 -26.06487,-1.13036 -14.62825,10.10678 -33.57847,17.28792 -51.46482,17.28792 -18.28531,0 -36.57061,-7.04815 -51.53132,-17.35441" id="path1" style="stroke-width:0.66492;fill:#000000;fill-opacity:1" />
</svg>
