<?xml version="1.0" encoding="UTF-8" standalone="no"?>
<svg width="32" height="32" viewBox="0 0 24 24" version="1.1" id="svg1" sodipodi:docname="train.svg" inkscape:version="1.3.2 (1:1.3.2+202311252150+091e20ef0f)" inkscape:export-filename="train.png" inkscape:export-xdpi="96" inkscape:export-ydpi="96"
  xmlns:inkscape="http://www.inkscape.org/namespaces/inkscape"
  xmlns:sodipodi="http://sodipodi.sourceforge.net/DTD/sodipodi-0.dtd"
  xmlns="http://www.w3.org/2000/svg"
  xmlns:svg="http://www.w3.org/2000/svg">
  <defs id="defs1" />
  <sodipodi:namedview id="namedview1" pagecolor="#ffffff" bordercolor="#666666" borderopacity="1.0" inkscape:showpageshadow="2" inkscape:pageopacity="0.0" inkscape:pagecheckerboard="0" inkscape:deskcolor="#d1d1d1" inkscape:zoom="8.5736697" inkscape:cx="13.471478" inkscape:cy="27.4095" inkscape:window-width="1920" inkscape:window-height="1022" inkscape:window-x="1920" inkscape:window-y="0" inkscape:window-maximized="1" inkscape:current-layer="svg1" showguides="true">
    <sodipodi:guide position="3.9364707,27.149177" orientation="1,0" id="guide2" inkscape:locked="false" />
  </sodipodi:namedview>
  <rect style="display:none;opacity:0.514098;fill:#93b685;stroke:#a1af8e;stroke-width:0.75;stroke-linecap:round;stroke-linejoin:round;stroke-opacity:0.491331;paint-order:stroke markers fill" id="rect1" width="24" height="24" x="0" y="0" sodipodi:insensitive="true" />
  <path fill="currentColor" d="M 12,2.5 C 8,2.5 4,3 4,6.5 V 16 a 3.5,3.5 0 0 0 3.5,3.5 L 6,21 v 0.5 h 2.23 l 2,-2 H 14 l 2,2 h 2 V 21 L 16.5,19.5 A 3.5,3.5 0 0 0 20,16 V 6.5 c 0,-3.5 -3.58,-4 -8,-4 m -4.5,15 A 1.5,1.5 0 0 1 6,16 1.5,1.5 0 0 1 7.5,14.5 1.5,1.5 0 0 1 9,16 1.5,1.5 0 0 1 7.5,17.5 m 3.5,-7 H 6 v -4 h 5 z m 2,0 v -4 h 5 v 4 z m 3.5,7 A 1.5,1.5 0 0 1 15,16 1.5,1.5 0 0 1 16.5,14.5 1.5,1.5 0 0 1 18,16 1.5,1.5 0 0 1 16.5,17.5" id="path2" style="display:inline;fill:#ffffff;stroke:#ffffff;stroke-width:4.5;stroke-dasharray:none;stroke-opacity:1" />
  <path fill="currentColor" d="M 12,2.5 C 8,2.5 4,3 4,6.5 V 16 a 3.5,3.5 0 0 0 3.5,3.5 L 6,21 v 0.5 h 2.23 l 2,-2 H 14 l 2,2 h 2 V 21 L 16.5,19.5 A 3.5,3.5 0 0 0 20,16 V 6.5 c 0,-3.5 -3.58,-4 -8,-4 m -4.5,15 A 1.5,1.5 0 0 1 6,16 1.5,1.5 0 0 1 7.5,14.5 1.5,1.5 0 0 1 9,16 1.5,1.5 0 0 1 7.5,17.5 m 3.5,-7 H 6 v -4 h 5 z m 2,0 v -4 h 5 v 4 z m 3.5,7 A 1.5,1.5 0 0 1 15,16 1.5,1.5 0 0 1 16.5,14.5 1.5,1.5 0 0 1 18,16 1.5,1.5 0 0 1 16.5,17.5" id="path1" style="display:inline;fill:#000000;fill-opacity:1" />
</svg>
