<?xml version="1.0" encoding="UTF-8" standalone="no"?>
<svg
   viewBox="0 0 32 32"
   version="1.1"
   id="svg1"
   sodipodi:docname="abri.svg"
   width="32"
   height="32"
   inkscape:version="1.3.2 (1:1.3.2+202311252150+091e20ef0f)"
   inkscape:export-filename="abri.png"
   inkscape:export-xdpi="96"
   inkscape:export-ydpi="96"
   xmlns:inkscape="http://www.inkscape.org/namespaces/inkscape"
   xmlns:sodipodi="http://sodipodi.sourceforge.net/DTD/sodipodi-0.dtd"
   xmlns="http://www.w3.org/2000/svg"
   xmlns:svg="http://www.w3.org/2000/svg">
  <defs
     id="defs1" />
  <sodipodi:namedview
     id="namedview1"
     pagecolor="#ffffff"
     bordercolor="#666666"
     borderopacity="1.0"
     inkscape:showpageshadow="2"
     inkscape:pageopacity="0.0"
     inkscape:pagecheckerboard="0"
     inkscape:deskcolor="#d1d1d1"
     showguides="true"
     inkscape:zoom="17.721864"
     inkscape:cx="9.0283958"
     inkscape:cy="20.708883"
     inkscape:window-width="1920"
     inkscape:window-height="1048"
     inkscape:window-x="0"
     inkscape:window-y="0"
     inkscape:window-maximized="1"
     inkscape:current-layer="svg1">
    <sodipodi:guide
       position="3.9900249,26.054863"
       orientation="1,0"
       id="guide1"
       inkscape:locked="false" />
  </sodipodi:namedview>
  <!--!Font Awesome Free 6.6.0 by @fontawesome - https://fontawesome.com License - https://fontawesome.com/license/free Copyright 2024 Fonticons, Inc.-->
  <path
     d="m 16.746503,4.1780312 c -0.460109,-0.2629191 -1.028203,-0.2629191 -1.493005,0 L 4.7367341,10.18761 c -0.4648033,0.267614 -0.7558923,0.765283 -0.7558923,1.305205 v 15.023948 c 0,0.831012 0.6713827,1.502395 1.5023947,1.502395 0.8310121,0 1.5023948,-0.671383 1.5023948,-1.502395 V 12.366082 L 16,7.2156856 25.014369,12.366082 v 14.150681 c 0,0.831012 0.671382,1.502395 1.502394,1.502395 0.831013,0 1.502395,-0.671383 1.502395,-1.502395 V 11.492815 c 0,-0.539922 -0.291089,-1.037591 -0.755893,-1.305205 z M 16,13.746407 a 1.8779934,1.8779934 0 1 0 0,-3.7559861 1.8779934,1.8779934 0 1 0 0,3.7559861 z m -0.3756,13.145954 v -4.131585 h 0.751198 v 4.131585 c 0,0.624434 0.502363,1.126797 1.126797,1.126797 0.624432,0 1.126796,-0.502363 1.126796,-1.126797 v -8.192746 l 1.26295,2.342797 c 0.295784,0.549313 0.976556,0.751197 1.52587,0.460108 0.549313,-0.291088 0.751197,-0.976556 0.460108,-1.525869 L 20.09872,16.676077 C 19.380387,15.338008 17.981282,14.5023 16.460108,14.5023 h -0.915522 c -1.521175,0 -2.915585,0.835707 -3.638612,2.173777 l -1.779399,3.300574 c -0.2957836,0.549313 -0.0892,1.230085 0.460109,1.525869 0.549313,0.295785 1.230085,0.08921 1.525869,-0.460107 l 1.258255,-2.342797 v 8.192746 c 0,0.624433 0.502364,1.126797 1.126797,1.126797 0.624432,0 1.126795,-0.502364 1.126795,-1.126798 z"
     id="path2"
     style="stroke-width:7.247;fill:#ffffff;fill-opacity:1;stroke:#ffffff;stroke-opacity:1;stroke-dasharray:none" />
  <path
     d="m 16.746503,4.1780312 c -0.460109,-0.2629191 -1.028203,-0.2629191 -1.493005,0 L 4.7367341,10.18761 c -0.4648033,0.267614 -0.7558923,0.765283 -0.7558923,1.305205 v 15.023948 c 0,0.831012 0.6713827,1.502395 1.5023947,1.502395 0.8310121,0 1.5023948,-0.671383 1.5023948,-1.502395 V 12.366082 L 16,7.2156856 25.014369,12.366082 v 14.150681 c 0,0.831012 0.671382,1.502395 1.502394,1.502395 0.831013,0 1.502395,-0.671383 1.502395,-1.502395 V 11.492815 c 0,-0.539922 -0.291089,-1.037591 -0.755893,-1.305205 z M 16,13.746407 a 1.8779934,1.8779934 0 1 0 0,-3.7559861 1.8779934,1.8779934 0 1 0 0,3.7559861 z m -0.3756,13.145954 v -4.131585 h 0.751198 v 4.131585 c 0,0.624434 0.502363,1.126797 1.126797,1.126797 0.624432,0 1.126796,-0.502363 1.126796,-1.126797 v -8.192746 l 1.26295,2.342797 c 0.295784,0.549313 0.976556,0.751197 1.52587,0.460108 0.549313,-0.291088 0.751197,-0.976556 0.460108,-1.525869 L 20.09872,16.676077 C 19.380387,15.338008 17.981282,14.5023 16.460108,14.5023 h -0.915522 c -1.521175,0 -2.915585,0.835707 -3.638612,2.173777 l -1.779399,3.300574 c -0.2957836,0.549313 -0.0892,1.230085 0.460109,1.525869 0.549313,0.295785 1.230085,0.08921 1.525869,-0.460107 l 1.258255,-2.342797 v 8.192746 c 0,0.624433 0.502364,1.126797 1.126797,1.126797 0.624432,0 1.126795,-0.502364 1.126795,-1.126798 z"
     id="path1"
     style="stroke-width:0.0469498;fill:#246138;fill-opacity:1" />
</svg>
