<?xml version="1.0" encoding="UTF-8" standalone="no"?>
<svg viewBox="0 0 32 32" height="32" width="32" version="1.1" id="svg4" sodipodi:docname="barrage.svg" inkscape:version="1.3.2 (1:1.3.2+202311252150+091e20ef0f)" inkscape:export-filename="barrage.png" inkscape:export-xdpi="96" inkscape:export-ydpi="96"
  xmlns:inkscape="http://www.inkscape.org/namespaces/inkscape"
  xmlns:sodipodi="http://sodipodi.sourceforge.net/DTD/sodipodi-0.dtd"
  xmlns="http://www.w3.org/2000/svg"
  xmlns:svg="http://www.w3.org/2000/svg"
  xmlns:rdf="http://www.w3.org/1999/02/22-rdf-syntax-ns#"
  xmlns:cc="http://creativecommons.org/ns#"
  xmlns:dc="http://purl.org/dc/elements/1.1/">
  <defs id="defs4" />
  <sodipodi:namedview id="namedview4" pagecolor="#ffffff" bordercolor="#666666" borderopacity="1.0" inkscape:showpageshadow="2" inkscape:pageopacity="0.0" inkscape:pagecheckerboard="0" inkscape:deskcolor="#d1d1d1" inkscape:zoom="23.515152" inkscape:cx="16.925258" inkscape:cy="16.627577" inkscape:window-width="1920" inkscape:window-height="1022" inkscape:window-x="1920" inkscape:window-y="0" inkscape:window-maximized="1" inkscape:current-layer="svg4" />
  <title id="title1">diamond.svg</title>
  <path fill="#ffffff" d="M 15.272498,4.3609964 6.1941067,14.523975 c -0.1401018,0.155129 -0.2213164,0.351271 -0.2308722,0.554493 -0.00961,0.203203 0.05312,0.388385 0.17814,0.554492 l 9.0744735,11.940257 c 0.103191,0.137144 0.239891,0.248782 0.398606,0.326041 0.158714,0.07708 0.334821,0.117368 0.513534,0.117368 0.178713,0 0.354819,-0.04029 0.513534,-0.117368 0.158714,-0.07726 0.295396,-0.188897 0.398606,-0.326041 L 26.114582,15.63296 c 0.124946,-0.166107 0.187788,-0.351289 0.178177,-0.554492 -0.0096,-0.203222 -0.09075,-0.399364 -0.230853,-0.554493 L 16.983477,4.3609964 C 16.878235,4.2442942 16.747189,4.150548 16.599454,4.0862454 16.4517,4.0219244 16.290824,3.9886174 16.127988,3.9886174 c -0.162836,0 -0.323713,0.033307 -0.471467,0.097628 -0.147735,0.064303 -0.27878,0.1580488 -0.384023,0.274751 z" style="stroke-linejoin:round;stroke-miterlimit:4" stroke="#ffffff" stroke-width="7.39323" id="path3" />
  <path fill="#000000" d="M 15.272498,4.3609964 6.1941067,14.523975 c -0.1401018,0.155129 -0.2213164,0.351271 -0.2308722,0.554493 -0.00961,0.203203 0.05312,0.388385 0.17814,0.554492 l 9.0744735,11.940257 c 0.103191,0.137144 0.239891,0.248782 0.398606,0.326041 0.158714,0.07708 0.334821,0.117368 0.513534,0.117368 0.178713,0 0.354819,-0.04029 0.513534,-0.117368 0.158714,-0.07726 0.295396,-0.188897 0.398606,-0.326041 L 26.114582,15.63296 c 0.124946,-0.166107 0.187788,-0.351289 0.178177,-0.554492 -0.0096,-0.203222 -0.09075,-0.399364 -0.230853,-0.554493 L 16.983477,4.3609964 C 16.878235,4.2442942 16.747189,4.150548 16.599454,4.0862454 16.4517,4.0219244 16.290824,3.9886174 16.127988,3.9886174 c -0.162836,0 -0.323713,0.033307 -0.471467,0.097628 -0.147735,0.064303 -0.27878,0.1580488 -0.384023,0.274751 z" id="path4" style="fill:#000000;fill-opacity:1;stroke-width:1.84831" />
  <metadata id="metadata4">
    <rdf:RDF>
      <cc:Work rdf:about="">
        <dc:title>diamond.svg</dc:title>
      </cc:Work>
    </rdf:RDF>
  </metadata>
</svg>
