<?xml version="1.0" encoding="UTF-8" standalone="no"?>
<svg viewBox="0 0 320.14999 320.14999" version="1.1" id="svg1" sodipodi:docname="barriere.svg" width="320.14999" height="320.14999" inkscape:version="1.3.2 (1:1.3.2+202311252150+091e20ef0f)" inkscape:export-filename="barriere.png" inkscape:export-xdpi="6.2970486" inkscape:export-ydpi="6.2970486"
  xmlns:inkscape="http://www.inkscape.org/namespaces/inkscape"
  xmlns:sodipodi="http://sodipodi.sourceforge.net/DTD/sodipodi-0.dtd"
  xmlns="http://www.w3.org/2000/svg"
  xmlns:svg="http://www.w3.org/2000/svg">
  <defs id="defs1" />
  <sodipodi:namedview id="namedview1" pagecolor="#ffffff" bordercolor="#666666" borderopacity="1.0" inkscape:showpageshadow="2" inkscape:pageopacity="0.0" inkscape:pagecheckerboard="0" inkscape:deskcolor="#d1d1d1" inkscape:zoom="1.515625" inkscape:cx="160.3299" inkscape:cy="160.3299" inkscape:window-width="1920" inkscape:window-height="1048" inkscape:window-x="0" inkscape:window-y="0" inkscape:window-maximized="1" inkscape:current-layer="svg1" />
  <!--!Font Awesome Free 6.6.0 by @fontawesome - https://fontawesome.com License - https://fontawesome.com/license/free Copyright 2024 Fonticons, Inc.-->
  <path d="m 310.675,54.675 c 12.5,-12.5 12.5,-32.8 0,-45.3 -12.5,-12.5 -32.8,-12.5 -45.3,0 l -105.3,105.4 -105.4,-105.3 c -12.5,-12.5 -32.8,-12.5 -45.3,0 -12.5,12.5 -12.5,32.8 0,45.3 l 105.4,105.3 -105.3,105.4 c -12.5,12.5 -12.5,32.8 0,45.3 12.5,12.5 32.8,12.5 45.3,0 l 105.3,-105.4 105.4,105.3 c 12.5,12.5 32.8,12.5 45.3,0 12.5,-12.5 12.5,-32.8 0,-45.3 l -105.4,-105.3 z" id="path1" style="fill:#000000;fill-opacity:1" />
</svg>
