<?xml version="1.0" encoding="UTF-8" standalone="no"?>
<svg
   viewBox="0 0 128 128"
   version="1.1"
   id="svg1"
   sodipodi:docname="cimetiere.svg"
   width="128"
   height="128"
   inkscape:version="1.3.2 (1:1.3.2+202311252150+091e20ef0f)"
   inkscape:export-filename="cimetiere.png"
   inkscape:export-xdpi="96"
   inkscape:export-ydpi="96"
   xmlns:inkscape="http://www.inkscape.org/namespaces/inkscape"
   xmlns:sodipodi="http://sodipodi.sourceforge.net/DTD/sodipodi-0.dtd"
   xmlns="http://www.w3.org/2000/svg"
   xmlns:svg="http://www.w3.org/2000/svg">
  <defs
     id="defs1" />
  <sodipodi:namedview
     id="namedview1"
     pagecolor="#ffffff"
     bordercolor="#666666"
     borderopacity="1.0"
     inkscape:showpageshadow="2"
     inkscape:pageopacity="0.0"
     inkscape:pagecheckerboard="0"
     inkscape:deskcolor="#d1d1d1"
     showguides="true"
     showgrid="true"
     inkscape:zoom="4.4304659"
     inkscape:cx="49.204757"
     inkscape:cy="65.23016"
     inkscape:window-width="1920"
     inkscape:window-height="1048"
     inkscape:window-x="0"
     inkscape:window-y="0"
     inkscape:window-maximized="1"
     inkscape:current-layer="svg1">
    <inkscape:grid
       id="grid2"
       units="px"
       originx="0"
       originy="0"
       spacingx="1"
       spacingy="1"
       empcolor="#0099e5"
       empopacity="0.30196078"
       color="#0099e5"
       opacity="0.14901961"
       empspacing="16"
       dotted="false"
       gridanglex="30"
       gridanglez="30"
       visible="true" />
  </sodipodi:namedview>
  <!--!Font Awesome Free 6.6.0 by @fontawesome - https://fontawesome.com License - https://fontawesome.com/license/free Copyright 2024 Fonticons, Inc.-->
  <rect
     style="opacity:0.514098;fill:#e6e6e6;stroke:none;stroke-width:7.484;stroke-linecap:round;stroke-linejoin:round;paint-order:stroke markers fill"
     id="rect1"
     width="128"
     height="128"
     x="0"
     y="0" />
  <path
     d="m 30.666667,16 c -2.208333,0 -4,1.791666 -4,4 v 6.666666 H 20 c -2.208333,0 -4,1.791668 -4,4.000001 v 2.666666 c 0,2.208335 1.791667,4.000001 4,4.000001 h 6.666667 v 17.333334 c 0,2.208334 1.791667,3.999999 4,3.999999 h 2.666666 c 2.208335,0 4.000001,-1.791665 4.000001,-3.999999 V 37.333334 h 6.666667 c 2.208333,0 4,-1.791666 4,-4.000001 v -2.666666 c 0,-2.208333 -1.791667,-4.000001 -4,-4.000001 H 37.333334 V 20 c 0,-2.208334 -1.791666,-4 -4.000001,-4 z"
     id="path1"
     style="stroke-width:0.0833334;fill:#000000;fill-opacity:1" />
  <path
     d="m 94.666667,80 c -2.208333,0 -4,1.791666 -4,4 v 6.666666 H 84 c -2.208333,0 -4,1.791668 -4,4.000001 v 2.666666 c 0,2.208335 1.791667,3.999997 4,3.999997 h 6.666667 v 17.33334 c 0,2.20833 1.791667,4 4,4 h 2.666666 c 2.208335,0 3.999997,-1.79167 3.999997,-4 V 101.33333 H 108 c 2.20833,0 4,-1.791662 4,-3.999997 v -2.666666 c 0,-2.208333 -1.79167,-4.000001 -4,-4.000001 h -6.66667 V 84 c 0,-2.208334 -1.791662,-4 -3.999997,-4 z"
     id="path1-5"
     style="stroke-width:0.0833334;fill:#000000;fill-opacity:1" />
</svg>
