<?xml version="1.0" encoding="UTF-8" standalone="no"?>
<svg
   viewBox="0 0 32 32"
   version="1.1"
   id="svg1"
   sodipodi:docname="electricite.svg"
   width="32"
   height="32"
   inkscape:version="1.3.2 (1:1.3.2+202311252150+091e20ef0f)"
   inkscape:export-filename="electricite.png"
   inkscape:export-xdpi="96"
   inkscape:export-ydpi="96"
   xmlns:inkscape="http://www.inkscape.org/namespaces/inkscape"
   xmlns:sodipodi="http://sodipodi.sourceforge.net/DTD/sodipodi-0.dtd"
   xmlns="http://www.w3.org/2000/svg"
   xmlns:svg="http://www.w3.org/2000/svg">
  <defs
     id="defs1" />
  <sodipodi:namedview
     id="namedview1"
     pagecolor="#ffffff"
     bordercolor="#666666"
     borderopacity="1.0"
     inkscape:showpageshadow="2"
     inkscape:pageopacity="0.0"
     inkscape:pagecheckerboard="0"
     inkscape:deskcolor="#d1d1d1"
     showguides="true"
     inkscape:zoom="17.721864"
     inkscape:cx="16.476822"
     inkscape:cy="22.796699"
     inkscape:window-width="1920"
     inkscape:window-height="1048"
     inkscape:window-x="0"
     inkscape:window-y="0"
     inkscape:window-maximized="1"
     inkscape:current-layer="svg1">
    <sodipodi:guide
       position="3.9499232,25.285131"
       orientation="1,0"
       id="guide1"
       inkscape:locked="false" />
  </sodipodi:namedview>
  <!--!Font Awesome Free 6.6.0 by @fontawesome - https://fontawesome.com License - https://fontawesome.com/license/free Copyright 2024 Fonticons, Inc.-->
  <path
     d="M 21.272691,7.1112695 C 21.520768,6.5352259 21.335761,5.8624744 20.826993,5.492461 20.318225,5.1224476 19.624449,5.1560852 19.149319,5.5681456 L 8.385293,14.986668 c -0.4204698,0.370014 -0.5718389,0.962876 -0.3742181,1.484258 0.1976208,0.521383 0.7021846,0.874577 1.2614093,0.874577 h 4.6882378 l -3.233413,7.543228 c -0.248077,0.576043 -0.06307,1.248794 0.445698,1.618808 0.508769,0.370014 1.202544,0.336376 1.677675,-0.07568 l 10.764025,-9.418525 c 0.42047,-0.370015 0.571839,-0.962876 0.374219,-1.484259 -0.197621,-0.521383 -0.69798,-0.870372 -1.261409,-0.870372 h -4.688239 z"
     id="path1"
     style="fill:#969696;fill-opacity:1;stroke-width:0.042047" />
</svg>
