<?xml version="1.0" encoding="UTF-8" standalone="no"?>
<svg width="32" height="32" viewBox="0 0 32 32" version="1.1" id="svg1" sodipodi:docname="eolienne.svg" inkscape:version="1.3.2 (1:1.3.2+202311252150+091e20ef0f)" inkscape:export-filename="eolienne.png" inkscape:export-xdpi="96" inkscape:export-ydpi="96"
  xmlns:inkscape="http://www.inkscape.org/namespaces/inkscape"
  xmlns:sodipodi="http://sodipodi.sourceforge.net/DTD/sodipodi-0.dtd"
  xmlns="http://www.w3.org/2000/svg"
  xmlns:svg="http://www.w3.org/2000/svg">
  <defs id="defs1" />
  <sodipodi:namedview id="namedview1" pagecolor="#ffffff" bordercolor="#666666" borderopacity="1.0" inkscape:showpageshadow="2" inkscape:pageopacity="0.0" inkscape:pagecheckerboard="0" inkscape:deskcolor="#d1d1d1" showguides="true" inkscape:zoom="16.166667" inkscape:cx="13.113402" inkscape:cy="14.412371" inkscape:window-width="1920" inkscape:window-height="1022" inkscape:window-x="1920" inkscape:window-y="0" inkscape:window-maximized="1" inkscape:current-layer="svg1">
    <sodipodi:guide position="3.9896907,24.14433" orientation="1,0" id="guide1" inkscape:locked="false" />
  </sodipodi:namedview>
  <path fill="none" stroke="currentColor" stroke-linecap="round" stroke-linejoin="round" stroke-width="1.84656" d="m 17.846556,14.769014 a 1.8465561,1.8465561 0 1 1 -3.693112,0 1.8465561,1.8465561 0 0 1 3.693112,0 m 9.23278,-0.615518 A 11.300923,11.300923 0 0 0 22.243822,5.5362345 m -12.4876435,0 A 11.300923,11.300923 0 0 0 4.9206637,14.153496 M 16,12.922458 V 9.8448649 m -2.217098,-3.7054221 0.187117,1.8674837 c 0.06894,0.6881495 0.102176,1.0316089 0.270829,1.2852026 A 1.2310374,1.2310374 0 0 0 14.6951,9.7032956 c 0.268367,0.1415693 0.614288,0.1415693 1.3049,0.1415693 0.690612,0 1.036533,0 1.3049,-0.1415693 A 1.2310374,1.2310374 0 0 0 17.760383,9.2921291 C 17.927805,9.0385354 17.961043,8.695076 18.031212,8.0069265 L 18.215867,6.1394428 C 18.318043,5.1213749 18.368516,4.6129565 18.132157,4.2498004 A 1.2310374,1.2310374 0 0 0 17.871177,3.9605067 C 17.535104,3.6896784 17.022992,3.6896784 16,3.6896784 c -1.022992,0 -1.535104,0 -1.872408,0.2708283 a 1.2310374,1.2310374 0 0 0 -0.26098,0.2892937 c -0.236359,0.361925 -0.184655,0.8715745 -0.08371,1.8896424 m 0.616749,9.5528492 -2.665195,1.538797 m -2.0976882,3.77313 1.5240242,-1.095624 c 0.561353,-0.402549 0.84203,-0.604439 0.977444,-0.876498 a 1.2310374,1.2310374 0 0 0 0.129259,-0.599515 c -0.01231,-0.304067 -0.184656,-0.603209 -0.529346,-1.200262 -0.345922,-0.598284 -0.519498,-0.898657 -0.775554,-1.059923 a 1.2310374,1.2310374 0 0 0 -0.584743,-0.188349 c -0.302835,-0.01846 -0.6179804,0.123104 -1.2470405,0.408705 l -1.711142,0.77186 C 6.4865432,17.585628 6.0212111,17.796135 5.8242451,18.18145 a 1.2310374,1.2310374 0 0 0 -0.1194106,0.370542 c -0.065245,0.428401 0.1895797,0.871575 0.7016913,1.757922 0.5121115,0.886346 0.7669363,1.32952 1.1707165,1.485862 q 0.1846556,0.07017 0.3816216,0.08125 c 0.4308631,0.02339 0.8469537,-0.275752 1.6779039,-0.872805 m 7.9635812,-5.311927 2.665195,1.538797 m 4.314786,-0.06771 -1.711141,-0.77186 c -0.629061,-0.28437 -0.944206,-0.42717 -1.247041,-0.408705 a 1.2310374,1.2310374 0 0 0 -0.584743,0.188349 c -0.256056,0.162497 -0.429632,0.461639 -0.775554,1.058692 -0.34469,0.599515 -0.517035,0.898657 -0.529346,1.201493 -0.0086,0.208045 0.03693,0.413628 0.129259,0.599515 0.135414,0.270828 0.416091,0.473949 0.977444,0.876498 l 1.524024,1.095624 c 0.83095,0.597053 1.24581,0.896195 1.679135,0.874036 a 1.2310374,1.2310374 0 0 0 0.380391,-0.08248 c 0.40378,-0.157573 0.658605,-0.600747 1.169485,-1.485862 0.512112,-0.886347 0.768167,-1.329521 0.701691,-1.757922 A 1.2310374,1.2310374 0 0 0 26.175755,18.18145 C 25.978789,17.794904 25.513457,17.584397 24.58033,17.163382 M 16,16.61557 v 11.694855 m 7.386224,0 H 8.6137758" color="currentColor" id="path2" style="fill:#ffffff;fill-opacity:1;stroke:#ffffff;stroke-opacity:1;stroke-width:6.547;stroke-dasharray:none" />
  <path fill="none" stroke="currentColor" stroke-linecap="round" stroke-linejoin="round" stroke-width="1.84656" d="m 17.846556,14.769014 a 1.8465561,1.8465561 0 1 1 -3.693112,0 1.8465561,1.8465561 0 0 1 3.693112,0 m 9.23278,-0.615518 A 11.300923,11.300923 0 0 0 22.243822,5.5362345 m -12.4876435,0 A 11.300923,11.300923 0 0 0 4.9206637,14.153496 M 16,12.922458 V 9.8448649 m -2.217098,-3.7054221 0.187117,1.8674837 c 0.06894,0.6881495 0.102176,1.0316089 0.270829,1.2852026 A 1.2310374,1.2310374 0 0 0 14.6951,9.7032956 c 0.268367,0.1415693 0.614288,0.1415693 1.3049,0.1415693 0.690612,0 1.036533,0 1.3049,-0.1415693 A 1.2310374,1.2310374 0 0 0 17.760383,9.2921291 C 17.927805,9.0385354 17.961043,8.695076 18.031212,8.0069265 L 18.215867,6.1394428 C 18.318043,5.1213749 18.368516,4.6129565 18.132157,4.2498004 A 1.2310374,1.2310374 0 0 0 17.871177,3.9605067 C 17.535104,3.6896784 17.022992,3.6896784 16,3.6896784 c -1.022992,0 -1.535104,0 -1.872408,0.2708283 a 1.2310374,1.2310374 0 0 0 -0.26098,0.2892937 c -0.236359,0.361925 -0.184655,0.8715745 -0.08371,1.8896424 m 0.616749,9.5528492 -2.665195,1.538797 m -2.0976882,3.77313 1.5240242,-1.095624 c 0.561353,-0.402549 0.84203,-0.604439 0.977444,-0.876498 a 1.2310374,1.2310374 0 0 0 0.129259,-0.599515 c -0.01231,-0.304067 -0.184656,-0.603209 -0.529346,-1.200262 -0.345922,-0.598284 -0.519498,-0.898657 -0.775554,-1.059923 a 1.2310374,1.2310374 0 0 0 -0.584743,-0.188349 c -0.302835,-0.01846 -0.6179804,0.123104 -1.2470405,0.408705 l -1.711142,0.77186 C 6.4865432,17.585628 6.0212111,17.796135 5.8242451,18.18145 a 1.2310374,1.2310374 0 0 0 -0.1194106,0.370542 c -0.065245,0.428401 0.1895797,0.871575 0.7016913,1.757922 0.5121115,0.886346 0.7669363,1.32952 1.1707165,1.485862 q 0.1846556,0.07017 0.3816216,0.08125 c 0.4308631,0.02339 0.8469537,-0.275752 1.6779039,-0.872805 m 7.9635812,-5.311927 2.665195,1.538797 m 4.314786,-0.06771 -1.711141,-0.77186 c -0.629061,-0.28437 -0.944206,-0.42717 -1.247041,-0.408705 a 1.2310374,1.2310374 0 0 0 -0.584743,0.188349 c -0.256056,0.162497 -0.429632,0.461639 -0.775554,1.058692 -0.34469,0.599515 -0.517035,0.898657 -0.529346,1.201493 -0.0086,0.208045 0.03693,0.413628 0.129259,0.599515 0.135414,0.270828 0.416091,0.473949 0.977444,0.876498 l 1.524024,1.095624 c 0.83095,0.597053 1.24581,0.896195 1.679135,0.874036 a 1.2310374,1.2310374 0 0 0 0.380391,-0.08248 c 0.40378,-0.157573 0.658605,-0.600747 1.169485,-1.485862 0.512112,-0.886347 0.768167,-1.329521 0.701691,-1.757922 A 1.2310374,1.2310374 0 0 0 26.175755,18.18145 C 25.978789,17.794904 25.513457,17.584397 24.58033,17.163382 M 16,16.61557 v 11.694855 m 7.386224,0 H 8.6137758" color="currentColor" id="path1" style="fill:none;fill-opacity:1;stroke:#000000;stroke-opacity:1" />
</svg>
