<?xml version="1.0" encoding="UTF-8" standalone="no"?>
<svg
   width="32"
   height="32"
   viewBox="0 0 32 32"
   version="1.1"
   id="svg1"
   sodipodi:docname="feu.svg"
   inkscape:export-filename="feu.png"
   inkscape:export-xdpi="96"
   inkscape:export-ydpi="96"
   inkscape:version="1.3.2 (1:1.3.2+202311252150+091e20ef0f)"
   xmlns:inkscape="http://www.inkscape.org/namespaces/inkscape"
   xmlns:sodipodi="http://sodipodi.sourceforge.net/DTD/sodipodi-0.dtd"
   xmlns="http://www.w3.org/2000/svg"
   xmlns:svg="http://www.w3.org/2000/svg">
  <defs
     id="defs1" />
  <sodipodi:namedview
     id="namedview1"
     pagecolor="#ffffff"
     bordercolor="#666666"
     borderopacity="1.0"
     inkscape:showpageshadow="2"
     inkscape:pageopacity="0.0"
     inkscape:pagecheckerboard="0"
     inkscape:deskcolor="#d1d1d1"
     showguides="true"
     inkscape:zoom="16.166667"
     inkscape:cx="14.412371"
     inkscape:cy="17.010309"
     inkscape:window-width="1920"
     inkscape:window-height="1022"
     inkscape:window-x="1920"
     inkscape:window-y="0"
     inkscape:window-maximized="1"
     inkscape:current-layer="svg1">
    <sodipodi:guide
       position="3.9587629,29.71134"
       orientation="1,0"
       id="guide1"
       inkscape:locked="false" />
  </sodipodi:namedview>
  <path
     fill="currentColor"
     d="M 24.815819,15.101749 C 24.458272,14.635384 24.022998,14.2312 23.618815,13.827017 22.577266,12.894287 21.395807,12.22583 20.400895,11.246463 18.084614,8.9768181 17.571612,5.2303504 19.048435,2.3544313 17.571612,2.711978 16.281335,3.5203445 15.177604,4.4064385 11.151317,7.6399044 9.5656752,13.345106 11.462227,18.241941 c 0.06218,0.155456 0.124364,0.310911 0.124364,0.513002 0,0.342001 -0.233182,0.652912 -0.544093,0.777276 -0.357546,0.155455 -0.730638,0.06218 -1.026003,-0.186546 A 0.9327305,0.9327305 0 0 1 9.7988578,19.081399 C 8.0422154,16.858391 7.7623962,13.671562 8.9438549,11.122099 6.347755,13.236288 4.9331137,16.811755 5.1352053,20.18513 c 0.093273,0.777275 0.1865461,1.554551 0.4508197,2.331826 0.2176372,0.932731 0.6373659,1.865461 1.1037311,2.689373 1.6789149,2.689373 4.5859249,4.617016 7.7105719,5.005654 3.326739,0.419729 6.886661,-0.186546 9.436124,-2.487281 2.844828,-2.580555 3.83974,-6.71566 2.378463,-10.260036 l -0.202092,-0.404183 c -0.326456,-0.715094 -1.197004,-1.958734 -1.197004,-1.958734 m -4.912381,9.79367 c -0.435274,0.373092 -1.150367,0.777276 -1.710006,0.932731 -1.741097,0.62182 -3.482194,-0.248729 -4.508197,-1.274732 1.849915,-0.435274 2.953647,-1.803279 3.280102,-3.186829 0.264274,-1.243641 -0.233182,-2.269645 -0.435274,-3.466649 -0.186546,-1.150367 -0.155455,-2.129734 0.264274,-3.202374 0.295364,0.590729 0.606274,1.181458 0.979367,1.647823 1.197004,1.554551 3.07801,2.238554 3.482194,4.352743 0.06218,0.217637 0.09327,0.435274 0.09327,0.668457 0.04664,1.274731 -0.513002,2.673827 -1.445733,3.52883"
     id="path2"
     style="fill:#ffffff;fill-opacity:1;stroke:#ffffff;stroke-width:3.155;stroke-dasharray:none;stroke-opacity:1" />
  <path
     fill="currentColor"
     d="M 24.815819,15.101749 C 24.458272,14.635384 24.022998,14.2312 23.618815,13.827017 22.577266,12.894287 21.395807,12.22583 20.400895,11.246463 18.084614,8.9768181 17.571612,5.2303504 19.048435,2.3544313 17.571612,2.711978 16.281335,3.5203445 15.177604,4.4064385 11.151317,7.6399044 9.5656752,13.345106 11.462227,18.241941 c 0.06218,0.155456 0.124364,0.310911 0.124364,0.513002 0,0.342001 -0.233182,0.652912 -0.544093,0.777276 -0.357546,0.155455 -0.730638,0.06218 -1.026003,-0.186546 A 0.9327305,0.9327305 0 0 1 9.7988578,19.081399 C 8.0422154,16.858391 7.7623962,13.671562 8.9438549,11.122099 6.347755,13.236288 4.9331137,16.811755 5.1352053,20.18513 c 0.093273,0.777275 0.1865461,1.554551 0.4508197,2.331826 0.2176372,0.932731 0.6373659,1.865461 1.1037311,2.689373 1.6789149,2.689373 4.5859249,4.617016 7.7105719,5.005654 3.326739,0.419729 6.886661,-0.186546 9.436124,-2.487281 2.844828,-2.580555 3.83974,-6.71566 2.378463,-10.260036 l -0.202092,-0.404183 c -0.326456,-0.715094 -1.197004,-1.958734 -1.197004,-1.958734 m -4.912381,9.79367 c -0.435274,0.373092 -1.150367,0.777276 -1.710006,0.932731 -1.741097,0.62182 -3.482194,-0.248729 -4.508197,-1.274732 1.849915,-0.435274 2.953647,-1.803279 3.280102,-3.186829 0.264274,-1.243641 -0.233182,-2.269645 -0.435274,-3.466649 -0.186546,-1.150367 -0.155455,-2.129734 0.264274,-3.202374 0.295364,0.590729 0.606274,1.181458 0.979367,1.647823 1.197004,1.554551 3.07801,2.238554 3.482194,4.352743 0.06218,0.217637 0.09327,0.435274 0.09327,0.668457 0.04664,1.274731 -0.513002,2.673827 -1.445733,3.52883"
     id="path1"
     style="fill:#1f2937;fill-opacity:1;stroke-width:1.55455" />
</svg>
