<?xml version="1.0" encoding="UTF-8" standalone="no"?>
<svg
   width="32"
   height="32"
   viewBox="0 0 24 24"
   version="1.1"
   id="svg2"
   sodipodi:docname="fortification.svg"
   inkscape:export-filename="fortification.png"
   inkscape:export-xdpi="96"
   inkscape:export-ydpi="96"
   inkscape:version="1.3.2 (1:1.3.2+202311252150+091e20ef0f)"
   xmlns:inkscape="http://www.inkscape.org/namespaces/inkscape"
   xmlns:sodipodi="http://sodipodi.sourceforge.net/DTD/sodipodi-0.dtd"
   xmlns="http://www.w3.org/2000/svg"
   xmlns:svg="http://www.w3.org/2000/svg">
  <defs
     id="defs2" />
  <sodipodi:namedview
     id="namedview2"
     pagecolor="#ffffff"
     bordercolor="#666666"
     borderopacity="1.0"
     inkscape:showpageshadow="2"
     inkscape:pageopacity="0.0"
     inkscape:pagecheckerboard="0"
     inkscape:deskcolor="#d1d1d1"
     showguides="true"
     inkscape:zoom="24.25"
     inkscape:cx="16"
     inkscape:cy="16"
     inkscape:window-width="1920"
     inkscape:window-height="1022"
     inkscape:window-x="1920"
     inkscape:window-y="0"
     inkscape:window-maximized="1"
     inkscape:current-layer="svg2">
    <sodipodi:guide
       position="3,18.309278"
       orientation="1,0"
       id="guide2"
       inkscape:locked="false" />
  </sodipodi:namedview>
  <path
     fill="currentColor"
     d="m 22,17 v 2.5 a 1.5,1.5 0 0 1 -1.356,1.493 L 20.5,21 H 17 v -4 z m -7,0 v 4 H 9 v -4 z m -8,0 v 4 H 3.5 A 1.5,1.5 0 0 1 2.007,19.644 L 2,19.5 V 17 Z m 15,-6 v 4 h -9 v -4 z m -11,0 v 4 H 2 V 11 Z M 5.5,3 A 1.5,1.5 0 0 1 6.993,4.356 L 7,4.5 V 6 H 9 V 4.5 A 1.5,1.5 0 0 1 10.356,3.007 L 10.5,3 h 3 a 1.5,1.5 0 0 1 1.493,1.356 L 15,4.5 V 6 h 2 V 4.5 A 1.5,1.5 0 0 1 18.356,3.007 L 18.5,3 h 2 a 1.5,1.5 0 0 1 1.493,1.356 L 22,4.5 V 9 H 2 V 4.5 A 1.5,1.5 0 0 1 3.356,3.007 L 3.5,3 Z"
     id="path3"
     transform="matrix(0.9,0,0,0.9,1.2,1.2)"
     style="fill:#ffffff;fill-opacity:1;stroke:#ffffff;stroke-opacity:1;stroke-width:5.41666667;stroke-dasharray:none" />
  <path
     fill="currentColor"
     d="m 22,17 v 2.5 a 1.5,1.5 0 0 1 -1.356,1.493 L 20.5,21 H 17 v -4 z m -7,0 v 4 H 9 v -4 z m -8,0 v 4 H 3.5 A 1.5,1.5 0 0 1 2.007,19.644 L 2,19.5 V 17 Z m 15,-6 v 4 h -9 v -4 z m -11,0 v 4 H 2 V 11 Z M 5.5,3 A 1.5,1.5 0 0 1 6.993,4.356 L 7,4.5 V 6 H 9 V 4.5 A 1.5,1.5 0 0 1 10.356,3.007 L 10.5,3 h 3 a 1.5,1.5 0 0 1 1.493,1.356 L 15,4.5 V 6 h 2 V 4.5 A 1.5,1.5 0 0 1 18.356,3.007 L 18.5,3 h 2 a 1.5,1.5 0 0 1 1.493,1.356 L 22,4.5 V 9 H 2 V 4.5 A 1.5,1.5 0 0 1 3.356,3.007 L 3.5,3 Z"
     id="path2"
     transform="matrix(0.9,0,0,0.9,1.2,1.2)"
     style="fill:#1f2937;fill-opacity:1" />
</svg>
