<?xml version="1.0" encoding="UTF-8" standalone="no"?>
<!-- Created with Inkscape (http://www.inkscape.org/) -->

<svg
   width="128"
   height="128"
   viewBox="0 0 33.866666 33.866666"
   version="1.1"
   id="svg1"
   inkscape:version="1.3.2 (1:1.3.2+202311252150+091e20ef0f)"
   sodipodi:docname="glacier.svg"
   inkscape:export-filename="glacier.png"
   inkscape:export-xdpi="96"
   inkscape:export-ydpi="96"
   xmlns:inkscape="http://www.inkscape.org/namespaces/inkscape"
   xmlns:sodipodi="http://sodipodi.sourceforge.net/DTD/sodipodi-0.dtd"
   xmlns="http://www.w3.org/2000/svg"
   xmlns:svg="http://www.w3.org/2000/svg">
  <sodipodi:namedview
     id="namedview1"
     pagecolor="#ffffff"
     bordercolor="#666666"
     borderopacity="1.0"
     inkscape:showpageshadow="2"
     inkscape:pageopacity="0.0"
     inkscape:pagecheckerboard="0"
     inkscape:deskcolor="#d1d1d1"
     inkscape:document-units="mm"
     inkscape:zoom="3.9105942"
     inkscape:cx="42.320935"
     inkscape:cy="70.066079"
     inkscape:window-width="1920"
     inkscape:window-height="1022"
     inkscape:window-x="1920"
     inkscape:window-y="0"
     inkscape:window-maximized="1"
     inkscape:current-layer="layer1" />
  <defs
     id="defs1" />
  <g
     inkscape:label="Calque 1"
     inkscape:groupmode="layer"
     id="layer1">
    <rect
       style="fill:#e0f7fa;stroke:#a1af8e;stroke-width:0.264583;stroke-linecap:round;stroke-linejoin:round;stroke-opacity:0.491331;paint-order:stroke markers fill;fill-opacity:1"
       id="rect1"
       width="33.866665"
       height="33.866665"
       x="0"
       y="0" />
    <path
       d="m 3.8314026,31.52498 c 0,-0.479864 1.2634001,-1.132028 2.193052,-1.132028 0.2713341,0 0.4933354,0.362654 0.4933354,0.805905 0,0.501471 -0.5074301,0.805927 -1.3431947,0.805927 -0.7387561,0 -1.3431927,-0.2159 -1.3431927,-0.479804 z M 15.213279,26.202611 c 0,-0.600972 1.844823,-1.770569 2.820707,-1.788296 0.587745,-0.01018 0.940234,0.385763 0.940234,1.057464 0,0.869891 -0.358185,1.074561 -1.88047,1.074561 -1.034259,0 -1.880471,-0.154736 -1.880471,-0.343729 z m 4.167399,6.453039 c -1.018426,-0.15433 -1.577977,-0.629199 -1.804396,-1.531316 -0.180505,-0.719197 -0.650379,-1.30764 -1.044159,-1.30764 -0.95285,0 -1.393109,-0.787448 -1.005296,-1.798064 0.422259,-1.100392 1.837748,-0.49885 1.837748,0.78099 0,0.768886 0.388152,1.017074 1.590651,1.017074 0.874857,0 1.899316,0.330427 2.276574,0.734284 0.578685,0.619492 0.778928,0.607106 1.28078,-0.07919 0.827346,-1.131461 3.091118,-0.474483 4.200807,1.219103 0.868848,1.326038 0.859048,1.349513 -0.563365,1.349513 -0.796174,0 -1.90014,-0.409542 -2.453254,-0.910119 -0.945093,-0.855293 -0.984628,-0.855293 -0.656418,0 0.364886,0.950873 -0.25998,1.040587 -3.659672,0.52541 z m 10.985609,-0.145395 c -2.16295,-0.512253 -2.480111,-0.797823 -2.070762,-1.864567 0.419373,-1.092878 2.729929,-1.060672 3.844177,0.05361 0.802427,0.802434 0.959423,0.805927 1.726965,0.03838 0.767536,-0.767546 0.764044,-0.924536 -0.03838,-1.726969 -1.083492,-1.083476 -1.118071,-1.675168 -0.120282,-2.058048 1.325055,-0.508477 2.998536,1.467817 2.998536,3.541116 0,2.563336 -1.720675,3.110597 -6.340269,2.016521 z M 1.2293921,23.906566 c 0.6788724,-0.238156 0.9587898,-0.25773 0.7484343,-0.805906 -0.2161753,-0.563344 0.040633,-0.805926 0.8532444,-0.805926 1.0939948,0 1.113213,-0.07025 0.3261212,-1.194105 C 2.6971817,20.443874 2.32081,19.355891 2.32081,18.682891 c 0,-0.672999 -0.2341872,-1.223652 -0.5204141,-1.223652 -0.2862289,0 -0.3812493,-0.362655 -0.2111576,-0.805906 0.3557443,-0.927054 1.187149,-1.019449 2.3434037,-0.260412 0.6597698,0.433099 0.6759135,0.612954 0.089025,0.991712 -0.5547586,0.358024 -0.4028717,0.709652 0.6715963,1.554831 0.7636662,0.600688 1.3884823,1.326079 1.3884823,1.611953 0,0.285856 0.5758611,0.409665 1.27969,0.275135 C 8.3079876,20.64562 8.5714082,20.315334 8.3733261,19.55786 8.2260426,18.994616 7.9082432,18.5338 7.6671192,18.5338 c -0.241124,0 -0.5927217,-0.486199 -0.7813289,-1.08045 -0.4316095,-1.359889 -2.9322183,-2.680484 -5.0755822,-2.680484 -1.3752202,0 -1.63851284,-0.208996 -1.63851284,-1.300513 0,-1.020424 0.36252666,-1.380134 1.68336394,-1.670234 1.0810371,-0.237444 1.4466097,-0.51605 1.0216912,-0.778674 C 2.5128287,10.798529 2.3013178,10.159929 2.406727,9.604342 2.6662406,8.2364932 6.1294081,7.9126647 7.3581125,9.1413732 7.8381206,9.6213793 8.2308553,9.7846845 8.2308553,9.5042511 8.2308553,9.2238177 7.8681926,8.6933905 7.4249392,8.3255374 6.981684,7.9576641 6.6190233,7.4444974 6.6190233,7.1851827 c 0,-0.7894778 1.7349547,-0.5266096 2.78275,0.4216452 0.9222017,0.8345786 0.9283197,0.9578394 0.093349,1.8804672 C 8.649771,10.421396 8.676537,10.47464 9.991465,10.47464 c 1.585714,0 3.906824,2.755375 3.410547,4.048659 -0.369053,0.961717 -1.757062,1.036871 -2.128946,0.115137 -0.14905,-0.369375 -0.290083,-0.127528 -0.313413,0.537271 -0.02333,0.664897 0.196587,1.208889 0.488719,1.208889 0.87522,0 2.691278,1.790489 2.709617,2.671469 0.0093,0.451454 0.352869,1.263899 0.763269,1.805434 0.717354,0.946548 0.769315,0.94137 1.34501,-0.134226 0.707557,-1.322078 -0.08938,-3.268034 -1.338354,-3.268034 -0.958457,0 -1.053039,-1.432748 -0.115421,-1.748312 0.529454,-0.178292 0.521819,-0.407532 -0.03606,-1.083538 -0.389217,-0.471619 -0.814623,-1.719802 -0.945347,-2.773752 -0.20199,-1.628544 -0.07882,-1.9162676 0.820283,-1.9162676 0.581878,0 2.082792,1.0045246 3.335362,2.2322986 1.25257,1.227775 2.370123,1.954139 2.48345,1.614168 0.113333,-0.339972 -0.546002,-1.250945 -1.465176,-2.024381 -1.373921,-1.156092 -1.304385,-1.547318 -0.763358,-2.1992188 0.545676,-0.6574852 0.2297,-0.7618406 -0.637327,-0.6108817 -0.748172,0.130368 -1.045663,-0.1236662 -1.045663,-0.8924727 0,-0.7133689 0.416771,-1.1336129 1.239939,-1.2503146 1.588757,-0.2251996 3.9483,1.308635 3.830836,2.4902728 -0.0497,0.5000284 -0.04721,1.392704 0.0055,1.983706 0.08932,1.000767 0.129291,0.991548 0.581832,-0.134226 0.267251,-0.664877 0.856362,-1.2088694 1.309139,-1.2088694 0.465044,0 0.823229,-0.4675379 0.823229,-1.0745614 0,-0.7163742 -0.358185,-1.0745614 -1.074556,-1.0745614 -0.727367,0 -1.074555,-0.3581872 -1.074555,-1.1085952 0,-0.9209019 0.28647,-1.0800849 1.691968,-0.9402336 0.952899,0.094832 1.950324,0.6098054 2.283429,1.1789573 0.325303,0.5558307 1.638217,2.0592055 2.917585,3.3408527 2.355262,2.359458 2.816723,4.239094 1.0437,4.251216 -0.500951,0.004 -1.210233,0.305654 -1.57618,0.671599 -0.365948,0.365964 -0.95147,0.665364 -1.301159,0.665364 -0.752445,0 -1.280859,1.719944 -1.291063,4.202277 -0.0077,1.895452 -1.194415,3.55074 -2.284846,3.187274 -0.360844,-0.120218 -1.052889,0.271336 -1.537876,0.870278 -0.812801,1.003753 -0.949887,1.02087 -1.752072,0.218681 -0.638631,-0.638621 -0.692792,-0.930019 -0.203478,-1.094706 0.507785,-0.170981 0.51892,-0.40544 0.04669,-0.983426 -0.341066,-0.417421 -0.731246,-1.3634 -0.86707,-2.102152 -0.2128,-1.157453 -0.257069,-1.107032 -0.320119,0.364583 -0.08936,2.085989 -1.300554,3.39635 -3.13928,3.39635 -0.779221,0 -1.918195,0.583407 -2.622355,1.343197 C 11.667058,26.998806 10.883853,26.94215 9.5740485,24.981208 8.9830427,24.096391 8.0467831,23.371773 7.4934724,23.37092 6.7097129,23.36972 6.6204595,23.529717 7.089492,24.094787 7.5400718,24.637703 7.4857153,25.232786 6.8734384,26.460114 5.6410641,28.930344 4.3260512,28.252799 2.5331657,27.223092 2.4779416,27.191375 0,24.33785 1.2293921,23.906566 Z M 12.896101,21.119453 c -0.171509,-0.42861 -0.298825,-0.301309 -0.324604,0.3246 -0.02333,0.56637 0.103665,0.8837 0.282188,0.705164 0.178535,-0.178494 0.197623,-0.64193 0.04242,-1.029764 z m 10.081631,-1.511092 c 0.982926,0 1.494229,-4.482487 0.719438,-6.307172 -0.629851,-1.483352 -0.629851,-1.483352 -0.836178,0.128546 -0.113474,0.886502 -0.423745,1.835752 -0.689479,2.109464 -0.287009,0.295603 -0.235848,0.795611 0.126019,1.231633 0.454737,0.547931 0.451496,0.891701 -0.01276,1.355989 -0.34208,0.342064 -0.602875,1.117592 -0.579547,1.723377 0.02334,0.605784 0.164362,0.799205 0.313411,0.429828 0.149051,-0.369396 0.580647,-0.671599 0.959111,-0.671599 z m -10.98593,-0.236936 c 0,-0.130368 -0.241774,-0.386352 -0.537277,-0.56899 -0.295502,-0.182555 -0.537278,-0.07594 -0.537278,0.236938 0,0.312944 0.241776,0.568988 0.537278,0.568988 0.295503,0 0.537277,-0.106614 0.537277,-0.236936 z m 7.521884,-2.449457 c 0,-0.591002 -0.241776,-1.074562 -0.537279,-1.074562 -0.295501,0 -0.537276,0.48356 -0.537276,1.074562 0,0.591002 0.241775,1.074561 0.537276,1.074561 0.295503,0 0.537279,-0.483559 0.537279,-1.074561 z m -9.133716,0.268636 c 0,-0.147832 -0.120885,-0.268636 -0.268639,-0.268636 -0.1477507,0 -0.2686376,0.120823 -0.2686376,0.268636 0,0.147831 0.1208852,0.268635 0.2686376,0.268635 0.14775,0 0.268639,-0.120824 0.268639,-0.268635 z M 8.812912,14.817621 C 7.2240588,13.228776 6.7109287,13.423597 8.2288714,15.039369 8.9218018,15.776964 9.5885306,16.280667 9.7104917,16.158707 9.8324522,16.036658 9.4285414,15.433255 8.812912,14.817621 Z m 19.362796,-2.556533 c -0.633365,-1.089182 -0.786312,-0.740559 -0.267849,0.610537 0.184262,0.480148 0.448193,0.75983 0.586526,0.621501 0.138328,-0.138287 -0.005,-0.692737 -0.318677,-1.232038 z m -1.140142,-0.980542 c 0,-0.147832 -0.120887,-0.268635 -0.268637,-0.268635 -0.14775,0 -0.268639,0.120824 -0.268639,0.268635 0,0.147832 0.120888,0.268655 0.268639,0.268655 0.147751,0 0.268637,-0.120824 0.268637,-0.268655 z M 5.0071974,10.206005 c 0,-0.147832 -0.1208852,-0.2686356 -0.2686394,-0.2686356 -0.1477504,0 -0.2686393,0.1208246 -0.2686393,0.2686356 0,0.147831 0.1208851,0.268635 0.2686393,0.268635 0.1477505,0 0.2686394,-0.120825 0.2686394,-0.268635 z m 20.4165376,0 c 0,-0.147832 -0.120887,-0.2686356 -0.268637,-0.2686356 -0.147751,0 -0.26864,0.1208246 -0.26864,0.2686356 0,0.147831 0.120888,0.268635 0.26864,0.268635 0.14775,0 0.268637,-0.120825 0.268637,-0.268635 z m -2.283428,18.325417 c -1.124662,-0.853727 -1.230098,-2.249539 -0.199796,-2.644907 1.006197,-0.386129 1.945939,0.655597 1.945939,2.157083 0,1.401639 -0.39646,1.512391 -1.746152,0.487824 z m 4.53515,-0.783041 c -0.682321,-0.192099 -1.226315,-0.530731 -1.208875,-0.752357 0.01747,-0.221626 0.03172,-0.644733 0.03172,-0.940234 0,-0.755769 2.87483,-0.671212 3.653487,0.107427 1.626529,1.626534 0.417813,2.400254 -2.47632,1.58515 z m -0.639891,-5.386534 c 0,-0.849585 -0.158736,-2.338318 -0.352729,-3.308321 -0.322432,-1.612177 -0.253214,-1.737631 0.805917,-1.460649 0.78107,0.204243 1.158645,0.05665 1.158645,-0.452633 0,-0.415594 0.483549,-0.755608 1.074555,-0.755608 1.39794,0 1.467957,2.617413 0.134327,5.021219 -1.610019,2.901988 -2.820706,3.312302 -2.820706,0.955992 z M 0.17170136,10.743539 c 0,-0.443251 0.23418523,-0.8059056 0.5204141,-0.8059056 0.28622887,0 0.38124924,0.3626546 0.21115558,0.8059056 -0.17008762,0.443252 -0.40427894,0.805926 -0.52041411,0.805926 -0.11613312,0 -0.21115557,-0.362674 -0.21115557,-0.805926 z M 31.602426,9.3590593 C 30.248024,8.0215688 30.119309,7.6845411 30.79651,7.2488844 31.896256,6.541384 32.198284,6.580657 33.17588,7.5582546 c 0.850875,0.8508645 1.189866,3.4802574 0.441334,3.4232164 -0.221625,-0.01625 -1.128282,-0.746976 -2.014788,-1.6224117 z M 11.991802,6.7843113 c 0,-1.1908774 1.506492,-1.8949459 2.905711,-1.3580206 1.523518,0.5846255 0.755875,2.0764662 -1.16396,2.2620476 -1.438627,0.1390999 -1.741751,-0.018276 -1.741751,-0.904027 z M 27.035566,4.4597398 c 0,-0.8827052 2.725371,-3.65600661 3.592824,-3.65600661 1.177897,0 0.7938,1.26324581 -0.858183,2.82244331 -1.658268,1.5651472 -2.734641,1.8932401 -2.734641,0.8335633 z M 17.791028,4.1255441 c 0,-0.2955009 0.618706,-0.5372767 1.374903,-0.5372767 0.779786,0 1.231174,0.2325567 1.042845,0.5372767 -0.182637,0.2955028 -0.801335,0.5372807 -1.374902,0.5372807 -0.573564,0 -1.042846,-0.2417779 -1.042846,-0.5372807 z m 3.674039,-2.4228625 c -0.159711,-0.4161989 1.882479,-0.4161989 1.72277,0 -0.159711,0.4161988 -0.547334,0.7567254 -0.861385,0.7567254 -0.314051,0 -0.701674,-0.3405266 -0.861385,-0.7567254 z M -3.5056839,32.510255 c -2.16295,-0.512253 -2.480111,-0.797823 -2.070762,-1.864567 0.419373,-1.092878 2.729929,-1.060672 3.844177,0.05361 0.80242697,0.802434 0.95942297,0.805927 1.72696497,0.03838 0.767536,-0.767546 0.764044,-0.924536 -0.03838,-1.726969 -1.08349197,-1.083476 -1.11807097,-1.675168 -0.120282,-2.058048 1.32505503,-0.508477 2.99853603,1.467817 2.99853603,3.541116 0,2.563336 -1.720675,3.110597 -6.340269,2.016521 z m 21.8372089,4.346449 c 0,-1.340621 2.518057,-2.555245 3.422447,-1.650855 0.679549,0.679553 -0.403935,1.585332 -2.213573,2.412411 -0.99046,0.452673 -1.208874,0.153315 -1.208874,-0.761556 z"
       style="fill:#a3cfd6;stroke-width:2.03066;fill-opacity:0.48758009"
       id="path1"
       sodipodi:nodetypes="sssssscssscssssssccscscccscsccsccssscssscscsccssssccccscscssccsscccsccsssccccsccccsssscssccsccccccscscsccczssscsscsscsccsccscsssssssssssssccccccccsssssssssssssssccsccccsccccccsssccsscssscccssscssscssscsssssscscsccsccsscs" />
    <path
       d="m 11.132354,35.843115 c 0,-1.169731 -2.3796366,-4.14641 -2.8992992,-3.626747 -0.1138139,0.113813 -0.4774764,-0.119234 -0.8082535,-0.517792 -0.8766117,-1.056249 0.051575,-1.866811 1.3450491,-1.174574 1.177528,0.630207 1.3543506,-0.122555 0.280934,-1.19592 -0.8643565,-0.864356 -0.8805283,-1.382288 -0.05315,-1.699813 1.1842586,-0.454434 2.5972286,1.008992 2.5972286,2.689959 0,0.861017 0.925145,1.316482 0.925145,0.02832 0,-2.156624 0.314745,-2.534221 1.295188,-1.553778 0.791732,0.791715 0.685768,3.272176 -0.216736,5.073897 -0.424503,0.847468 -0.907714,1.840691 -1.073819,2.207168 C 11.971323,37.294581 11.1323,37.155522 11.1323,35.84306 Z"
       style="fill:#a3cfd6;stroke-width:3.55019;fill-opacity:0.48758009"
       id="path1-5" />
    <path
       d="m 11.243596,2.263591 c 0,-1.169731 -2.3796356,-4.14641 -2.8992986,-3.626747 -0.113814,0.113813 -0.477476,-0.119234 -0.808253,-0.517792 -0.876612,-1.056249 0.05157,-1.866811 1.345049,-1.174574 1.1775276,0.630207 1.3543496,-0.122555 0.280934,-1.19592 -0.864357,-0.864356 -0.880528,-1.382288 -0.05315,-1.699813 1.1842576,-0.454434 2.5972276,1.008992 2.5972276,2.689959 0,0.861017 0.925145,1.316482 0.925145,0.02832 0,-2.156624 0.314745,-2.534221 1.295188,-1.553778 0.791732,0.791715 0.685768,3.272176 -0.216736,5.07389695 C 13.285199,1.134611 12.801988,2.127834 12.635883,2.494311 12.082565,3.715057 11.243542,3.575998 11.243542,2.263536 Z"
       style="fill:#a3cfd6;stroke-width:3.55019;fill-opacity:0.48758009"
       id="path1-5-6" />
    <path
       d="M 32.192693,5.5475925 C 31.060404,5.141421 31.392217,3.2471291 32.59565,3.2471291 c 0.705481,0 1.074556,0.3581851 1.074556,1.0428467 0,1.1845132 -0.498477,1.6088185 -1.477513,1.2576167 z"
       style="fill:#a3cfd6;stroke-width:2.03066;fill-opacity:0.48758009"
       id="path1-2" />
    <path
       d="M 0.72803047,5.5853587 C 0.54291647,5.1029564 0.66644047,4.2679716 1.0025285,3.7298076 1.3914575,3.1070261 1.4222805,2.6330916 1.0873285,2.4260665 0.79787647,2.2471658 0.56105347,1.7524171 0.56105347,1.3266132 c 0,-0.58806935 0.77504803,-0.77420725 3.22366403,-0.77420725 2.5072942,0 3.2236643,0.1790834 3.2236643,0.80591605 0,0.4432574 0.2417739,0.805912 0.5372767,0.805912 0.2955029,0 0.5372766,0.3626545 0.5372766,0.8059057 0,0.7662268 -0.2190994,0.8961075 -1.7219279,1.0208303 C 6.0049523,4.020415 5.5455024,3.4402565 5.3400083,2.7015045 4.9952153,1.4619727 4.9622497,1.493068 4.9128277,3.1044675 4.8791187,4.2035186 4.5849886,4.8506273 4.1191425,4.8506273 c -0.407071,0 -1.041113,0.3626546 -1.40898,0.8059059 -0.868864,1.0469242 -1.562635,1.022008 -1.98212603,-0.071276 z"
       style="fill:#a3cfd6;stroke-width:2.03066;fill-opacity:0.48758009"
       id="path1-7" />
    <path
       d="m 14.610524,2.7345166 c 0,-1.3406218 2.518057,-2.55524574 3.422447,-1.6508551 0.679549,0.6795524 -0.403934,1.5853324 -2.213573,2.4124115 -0.99046,0.4526721 -1.208874,0.1533144 -1.208874,-0.7615564 z"
       style="fill:#a3cfd6;stroke-width:2.03066;fill-opacity:0.48758009"
       id="path1-6" />
    <path
       d="m 35.166114,20.253358 c 0.128226,0.283311 -0.817795,0.3993 -0.957769,1.041617 -0.395044,1.813962 -1.400601,3.492298 -2.0924,3.492298 -0.842251,0 -1.426015,-1.476651 -0.749146,-1.894966 0.282599,-0.174636 0.513813,-1.165798 0.513813,-2.202528 0,-1.616259 0.147506,-1.838149 1.03468,-1.556578 0.651692,0.206842 0.805986,-0.729489 1.508932,-0.519015 0.702946,0.210474 0.613663,1.355861 0.74189,1.639172 z"
       style="fill:#a3cfd6;stroke-width:2.03066;fill-opacity:0.48758009"
       id="path1-9" />
    <path
       d="m 1.4159821,20.107008 c 0.128226,0.283311 -0.81779498,0.3993 -0.95776898,1.041617 -0.395044,1.813962 -1.400601,3.492298 -2.09240002,3.492298 -0.842251,0 -1.426015,-1.476651 -0.749146,-1.894966 0.282599,-0.174636 0.513813,-1.165798 0.513813,-2.202528 0,-1.616259 0.147506,-1.838149 1.03468002,-1.556578 0.651692,0.206842 0.805986,-0.729489 1.508932,-0.519015 0.70294598,0.210474 0.61366298,1.355861 0.74188998,1.639172 z"
       style="fill:#a3cfd6;stroke-width:2.03066;fill-opacity:0.48758009"
       id="path1-9-3" />
  </g>
</svg>
