<?xml version="1.0" encoding="UTF-8" standalone="no"?>
<svg
   width="32"
   height="32"
   viewBox="0 0 32 32"
   version="1.1"
   id="svg1"
   sodipodi:docname="hopital.svg"
   inkscape:version="1.3.2 (1:1.3.2+202311252150+091e20ef0f)"
   inkscape:export-filename="hopital.png"
   inkscape:export-xdpi="96"
   inkscape:export-ydpi="96"
   xmlns:inkscape="http://www.inkscape.org/namespaces/inkscape"
   xmlns:sodipodi="http://sodipodi.sourceforge.net/DTD/sodipodi-0.dtd"
   xmlns="http://www.w3.org/2000/svg"
   xmlns:svg="http://www.w3.org/2000/svg">
  <defs
     id="defs1" />
  <sodipodi:namedview
     id="namedview1"
     pagecolor="#ffffff"
     bordercolor="#666666"
     borderopacity="1.0"
     inkscape:showpageshadow="2"
     inkscape:pageopacity="0.0"
     inkscape:pagecheckerboard="0"
     inkscape:deskcolor="#d1d1d1"
     showguides="true"
     inkscape:zoom="22.863119"
     inkscape:cx="8.2665886"
     inkscape:cy="15.352236"
     inkscape:window-width="1920"
     inkscape:window-height="1048"
     inkscape:window-x="0"
     inkscape:window-y="0"
     inkscape:window-maximized="1"
     inkscape:current-layer="svg1">
    <sodipodi:guide
       position="3.9896907,24.051546"
       orientation="1,0"
       id="guide1"
       inkscape:locked="false" />
  </sodipodi:namedview>
  <path
     fill="currentColor"
     d="m 13.998281,22.672392 h 4.003436 v -4.670675 h 4.670675 V 13.998281 H 18.001717 V 9.3276052 H 13.998281 V 13.998281 H 9.3276052 v 4.003436 h 4.6706758 z m -7.3396329,5.337915 q -1.1009449,0 -1.8842839,-0.783339 Q 3.9910252,26.443629 3.9896907,25.34135 V 6.6586481 q 0,-1.1009449 0.7846735,-1.8842839 0.7846734,-0.783339 1.8842839,-0.7846735 H 25.34135 q 1.100944,0 1.885618,0.7846735 0.784673,0.7846734 0.783339,1.8842839 V 25.34135 q 0,1.100944 -0.783339,1.885618 -0.783339,0.784673 -1.885618,0.783339 z m 0,-2.668957 H 25.34135 V 6.6586481 H 6.6586481 Z m 0,-18.6827019 V 25.34135 Z"
     id="path2"
     style="stroke-width:7.334;fill:#ffffff;fill-opacity:1;stroke:#ffffff;stroke-opacity:1;stroke-dasharray:none" />
  <path
     fill="currentColor"
     d="m 13.998281,22.672392 h 4.003436 v -4.670675 h 4.670675 V 13.998281 H 18.001717 V 9.3276052 H 13.998281 V 13.998281 H 9.3276052 v 4.003436 h 4.6706758 z m -7.3396329,5.337915 q -1.1009449,0 -1.8842839,-0.783339 Q 3.9910252,26.443629 3.9896907,25.34135 V 6.6586481 q 0,-1.1009449 0.7846735,-1.8842839 0.7846734,-0.783339 1.8842839,-0.7846735 H 25.34135 q 1.100944,0 1.885618,0.7846735 0.784673,0.7846734 0.783339,1.8842839 V 25.34135 q 0,1.100944 -0.783339,1.885618 -0.783339,0.784673 -1.885618,0.783339 z m 0,-2.668957 H 25.34135 V 6.6586481 H 6.6586481 Z m 0,-18.6827019 V 25.34135 Z"
     id="path1"
     style="stroke-width:1.33448;fill:#bf0000;fill-opacity:1" />
</svg>
