<?xml version="1.0" encoding="UTF-8" standalone="no"?>
<!-- Created with Inkscape (http://www.inkscape.org/) -->

<svg
   width="128mm"
   height="128mm"
   viewBox="0 0 128 128"
   version="1.1"
   id="svg1"
   inkscape:version="1.3.2 (1:1.3.2+202311252150+091e20ef0f)"
   sodipodi:docname="salt_marsh.svg"
   inkscape:export-filename="salt_marsh.png"
   inkscape:export-xdpi="45.35"
   inkscape:export-ydpi="45.35"
   xmlns:inkscape="http://www.inkscape.org/namespaces/inkscape"
   xmlns:sodipodi="http://sodipodi.sourceforge.net/DTD/sodipodi-0.dtd"
   xmlns="http://www.w3.org/2000/svg"
   xmlns:svg="http://www.w3.org/2000/svg">
  <sodipodi:namedview
     id="namedview1"
     pagecolor="#ffffff"
     bordercolor="#666666"
     borderopacity="1.0"
     inkscape:showpageshadow="2"
     inkscape:pageopacity="0.0"
     inkscape:pagecheckerboard="0"
     inkscape:deskcolor="#d1d1d1"
     inkscape:document-units="mm"
     inkscape:zoom="0.71446409"
     inkscape:cx="397.50073"
     inkscape:cy="449.2878"
     inkscape:window-width="1920"
     inkscape:window-height="1022"
     inkscape:window-x="1920"
     inkscape:window-y="0"
     inkscape:window-maximized="1"
     inkscape:current-layer="layer1" />
  <defs
     id="defs1" />
  <g
     inkscape:label="Calque 1"
     inkscape:groupmode="layer"
     id="layer1">
    <rect
       style="fill:#ffffff;fill-opacity:1;stroke:#a1af8e;stroke-width:0.264583;stroke-linecap:round;stroke-linejoin:round;stroke-opacity:0.491331;paint-order:stroke markers fill"
       id="rect2"
       width="128"
       height="128"
       x="0"
       y="0" />
    <rect
       style="fill:#d0e7e4;stroke:#a1af8e;stroke-width:0.264583;stroke-linecap:round;stroke-linejoin:round;stroke-opacity:0.491331;paint-order:stroke markers fill;fill-opacity:0.4056761"
       id="rect1"
       width="128.26112"
       height="127.53359"
       x="-0.26111975"
       y="0.46641251" />
    <path
       d="m 150.72681,129.52795 m -24.32722,-0.1908 m -122.071552,0 m 155.572422,0 m 35.84958,0 M -0.26111976,122.85309 c 0,-5.05796 0.25143085,-5.77784 2.75349406,-7.88316 1.5144234,-1.27431 2.7534939,-2.72501 2.7534939,-3.22378 0,-0.49873 -1.2390705,-2.1459 -2.7534939,-3.66032 -2.49507669,-2.49508 -2.74446084,-3.28525 -2.65725452,-8.419324 0.0958132,-5.640715 0.10091196,-5.650988 1.14728866,-2.317932 1.05105246,3.347976 1.05105246,3.347976 5.34366196,1.163803 4.5434686,-2.311789 6.2205236,-5.103891 4.3902336,-7.309257 -1.4318415,-1.725293 -4.8566156,-1.697264 -8.2695085,0.06762 -2.63610073,1.363166 -2.70791526,1.341797 -2.70791526,-0.806499 0,-1.586645 0.77377085,-2.527287 2.75349406,-3.347319 2.1497303,-0.890448 2.7534939,-1.714848 2.7534939,-3.759735 0,-2.420717 -0.2086584,-2.577479 -2.7534939,-2.068513 -2.36836223,0.473689 -2.75349406,0.277866 -2.75349406,-1.399693 0,-1.550629 0.55846237,-1.950393 2.72469126,-1.950393 1.7730835,0 2.5902962,-0.400667 2.3398921,-1.147292 C 4.5918219,76.16032 3.9693327,73.888701 3.4201464,71.743281 2.8175,69.388997 1.8898144,67.842496 1.0802507,67.842496 c -0.7377526,0 -1.34137046,-0.619558 -1.34137046,-1.376764 0,-0.757206 0.62740812,-1.37673 1.39423416,-1.37673 1.0533142,0 1.2487663,-0.617199 0.7993336,-2.524057 C 1.6052549,61.176734 0.97784671,59.648549 0.53821395,59.168964 -1.1151036,57.365481 -0.26565026,55.028888 2.2629193,54.424871 c 3.8912984,-0.92958 4.8186128,-2.101605 4.8186128,-6.090087 0,-3.679778 0,-3.679778 -3.7231438,-3.18042 -3.1132537,0.417594 -3.67560482,0.252541 -3.43295043,-1.007458 0.15960726,-0.828771 1.52525363,-1.911819 3.03477193,-2.406805 1.5095148,-0.494987 2.8779917,-0.981129 3.0410611,-1.080306 0.1630762,-0.09922 -1.1792621,-2.279911 -2.9829523,-4.846046 -2.55986667,-3.641966 -3.27943836,-5.553993 -3.27943836,-8.714154 0,-3.922744 0.1069136,-4.073575 3.44186916,-4.856453 3.0994057,-0.727546 3.5870734,-1.261733 4.9012437,-5.368679 1.4593781,-4.560793 1.4593781,-4.560793 -1.2122451,-4.853227 -1.4693962,-0.16096 -3.6749562,0.364936 -4.901247,1.168453 -2.22962076,1.460887 -2.22962076,1.460887 -2.20042937,-3.3788795 0.0267112,-4.4551974 0.1362611,-4.6981988 1.37674697,-3.0581396 0.7411557,0.9798798 1.3475557,2.1673427 1.3475557,2.6387758 0,0.7851323 5.3290611,0.1935675 6.2122397,-0.689492 C 9.9743954,7.4321718 7.3128638,4.1526083 3.7855503,2.6406235 1.5598807,1.6865877 -0.26111976,0.7081997 -0.26111976,0.46641251 c 0,-0.2417871 4.74977796,-0.45474711 10.55506276,-0.47330611 5.805281,-0.01734492 10.555059,0.29208717 10.555059,0.6904983 0,0.3982724 0.541156,1.4642518 1.202567,2.3687855 1.15219,1.5757097 1.325071,1.5700899 4.126945,-0.1339022 1.608408,-0.9781104 2.650515,-2.05227676 2.315787,-2.38699761 -0.334721,-0.33475553 1.200846,-0.60859591 3.412383,-0.60859591 3.730127,0 3.911873,0.10927252 2.512623,1.50834252 -1.503867,1.5038673 -1.241033,2.5083072 1.74392,6.6645486 0.146669,0.2043216 1.958868,-1.5511495 4.027116,-3.9007865 2.570058,-2.9197617 4.479261,-4.27210462 6.03119,-4.27210462 1.24891,0 2.022975,0.40090881 1.720151,0.89086588 -0.975922,1.57907474 2.135386,6.21701694 4.582664,6.83123204 3.204787,0.8043495 3.856176,0.2275656 4.579803,-4.0555712 0.619453,-3.66652672 0.619453,-3.66652672 10.163654,-3.66652672 9.544203,0 9.544203,0 12.541687,3.27082152 3.553066,3.8770585 6.205543,3.6139717 6.205543,-0.6155339 0,-2.04339617 0.423006,-2.65528762 1.835637,-2.65528762 1.019843,0 1.83568,0.61189145 1.83568,1.37672972 0,0.7572413 0.619519,1.3767645 1.376759,1.3767645 0.757214,0 1.376734,-0.380199 1.376734,-0.8449022 0,-1.38998121 5.640442,-2.2598945 6.42474,-0.99087633 0.491968,0.79598973 0.867654,0.82398433 1.316265,0.098172 0.73063,-1.18218985 5.10865,-1.38807312 5.10865,-0.24039948 0,0.42654451 -0.82608,1.52312021 -1.83568,2.43681191 -2.01994,1.8280426 -2.44555,4.1302589 -0.76356,4.1302589 0.58966,0 3.66917,-0.4522844 6.84334,-1.0050299 5.71923,-0.9959759 5.76646,-1.0290699 5.23801,-3.671314 -0.53329,-2.66631903 -0.53329,-2.66631903 7.84195,-2.66631903 8.37519,0 8.37519,0 8.37519,3.31456513 0,3.3145305 0,3.3145305 3.44189,2.6713489 4.11897,-0.7697294 5.84608,-2.0349665 5.51909,-4.043222 -0.15332,-0.94165167 0.52562,-1.59260372 1.85819,-1.78162772 1.87805,-0.26641686 2.03403,-0.0242835 1.47709,2.29458432 -0.34239,1.4258502 -0.74819,2.7416301 -0.90159,2.9239591 -0.15333,0.1824678 0.93337,1.3515794 2.41499,2.5982921 2.40018,2.019633 2.84472,2.1159666 4.07715,0.8835471 1.23243,-1.2324208 1.13328,-1.680265 -0.90915,-4.1075372 -2.77431,-3.2970814 -2.91011,-4.75390973 -0.44319,-4.75390973 1.06785,0 2.55191,1.15561773 3.5124,2.73500463 1.66323,2.7349696 1.66323,2.7349696 3.69563,-0.013876 2.00562,-2.71273381 2.14004,-2.74752756 10.19593,-2.63919168 8.10929,0.10892564 8.15824,0.12384222 7.36504,2.21004558 -0.43922,1.1551666 -0.57603,2.9511558 -0.30389,3.9911526 0.49447,1.8908655 0.49447,1.8908655 3.08325,-0.024286 1.42384,-1.052693 2.83422,-2.8918362 3.13418,-4.0869654 0.39782,-1.58514542 1.18792,-2.17296218 2.92067,-2.17296218 1.74707,0 2.22794,0.36410292 1.81815,1.37672978 -0.30631,0.7572412 -0.75227,1.893051 -0.99081,2.5240563 -0.24837,0.6568146 1.01544,1.8269326 2.95616,2.7371205 3.38987,1.5898282 3.38987,1.5898282 6.39962,-1.3273315 2.87799,-2.7895018 3.00974,-2.8263076 3.00974,-0.8411209 0,1.1418112 -0.42754,2.8749431 -0.95015,3.8513538 -0.65493,1.2237827 -0.65493,1.7753489 0,1.7753489 0.52261,0 0.95015,1.047074 0.95015,2.326847 0,2.074304 -0.20779,2.215699 -1.91428,1.30239 -1.05286,-0.563466 -2.01266,-0.887745 -2.1329,-0.720644 -4.23474,5.885105 -4.20807,5.787454 -2.5689,9.403818 1.34023,2.956881 1.90737,3.381899 4.08617,3.062129 1.96527,-0.288272 2.52991,-0.001 2.52991,1.287889 0,0.973879 -0.88666,1.881743 -2.14663,2.197974 -1.61935,0.406424 -2.52115,1.726852 -3.67132,5.375688 -2.08512,6.614768 -2.01675,7.111802 0.82961,6.029623 3.81743,-1.451382 5.14913,-1.128317 4.8227,1.170013 -0.23554,1.658826 -0.97044,2.121135 -3.73514,2.349984 -3.34111,0.276476 -4.39814,1.310368 -2.52406,2.468622 0.50481,0.31186 0.91786,1.594651 0.91786,2.850348 0,1.575641 0.85142,2.767577 2.74766,3.8466 1.51126,0.859957 2.75031,2.07982 2.7535,2.710826 0.007,1.380581 -0.1464,1.39286 -3.14684,0.252195 -1.34003,-0.509489 -2.35432,-0.539807 -2.35432,-0.07042 0,0.453602 -1.06927,2.095466 -2.37617,3.648626 -2.37619,2.823915 -2.37619,2.823915 2.75349,2.823915 4.51777,0 5.12966,0.218891 5.12966,1.835639 0,1.614215 -0.61189,1.835675 -5.07166,1.835675 -5.07164,0 -5.07164,0 -3.67132,2.707911 0.77018,1.489367 1.41347,3.2447 1.42952,3.900786 0.0173,0.656087 0.60125,1.947652 1.30049,2.87019 1.2028,1.587019 1.39897,1.593679 3.6421,0.123843 2.33063,-1.527076 2.37087,-1.514622 2.37087,0.734311 0,1.258264 -0.60426,2.789224 -1.34276,3.402157 -1.17834,0.977936 -1.17838,1.365247 -3.2e-4,3.163178 1.94235,2.964407 1.84692,24.125048 -0.10164,22.507988 -1.01422,-0.84171 -1.63639,-0.81451 -2.76335,0.12072 -1.11992,0.92944 -1.31899,2.16918 -0.86554,5.38991 0.97562,6.92978 1.28037,7.52502 3.29945,6.44443 1.5355,-0.82175 1.77403,-0.63821 1.77403,1.36513 0,1.79192 -0.74965,2.62777 -3.31978,3.70166 -2.80673,1.17272 -3.25194,1.74201 -2.88077,3.68363 0.36519,1.91032 0.085,2.29656 -1.66645,2.29656 -1.20023,0 -2.32494,-0.69158 -2.61595,-1.60849 -0.63544,-2.00208 -2.93132,-3.47349 -6.71732,-4.30502 -2.70131,-0.59334 -3.01342,-0.40119 -4.28275,2.63676 -0.90865,2.17479 -1.97328,3.27675 -3.16567,3.27675 -1.34933,0 -1.67614,-0.46054 -1.31281,-1.84997 0.26608,-1.01748 0.84697,-2.07441 1.29084,-2.34877 0.44387,-0.2744 0.80703,-1.2295 0.80703,-2.12262 0,-1.19933 -1.22136,-1.9058 -4.672,-2.7023 -2.56961,-0.59313 -4.9445,-0.90477 -5.27752,-0.69254 -0.68562,0.43691 -3.37409,5.67898 -4.15934,8.11 -0.62114,1.92298 -5.00561,2.13511 -11.31157,0.54726 -3.17713,-0.80002 -4.61994,-0.80002 -5.90096,0 -2.10563,1.31498 -5.39185,1.38343 -5.39185,0.1124 0,-0.52067 0.63634,-1.19084 1.41405,-1.48927 1.13144,-0.43418 0.98581,-0.7648 -0.72869,-1.65432 -1.17851,-0.6114 -3.42449,-1.36802 -4.99108,-1.68134 -2.67351,-0.53467 -2.88483,-0.37505 -3.44313,2.60097 -0.44774,2.38661 -1.05838,3.1706 -2.46955,3.1706 -1.6787,0 -1.8099,-0.38394 -1.25449,-3.67135 0.341,-2.01921 0.25462,-3.67131 -0.19184,-3.67131 -0.44673,0 -2.42546,1.6521 -4.39718,3.67131 -4.45382,4.56114 -8.17936,5.03022 -9.15261,1.15243 -0.86006,-3.42671 -2.17639,-4.82949 -4.49779,-4.79321 -2.6753,0.042 -6.082977,3.06361 -6.082977,5.39414 0,1.27471 -0.58684,1.91799 -1.749741,1.91799 -1.271762,0 -1.624207,-0.47996 -1.290255,-1.75711 0.591216,-2.26068 -2.452281,-3.95829 -6.410169,-3.57543 -2.440138,0.23591 -2.989973,0.71399 -3.230995,2.80848 -0.286537,2.49018 -0.378221,2.52406 -6.829688,2.52406 -5.734705,0 -6.329488,-0.15333 -4.834175,-1.24681 1.633732,-1.19461 1.593055,-1.40507 -0.971866,-5.02849 -1.472331,-2.07992 -2.88348,-3.78707 -3.135882,-3.79368 -0.252403,-0.007 -1.340201,1.61163 -2.417326,3.59614 -1.958411,3.60814 -1.958411,3.60814 1.376746,4.99319 3.335156,1.38506 3.335156,1.38506 -3.26636,1.43233 -6.601518,0.0472 -6.601518,0.0472 -3.441866,-4.75036 1.737808,-2.63875 3.159648,-5.11687 3.159648,-5.50699 0,-0.39012 -1.500783,-0.7093 -3.335077,-0.7093 -3.567057,0 -7.675538,3.52061 -7.677779,6.57921 -0.0028,3.89797 -0.910819,4.43476 -7.501221,4.43476 -5.961791,0 -6.539003,-0.18212 -8.691624,-2.74024 -2.305743,-2.74021 -2.305743,-2.74021 -4.611487,0 -1.470011,1.74701 -3.170103,2.74024 -4.690456,2.74024 -2.384705,0 -2.384705,0 0.311063,-2.87428 1.846275,-1.96857 2.323536,-3.00851 1.514555,-3.30021 -0.649661,-0.23415 -2.358098,-1.41621 -3.79653,-2.62655 -2.615325,-2.20065 -2.615325,-2.20065 -5.156577,1.13108 -2.098195,2.75086 -2.356402,3.62775 -1.481003,5.02949 0.583136,0.93374 1.060248,1.90984 1.060248,2.16911 0,1.06684 -3.530376,0.37034 -4.589157,-0.9054 -0.628429,-0.75722 -2.074014,-1.37673 -3.212408,-1.37673 -1.138398,0 -2.583982,0.61951 -3.2124107,1.37673 -0.729861,0.87945 -2.7597281,1.37676 -5.6193726,1.37676 -4.47677358,0 -4.47677358,0 -4.47677358,-5.56624 z m 7.31035916,1.95525 c 0.5225689,-0.97644 0.9501229,-3.486 0.9501229,-5.57681 0,-3.80147 0,-3.80147 -2.6674984,-1.66653 -1.4671241,1.17422 -2.8658503,2.75447 -3.1082793,3.51167 -0.2424114,0.7572 -0.7244767,2.06342 -1.0712175,2.90267 -0.43091529,1.043 -0.1007731,1.66287 1.0431571,1.95867 3.1576843,0.81642 3.905313,0.64242 4.8537152,-1.12967 z m 42.8041906,-0.562 c 0.322649,-1.28554 0.43377,-2.46092 0.246956,-2.612 -0.186839,-0.15125 -1.97324,-1.36333 -3.969804,-2.69389 -3.630118,-2.41923 -3.630118,-2.41923 -5.70025,-0.47442 -1.878841,1.76508 -1.94571,2.12242 -0.723667,3.86714 1.098407,1.56818 5.632346,3.68706 8.889257,4.15426 0.368987,0.053 0.93487,-0.95556 1.257518,-2.24109 z m 32.676854,-3.39913 c 0.764318,-3.15504 1.273528,-5.87648 1.131647,-6.04768 -0.141881,-0.17101 -2.536579,0.19878 -5.32154,0.82198 -5.063567,1.13317 -5.063567,1.13317 -1.677417,6.01283 1.862382,2.68384 3.631751,4.89534 3.931927,4.91449 0.300169,0.0208 1.171106,-2.54656 1.935383,-5.70162 z m 67.732936,3.63595 c 0,-0.14569 -0.82603,-1.8851 -1.83568,-3.8654 -1.0096,-1.98029 -1.83563,-4.13276 -1.83563,-4.78323 0,-1.29717 -0.91287,-1.4792 -3.13735,-0.62554 -0.97086,0.37252 -1.45183,1.71065 -1.45183,4.03905 0,3.24918 0.23001,3.54306 3.44188,4.39609 3.98745,1.05903 4.81861,1.20376 4.81861,0.83903 z m -35.03031,-2.54338 c 1.12648,-1.04946 1.74256,-2.37638 1.38499,-2.98292 -3.13654,-5.32036 -5.11275,-8.07314 -5.51029,-7.67559 -0.26087,0.26087 -0.85447,2.16686 -1.31932,4.23576 -0.66805,2.97325 -0.53265,4.23851 0.64599,6.03735 1.80934,2.76144 2.21341,2.79387 4.79863,0.3854 z m -97.848425,-2.60405 c 2.447641,-3.4614 2.465049,-3.57931 0.810174,-5.48738 -0.930166,-1.0725 -2.33178,-1.94998 -3.114695,-1.94998 -3.363251,0 -3.873061,0.85708 -3.553787,5.97457 0.388104,6.22073 2.177857,6.6676 5.858308,1.46279 z m 118.910895,-6.2304 c -2.86555,-2.86554 -3.29004,-3.0102 -6.03025,-2.05499 -2.48157,0.8651 -2.94609,1.48511 -2.93752,3.92078 0.0104,2.68653 0.41905,3.05833 5.73642,5.20647 5.72631,2.31334 5.72631,2.31334 6.02008,-0.83818 0.23901,-2.56375 -0.28098,-3.72647 -2.78873,-6.23408 z m 19.9295,5.77032 c 1.79627,-2.64693 2.25036,-4.19069 1.81531,-6.17145 -0.31914,-1.45283 -1.0343,-2.6415 -1.58937,-2.6415 -1.67621,0 -7.14986,2.17612 -6.88938,2.73892 0.13356,0.28861 1.04388,2.67229 2.02291,5.29694 0.979,2.62466 1.88464,4.66742 2.01254,4.53956 0.12801,-0.128 1.31051,-1.82103 2.62799,-3.76247 z m 30.0608,1.97156 c 1.30454,-1.00064 1.35221,-1.69887 0.37288,-5.46252 -0.61758,-2.37337 -1.35126,-4.54359 -1.63038,-4.82274 -1.00902,-1.00902 -6.31234,1.5337 -6.32473,3.0324 -0.007,0.83404 -0.22167,2.34245 -0.4774,3.3521 -0.35119,1.38672 0.26919,2.19807 2.53658,3.31764 3.90679,1.92907 3.7851,1.91624 5.52305,0.58312 z m -87.767713,-1.10867 c 0.521309,-1.35851 -2.288653,-8.75796 -3.325839,-8.75796 -0.311167,0 -1.367508,0.60642 -2.347386,1.34755 -0.979912,0.74119 -2.683526,1.36071 -3.785789,1.37677 -1.495024,0.0208 -2.077951,0.67041 -2.294581,2.55324 -0.258098,2.24224 0.11933,2.64207 3.380891,3.58121 5.160402,1.48597 7.775866,1.45448 8.372704,-0.10096 z m -60.560299,-9.26598 c -2.273607,-3.57121 -4.768736,-4.05943 -5.702966,-1.1159 -0.357394,1.12602 -1.521043,3.25035 -2.585888,4.72067 -1.211052,1.67219 -1.55518,2.80831 -0.918944,3.03379 0.55942,0.19843 1.798495,0.93901 2.753495,1.64609 1.562156,1.1566 2.071577,0.96029 5.077561,-1.95673 3.341196,-3.24235 3.341196,-3.24235 1.376742,-6.32792 z m 16.971463,4.87227 c 0.823724,-1.53912 0.527815,-2.304 -1.786886,-4.61869 -2.77409,-2.77411 -2.77409,-2.77411 -5.113941,-0.1124 -2.977461,3.38686 -2.967636,3.49732 0.506685,5.69709 3.2274,2.04343 4.920487,1.7877 6.394142,-0.96587 z m 120.875649,-1.1107 c -0.25809,-2.12128 -1.25885,-2.87592 -6.96783,-5.25334 -6.95817,-2.89766 -9.74788,-2.92927 -8.83499,-0.0999 2.20114,6.82177 3.07035,7.55036 9.07681,7.60836 1.51441,0.0139 3.36958,0.41609 4.12256,0.89214 1.86249,1.17751 2.96697,-0.15749 2.60345,-3.14711 z m -69.92868,0.64725 c 0.34204,-1.38822 1.1851,-3.39506 1.87383,-4.45961 1.32306,-2.04503 0.64682,-3.2104 -2.46043,-4.24008 -1.46578,-0.48573 -6.423112,1.64099 -6.427378,2.75737 -0.0069,1.62875 4.242648,8.46637 5.260998,8.46637 0.62227,0 1.41111,-1.13581 1.75298,-2.52405 z m 18.20029,-0.91832 c -0.0312,-3.8996 -0.7118,-5.33082 -3.14965,-6.63554 -1.26094,-0.67482 -2.19562,-0.49849 -3.62306,0.68345 -1.92373,1.59288 -1.92373,1.59288 0.42571,5.49367 1.62011,2.68988 2.97436,3.90062 4.36253,3.9003 1.71933,-4.1e-4 2.00892,-0.50272 1.98447,-3.44188 z m -94.966906,-6.05574 c 0,-0.66476 -1.641859,-2.52808 -3.648574,-4.14073 -3.648575,-2.93208 -3.648575,-2.93208 -5.048071,0.41739 -1.866746,4.46774 -1.806459,4.89464 1.122988,7.95233 2.522485,2.6329 2.522485,2.6329 5.048071,-0.19357 1.389073,-1.55465 2.525586,-3.37052 2.525586,-4.03528 z m 37.991558,5.98605 c 0.257849,-0.41721 0.236202,-1.64803 -0.04812,-2.73521 -0.60368,-2.3085 -9.491903,-6.89652 -11.710826,-6.04502 -2.017049,0.774 4.178519,7.95566 7.5415,8.74183 3.674901,0.85906 3.710049,0.85936 4.217431,0.0385 z m 11.405904,-2.44677 c 0.291047,-0.28583 -2.628444,-6.1477 -4.310173,-8.65434 -1.214354,-1.81004 -4.07054,5.08957 -3.329367,8.04262 0.489839,1.95169 0.887123,2.10626 3.94537,1.53503 1.870377,-0.34937 3.532751,-0.76484 3.69417,-0.92331 z m 10.222734,-3.54938 c -0.03124,-2.27546 -0.720614,-3.31744 -3.276061,-4.94764 -3.059301,-1.95165 -8.207474,-2.88126 -7.546104,-1.36262 4.1475,9.52347 4.482106,9.93749 7.724893,9.55893 2.836539,-0.3313 3.132414,-0.64148 3.097272,-3.24867 z m 55.46653,2.81192 c 1.55346,-1.13594 1.54795,-1.41385 -0.12315,-6.19538 -1.82961,-5.234638 -4.88036,-10.956218 -5.84716,-10.966172 -0.31048,-0.0034 -1.63625,0.837136 -2.94599,1.86738 -2.01824,1.587579 -2.24706,2.226494 -1.50054,4.189998 0.48447,1.274254 0.88088,3.328314 0.88088,4.564574 0,1.36743 1.16827,3.31061 2.98293,4.96142 3.36236,3.05884 4.23938,3.27003 6.55316,1.57818 z m -98.254004,-3.10025 c 2.807009,-3.06299 3.006315,-3.64425 2.17657,-6.34784 -0.913384,-2.976065 -0.913384,-2.976065 -3.898324,-1.01939 -4.609135,3.02137 -5.376597,4.79519 -3.470634,8.02175 0.882797,1.49446 1.716988,2.71717 1.853758,2.71717 0.136782,0 1.639154,-1.51725 3.33863,-3.37169 z m -34.469043,1.46737 c 2.942003,-1.02561 5.029162,-3.50643 5.926646,-7.0445 0.428998,-1.69124 0.144727,-2.065157 -1.570078,-2.065157 -3.736461,0 -7.3827921,1.031257 -9.6240928,2.721867 -2.1934394,1.65452 -2.1934394,1.65452 0.029487,4.46362 1.2226727,1.54501 2.2646646,2.83197 2.3155366,2.85989 0.05089,0.0277 1.3659486,-0.39314 2.9223882,-0.93572 z m 168.430027,-4.85433 c -5.0376,-2.59195 -10.28764,-3.62686 -11.84445,-2.33483 -2.08922,1.73386 -1.50945,2.44313 3.30383,4.04184 2.51808,0.83636 4.80535,1.88798 5.08279,2.33694 0.27752,0.44891 1.95238,0.12557 3.72207,-0.71815 3.21757,-1.53436 3.21757,-1.53436 -0.26434,-3.3258 z m -83.256217,1.48114 c 2.192459,-1.38822 4.001427,-2.76182 4.019837,-3.05241 0.0173,-0.2907 -0.999055,-1.49843 -2.261067,-2.684057 -2.294582,-2.155617 -2.294582,-2.155617 -4.58913,0 -1.555492,1.461317 -2.294591,3.138897 -2.294591,5.208077 0,1.67884 0.256355,3.0524 0.569299,3.0524 0.313244,0 2.363159,-1.1358 4.555652,-2.52401 z m 33.303797,1.46824 c 3.41781,-2.13446 -1.47136,-11.793835 -5.96954,-11.793835 -0.89461,0 -1.25295,1.336038 -1.25295,4.671475 0,3.72218 0.41968,5.02158 2.06511,6.3943 2.44992,2.04377 2.93982,2.11294 5.15738,0.72806 z m 23.11152,-0.34447 c 2.49013,-1.28768 2.70791,-1.79783 2.70791,-6.3436 0,-5.395393 -3.3e-4,-5.395598 -5.7997,-3.240333 -3.35609,1.247234 -3.47968,1.440178 -2.90626,4.537253 0.32921,1.77902 0.97738,3.37228 1.44001,3.54056 0.46262,0.16825 0.84114,0.89103 0.84114,1.6062 0,1.63596 0.37951,1.62576 3.7169,-0.0999 z m -83.609626,-6.43278 c 0.03674,-0.842443 -4.543719,-4.098703 -5.765483,-4.098703 -0.558171,0 -2.788465,6.468313 -2.315619,6.715793 0.1765,0.0922 1.560005,0.82169 3.074429,1.6207 2.681793,1.41492 2.782289,1.39103 3.859384,-0.91781 0.608238,-1.30386 1.124521,-2.79784 1.147289,-3.31998 z m 46.487636,4.25316 c 2.7325,-1.66625 4.03448,-4.705147 4.03448,-9.416692 0,-1.448958 -0.30804,-1.588344 -1.77531,-0.803136 -0.97645,0.522597 -2.52527,0.985113 -3.44187,1.027816 -1.99075,0.09297 -8.53804,7.408412 -7.07424,7.904372 0.55941,0.1894 1.79849,0.93613 2.7535,1.65909 2.2159,1.6775 2.13431,1.68301 5.50344,-0.37145 z M 36.194032,102.7924 c 0.953363,-1.52659 0.619606,-2.2598 -2.484747,-5.458603 -1.97232,-2.032366 -4.802912,-4.32445 -6.290205,-5.093559 -2.704165,-1.398378 -2.704165,-1.398378 -3.164321,2.016755 -0.416854,3.09377 -0.102126,3.736391 3.344577,6.829607 4.241701,3.80664 6.947352,4.34363 8.594696,1.7058 z m 126.686898,-1.21952 c 2.86718,-1.913662 3.05335,-2.331801 2.5388,-5.701979 -0.69675,-4.563538 -0.71363,-4.577201 -3.71357,-3.005377 -2.18406,1.144339 -2.50122,1.879481 -2.60519,6.038397 -0.0652,2.604509 0.0624,4.735149 0.28377,4.734769 0.22131,-3.8e-4 1.79446,-0.92997 3.49619,-2.06581 z m 25.7367,0.91786 c 0.52141,-0.63101 1.22666,-2.638266 1.56714,-4.460583 0.61907,-3.313318 0.61907,-3.313318 -3.70084,-4.401077 -2.37597,-0.598262 -4.41773,-0.965906 -4.53727,-0.816978 -0.11967,0.148817 -0.4596,1.839524 -0.75565,3.75686 -0.49193,3.185723 -0.28549,3.640148 2.39412,5.274108 3.45925,2.10925 3.7895,2.15173 5.0325,0.6476 z M 59.068829,97.874613 c 1.564484,-3.019049 1.196339,-3.850839 -2.233527,-5.046489 -2.056873,-0.717034 -2.994872,-0.547226 -4.727611,0.855862 -1.995983,1.616235 -2.079922,2.023072 -1.095387,5.309159 1.049735,3.503695 1.110123,3.542335 3.900416,2.495655 1.558795,-0.58477 3.429044,-2.211138 4.156109,-3.614187 z m 50.809801,-4.972359 c 0,-0.481833 -1.05111,-1.863562 -2.33583,-3.070453 -2.61981,-2.461198 -4.05759,-2.040896 -7.13952,2.08704 -1.765014,2.364034 -1.764628,2.367012 0.70246,5.601549 2.46842,3.23624 2.46842,3.23624 5.62063,-0.252888 1.73376,-1.919035 3.15226,-3.883406 3.15226,-4.365213 z M 90.934727,97.34715 c 2.509659,-2.619524 2.509659,-2.619524 0.323311,-4.051996 -2.084749,-1.366015 -2.257191,-1.312378 -3.71468,1.15492 -3.240084,5.485065 -0.956843,7.435566 3.3913,2.897076 z M 43.796832,95.833991 c 1.053175,-1.269023 0.884199,-1.82309 -1.187948,-3.895206 -2.360831,-2.360843 -2.45831,-2.377285 -4.286262,-0.722999 -2.283552,2.066564 -2.316984,2.762195 -0.264301,5.499109 1.699289,2.26569 3.335501,2.014498 5.738494,-0.880904 z m 133.422838,1.149754 c 1.27849,-4.770737 0.88307,-5.277553 -4.11773,-5.277553 -4.4222,0 -4.66389,0.120369 -4.14274,2.065148 0.30422,1.135809 0.55905,2.553959 0.56595,3.151414 0.0103,0.941861 1.25795,1.348354 6.10084,1.988588 0.57213,0.07562 1.28928,-0.791788 1.59368,-1.927597 z M 20.83495,92.578815 c 0.01284,-2.135536 -0.266347,-2.307009 -3.198358,-1.964724 -2.824484,0.329901 -3.212408,0.688071 -3.212408,2.967145 0,2.145491 0.434916,2.642179 2.524036,2.882538 2.91946,0.335797 3.867064,-0.611229 3.88673,-3.884959 z m 53.042144,-1.937322 c -2.217164,-1.40708 -6.120517,-0.833799 -7.126938,1.046729 -0.848316,1.585074 -0.529386,2.028375 2.491743,3.463354 3.464574,1.645601 3.464574,1.645601 4.635195,-1.060778 0.948942,-2.193883 0.948942,-2.847087 0,-3.449305 z m 9.571218,3.812332 c 1.563498,-2.747701 1.563498,-2.747701 -1.458889,-2.747701 -2.348097,0 -3.260033,0.521559 -4.087551,2.337774 -1.434309,3.147947 -1.424124,3.170045 1.458877,3.16342 1.839942,-0.0034 2.947798,-0.750512 4.087563,-2.753493 z m 63.954488,-0.09435 c 3.23337,-1.127141 3.23374,-1.508275 0.007,-8.965277 -0.95561,-2.20959 -1.73747,-4.545803 -1.73747,-5.191621 0,-1.743121 -6.3001,0.377355 -7.43797,2.503451 -0.8265,1.544389 1.52379,7.010818 4.95491,11.524265 1.04898,1.379849 0.65848,1.367878 4.21178,0.129044 z m -14.24587,-2.049268 c 3.97422,-2.696982 3.26853,-4.120538 -3.06633,-6.185686 -4.68286,-1.526588 -4.68286,-1.526588 -6.02262,1.064143 -0.73683,1.424911 -1.3397,2.807918 -1.3397,3.073328 0,0.368271 6.08464,3.944843 7.07242,4.157182 0.10373,0.02085 1.61408,-0.926738 3.35623,-2.108967 z M 35.361698,88.989919 c 2.599395,-3.515866 2.533307,-4.952989 -0.29743,-6.467961 -2.111787,-1.130189 -2.536364,-1.012974 -5.048075,1.393384 -2.91077,2.788705 -3.57055,5.037392 -1.477995,5.037392 0.695399,0 1.778529,0.619553 2.406961,1.376759 1.592655,1.919035 2.127226,1.756899 4.416549,-1.339574 z m 15.722387,1.108407 c 1.889499,-1.530022 1.918079,-1.76966 0.590089,-4.948003 -1.62005,-3.877332 -5.274374,-5.662638 -8.567763,-4.185793 -2.901731,1.301245 -2.580293,4.156897 0.868421,7.715054 3.354805,3.461302 4.343232,3.658546 7.109253,1.418742 z M 100.70032,84.50395 c -0.757201,-0.175179 -1.769097,-0.691469 -2.248682,-1.147291 -1.441672,-1.370241 -2.067405,-0.984249 -4.16349,2.568393 -1.918657,3.251847 -1.933469,3.448988 -0.346207,4.609528 1.46075,1.068134 2.043471,0.800399 4.896624,-2.249835 2.389675,-2.554689 2.877705,-3.54573 1.861825,-3.780795 z m 16.81025,6.194749 c 1.27311,-0.580078 2.61116,-2.310476 3.15384,-4.078642 0.94138,-3.067295 0.93745,-3.072813 -3.19824,-4.481975 -3.92525,-1.337496 -4.27822,-1.31304 -6.78198,0.469803 -1.45267,1.034376 -2.6412,2.070105 -2.6412,2.30159 0,0.769691 5.7897,6.796752 6.52909,6.796752 0.39993,0 1.72226,-0.453393 2.93849,-1.007528 z m 43.02562,-0.994381 c 1.86409,-0.642278 3.57168,-1.865364 3.79463,-2.717939 0.41413,-1.583684 -0.92161,-3.540632 -2.41672,-3.540632 -0.45739,0 -1.64384,-1.032542 -2.63656,-2.294552 -0.99269,-1.262046 -2.25868,-2.294585 -2.8133,-2.294585 -0.55462,0 -1.77659,-0.695181 -2.71544,-1.544869 -1.59597,-1.444306 -1.80702,-1.444896 -3.2429,-0.01041 -1.36017,1.360218 -1.39334,1.929753 -0.29,4.980919 2.98269,8.248444 3.79266,9.619282 5.37631,9.09914 0.85514,-0.280985 3.07996,-1.036174 4.94405,-1.678461 z M 64.454059,88.943817 c 1.455916,-1.608768 1.512943,-2.13678 0.446071,-4.130227 -0.918221,-1.715714 -1.96689,-2.285665 -4.205493,-2.285665 -5.002236,0 -5.828669,0.646963 -4.687715,3.669685 1.640938,4.347346 5.780277,5.693065 8.447137,2.746207 z m 127.111571,0.380062 c 0,-0.805461 -0.73768,-2.560832 -1.6393,-3.900784 -0.90158,-1.339926 -2.21812,-3.586397 -2.92563,-4.992127 -1.22842,-2.440836 -1.35622,-2.482151 -2.83942,-0.917821 -0.85419,0.900927 -1.80493,3.335623 -2.11276,5.410444 -0.55969,3.772435 -0.55969,3.772435 3.33142,4.7084 5.60828,1.349014 6.18569,1.320257 6.18569,-0.308043 z M 90.483591,85.510895 c 1.75235,-3.44188 1.75235,-3.44188 -3.193781,-3.714333 -4.946109,-0.272314 -4.946109,-0.272314 -4.946109,2.829988 0,3.770873 0.488522,4.326184 3.805657,4.326184 2.060042,0 2.935993,-0.695598 4.334233,-3.441839 z m 86.845039,2.381687 c 0.24768,-0.247688 0.68366,-1.659384 0.96879,-3.136988 0.49301,-2.555174 0.29138,-2.757346 -4.12069,-4.133555 -2.5515,-0.795851 -4.64353,-1.208867 -4.64898,-0.917821 -0.007,0.291047 -0.62053,2.541783 -1.3668,5.001662 -1.3569,4.472546 -1.3569,4.472546 3.68018,4.05481 2.7704,-0.229649 5.23975,-0.620386 5.4875,-0.868108 z M 18.468783,87.481857 c 1.207509,-0.463356 0.99034,-1.180905 -1.339164,-4.424706 -2.394404,-3.334131 -3.157455,-3.816283 -5.496412,-3.472994 -2.3673379,0.347452 -2.7160109,0.779651 -2.7160109,3.3666 0,2.170919 0.5545974,3.235439 2.0651189,3.963955 2.365996,1.141087 5.393212,1.370419 7.486468,0.567145 z m 60.20359,-3.564849 c 0,-3.865095 -0.204112,-4.203215 -3.324496,-5.506992 -4.519167,-1.888229 -5.393927,-1.768758 -7.197017,0.983106 -1.46905,2.242063 -1.462674,2.473478 0.11621,4.21809 1.838339,2.031362 6.290792,4.231905 8.799106,4.348841 1.302177,0.06067 1.606205,-0.704583 1.606205,-4.043045 z M 27.079066,81.71511 c 2.758892,-3.433064 2.803166,-3.623129 1.185131,-5.087451 -1.566266,-1.417455 -1.923165,-1.410828 -5.236384,0.09713 -1.955558,0.890102 -3.718394,1.724597 -3.91742,1.854475 -0.475984,0.310474 3.874541,6.687648 4.56795,6.695767 0.294132,0.0034 1.824444,-1.598565 3.400723,-3.560026 z M 134.40183,81.380702 c 0.72198,-1.585874 0.53719,-2.863877 -0.79622,-5.506988 -0.95497,-1.893017 -2.07694,-3.441877 -2.49325,-3.441877 -1.42373,0 -3.77264,3.330419 -4.33615,6.148055 -0.49696,2.484752 -0.25566,2.927011 2.05422,3.768097 3.88244,1.413568 4.5395,1.299508 5.5714,-0.967287 z M 108.9608,78.467636 c 0,-2.701425 -2.57044,-4.452006 -7.18856,-4.895756 -4.73695,-0.455129 -4.743231,-0.452181 -4.743231,2.233703 0,2.255628 0.628925,2.994032 3.899061,4.57786 3.51006,1.700037 4.10527,1.753321 5.96589,0.534186 1.13679,-0.744822 2.06684,-1.847329 2.06684,-2.449993 z m 57.35216,-0.182121 c 0.76397,-1.828459 1.38904,-3.648316 1.38904,-4.044089 0,-0.39581 -2.10365,-1.008951 -4.67482,-1.362577 -6.45627,-0.887987 -7.67169,0.522704 -3.53113,4.098414 1.73684,1.499912 3.57093,3.135218 4.07573,3.634057 1.29017,1.274845 1.20737,1.345092 2.74118,-2.325805 z M 42.229867,75.203543 c -0.614867,-2.351266 -1.578433,-2.330071 -5.545996,0.122108 -3.197346,1.976065 -3.197346,1.976065 -1.045859,3.127484 2.993442,1.602074 7.304787,-0.52326 6.591855,-3.249522 z m 23.801918,1.576266 c 2.041099,-2.643146 2.022153,-2.886494 -0.438505,-5.632669 -2.828619,-3.156796 -6.420729,-2.423561 -7.794649,1.591076 -2.662967,7.781245 -2.792204,7.384083 2.181601,6.704928 3.051554,-0.416658 4.967944,-1.260069 6.051553,-2.663335 z m 56.992975,1.042043 c 0.28135,-1.07604 -0.15956,-2.975091 -0.98206,-4.230546 -1.32882,-2.02803 -1.97984,-2.231276 -5.93072,-1.851666 -5.41262,0.520102 -5.66934,0.746903 -4.28473,3.785824 0.75887,1.665557 1.83589,2.433205 3.47625,2.477711 1.30718,0.03539 3.20277,0.419468 4.21237,0.853331 2.71582,1.167032 2.95129,1.097582 3.50889,-1.034654 z M 53.608963,74.726248 c 0.945134,-4.130224 0.945134,-4.130224 -3.975608,-4.130224 -2.706407,0 -4.92074,0.156105 -4.92074,0.346898 0,2.225309 3.117671,6.939984 4.803426,7.263917 1.14417,0.219932 2.320491,0.455995 2.614049,0.52475 0.293545,0.06869 0.959052,-1.733617 1.478873,-4.005271 z m 128.399457,1.84237 c 0.9533,-1.45492 1.28469,-3.142123 0.91021,-4.634126 -0.5567,-2.218164 -0.87532,-2.331217 -5.83762,-2.071808 -5.24875,0.274396 -5.24875,0.274396 -5.52527,3.575953 -0.2678,3.198561 -0.15332,3.331112 3.67136,4.249486 2.17129,0.521351 4.24806,0.997537 4.61501,1.05814 0.36699,0.06071 1.3418,-0.919312 2.16631,-2.177645 z M 93.186366,74.95572 c -0.248374,-2.575466 -0.668993,-3.020293 -3.07961,-3.256321 -2.407192,-0.235542 -3.006072,0.175531 -4.344849,2.982932 -1.55285,3.256322 -1.55285,3.256322 3.07961,3.256322 4.632459,0 4.632459,0 4.344849,-2.982933 z m 52.311814,0.456274 c 1.67009,-0.772575 2.70262,-1.659139 2.29457,-1.970132 -0.40808,-0.311165 -1.9926,-1.687584 -3.52124,-3.059005 -2.56912,-2.304957 -3.03761,-2.414264 -6.19537,-1.445104 -2.96138,0.908871 -4.89215,3.493911 -2.60957,3.493911 0.44354,0 1.32407,1.249627 1.95671,2.776945 1.24616,3.008428 1.97155,3.02671 8.0749,0.203281 z M 12.054539,76.463716 c 1.080549,-0.414646 1.451811,-1.84903 1.451811,-5.609115 0,-5.052032 0,-5.052032 -3.441866,-4.409129 -1.8930262,0.353627 -3.4669599,0.709335 -3.4976324,0.790544 -0.030527,0.08117 0.1124639,2.315954 0.3180351,4.966211 0.386273,4.979323 1.3114956,5.74201 5.1696453,4.261489 z m 72.091833,-5.532694 c 0.01734,-0.572935 -1.022686,-1.733408 -2.312935,-2.57883 -2.293897,-1.503035 -2.418943,-1.466194 -5.638493,1.660941 -3.292571,3.198077 -3.292571,3.198077 0.280814,4.938286 3.573373,1.740209 3.573373,1.740209 5.605489,-0.619211 1.117646,-1.297707 2.046983,-2.828216 2.065125,-3.401186 z m -62.838452,2.43265 c 1.51442,-0.717036 2.872212,-1.373191 3.017315,-1.458147 0.729369,-0.427029 -2.09532,-4.980849 -3.089574,-4.980849 -0.634895,0 -1.807672,-0.250807 -2.60617,-0.557116 -1.208943,-0.463906 -1.451813,0.239706 -1.451813,4.206749 0,2.620112 0.309779,4.612896 0.688372,4.42845 0.378607,-0.184548 1.927446,-0.922051 3.44187,-1.639087 z m 13.413045,-1.101016 c 1.961758,-1.102577 3.566829,-2.358552 3.566829,-2.791132 0,-0.432546 -1.728608,-1.520588 -3.841356,-2.417872 -2.875522,-1.221251 -4.339284,-1.396433 -5.821735,-0.696846 -1.980378,0.934575 -1.980378,0.934575 -0.118604,4.422553 1.023977,1.91841 2.038682,3.487979 2.254903,3.487979 0.216221,0 1.998202,-0.902105 3.959963,-2.004682 z m 96.039155,-7.86561 c 0.54445,-2.379192 0.79706,-4.637803 0.56141,-5.019112 -0.53907,-0.872237 -4.92194,1.933569 -4.92194,3.150934 0,0.495022 -0.86995,2.121796 -1.93326,3.615082 -1.85651,2.607242 -1.86859,2.786519 -0.30388,4.515627 1.61793,1.787802 1.6436,1.787351 3.61859,-0.068 1.09401,-1.027785 2.43455,-3.815276 2.97898,-6.194468 z m 25.30251,0.847574 c -0.70187,-1.852395 -1.498,-4.021958 -1.76913,-4.821242 -0.35068,-1.033614 -1.67013,-1.453221 -4.56963,-1.453221 -3.76509,0 -4.13919,0.216117 -4.89556,2.829985 -0.75609,2.612862 -0.49884,3.12405 3.35384,6.663577 4.17275,3.833627 4.17275,3.833627 6.66468,1.991257 2.41059,-1.782217 2.45027,-1.952335 1.2158,-5.210356 z m -48.70973,1.417802 c 0.4424,-4.11718 0.30631,-4.478196 -2.1704,-5.758974 -3.77337,-1.951261 -7.020068,0.214729 -7.414007,4.946021 -0.279603,3.358448 -0.265032,3.373121 4.308597,4.352827 2.52401,0.540709 4.63745,0.953724 4.69646,0.917855 0.059,-0.03572 0.31983,-2.04187 0.57935,-4.457729 z M 77.754544,63.285068 c 0,-1.92826 -3.729343,-3.805007 -7.023161,-3.534358 -3.228728,0.265376 -3.556264,0.541957 -3.815729,3.222498 -0.158498,1.637631 0.389919,3.960557 1.242169,5.261246 1.525998,2.328963 1.525998,2.328963 5.56136,-0.977728 2.21945,-1.818643 4.035361,-3.605924 4.035361,-3.971658 z m 90.865316,3.295416 c 0,-1.703714 0.25809,-4.388349 0.57362,-5.965897 0.52267,-2.613348 0.36539,-2.868213 -1.77011,-2.868213 -1.28903,0 -2.96326,0.619523 -3.72046,1.376765 -0.75722,0.757206 -1.76873,1.376729 -2.24776,1.376729 -1.9481,0 -2.98098,2.503694 -2.04669,4.961077 0.95989,2.524715 3.59625,4.05904 7.14629,4.15905 1.74516,0.04926 2.06511,-0.421723 2.06511,-3.039511 z M 93.767456,62.645009 c -2.453637,-1.794116 -6.303848,-1.499427 -8.230967,0.630034 -2.197033,2.427724 -0.875599,3.798036 4.361086,4.522425 3.549764,0.491034 3.995768,0.331634 4.73369,-1.691503 0.632255,-1.733514 0.438856,-2.508412 -0.863809,-3.460956 z m 25.525454,4.563464 c 0.38222,-0.22028 1.34157,-1.65064 2.13187,-3.178929 1.32167,-2.555866 1.30974,-2.919311 -0.14882,-4.530959 -1.90447,-2.10445 -4.34201,-2.251603 -6.21816,-0.375446 -0.75722,0.757206 -1.8114,1.376729 -2.34267,1.376729 -0.53124,0 -1.21865,1.13581 -1.52759,2.524022 -0.30909,1.388247 -0.76752,3.277794 -1.01901,4.199048 -0.41337,1.514031 -0.0312,1.613036 3.98609,1.030353 2.44385,-0.354563 4.75609,-0.824747 5.13826,-1.044818 z M 41.542848,61.781132 c -0.602081,-3.209387 -0.602081,-3.209387 -5.298288,-2.933708 -2.616029,0.153676 -4.856937,0.76366 -5.059068,1.377285 -0.429653,1.304402 10.166473,6.92708 10.637077,5.64443 0.177299,-0.483263 0.05141,-2.322857 -0.279738,-4.088007 z m 13.265914,4.061433 c 0,-2.750024 -2.295844,-7.198179 -3.480576,-6.743536 -0.692296,0.265723 -2.46401,0.483019 -3.937145,0.483019 -2.512942,0 -2.678426,0.226871 -2.678426,3.671315 0,3.671313 0,3.671313 5.048071,3.671313 3.264446,0 5.048076,-0.38235 5.048076,-1.082111 z m 7.736004,-0.360182 c 2.571623,-2.571616 1.792299,-4.685536 -1.951363,-5.293057 -1.866521,-0.30284 -3.506303,-0.438061 -3.643965,-0.300412 -0.427537,0.42755 2.871304,6.974258 3.53021,7.005895 0.342561,0.01734 1.271849,-0.619143 2.065118,-1.412426 z m 78.227944,-2.945675 c 0.71325,-2.841849 0.21439,-3.145036 -3.21029,-1.951191 -2.33104,0.812607 -2.90234,1.52038 -2.90234,3.595725 0,2.497692 0.0934,2.548825 2.78997,1.530891 1.65044,-0.622957 3.00753,-1.919935 3.32266,-3.175425 z m 40.49965,1.175564 c 0.23693,-2.493147 -0.13598,-2.915668 -3.94469,-4.46876 -2.31357,-0.943421 -4.34032,-1.562945 -4.50387,-1.376765 -0.16374,0.186285 -0.58553,2.322995 -0.9377,4.748429 -0.64028,4.409858 -0.64028,4.409858 4.24209,4.130223 4.68269,-0.268151 4.89309,-0.392235 5.14417,-3.033127 z M 26.788613,62.927176 c 2.741526,-2.004648 1.142858,-4.112359 -3.36558,-4.437229 -5.539683,-0.399139 -7.302856,1.828182 -3.195364,4.036563 3.58538,1.927671 4.404237,1.977693 6.560944,0.400666 z M 10.804354,62.335542 c 1.771008,0 4.95292,-4.785789 3.889168,-5.849548 -0.316406,-0.31637 -2.810896,-0.575294 -5.5433088,-0.575294 -4.9680279,0 -4.9680279,0 -4.3282529,2.982966 0.8559784,3.99098 1.2837404,4.578346 2.8863936,3.963367 0.747438,-0.286885 2.1406383,-0.521491 3.0960001,-0.521491 z m 73.132354,-2.319699 c 1.157074,-0.810456 1.782599,-1.97211 1.482776,-2.753494 -0.625177,-1.629167 -2.196897,-1.712734 -5.333495,-0.283414 -2.2072,1.005653 -2.255013,1.16644 -0.818767,2.753493 1.849325,2.043466 2.132344,2.060672 4.669486,0.283415 z m 16.763612,-6.571198 c 0,-3.492108 -3.911705,-6.712247 -8.15377,-6.712247 -3.190134,0 -3.552569,0.268845 -4.493185,3.333749 -1.260793,4.107987 0.416414,6.901444 5.304303,8.834458 3.019348,1.194088 3.336556,1.139555 5.277543,-0.907032 1.135817,-1.197592 2.065109,-3.244597 2.065109,-4.548928 z m 12.61657,2.925 c 4.12679,-1.964062 5.13783,-4.717486 2.52767,-6.883753 -0.75724,-0.628439 -1.37676,-1.718562 -1.37676,-2.42252 0,-0.9412 -1.32932,-0.607867 -5.02353,1.259687 -4.19543,2.120927 -5.02757,2.947062 -5.04807,5.011585 -0.0208,2.227252 3.15291,5.776388 4.56759,5.105801 0.27266,-0.129391 2.23173,-1.061191 4.3531,-2.0708 z m 47.04248,0.467755 c 0,-0.391925 0.76758,-0.91331 1.70574,-1.158671 0.93817,-0.245255 1.91344,-1.532555 2.1673,-2.860511 0.41239,-2.157352 0.17865,-2.414507 -2.19347,-2.414507 -1.72734,0 -2.8287,0.561246 -3.15215,1.606203 -0.27335,0.883442 -0.81461,2.225759 -1.20268,2.982966 -0.98745,1.926596 -0.21612,3.666597 1.35781,3.062648 0.7246,-0.278211 1.31745,-0.826203 1.31745,-1.218128 z m -32.88474,-0.610018 c 4.02039,-3.638428 -0.13356,-8.885243 -5.20526,-6.574494 -2.48789,1.133555 -3.29941,5.339992 -1.03022,5.339992 0.69539,0 1.77854,0.619524 2.40694,1.376765 1.43897,1.733825 1.76904,1.721544 3.82854,-0.142229 z m 10.30307,0.241092 c 2.03806,-0.85156 3.26812,-2.112705 3.68651,-3.779648 0.80123,-3.192389 0.45052,-3.486141 -4.27713,-3.582336 -3.42749,-0.06973 -3.94102,0.183856 -4.20928,2.079023 -0.32782,2.314912 0.49446,6.560931 1.27033,6.560931 0.25913,0 1.84729,-0.575086 3.52957,-1.27797 z m 47.80576,-4.074614 c -0.24352,-0.672322 -0.44264,-1.808131 -0.44264,-2.524057 0,-1.57904 -1.86495,-1.667152 -5.0049,-0.236584 -3.38432,1.541991 -3.27123,5.797687 0.18629,7.008289 2.10209,0.736046 2.78982,0.557047 4.11396,-1.070801 0.87445,-1.075 1.39074,-2.50463 1.14729,-3.176917 z M 62.499539,55.222422 c 0.259513,-0.883443 0.746331,-3.155062 1.081829,-5.048079 0.609997,-3.441875 0.609997,-3.441875 -5.475539,-3.441875 -6.085535,0 -6.085535,0 -5.474741,2.524021 1.357595,5.610085 2.035231,6.524922 5.114489,6.90474 1.665996,0.205363 3.311023,0.439692 3.655609,0.520483 0.344573,0.08082 0.838846,-0.575883 1.098353,-1.45929 z m 10.665848,-3.538279 c 0,-3.99823 -0.02844,-4.033856 -3.212409,-4.033856 -3.044797,0 -3.21241,0.163735 -3.21241,3.13737 0,1.725535 -0.215596,3.69917 -0.47911,4.385853 -0.367531,0.957781 0.380584,1.166579 3.212411,0.896519 3.691518,-0.352065 3.691518,-0.352065 3.691518,-4.385886 z M 38.056973,51.236577 c -1.273734,-5.018108 -3.013653,-4.507094 -5.01961,1.474277 -0.927623,2.765983 -0.927623,2.765983 2.501144,2.438997 3.428765,-0.327124 3.428765,-0.327124 2.518466,-3.913274 z m 12.162631,4.260449 c 0,-0.227565 -0.447251,-2.499185 -0.993888,-5.048044 -0.988527,-4.609358 -1.013271,-4.634335 -4.589158,-4.634335 -4.001479,0 -4.048858,0.113436 -2.487073,5.952716 1.067034,3.989523 1.237474,4.143406 4.589154,4.143406 1.914532,0 3.480965,-0.186283 3.480965,-0.413743 z M 29.424949,52.967905 c 0.291255,-1.113748 0.442685,-2.043085 0.33649,-2.065113 -0.106185,-0.02081 -2.162392,-1.030735 -4.569367,-2.241578 -2.406972,-1.210809 -4.610076,-1.967704 -4.895784,-1.682 -0.285704,0.285843 -0.745641,2.205675 -1.022066,4.266625 -0.502594,3.747111 -0.502594,3.747111 4.55928,3.747111 4.447762,0 5.12612,-0.245604 5.591433,-2.025045 z m 52.498244,0.55663 c 1.757956,-0.441218 2.373559,-1.513511 3.291067,-5.732506 1.837962,-8.451692 1.04485,-10.607933 -3.562773,-9.686401 -3.53329,0.706663 -4.814773,3.798209 -4.814773,11.615494 0,4.625315 0.225378,5.381724 1.462014,4.907204 0.804107,-0.308739 2.435116,-0.805286 3.624465,-1.103791 z m 72.372077,0.01734 c 0.8731,-2.275298 0.64224,-3.432511 -1.14951,-5.762236 -1.59761,-2.077253 -1.78049,-2.106705 -4.46481,-0.718563 -2.15197,1.112846 -2.88653,2.196968 -3.17757,4.690012 -0.37854,3.242584 -0.37854,3.242584 3.92811,3.242584 3.08042,0 4.4653,-0.413362 4.86378,-1.451797 z m 20.06094,-0.867556 c 0.33996,-1.778817 -0.15784,-2.747527 -2.13709,-4.156796 -2.5805,-1.837443 -2.5805,-1.837443 -3.54369,1.630971 -1.34204,4.83269 -1.33653,4.845178 2.13199,4.845178 2.59243,0 3.17865,-0.383148 3.54879,-2.319353 z M 16.516011,49.716163 c 0.272175,-2.397856 0.42916,-4.403649 0.348822,-4.457348 -0.08034,-0.05376 -1.488399,-0.353107 -3.129024,-0.665418 -2.982953,-0.5678 -2.982953,-0.5678 -2.982953,3.921912 0,4.453428 0.606276,5.333332 3.781419,5.488083 1.107438,0.05412 1.613123,-1.040032 1.981736,-4.287229 z m 19.460447,-7.382002 c -0.16592,-0.861795 -0.333298,-1.876642 -0.371929,-2.255245 -0.03861,-0.378603 -2.740351,-0.688382 -6.003835,-0.688382 -4.927029,0 -6.094791,0.301106 -6.883735,1.775348 -1.297093,2.42363 -1.206535,2.812849 0.656079,2.819855 0.883415,0.0033 2.790512,0.786832 4.237997,1.741146 2.58475,1.704061 2.685742,1.703264 5.649462,-0.04544 1.897302,-1.119437 2.905651,-2.362194 2.715961,-3.347348 z m 70.442292,3.481215 c 1.0837,-1.009609 2.71852,-1.835674 3.63294,-1.835674 2.13599,0 2.0928,-0.954279 -0.29417,-6.502998 -1.93037,-4.48732 -2.00159,-4.540604 -5.27751,-3.949179 -1.82641,0.329899 -3.38935,0.648004 -3.47324,0.707253 -0.0839,0.05932 -0.26121,2.4544 -0.39386,5.322544 -0.34517,7.455889 1.91053,9.887116 5.80591,6.258054 z m 16.85412,-2.681409 c 0.27544,-1.301661 1.09144,-4.032572 1.81365,-6.068683 1.69875,-4.789328 1.67138,-5.017379 -0.60197,-5.017379 -1.74916,0 -10.01675,5.189093 -10.01675,6.286918 0,0.257743 0.88378,2.424288 1.96395,4.814339 1.83259,4.054912 2.11035,4.278903 4.15226,3.348561 1.20355,-0.548375 2.41353,-2.062061 2.68886,-3.363756 z m 10.46938,-2.137787 c 0,-2.259859 -0.76077,-4.685258 -2.02775,-6.464562 -2.02775,-2.847746 -2.02775,-2.847746 -3.51233,3.988551 -1.46194,6.731915 -1.45551,6.852705 0.42155,7.912926 2.82801,1.597322 5.11853,-0.835674 5.11853,-5.436915 z m 30.30498,5.737015 c 3.32324,0 2.77569,-2.706003 -1.03423,-5.111108 -3.49448,-2.205988 -3.85105,-2.259479 -5.93916,-0.891283 -2.52264,1.652894 -2.69781,2.493356 -1.07417,5.153431 0.87838,1.439101 1.76575,1.758871 3.78605,1.364311 1.45134,-0.283415 3.36898,-0.515351 4.26151,-0.515351 z m 17.65171,-1.555763 c 2.22905,-0.449821 2.52402,-0.922989 2.52402,-4.04846 0,-3.11281 -0.30422,-3.60679 -2.52402,-4.100841 -1.38821,-0.309085 -3.17123,-0.733653 -3.96222,-0.943837 -1.31723,-0.349984 -3.13595,1.200055 -6.25962,5.334927 -1.03202,1.366081 -0.78822,1.812848 1.87922,3.44368 1.6858,1.030666 3.68463,1.637666 4.44184,1.348909 0.75721,-0.288618 2.51257,-0.754223 3.90078,-1.034378 z M 144.8792,44.751443 c 1.95161,-0.584694 3.54553,-1.307488 3.5421,-1.606202 -0.0139,-1.271689 -6.89746,-5.098933 -8.64162,-4.805285 -3.75866,0.632878 -4.7433,6.148019 -1.21883,6.826862 1.13585,0.218891 2.22372,0.454018 2.41757,0.522774 0.19391,0.06869 1.94918,-0.35342 3.90078,-0.938149 z M 61.891494,42.709088 c 0.115586,-0.115517 -0.209734,-1.730911 -0.722951,-3.58962 -1.099697,-3.982757 -3.047669,-5.236721 -8.135105,-5.236721 -4.096805,0 -4.20391,0.231381 -3.125829,6.757378 0.58563,3.54494 0.58563,3.54494 6.179676,2.912026 3.076725,-0.348077 5.68862,-0.727477 5.804209,-0.843063 z m 12.026104,-1.254206 c 0.267457,-1.883129 -0.07635,-2.065146 -3.900783,-2.065146 -4.212293,0 -4.682137,0.413675 -3.618377,3.185797 0.41707,1.086863 1.491913,1.423698 3.900786,1.22236 2.645882,-0.220973 3.384988,-0.699725 3.618374,-2.343011 z m 23.292109,-0.744094 c 0.451488,-3.867276 0.359216,-3.943836 -4.081483,-3.38724 -2.557846,0.320533 -3.441872,0.8602 -3.441872,2.101051 0,2.313663 2.466432,4.554305 5.013215,4.554305 1.756264,0 2.195334,-0.571651 2.51014,-3.268116 z M 46.260549,39.321501 c -0.59896,-2.056786 -1.396801,-3.698961 -1.772979,-3.649286 -3.389998,0.447705 -6.199776,1.325494 -6.199776,1.936864 0,0.408817 0.402803,1.802789 0.895115,3.097651 0.752926,1.980365 1.47265,2.354354 4.530889,2.354354 3.635772,0 3.635772,0 2.546751,-3.739583 z M 19.251761,34.050992 c -2.519453,-2.310332 -2.647947,-2.247232 -5.649067,2.775384 -2.033093,3.402538 -2.033093,3.402538 0.981098,4.183576 2.724559,0.706005 3.205056,0.511361 5.000473,-2.025774 1.986279,-2.806847 1.986279,-2.806847 -0.332504,-4.933186 z M 158.5041,34.684148 c 0.0208,-0.64894 -8.5216,-4.472714 -9.99365,-4.472714 -0.52447,0 -1.56839,1.188919 -2.31984,2.642071 -1.23655,2.391194 -1.21698,2.771151 0.20572,4.001732 3.79462,3.281853 5.01792,3.401707 8.63377,0.845874 1.89981,-1.342873 3.46304,-2.700523 3.47383,-3.016963 z m 13.09796,-1.9736 c -3.25536,-3.597112 -4.45729,-3.60405 -7.17469,-0.04128 -2.54651,3.33864 -2.54651,3.33864 0.11759,5.462794 2.66396,2.124154 2.66396,2.124154 5.65306,-0.772991 2.85889,-2.770943 2.92007,-2.973426 1.40417,-4.648453 z m -160.111034,0.81167 c 1.840777,-3.119887 1.840777,-3.119887 -1.111507,-5.981335 -2.7114814,-2.628056 -3.1909623,-2.778264 -5.8786257,-1.841329 -3.279178,1.143128 -3.58767693,1.902591 -1.4825192,3.649737 0.7941057,0.659034 2.2555268,2.789328 3.2475998,4.733929 2.0202718,3.96007 2.593901,3.898496 5.2250521,-0.561002 z m 20.826904,2.308737 c 2.5607,-0.547715 2.73053,-0.839663 2.472823,-4.251117 -0.247233,-3.272798 -2.682665,-6.875392 -4.647911,-6.875392 -0.329414,0 -1.073639,1.961875 -1.653821,4.359695 -0.580181,2.397821 -1.341651,5.082491 -1.692152,5.965899 -0.69163,1.743226 0.385257,1.899433 5.521061,0.800915 z m 40.585039,-3.017899 c -1.577371,-3.865715 -4.051797,-5.405521 -5.527784,-3.439933 -0.601443,0.800984 -2.007458,1.943073 -3.124476,2.538036 -3.711388,1.976827 -1.583311,3.807262 4.426351,3.807262 5.411422,0 5.411422,0 4.225909,-2.905365 z m 70.161471,-1.979324 c 5.17692,-6.406804 5.36563,-7.222845 2.17721,-9.414574 -4.00872,-2.755575 -6.91023,-1.361257 -6.91023,3.320671 0,2.516078 -0.54005,3.77063 -2.05665,4.777603 -1.86259,1.236722 -1.94018,1.583236 -0.82215,3.672319 1.64284,3.069656 3.75627,2.415513 7.61182,-2.356019 z m -60.861515,3.365177 c 1.819258,-0.487078 2.069995,-0.995629 1.614277,-3.274324 -0.296597,-1.483748 -1.289832,-3.651541 -2.206857,-4.817323 -1.545974,-1.965414 -1.880501,-2.030006 -4.597213,-0.887709 -3.481152,1.463731 -3.481499,1.465951 -0.925239,6.014186 2.081827,3.70413 2.534664,3.923716 6.115032,2.96517 z M 116.5329,31.703888 c 3.37153,-2.454677 3.68919,-7.925207 0.45891,-7.903213 -3.87302,0.02775 -6.65234,4.076247 -5.71772,8.331596 0.62028,2.824053 0.81327,2.808304 5.25881,-0.428383 z m -20.691731,1.399001 c 1.90575,-0.561835 1.948032,-0.758524 0.720193,-3.350366 -0.717455,-1.514413 -1.725361,-3.899398 -2.239883,-5.299959 -0.935406,-2.546432 -0.935406,-2.546432 -4.57914,-0.13529 -3.285041,2.173969 -3.588441,2.695631 -3.082279,5.29996 0.308738,1.588753 1.012798,3.192075 1.564435,3.562944 1.185377,0.796995 4.774513,0.760501 7.616674,-0.07735 z m 89.693201,-2.40698 c 0.39827,-2.122973 0.11795,-4.114577 -0.83925,-5.965897 -1.51181,-2.923509 -2.15159,-3.131542 -6.78225,-2.205431 -2.67281,0.534567 -2.8682,0.839559 -2.8682,4.476773 0,2.34974 0.54792,4.357892 1.37676,5.045755 0.7572,0.628403 1.37673,0.921219 1.37673,0.650673 0,-0.270579 1.13581,-0.150206 2.52405,0.267458 4.14813,1.248309 4.58817,1.056718 5.21216,-2.269504 z M 25.938657,24.346691 c 0.658943,-3.512504 0.658943,-3.512504 -2.444812,-2.838796 -1.707066,0.37052 -3.407201,1.138065 -3.778078,1.705658 -1.317501,2.016303 -0.672644,5.585212 1.362694,7.541677 2.065118,1.985117 2.065118,1.985117 3.133186,-0.455476 0.587436,-1.342352 1.364589,-4.021229 1.72701,-5.953063 z M 44.02424,32.05963 c 1.33351,-0.01041 1.606205,-0.869566 1.606205,-5.060601 0,-2.776458 -0.317133,-5.048077 -0.704769,-5.048077 -0.387626,0 -2.246234,1.047455 -4.130242,2.327678 -2.584281,1.756061 -3.42547,2.958128 -3.42547,4.895096 0,3.187461 0.800037,4.039926 3.189071,3.397959 1.022452,-0.274742 2.581795,-0.505151 3.465205,-0.512055 z m 13.662642,-5.902415 c -1.409348,-4.766571 -1.613022,-4.985707 -4.927612,-5.301799 -3.457497,-0.329899 -3.457497,-0.329899 -3.457497,4.972074 0,5.301763 0,5.301763 4.927608,5.301763 4.927612,0 4.927612,0 3.457501,-4.972038 z m 48.092748,3.505463 c 1.45609,-0.365456 2.35341,-1.443195 2.76615,-3.322371 0.50362,-2.293057 0.15055,-3.235888 -2.01107,-5.369651 -2.26301,-2.233878 -3.06177,-2.495888 -5.83439,-1.913969 -2.425879,0.509176 -3.237475,1.161931 -3.314832,2.66618 -0.155759,3.030629 3.452322,9.550036 4.964302,8.969851 0.701,-0.269192 2.24442,-0.732542 3.42984,-1.03004 z m 56.85303,-0.345509 c 1.51452,-1.673535 1.52777,-1.971937 0.17345,-3.900787 -4.26308,-6.071632 -3.86371,-5.932423 -8.13741,-2.836575 -4.35896,3.157627 -5.36822,4.878167 -2.86145,4.878167 0.93337,0 3.13616,0.802339 4.8951,1.782981 4.02896,2.246226 3.96719,2.245428 5.93031,0.07632 z m -29.88843,-1.629723 c 3.08263,-1.7545 3.17886,-1.934887 2.01339,-3.774411 -0.60575,-0.956117 -2.11437,-1.096888 -6.41076,-0.598258 -5.00923,0.581399 -5.61858,0.874596 -5.61858,2.703611 0,1.128316 0.27543,2.326809 0.61189,2.663369 1.17387,1.173865 6.60324,0.599785 9.40406,-0.994311 z M 65.909671,26.478233 c 3.588089,-2.554929 2.306891,-5.445066 -2.413807,-5.445066 -3.410212,0 -3.478061,0.116557 -2.606472,4.474414 0.67462,3.373087 1.438849,3.520865 5.020279,0.970652 z M 16.434677,23.929408 c 0.252263,-1.718805 -0.324834,-3.671313 -1.661775,-5.62247 -2.048246,-2.989209 -2.048246,-2.989209 -3.179449,0.786416 -1.058809,3.533978 -0.989742,3.911713 1.07922,5.902207 2.655812,2.55507 3.255458,2.385159 3.762004,-1.066153 z M 171.10203,21.710205 c -0.75054,-8.037705 -1.22651,-8.937521 -4.72765,-8.937521 -2.23859,0 -3.21253,0.539112 -3.96758,2.196308 -0.86656,1.901863 -0.54785,2.818885 2.37669,6.839038 1.85759,2.553508 3.99697,4.821416 4.75418,5.039857 0.75721,0.218545 1.53974,0.445069 1.73893,0.503625 0.19911,0.05862 0.12072,-2.480035 -0.17449,-5.641307 z M 40.701647,20.166618 c 1.954935,-1.273078 1.954935,-1.273078 -0.59141,-3.415685 -3.186091,-2.680924 -3.566908,-2.670065 -6.650434,0.189059 -3.028877,2.808545 -3.039982,2.914557 -0.519071,4.955872 2.079297,1.683699 2.749016,1.534463 7.760915,-1.729316 z m 36.823438,1.277586 c 0.63101,-0.194262 1.147288,-0.955943 1.147288,-1.692371 0,-1.566482 -4.255584,-5.143509 -6.119257,-5.143509 -1.849365,0 -2.986944,3.742982 -1.877593,6.177886 0.911156,1.999861 2.117674,2.115794 6.849562,0.657994 z m 11.182324,-1.099419 c 2.721372,-2.524057 2.721372,-2.524057 0.178304,-6.857805 -2.543136,-4.3337491 -2.543136,-4.3337491 -5.633016,-1.754223 -3.011023,2.513718 -3.058118,2.659451 -1.845551,5.710513 2.465455,6.203661 3.357743,6.558293 7.300401,2.901515 z m 27.259951,1.055572 c 1.20151,-0.322267 1.84084,-1.115759 1.65404,-2.052554 -0.16755,-0.839908 -0.56096,-3.509973 -0.87446,-5.933498 -0.56999,-4.4064578 -0.56999,-4.4064578 -4.86644,-3.8236365 -9.1639,1.2431045 -9.58497,2.3493935 -3.14917,8.2740105 4.80896,4.426995 4.49191,4.27207 7.23603,3.535678 z m 13.87837,-1.123599 c 3.90502,-0.620356 3.90502,-0.620356 1.80248,-3.058729 -1.47054,-1.705414 -3.40303,-2.633363 -6.42908,-3.087139 -4.18839,-0.628092 -4.32653,-0.574636 -4.32653,1.674921 0,5.293751 0.91071,5.748533 8.95313,4.470947 z m 23.41693,-1.079265 c 0.86447,-1.00961 2.20554,-1.835674 2.98018,-1.835674 1.2284,0 3.73952,-4.354252 2.96047,-5.133312 -0.15923,-0.159226 -1.92619,-0.547195 -3.92646,-0.862004 -3.25053,-0.511604 -3.9634,-0.2515 -6.71059,2.450168 -3.07368,3.022547 -3.07368,3.022547 -0.45891,5.114959 3.18195,2.546257 3.20191,2.547299 5.15531,0.265724 z m 29.81301,-2.067715 c 0.63105,-0.500815 1.14729,-1.458979 1.14729,-2.129288 0,-0.670343 0.70774,-1.614838 1.57277,-2.098933 1.32449,-0.741216 0.91397,-1.200195 -2.60065,-2.9077252 -4.17338,-2.0275772 -4.17338,-2.0275772 -7.49634,0.1460432 -2.75696,1.803483 -3.23045,2.564574 -2.77979,4.46831 0.91414,3.861726 2.07118,4.680193 5.69469,4.028306 1.82312,-0.327819 3.83103,-1.006071 4.46203,-1.506852 z M 22.765102,14.378887 c -1.243131,-2.886495 -2.128304,-3.823395 -3.404232,-3.60308 -0.948353,0.163736 -2.418062,0.3555 -3.266023,0.426128 -1.619582,0.134943 -1.472839,0.57075 1.541745,4.579213 1.17949,1.56832 2.724451,2.451138 4.322064,2.469662 2.486401,0.02775 2.486401,0.02775 0.806446,-3.871923 z m 120.029908,0.0895 c 1.06876,-1.711346 0.9571,-2.186248 -0.93676,-3.985013 -1.73132,-1.6443608 -2.90984,-1.9590307 -6.05089,-1.6156385 -4.61692,0.5048051 -4.93068,1.7593575 -1.54889,6.1931155 2.08946,2.739445 2.62917,2.986783 4.83751,2.216949 1.36713,-0.476601 3.03168,-1.740797 3.69903,-2.809413 z M 31.987245,8.4130575 C 29.577462,5.1123333 28.475069,4.8082781 25.857531,6.7222474 c -1.620768,1.1851383 -1.663655,1.5842429 -0.517757,4.8186056 2.015356,5.688485 2.56209,5.943316 5.864166,2.733513 2.961102,-2.878377 2.961102,-2.878377 0.783305,-5.8613085 z m 23.968173,6.6323555 c 0.490215,-2.564365 0.385598,-2.680264 -3.191201,-3.534843 -2.158531,-0.515733 -2.586637,-0.266765 -3.107176,1.807263 -0.667864,2.661011 0.633465,4.006589 3.897431,4.030005 1.370161,0.01041 2.091088,-0.681514 2.400946,-2.302425 z m 11.565449,-0.43702 C 68.480742,11.8549 68.480742,11.8549 64.398244,11.8549 c -2.912359,0 -4.082494,0.373087 -4.082494,1.301695 0,0.715926 -0.250704,1.955007 -0.557117,2.753494 -0.45092,1.175079 0.144275,1.451798 3.122624,1.451798 3.263404,0 3.78834,-0.311513 4.63961,-2.753494 z m 33.879243,0.917855 c 0.49274,0 -0.99215,-5.055121 -1.617599,-5.506989 C 99.433146,9.7667188 98.869339,8.4245049 98.529586,7.0362929 98.189971,5.6480809 97.31964,4.512271 96.595775,4.512271 c -1.054952,0 -5.372571,1.5310641 -6.743992,2.3914726 -0.351442,0.2206259 3.366078,7.7106164 4.582616,9.2330774 0.594478,0.743955 1.746171,0.81382 3.783669,0.229298 1.610991,-0.462031 3.042912,-0.840044 3.182042,-0.840044 z m -54.935,-2.417663 C 47.187152,10.493538 47.071785,9.1654416 45.930934,6.9592816 44.475813,4.1453929 44.475813,4.1453929 42.758872,6.3938746 41.814556,7.6305622 40.628766,9.1412281 40.12378,9.750935 c -1.121139,1.353626 -1.198841,3.021715 -0.140771,3.021715 0.427568,0 1.729836,0.826031 2.893932,1.835639 1.164096,1.009609 2.240441,1.835674 2.391875,1.835674 0.15142,0 0.689763,-1.500919 1.196284,-3.335378 z M 79.590208,8.6656674 c 0,-0.5879556 -1.026666,-1.9616675 -2.281474,-3.0526926 C 75.027258,3.6292449 75.027258,3.6292449 74.478578,6.1358176 74.176813,7.5144205 73.775037,9.14775 73.585763,9.7654 c -0.189267,0.617685 0.361244,1.517779 1.223373,2.000243 1.684771,0.942866 4.781072,-1.064765 4.781072,-3.0999756 z M 127.83117,1.0486096 c -0.79415,-0.79415104 -7.90936,1.6116482 -8.35942,2.8265506 -0.22341,0.602768 -0.0704,2.334998 0.33961,3.8494099 0.63436,2.3427689 1.28396,2.8219379 4.35528,3.2124049 3.60975,0.45891 3.60975,0.45891 3.88813,-4.4637652 0.15299,-2.7074609 0.0523,-5.1485396 -0.2234,-5.4246002 z m -57.102349,4.840287 c 1.407316,-4.1302237 1.407316,-4.1302237 -3.854347,-4.1302237 -5.261663,0 -5.261663,0 -6.233265,3.6400931 -1.116897,4.1844784 -0.844098,4.439447 4.86579,4.547922 3.720095,0.070764 3.849339,-0.031221 5.221822,-4.0577914 z m 97.891039,1.4665411 c 0,-2.1625202 -0.54388,-2.8532961 -2.89045,-3.6713137 -4.37812,-1.5262422 -6.57925,-1.1801084 -8.39963,1.3207753 -1.62035,2.2261761 -1.61137,2.2860504 0.45894,3.051791 1.16145,0.4295968 2.73127,1.0142569 3.48847,1.2993022 0.7572,0.2851497 2.71908,0.5508369 4.3597,0.5906955 2.69681,0.065564 2.98297,-0.1831612 2.98297,-2.5912503 z M 18.858245,5.8507726 C 19.108496,5.6336152 17.474296,1.9657703 16.713044,1.0359133 16.594267,0.89091035 15.383576,1.2794349 14.022648,1.8995131 c -1.86147,0.8481628 -2.348669,1.5955868 -1.966802,3.0173091 0.279184,1.0394418 0.513248,2.4167962 0.520141,3.0607754 0.0093,0.8793829 0.755107,0.7932138 2.995486,-0.346203 1.640624,-0.834357 3.119671,-1.6356537 3.286772,-1.780622 z M 196.12725,109.57065 c -0.97904,-1.17965 -0.74448,-1.85423 1.43609,-4.13022 2.6062,-2.72033 2.6062,-2.72033 -0.044,-5.486548 -2.48604,-2.594864 -2.55434,-2.862152 -1.1023,-4.314191 1.452,-1.452005 1.26291,15.801989 -0.28967,13.931079 z m -0.89031,-16.609731 m 0,-54.411611 m 0,-27.612333 m 1.83567,0 M 97.48792,-0.99482125 c -0.757205,0 -1.376759,-0.61955785 -1.376759,-1.37676435 z m 39.92564,-0.74784035 c 0,-1.2346753 3.67136,-0.657994 3.67136,-0.1592256 0,0.4988376 -0.82607,0.90699652 -1.83568,0.90699652 -1.00961,0 -1.83568,-0.33649002 -1.83568,-0.74784022 z m 12.84966,0.74784035 c -0.50481,0 -0.91783,-0.61955785 -0.91783,-1.37676435 z m 8.26048,-0.91785445 c 0,-0.5048043 2.75349,-0.5048043 2.75349,0 0,0.5048043 -0.61951,0.91785445 -1.37673,0.91785445 -0.75724,0 -1.37676,-0.41305015 -1.37676,-0.91785445 z"
       style="fill:#95b7b3;stroke-width:3.46896;fill-opacity:0.25886315"
       id="path1" />
  </g>
</svg>
