<?xml version="1.0" encoding="UTF-8" standalone="no"?>
<!-- Created with Inkscape (http://www.inkscape.org/) -->

<svg width="128" height="128" viewBox="0 0 33.866666 33.866666" version="1.1" id="svg1" inkscape:version="1.3.2 (1:1.3.2+202311252150+091e20ef0f)" sodipodi:docname="marsh.svg" inkscape:export-filename="marsh.png" inkscape:export-xdpi="96" inkscape:export-ydpi="96"
  xmlns:inkscape="http://www.inkscape.org/namespaces/inkscape"
  xmlns:sodipodi="http://sodipodi.sourceforge.net/DTD/sodipodi-0.dtd"
  xmlns="http://www.w3.org/2000/svg"
  xmlns:svg="http://www.w3.org/2000/svg">
  <sodipodi:namedview id="namedview1" pagecolor="#ffffff" bordercolor="#666666" borderopacity="1.0" inkscape:showpageshadow="2" inkscape:pageopacity="0.0" inkscape:pagecheckerboard="0" inkscape:deskcolor="#d1d1d1" inkscape:document-units="mm" inkscape:zoom="3.9105942" inkscape:cx="87.45474" inkscape:cy="93.847631" inkscape:window-width="1920" inkscape:window-height="1022" inkscape:window-x="1920" inkscape:window-y="0" inkscape:window-maximized="1" inkscape:current-layer="layer1" />
  <defs id="defs1" />
  <g inkscape:label="Calque 1" inkscape:groupmode="layer" id="layer1">
    <rect style="fill:#cccccc;stroke-width:0;stroke-linecap:round;stroke-linejoin:round;stroke-opacity:0.491331;paint-order:stroke markers fill;fill-opacity:1" id="rect1" width="33.866665" height="33.866665" x="0" y="0" />
    <path d="m 3.8817913,37.302687 c 0.07443,-1.01867 0.132712,-1.091503 0.873497,-1.091503 0.714562,0 0.81794,0.108941 1.036221,1.091976 m -7.5472811,-6.780517 m -0.235815,4.171732 c 0,-0.276458 0.264584,-0.480596 0.258773,-1.598562 m 1.06414405,2.321616 c 0,-0.319705 0.41157401,-0.396875 2.11666705,-0.396875 1.705092,0 2.116666,0.07717 2.116666,0.396875 0,0.319705 -0.411574,0.396875 -2.116666,0.396875 -1.70509304,0 -2.11666705,-0.07717 -2.11666705,-0.396875 z m 6.61458305,0 c 0,-0.332425 0.558565,-0.396875 3.4395845,-0.396875 2.8810182,0 3.4395832,0.06445 3.4395832,0.396875 0,0.332426 -0.558565,0.396875 -3.4395832,0.396875 -2.8810195,0 -3.4395845,-0.06445 -3.4395845,-0.396875 z m 8.7312507,0 c 0,-0.3175 0.396875,-0.396875 1.984374,-0.396875 1.5875,0 1.98438,0.07937 1.98438,0.396875 0,0.3175 -0.39688,0.396875 -1.98438,0.396875 -1.587499,0 -1.984374,-0.07937 -1.984374,-0.396875 z m 5.027084,0 c 0,-0.353049 0.32331,-0.40695 2.05052,-0.341858 1.13911,0.04293 2.05052,0.194877 2.05052,0.341858 0,0.146982 -0.91141,0.298931 -2.05052,0.341859 -1.72721,0.06509 -2.05052,0.01119 -2.05052,-0.341859 z m 6.61459,0 c 0,-0.330729 0.52916,-0.396875 3.175,-0.396875 2.64583,0 3.175,0.06615 3.175,0.396875 0,0.33073 -0.52917,0.396875 -3.175,0.396875 -2.64584,0 -3.175,-0.06615 -3.175,-0.396875 z m 8.73125,0 c 0,-0.31498 0.38217,-0.396875 1.85208,-0.396875 1.46991,0 1.85208,0.0819 1.85208,0.396875 0,0.31498 -0.38217,0.396875 -1.85208,0.396875 -1.46991,0 -1.85208,-0.0819 -1.85208,-0.396875 z m 4.6743,0.220486 c -0.46936,-0.469362 -0.004,-0.617361 1.94028,-0.617361 1.70509,0 2.11667,0.07717 2.11667,0.396875 0,0.316699 -0.39198,0.396875 -1.94028,0.396875 -1.06716,0 -2.01966,-0.07937 -2.11667,-0.176389 z m 6.70278,-0.220486 c 0,-0.331611 0.54386,-0.396875 3.30729,-0.396875 2.76343,0 3.30729,0.06526 3.30729,0.396875 0,0.331611 -0.54386,0.396875 -3.30729,0.396875 -2.76343,0 -3.30729,-0.06526 -3.30729,-0.396875 z M -0.93325278,32.771601 c 0,-0.304672 0.33807804,-0.396875 1.4552081,-0.396875 1.11712998,0 1.45520798,0.0922 1.45520798,0.396875 0,0.304672 -0.338078,0.396875 -1.45520798,0.396875 -1.11713006,0 -1.4552081,-0.0922 -1.4552081,-0.396875 z m 4.03022908,0.08015 c 0.137188,-0.411565 2.847293,-0.487725 2.85198,-0.08015 0.0017,0.145521 -0.665192,0.300649 -1.481924,0.34473 -1.128232,0.06089 -1.457362,-0.0027 -1.370056,-0.264583 z m 3.907271,-0.196827 c 0,-0.282453 -0.119063,-0.587136 -0.264584,-0.677073 -0.527806,-0.326202 -0.29265,-0.995099 0.295742,-0.841231 0.519325,0.135807 0.548136,0.0703 0.393748,-0.895183 -0.09162,-0.572941 -0.05884,-1.041711 0.07283,-1.041711 0.31068,0 0.560601,0.665354 0.560601,1.492463 0,0.865639 0.4638489,0.553301 0.7355699,-0.495304 0.118131,-0.455881 0.376312,-0.882717 0.5737376,-0.948526 0.362432,-0.12081 0.339644,0.237044 -0.1552556,2.438086 -0.115428,0.513363 -0.07901,0.709185 0.110147,0.592279 0.1554246,-0.09606 0.3607406,-0.530472 0.4562596,-0.965366 0.09552,-0.434893 0.3428042,-0.790715 0.5495232,-0.790715 0.426582,0 0.514558,0.941379 0.111269,1.190625 -0.6165142,0.381026 -0.168255,0.640145 1.235868,0.7144 0.904342,0.04782 1.543794,0.210744 1.609548,0.410079 0.08325,0.252355 -0.648515,0.330729 -3.087951,0.330729 -2.9882577,0 -3.1970487,-0.03354 -3.1970487,-0.513552 z m 0.79375,-0.941656 c 0,-0.07276 -0.05953,-0.132292 -0.132292,-0.132292 -0.07276,0 -0.132292,0.05953 -0.132292,0.132292 0,0.07276 0.05953,0.132291 0.132292,0.132291 0.07276,0 0.132292,-0.05953 0.132292,-0.132291 z m 6.3500007,1.058333 c 0,-0.335708 0.63206,-0.396875 4.10104,-0.396875 3.46898,0 4.10105,0.06117 4.10105,0.396875 0,0.335708 -0.63207,0.396875 -4.10105,0.396875 -3.46898,0 -4.10104,-0.06117 -4.10104,-0.396875 z m 9.26042,0 c 0,-0.304672 0.33808,-0.396875 1.45521,-0.396875 1.11713,0 1.45521,0.0922 1.45521,0.396875 0,0.304672 -0.33808,0.396875 -1.45521,0.396875 -1.11713,0 -1.45521,-0.0922 -1.45521,-0.396875 z m 3.96875,0 c 0,-0.276499 0.27836,-0.396875 0.91774,-0.396875 0.61214,0 0.88381,-0.110129 0.81585,-0.330729 -0.38471,-1.248734 -0.39889,-1.785938 -0.0471,-1.785938 0.43124,0 0.69481,0.560239 0.69481,1.476848 0,1.285039 0.4658,0.595757 0.64042,-0.947681 0.15118,-1.336246 0.26128,-1.5875 0.69563,-1.5875 0.54717,0 0.69452,0.387626 0.25145,0.661458 -0.3255,0.20117 -0.35503,2.513542 -0.0321,2.513542 0.12787,0 0.38149,-0.359742 0.56362,-0.799427 0.49775,-1.201682 0.87634,-1.284329 0.74539,-0.162725 -0.0783,0.670403 -0.008,0.962152 0.23143,0.962152 0.18906,0 0.34374,0.178594 0.34374,0.396875 0,0.328725 -0.49977,0.396875 -2.91041,0.396875 -2.41065,0 -2.91042,-0.06815 -2.91042,-0.396875 z m 6.68073,0.06615 c 0.0818,-0.245411 1.15681,-0.330729 4.16719,-0.330729 3.01037,0 4.08538,0.08532 4.16718,0.330729 0.0852,0.255491 -0.86283,0.330729 -4.16718,0.330729 -3.30436,0 -4.25236,-0.07524 -4.16719,-0.330729 z m 9.26041,0 c 0.0698,-0.209462 0.62765,-0.330729 1.52136,-0.330729 0.8937,0 1.45153,0.121267 1.52135,0.330729 0.0803,0.240747 -0.33367,0.330729 -1.52135,0.330729 -1.18769,0 -1.6016,-0.08998 -1.52136,-0.330729 z m 3.96875,0 c 0.0791,-0.237447 0.9187,-0.330729 2.97657,-0.330729 2.05787,0 2.89741,0.09328 2.97656,0.330729 0.084,0.251984 -0.62471,0.330729 -2.97656,0.330729 -2.35185,0 -3.06056,-0.07874 -2.97657,-0.330729 z m 6.81303,-0.06615 c 0,-0.220486 0.23518,-0.396875 0.52916,-0.396875 0.29398,0 0.52917,0.176389 0.52917,0.396875 0,0.220486 -0.23519,0.396875 -0.52917,0.396875 -0.29398,0 -0.52916,-0.176389 -0.52916,-0.396875 z M -0.40408674,30.787227 c 0,-0.161617 1.22951806,-0.264583 3.15938504,-0.264583 1.820854,0 3.228664,0.112095 3.322907,0.264583 0.105699,0.171024 -1.011489,0.264583 -3.159385,0.264583 -2.03888198,0 -3.32290704,-0.102239 -3.32290704,-0.264583 z m 11.90625074,0 c 0,-0.163323 1.367014,-0.264583 3.571875,-0.264583 2.204859,0 3.571879,0.10126 3.571879,0.264583 0,0.163323 -1.36702,0.264583 -3.571879,0.264583 -2.204861,0 -3.571875,-0.10126 -3.571875,-0.264583 z m 8.202084,0 c 0,-0.15875 1.05834,-0.264583 2.64584,-0.264583 1.5875,0 2.64583,0.105833 2.64583,0.264583 0,0.15875 -1.05833,0.264583 -2.64583,0.264583 -1.5875,0 -2.64584,-0.105833 -2.64584,-0.264583 z m 6.08542,0 c 0,-0.145521 0.41672,-0.264583 0.92604,-0.264583 0.50932,0 0.92604,0.119062 0.92604,0.264583 0,0.145521 -0.41672,0.264583 -0.92604,0.264583 -0.50932,0 -0.92604,-0.119062 -0.92604,-0.264583 z m 7.40833,0 c 0,-0.160354 1.14653,-0.264583 2.91042,-0.264583 1.76389,0 2.91042,0.104229 2.91042,0.264583 0,0.160353 -1.14653,0.264583 -2.91042,0.264583 -1.76389,0 -2.91042,-0.10423 -2.91042,-0.264583 z m 6.35,0 c 0,-0.15959 1.10243,-0.264583 2.77813,-0.264583 1.67569,0 2.77812,0.104993 2.77812,0.264583 0,0.15959 -1.10243,0.264583 -2.77812,0.264583 -1.6757,0 -2.77813,-0.104993 -2.77813,-0.264583 z m 6.61459,0 c 0,-0.145521 0.59531,-0.264583 1.32291,-0.264583 0.72761,0 1.32292,0.119062 1.32292,0.264583 0,0.145521 -0.59531,0.264583 -1.32292,0.264583 -0.7276,0 -1.32291,-0.119062 -1.32291,-0.264583 z m 3.43958,0 c 0,-0.145521 0.65484,-0.264583 1.45521,-0.264583 0.80036,0 1.45521,0.119062 1.45521,0.264583 0,0.145521 -0.65485,0.264583 -1.45521,0.264583 -0.80037,0 -1.45521,-0.119062 -1.45521,-0.264583 z m 3.70417,0 c 0,-0.145521 0.41671,-0.264583 0.92604,-0.264583 0.50932,0 0.92604,0.119062 0.92604,0.264583 0,0.145521 -0.41672,0.264583 -0.92604,0.264583 -0.50933,0 -0.92604,-0.119062 -0.92604,-0.264583 z m -54.23959078,-2.24896 c 0,-0.220486 0.23518504,-0.396875 0.52916604,-0.396875 0.293982,0 0.529167,0.176389 0.529167,0.396875 0,0.220487 -0.235185,0.396875 -0.529167,0.396875 -0.293981,0 -0.52916604,-0.176388 -0.52916604,-0.396875 z m 1.98918008,0.140067 c -0.09385,-0.151853 -0.0043,-0.339921 0.198979,-0.41793 0.626141,-0.240273 4.69057,-0.003 4.758911,0.277863 0.08894,0.365488 -4.734357,0.501752 -4.95789,0.140067 z m 5.94832,-0.140067 c 0,-0.312072 0.367477,-0.396875 1.7197909,-0.396875 1.3523158,0 1.7197928,0.0848 1.7197928,0.396875 0,0.312073 -0.367477,0.396875 -1.7197928,0.396875 -1.3523139,0 -1.7197909,-0.0848 -1.7197909,-0.396875 z m 4.6814987,0.22768 c -0.377518,-0.377519 0.183962,-0.624555 1.419533,-0.624555 0.985657,0 1.307302,0.09765 1.307302,0.396875 0,0.298037 -0.31848,0.396875 -1.278819,0.396875 -0.703351,0 -1.354958,-0.07614 -1.448016,-0.169195 z m 3.393098,-0.08761 c -0.09385,-0.151853 -0.0043,-0.339921 0.198979,-0.41793 0.626141,-0.240273 4.690575,-0.003 4.758915,0.277863 0.0889,0.365488 -4.73436,0.501752 -4.957894,0.140067 z m 5.948324,-0.140067 c 0,-0.324926 0.45567,-0.396875 2.51354,-0.396875 2.05787,0 2.51354,0.07195 2.51354,0.396875 0,0.324927 -0.45567,0.396875 -2.51354,0.396875 -2.05787,0 -2.51354,-0.07195 -2.51354,-0.396875 z m 6.35,0 c 0,-0.30868 0.35278,-0.396875 1.5875,-0.396875 1.23472,0 1.5875,0.08819 1.5875,0.396875 0,0.308681 -0.35278,0.396875 -1.5875,0.396875 -1.23472,0 -1.5875,-0.08819 -1.5875,-0.396875 z m 4.49792,0 c 0,-0.342983 0.2446,-0.410173 1.25677,-0.345226 0.69122,0.04435 1.25677,0.199706 1.25677,0.345226 0,0.145521 -0.56555,0.300873 -1.25677,0.345226 -1.01217,0.06495 -1.25677,-0.0022 -1.25677,-0.345226 z m 3.43958,0 c 0,-0.323379 0.44097,-0.396875 2.38125,-0.396875 1.94028,0 2.38125,0.0735 2.38125,0.396875 0,0.32338 -0.44097,0.396875 -2.38125,0.396875 -1.94028,0 -2.38125,-0.07349 -2.38125,-0.396875 z m 6.00441,0.22768 c -0.44231,-0.442313 0.31932,-0.624555 2.61016,-0.624555 2.04399,0 2.49793,0.07212 2.49793,0.396875 0,0.32443 -0.45077,0.396875 -2.46945,0.396875 -1.35819,0 -2.54558,-0.07614 -2.63864,-0.169195 z m 5.90184,-0.22768 c 0,-0.31498 0.38217,-0.396875 1.85208,-0.396875 1.46991,0 1.85209,0.08189 1.85209,0.396875 0,0.314981 -0.38218,0.396875 -1.85209,0.396875 -1.46991,0 -1.85208,-0.08189 -1.85208,-0.396875 z m 4.94608,0.22768 c -0.35267,-0.352673 0.1501,-0.624555 1.15495,-0.624555 0.75047,0 1.04272,0.111234 1.04272,0.396875 0,0.283757 -0.28908,0.396875 -1.01424,0.396875 -0.55783,0 -1.09037,-0.07614 -1.18343,-0.169195 z M -0.93325278,26.407104 c 0,-0.324912 0.25979404,-0.394423 1.23608804,-0.330729 1.76523504,0.115164 1.85721504,0.742101 0.10887706,0.742101 -1.04020106,0 -1.3449651,-0.09322 -1.3449651,-0.411372 z m 4.56360208,0.08064 c 0.07751,-0.233494 1.017455,-0.352645 3.197049,-0.405272 2.6287195,-0.06347 3.0872655,-0.01435 3.0872655,0.330729 0,0.341614 -0.502177,0.405272 -3.1970485,0.405272 -2.439801,0 -3.171046,-0.07834 -3.087266,-0.330729 z m 7.9379607,0 c 0.07991,-0.23974 0.971609,-0.33073 3.241146,-0.33073 2.269542,0 3.161232,0.09099 3.241152,0.33073 0.0843,0.252978 -0.67763,0.330729 -3.241152,0.330729 -2.563518,0 -3.325472,-0.07775 -3.241146,-0.330729 z m 7.143748,0 c 0.0698,-0.209462 0.62765,-0.33073 1.52136,-0.33073 0.8937,0 1.45153,0.121268 1.52135,0.33073 0.0802,0.240747 -0.33367,0.330729 -1.52135,0.330729 -1.18769,0 -1.6016,-0.08998 -1.52136,-0.330729 z m 4.87994,0.161533 c -0.3408,-0.340803 0.13592,-0.624554 1.0493,-0.624554 0.93707,0 0.93707,0 0.82314,-1.124479 -0.0627,-0.618464 -0.20645,-1.332839 -0.31953,-1.5875 -0.14733,-0.331792 -0.0877,-0.463021 0.21027,-0.463021 0.5814,0 0.96366,0.832729 0.96366,2.099272 0,1.634053 0.43717,1.2847 0.64042,-0.511772 0.23299,-2.059419 0.75874,-2.113833 0.63909,-0.06615 -0.0889,1.521354 -0.0889,1.521354 1.08119,1.653646 0.64354,0.07276 1.21901,0.28112 1.27882,0.463021 0.0829,0.252164 -0.64025,0.330729 -3.04421,0.330729 -1.73413,0 -3.22909,-0.07614 -3.32215,-0.169196 z m 8.28309,-0.227679 c 0,-0.329771 0.51446,-0.396875 3.0427,-0.396875 2.52824,0 3.04271,0.0671 3.04271,0.396875 0,0.32977 -0.51447,0.396875 -3.04271,0.396875 -2.52824,0 -3.0427,-0.0671 -3.0427,-0.396875 z m 7.14375,0 c 0,-0.304672 0.33807,-0.396875 1.4552,-0.396875 1.11713,0 1.45521,0.0922 1.45521,0.396875 0,0.304671 -0.33808,0.396875 -1.45521,0.396875 -1.11713,0 -1.4552,-0.0922 -1.4552,-0.396875 z m 4.56273,0.06615 c 0.0599,-0.181901 0.36749,-0.368776 0.68351,-0.415277 0.40893,-0.06017 0.57459,-0.269947 0.57459,-0.727605 0,-0.861622 0.4179,-0.815632 0.76827,0.08455 0.2295,0.589642 0.25384,0.414054 0.12836,-0.926041 -0.12679,-1.354042 -0.0838,-1.653646 0.23716,-1.653646 0.45509,0 0.70956,0.777219 0.71468,2.182812 0.002,0.545703 0.12267,0.992188 0.2682,0.992188 0.14699,0 0.26458,-0.705556 0.26458,-1.5875 0,-1.234723 0.0882,-1.5875 0.39687,-1.5875 0.30868,0 0.39688,0.352777 0.39688,1.5875 0,1.033135 0.10779,1.5875 0.30868,1.5875 0.16977,0 0.22822,-0.08046 0.12987,-0.178809 -0.0983,-0.09834 0.0812,-0.455532 0.3989,-0.79375 0.57771,-0.614941 0.57771,-0.614941 0.002,-0.614941 -0.33498,0 -0.57529,-0.165783 -0.57529,-0.396875 0,-0.330729 0.52917,-0.396875 3.175,-0.396875 2.64584,0 3.175,0.06615 3.175,0.396875 0,0.325099 -0.4574,0.396875 -2.52915,0.396875 -1.71868,0 -2.47346,0.09013 -2.35534,0.281255 0.0956,0.154691 -0.0349,0.511878 -0.28997,0.79375 -0.44771,0.49471 -0.43943,0.512495 0.23866,0.512495 0.44803,0 0.70247,0.143752 0.70247,0.396875 0,0.332555 -0.56102,0.396875 -3.46163,0.396875 -2.65101,0 -3.43613,-0.07745 -3.35272,-0.330729 z m 8.46685,0 c 0.0658,-0.199335 0.70521,-0.362254 1.60955,-0.410079 1.21295,-0.06414 1.50045,-7.74e-4 1.50045,0.330729 0,0.325443 -0.3322,0.410079 -1.60955,0.410079 -1.16944,0 -1.57972,-0.09043 -1.50045,-0.330729 z M -0.40408674,24.040351 c 0,-0.324927 0.455672,-0.396875 2.51354204,-0.396875 2.05787,0 2.513542,0.07195 2.513542,0.396875 0,0.324927 -0.455672,0.396875 -2.513542,0.396875 -2.05787004,0 -2.51354204,-0.07195 -2.51354204,-0.396875 z m 8.38641904,0.228432 c -0.507203,-0.507203 0.08681,-0.625307 3.1450057,-0.625307 2.545634,0 3.303498,0.07785 3.219557,0.330729 -0.120018,0.36156 -6.0243058,0.634835 -6.3645627,0.294578 z m 8.0177487,-0.228432 c 0,-0.335708 0.632067,-0.396875 4.101047,-0.396875 3.46898,0 4.10104,0.06117 4.10104,0.396875 0,0.335708 -0.63206,0.396875 -4.10104,0.396875 -3.46898,0 -4.101047,-0.06117 -4.101047,-0.396875 z m 12.700007,0 c 0,-0.355583 0.40592,-0.40406 2.84427,-0.339681 1.66972,0.04409 2.84427,0.184357 2.84427,0.339681 0,0.155323 -1.17455,0.295594 -2.84427,0.33968 -2.43835,0.06438 -2.84427,0.0159 -2.84427,-0.33968 z m 7.40833,0 c 0,-0.304672 0.33808,-0.396875 1.45521,-0.396875 1.11713,0 1.45521,0.0922 1.45521,0.396875 0,0.304671 -0.33808,0.396875 -1.45521,0.396875 -1.11713,0 -1.45521,-0.0922 -1.45521,-0.396875 z m 3.88055,0.220486 c -0.48141,-0.481413 0.0332,-0.617361 2.33716,-0.617361 2.05787,0 2.51354,0.07195 2.51354,0.396875 0,0.322825 -0.43607,0.396875 -2.33715,0.396875 -1.28544,0 -2.41653,-0.07937 -2.51355,-0.176389 z M -0.93325278,21.923684 c 0,-0.299861 0.32337904,-0.396875 1.3229161,-0.396875 0.99953698,0 1.32291698,0.09701 1.32291698,0.396875 0,0.299861 -0.32338,0.396875 -1.32291698,0.396875 -0.99953706,0 -1.3229161,-0.09701 -1.3229161,-0.396875 z m 4.49791608,0 c 0,-0.326319 0.470371,-0.396875 2.645834,-0.396875 2.1754629,0 2.6458329,0.07056 2.6458329,0.396875 0,0.326319 -0.47037,0.396875 -2.6458329,0.396875 -2.175463,0 -2.645834,-0.07056 -2.645834,-0.396875 z m 6.0854175,-0.0103 c 0,-0.341079 0.3723432,-0.394766 2.2937522,-0.330729 1.542685,0.05142 2.329622,0.184741 2.403299,0.407176 0.08226,0.24835 -0.489078,0.330729 -2.293752,0.330729 -1.986899,0 -2.4032992,-0.07055 -2.4032992,-0.407176 z m 5.6197792,0.0843 c 0.08376,-0.251292 0.976878,-0.33858 3.464248,-0.33858 4.56031,0 4.46643,0.505389 -0.11205,0.603163 -2.72235,0.05814 -3.440868,0.0014 -3.352198,-0.264583 z m 8.269698,0.05643 c -0.27046,-0.437602 0.44388,-0.553449 2.91115,-0.472113 1.57842,0.05203 2.37458,0.184648 2.44851,0.407836 0.13746,0.414995 -5.10406,0.477855 -5.35966,0.06428 z m 6.21886,-0.130423 c 0,-0.353519 0.34479,-0.405765 2.25056,-0.34103 1.27302,0.04324 2.25056,0.19137 2.25056,0.34103 0,0.14966 -0.97754,0.297788 -2.25056,0.34103 -1.90577,0.06474 -2.25056,0.01249 -2.25056,-0.34103 z m 5.55625,0 c 0,-0.332425 0.55856,-0.396875 3.43958,-0.396875 2.88102,0 3.43959,0.06445 3.43959,0.396875 0,0.332425 -0.55857,0.396875 -3.43959,0.396875 -2.88102,0 -3.43958,-0.06445 -3.43958,-0.396875 z m 8.26763,0.06615 c 0.0752,-0.226898 0.91279,-0.354504 2.66788,-0.406456 2.15727,-0.06386 2.55824,-0.01202 2.55824,0.330729 0,0.338679 -0.44487,0.406456 -2.66788,0.406456 -2.0164,0 -2.64111,-0.08076 -2.55824,-0.330729 z m 6.28445,-0.06615 c 0,-0.32338 0.44097,-0.396875 2.38125,-0.396875 1.94028,0 2.38125,0.0735 2.38125,0.396875 0,0.32338 -0.44097,0.396875 -2.38125,0.396875 -1.94028,0 -2.38125,-0.07349 -2.38125,-0.396875 z M -0.93325278,19.674726 c 0,-0.145521 0.11906204,-0.264584 0.26458303,-0.264584 0.14552101,0 0.26458301,0.119063 0.26458301,0.264584 0,0.14552 -0.119062,0.264583 -0.26458301,0.264583 -0.14552099,0 -0.26458303,-0.119063 -0.26458303,-0.264583 z m 2.11666608,0 c 0,-0.156791 0.970139,-0.264584 2.38125,-0.264584 1.411111,0 2.38125,0.107793 2.38125,0.264584 0,0.15679 -0.970139,0.264583 -2.38125,0.264583 -1.411111,0 -2.38125,-0.107793 -2.38125,-0.264583 z m 5.820834,-0.0083 c 0,-0.150088 0.171076,-0.338536 0.380168,-0.418772 0.434137,-0.166594 0.271011,-0.869336 -0.311343,-1.341258 -0.212519,-0.172219 -0.307918,-0.440109 -0.211997,-0.595312 0.317306,-0.513412 0.924115,-0.293046 1.097717,0.398642 0.1951019,0.777345 0.5457879,0.561633 0.6766969,-0.416246 0.04983,-0.372219 0.262093,-0.661459 0.485424,-0.661459 0.3934396,0 0.4023526,0.179449 0.08741,1.759795 -0.1094,0.548952 -0.01905,0.739784 0.4155676,0.877725 1.0602722,0.336517 0.5467162,0.669772 -1.0321406,0.669772 -0.9141499,0 -1.5874999,-0.115747 -1.5874999,-0.272887 z m 4.2333337,0.0083 c 0,-0.165699 1.631597,-0.264584 4.365625,-0.264584 2.734032,0 4.365632,0.09888 4.365632,0.264584 0,0.165698 -1.6316,0.264583 -4.365632,0.264583 -2.734028,0 -4.365625,-0.09889 -4.365625,-0.264583 z m 10.318757,0 c 0,-0.154341 0.88194,-0.264584 2.11666,-0.264584 1.23472,0 2.11667,0.110243 2.11667,0.264584 0,0.15434 -0.88195,0.264583 -2.11667,0.264583 -1.23472,0 -2.11666,-0.110243 -2.11666,-0.264583 z m 5.82083,0 c 0,-0.145521 0.65484,-0.264584 1.45521,-0.264584 0.80036,0 1.45521,0.119063 1.45521,0.264584 0,0.14552 -0.65485,0.264583 -1.45521,0.264583 -0.80037,0 -1.45521,-0.119063 -1.45521,-0.264583 z m 4.23333,0 c 0,-0.165406 1.59271,-0.264584 4.24895,-0.264584 2.76526,0 4.19185,0.09239 4.08543,0.264584 -0.0976,0.157905 -1.81074,0.264583 -4.24895,0.264583 -2.54723,0 -4.08543,-0.09962 -4.08543,-0.264583 z m 10.05417,0 c 0,-0.166014 1.67569,-0.264584 4.49792,-0.264584 2.82222,0 4.49791,0.09857 4.49791,0.264584 0,0.166013 -1.67569,0.264583 -4.49791,0.264583 -2.82223,0 -4.49792,-0.09857 -4.49792,-0.264583 z m 9.92187,0 c -0.10311,-0.166845 0.52642,-0.264584 1.70418,-0.264584 1.06874,0 1.8677,0.113182 1.8677,0.264584 0,0.149003 -0.74445,0.264583 -1.70418,0.264583 -0.9373,0 -1.77776,-0.119063 -1.8677,-0.264583 z M -0.93325278,17.425763 c 0,-0.299861 0.32337904,-0.396875 1.3229161,-0.396875 0.99953698,0 1.32291698,0.09701 1.32291698,0.396875 0,0.299861 -0.32338,0.396875 -1.32291698,0.396875 -0.99953706,0 -1.3229161,-0.09701 -1.3229161,-0.396875 z m 4.23333308,0 c 0,-0.343829 0.252137,-0.409327 1.326389,-0.344556 1.767939,0.106596 1.81176,0.588412 0.06267,0.689112 -1.131777,0.06516 -1.389063,0.0013 -1.389063,-0.344556 z m 6.8791677,0 c 0,-0.355927 0.43394,-0.403263 3.108854,-0.339126 4.062796,0.09742 4.016596,0.578287 -0.06516,0.678252 -2.615821,0.06406 -3.043697,0.01639 -3.043697,-0.339126 z m 8.38077,0.222782 c -0.0958,-0.09575 -0.0455,-0.329 0.1116,-0.51833 0.1748,-0.21062 0.20781,-0.682211 0.085,-1.214969 -0.29453,-1.278187 -0.3148,-1.802951 -0.0754,-1.950935 0.27421,-0.169467 1.02295,1.613144 1.02295,2.435431 0,0.34603 0.11906,0.629146 0.26459,0.629146 0.14552,0 0.26458,-0.585575 0.26458,-1.301277 0,-1.440913 0.18868,-2.138306 0.57853,-2.138306 0.16008,0 0.18539,0.671809 0.067,1.777574 -0.19036,1.777573 -0.19036,1.777573 0.4856,0.992187 0.71348,-0.82897 1.31996,-0.720139 0.78253,0.140422 -0.20335,0.325611 -0.22174,0.562685 -0.0518,0.667708 0.14491,0.08956 0.19498,0.273676 0.11125,0.409141 -0.1717,0.277828 -3.37737,0.341307 -3.64647,0.07221 z m 6.17132,-0.222782 c 0,-0.31498 0.38217,-0.396875 1.85208,-0.396875 1.46991,0 1.85208,0.0819 1.85208,0.396875 0,0.31498 -0.38217,0.396875 -1.85208,0.396875 -1.46991,0 -1.85208,-0.0819 -1.85208,-0.396875 z m 5.02708,0 c 0,-0.331611 0.54386,-0.396875 3.30729,-0.396875 2.76343,0 3.30729,0.06526 3.30729,0.396875 0,0.331611 -0.54386,0.396875 -3.30729,0.396875 -2.76343,0 -3.30729,-0.06526 -3.30729,-0.396875 z m 8.73125,0 c 0,-0.31498 0.38217,-0.396875 1.85208,-0.396875 1.46991,0 1.85209,0.0819 1.85209,0.396875 0,0.31498 -0.38218,0.396875 -1.85209,0.396875 -1.46991,0 -1.85208,-0.0819 -1.85208,-0.396875 z m 6.35,0 c 0,-0.35221 0.30983,-0.407501 1.91823,-0.34232 1.05502,0.04275 1.91823,0.196799 1.91823,0.34232 0,0.145521 -0.86321,0.299565 -1.91823,0.342321 -1.6084,0.06518 -1.91823,0.0099 -1.91823,-0.342321 z m 5.02708,0 c 0,-0.326319 0.47037,-0.396875 2.64584,-0.396875 2.17546,0 2.64583,0.07056 2.64583,0.396875 0,0.32632 -0.47037,0.396875 -2.64583,0.396875 -2.17547,0 -2.64584,-0.07055 -2.64584,-0.396875 z M -0.93325278,15.23568 c 0,-0.640007 0.73695404,-1.646371 1.20562804,-1.646371 0.43757806,0 0.51103606,0.418109 0.11631706,0.662058 -0.14605506,0.09027 -0.19267906,0.454481 -0.10360906,0.809365 0.14065506,0.560413 0.07121,0.645243 -0.528195,0.645243 -0.484955,0 -0.69014104,-0.139823 -0.69014104,-0.470295 z m 4.01823108,0.0073 c 0.07182,-0.376687 0.420773,-0.477609 1.871483,-0.541256 1.645585,-0.0722 1.783202,-0.03646 1.783202,0.463021 0,0.494271 -0.162456,0.541255 -1.871483,0.541255 -1.639608,0 -1.860546,-0.05737 -1.783202,-0.46302 z m 5.1564309,0.09201 c -0.1955919,-0.509706 0.04309,-0.687326 0.923602,-0.687326 0.5732636,0 0.7496526,0.12451 0.7496526,0.529167 0,0.407225 -0.176389,0.529166 -0.7654426,0.529166 -0.420994,0 -0.829509,-0.166953 -0.907812,-0.371007 z m 4.7159638,0.106424 c -0.357507,-0.578459 0.25672,-0.79375 2.264573,-0.79375 1.924662,0 2.101052,0.04443 2.101052,0.529167 0,0.484742 -0.17639,0.529166 -2.101052,0.529166 -1.155578,0 -2.174636,-0.119062 -2.264573,-0.264583 z m 10.186465,-0.276672 c 0,-0.499484 0.13761,-0.535218 1.7832,-0.463021 1.45071,0.06365 1.79966,0.164569 1.87148,0.541256 0.0773,0.405652 -0.14359,0.46302 -1.7832,0.46302 -1.70903,0 -1.87148,-0.04698 -1.87148,-0.541255 z m 5.29166,0.01209 c 0,-0.411574 0.17639,-0.529167 0.79375,-0.529167 0.61736,0 0.79375,0.117593 0.79375,0.529167 0,0.411574 -0.17639,0.529166 -0.79375,0.529166 -0.61736,0 -0.79375,-0.117592 -0.79375,-0.529166 z m 4.7625,0.0067 c 0,-0.45029 0.17189,-0.535885 1.07616,-0.535885 1.13633,0 1.14359,-0.01907 0.57902,-1.521354 -0.0684,-0.181901 0.0636,-0.330729 0.29332,-0.330729 0.24724,0 0.50663,0.343491 0.63578,0.841899 0.11999,0.463044 0.36246,0.89 0.53883,0.94879 0.24081,0.08027 0.25426,-0.0678 0.054,-0.59454 -0.40028,-1.05282 -0.33962,-2.519066 0.10421,-2.519066 0.25658,0 0.43449,0.509715 0.5772,1.653646 0.2063,1.653646 0.2063,1.653646 0.42921,0.205313 0.32912,-2.138426 0.84124,-2.422845 0.60788,-0.337605 -0.19952,1.782872 0.14423,2.26483 0.56613,0.79375 0.13564,-0.472942 0.42076,-0.859896 0.63359,-0.859896 0.40241,0 0.44351,0.419422 0.12964,1.322917 -0.16681,0.480158 -0.13497,0.474032 0.34374,-0.06615 0.64886,-0.732166 1.21446,-0.780852 1.03352,-0.08897 -0.0914,0.349554 0.0306,0.548964 0.3939,0.643978 0.28946,0.0757 0.4742,0.294326 0.41052,0.485841 -0.0877,0.263876 -1.11976,0.365857 -4.26121,0.421074 -4.01035,0.07049 -4.14543,0.0554 -4.14543,-0.463021 z m 9.64305,0.234811 c -0.38827,-0.628223 0.45669,-0.783851 3.86866,-0.712542 3.1336,0.06549 3.55774,0.128147 3.6362,0.537159 0.0812,0.423171 -0.23032,0.46302 -3.61914,0.46302 -2.38469,0 -3.7714,-0.102649 -3.88572,-0.287637 z m 10.46529,-0.241529 c 0,-0.428373 0.17638,-0.529167 0.92604,-0.529167 0.74965,0 0.92604,0.100794 0.92604,0.529167 0,0.428373 -0.17639,0.529166 -0.92604,0.529166 -0.74966,0 -0.92604,-0.100793 -0.92604,-0.529166 z M -0.92920178,12.745028 c -0.0022,-0.537115 0.11501104,-1.050157 0.26053203,-1.140094 0.34125501,-0.210907 0.34125501,1.191738 0,1.719791 -0.19117899,0.295829 -0.25751203,0.148236 -0.26053203,-0.579697 z m 1.23908904,0.411727 c -0.516957,-0.516957 0.07116,-0.636677 2.79175504,-0.568299 1.758112,0.04419 2.976563,0.183118 2.976563,0.339394 0,0.301676 -5.47815698,0.519066 -5.76831804,0.228905 z m 7.93991794,0.0024 c -0.4768299,-0.47683 -0.03849,-0.628198 1.8191998,-0.628198 1.487033,0 1.978134,0.08561 1.897142,0.33073 -0.119127,0.360527 -3.3913618,0.622448 -3.7163418,0.297468 z m 4.7588578,-0.0036 c -0.413099,-0.413099 0.246672,-0.624555 1.9487,-0.624555 1.456025,0 1.836475,0.08222 1.836475,0.396875 0,0.314059 -0.37728,0.396875 -1.807993,0.396875 -0.994392,0 -1.884124,-0.07614 -1.977182,-0.169195 z m 6.695585,-0.22768 c 0,-0.330729 0.52917,-0.396875 3.175,-0.396875 2.64584,0 3.175,0.06615 3.175,0.396875 0,0.33073 -0.52916,0.396875 -3.175,0.396875 -2.64583,0 -3.175,-0.06614 -3.175,-0.396875 z m 8.64306,0.220487 c -0.4934,-0.4934 0.0821,-0.617362 2.86632,-0.617362 2.52824,0 3.04271,0.06711 3.04271,0.396875 0,0.328355 -0.49487,0.396875 -2.86632,0.396875 -1.57648,0 -2.9457,-0.07937 -3.04271,-0.176388 z m 11.64961,0.0079 c -0.5072,-0.507203 0.0868,-0.625308 3.14501,-0.625308 2.54563,0 3.30349,0.07785 3.21955,0.33073 -0.12001,0.36156 -6.0243,0.634835 -6.36456,0.294578 z m 8.46591,-7.53e-4 c -0.4131,-0.413099 0.24668,-0.624555 1.9487,-0.624555 1.45603,0 1.83647,0.08222 1.83647,0.396875 0,0.314059 -0.37727,0.396875 -1.80798,0.396875 -0.9944,0 -1.88413,-0.07614 -1.97719,-0.169195 z m 5.01989,-0.0072 c -0.39541,-0.395415 -0.1259,-0.617362 0.74966,-0.617362 0.64676,0 0.92604,0.119693 0.92604,0.396875 0,0.404634 -1.31811,0.57807 -1.6757,0.220487 z M -0.91236478,10.789134 c 0.0127,-0.308224 0.07539,-0.370919 0.15985204,-0.159852 0.07643,0.190996 0.06703,0.419199 -0.02089,0.507118 -0.08792,0.08792 -0.15045304,-0.06835 -0.13896404,-0.347266 z m 1.3020281,0.02205 c 0,-0.328725 0.499769,-0.396875 2.91041698,-0.396875 2.410648,0 2.910417,0.06815 2.910417,0.396875 0,0.328724 -0.499769,0.396875 -2.910417,0.396875 -2.41064798,0 -2.91041698,-0.06815 -2.91041698,-0.396875 z m 6.87916698,0 c 0,-0.335708 0.63206,-0.396875 4.1010427,-0.396875 3.468981,0 4.101041,0.06117 4.101041,0.396875 0,0.335708 -0.63206,0.396875 -4.101041,0.396875 -3.4689827,0 -4.1010427,-0.06117 -4.1010427,-0.396875 z m 9.2604177,0 c 0,-0.308681 0.35278,-0.396875 1.5875,-0.396875 1.23472,0 1.5875,0.08819 1.5875,0.396875 0,0.30868 -0.35278,0.396875 -1.5875,0.396875 -1.23472,0 -1.5875,-0.08819 -1.5875,-0.396875 z m 3.88775,0.227679 c -0.45875,-0.458747 0.37468,-0.624554 3.13933,-0.624554 2.51436,0 3.02709,0.06722 3.02709,0.396875 0,0.329432 -0.50957,0.396875 -2.99861,0.396875 -1.64924,0 -3.07475,-0.07614 -3.16781,-0.169196 z m 6.96017,-0.227679 c 0,-0.336242 0.64676,-0.396875 4.23333,-0.396875 3.58658,0 4.23334,0.06063 4.23334,0.396875 0,0.336241 -0.64676,0.396875 -4.23334,0.396875 -3.58657,0 -4.23333,-0.06063 -4.23333,-0.396875 z m 9.26042,0 c 0,-0.346386 0.26491,-0.408868 1.45825,-0.343933 0.80203,0.04364 1.45825,0.198412 1.45825,0.343933 0,0.14552 -0.65622,0.30029 -1.45825,0.343933 -1.19334,0.06493 -1.45825,0.0025 -1.45825,-0.343933 z m 3.96875,0.0087 c 0,-0.340991 0.48781,-0.40554 3.06475,-0.40554 2.33395,0 3.03859,0.07886 2.95501,0.330729 -0.077,0.232069 -0.99126,0.353046 -3.06476,0.40554 -2.51088,0.06357 -2.955,0.01386 -2.955,-0.330729 z m 6.87916,-0.0087 c 0,-0.334531 0.60266,-0.396875 3.83646,-0.396875 3.2338,0 3.83646,0.06234 3.83646,0.396875 0,0.33453 -0.60266,0.396875 -3.83646,0.396875 -3.2338,0 -3.83646,-0.06235 -3.83646,-0.396875 z M -0.60252374,8.4960758 c 0.06263,-0.1878916 0.548275,-0.3307286 1.12447906,-0.3307286 0.57620398,0 1.06184798,0.142837 1.12447898,0.3307286 0.0777,0.233086 -0.254294,0.33073 -1.12447898,0.33073 -0.87018506,0 -1.20217406,-0.09764 -1.12447906,-0.33073 z m 3.43958304,0 c 0.06792,-0.2037586 0.601192,-0.3307286 1.389063,-0.3307286 0.78787,0 1.321142,0.12697 1.389062,0.3307286 0.07955,0.238644 -0.30721,0.33073 -1.389062,0.33073 -1.081852,0 -1.468611,-0.09209 -1.389063,-0.33073 z m 3.439584,0 c 0.07871,-0.2361326 0.892233,-0.3307286 2.8442699,-0.3307286 1.9520378,0 2.7655608,0.0946 2.8442718,0.3307286 0.08381,0.25142 -0.598252,0.33073 -2.8442718,0.33073 -2.2460179,0 -2.9280769,-0.07931 -2.8442699,-0.33073 z m 6.8791667,0 c 0.0777,-0.2330846 0.839317,-0.3307286 2.579688,-0.3307286 1.74037,0 2.50199,0.09764 2.57969,0.3307286 0.0834,0.250126 -0.54534,0.33073 -2.57969,0.33073 -2.034352,0 -2.663063,-0.0806 -2.579688,-0.33073 z m 6.083748,0 c 0.20469,-0.6235396 3.11053,-0.5570376 3.11053,0.07119 0,0.142748 -0.7243,0.259543 -1.60955,0.259543 -1.16916,0 -1.57985,-0.09049 -1.50098,-0.33073 z m 3.70584,0 c 0.0656,-0.1967406 0.57473,-0.3307286 1.25677,-0.3307286 0.68204,0 1.19119,0.133988 1.25677,0.3307286 0.0787,0.236134 -0.28075,0.33073 -1.25677,0.33073 -0.97602,0 -1.33548,-0.0946 -1.25677,-0.33073 z m 3.70416,0 c 0.0787,-0.2361326 0.89224,-0.3307286 2.84428,-0.3307286 1.95203,0 2.76555,0.0946 2.84427,0.3307286 0.0838,0.25142 -0.59826,0.33073 -2.84427,0.33073 -2.24602,0 -2.92808,-0.07931 -2.84428,-0.33073 z m 6.61459,0 c 0.0771,-0.2313016 0.81286,-0.3307286 2.44739,-0.3307286 1.63454,0 2.3703,0.09943 2.4474,0.3307286 0.0831,0.249378 -0.51888,0.33073 -2.4474,0.33073 -1.92851,0 -2.53052,-0.08135 -2.44739,-0.33073 z m 6.08541,0 c 0.0679,-0.2037586 0.6012,-0.3307286 1.38907,-0.3307286 0.78787,0 1.32114,0.12697 1.38906,0.3307286 0.0796,0.238644 -0.30721,0.33073 -1.38906,0.33073 -1.08185,0 -1.46861,-0.09209 -1.38907,-0.33073 z m 3.70417,0 c 0.0656,-0.1967406 0.57473,-0.3307286 1.25677,-0.3307286 0.68204,0 1.19119,0.133988 1.25677,0.3307286 0.0787,0.236134 -0.28075,0.33073 -1.25677,0.33073 -0.97602,0 -1.33548,-0.0946 -1.25677,-0.33073 z m 3.70417,0 c 0.0787,-0.2361326 0.89223,-0.3307286 2.84427,-0.3307286 1.95204,0 2.76556,0.0946 2.84427,0.3307286 0.0838,0.25142 -0.59825,0.33073 -2.84427,0.33073 -2.24602,0 -2.92808,-0.07931 -2.84427,-0.33073 z m 6.61291,0 c 0.16948,-0.5162806 1.78761,-0.5913296 1.78761,-0.08291 0,0.298173 -0.26466,0.413639 -0.94809,0.413639 -0.63999,0 -0.91281,-0.107478 -0.83952,-0.330729 z M -0.91236478,6.2912182 c 0.0127,-0.308224 0.07539,-0.370919 0.15985204,-0.159852 0.07643,0.190996 0.06703,0.419199 -0.02089,0.507118 -0.08792,0.08792 -0.15045304,-0.06835 -0.13896404,-0.347266 z m 1.3020281,0.03414 c 0,-0.330406 0.360005,-0.408964 1.87413198,-0.408964 1.3812,0 1.845389,0.08699 1.764851,0.330729 -0.06919,0.209395 -0.756749,0.359431 -1.874132,0.408964 -1.44929598,0.06425 -1.76485098,0.0051 -1.76485098,-0.330729 z M 5.1521633,6.1809772 c 0,-0.458611 0.176389,-0.529166 1.322917,-0.529166 1.294842,0 1.322917,-0.01692 1.322917,-0.797341 0,-0.438537 -0.137853,-1.018077 -0.30634,-1.287868 -0.317719,-0.508749 -0.15325,-1.354375 0.263417,-1.354375 0.2591,0 0.5512449,1.437034 0.5916789,2.910417 0.02374,0.864862 0.0468,0.838018 0.349131,-0.406323 0.367951,-1.514425 0.600775,-1.974927 0.9984946,-1.974927 0.167344,0 0.208618,0.275051 0.103889,0.692325 -0.5766806,2.297674 -0.7012156,2.124601 1.6781062,2.332152 1.595247,0.139155 2.142457,0.283612 2.142457,0.565581 0,0.312755 -0.7371,0.378692 -4.2333332,0.378692 -4.0569455,0 -4.2333345,-0.02205 -4.2333345,-0.529167 z m 9.4439997,0.359971 c -0.437394,-0.437394 0.305151,-0.624554 2.477865,-0.624554 1.9264,0 2.36564,0.07369 2.36564,0.396875 0,0.322825 -0.43607,0.396875 -2.33715,0.396875 -1.28544,0 -2.413297,-0.07614 -2.506355,-0.169196 z m 5.820835,0 c -0.40553,-0.405526 0.23148,-0.624554 1.81641,-0.624554 1.33843,0 1.70418,0.08517 1.70418,0.396875 0,0.311001 -0.36258,0.396875 -1.6757,0.396875 -0.92163,0 -1.75183,-0.07614 -1.84489,-0.169196 z m 4.8435,-0.220961 c 0,-0.345006 0.61773,-0.403593 4.25538,-0.403593 3.28656,0 4.23035,0.0753 4.14544,0.330729 -0.0803,0.241567 -1.22754,0.350373 -4.25539,0.403594 -3.57095,0.06277 -4.14543,0.01693 -4.14543,-0.33073 z m 9.44633,0.223287 c -0.49222,-0.492216 0.0125,-0.62688 2.34968,-0.62688 1.91051,0 2.50858,0.08153 2.42604,0.330729 -0.11969,0.361353 -4.44246,0.629415 -4.77572,0.296151 z m 5.89951,-0.230005 c 0,-0.312073 0.36747,-0.396875 1.71979,-0.396875 1.35231,0 1.71979,0.0848 1.71979,0.396875 0,0.312073 -0.36748,0.396875 -1.71979,0.396875 -1.35232,0 -1.71979,-0.0848 -1.71979,-0.396875 z m 4.49791,0 c 0,-0.356204 0.55538,-0.400447 4.2339,-0.337283 5.71577,0.09815 5.76244,0.578238 0.0656,0.674566 -3.73774,0.0632 -4.29948,0.01914 -4.29948,-0.337283 z m 9.525,0 c 0,-0.218281 0.11906,-0.396875 0.26459,-0.396875 0.14552,0 0.26458,0.178594 0.26458,0.396875 0,0.218281 -0.11906,0.396875 -0.26458,0.396875 -0.14553,0 -0.26459,-0.178594 -0.26459,-0.396875 z M -0.93325278,3.9320132 c 0,-0.35623 0.47627304,-0.402205 3.50572908,-0.338409 4.607521,0.09703 4.561134,0.577541 -0.06534,0.676818 -2.97029604,0.06374 -3.44039108,0.0175 -3.44039108,-0.338409 z M 10.50928,3.9981632 c 0.07368,-0.222435 0.860614,-0.355761 2.403299,-0.407176 1.921409,-0.06404 2.293752,-0.01035 2.293752,0.330729 0,0.336628 -0.4164,0.407176 -2.403299,0.407176 -1.804674,0 -2.376012,-0.08238 -2.293752,-0.330729 z m 6.075728,-0.63897 c -0.40512,-1.320002 -0.0867,-1.694605 0.50175,-0.590184 0.53216,0.998864 0.66167,0.512759 0.2092,-0.785196 -0.16039,-0.460099 -0.21851,-1.02705703 -0.12916,-1.25990603 0.27884,-0.726631 0.94944,0.109858 0.954,1.18998603 0.002,0.527885 0.10973,1.126692 0.23888,1.330683 0.15487,0.24462 0.23842,-0.09343 0.24539,-0.992949 0.0119,-1.53375503 0.15349,-1.89148603 0.74877,-1.89148603 0.31316,0 0.3725,0.174692 0.24718,0.72760403 -0.40487,1.786184 -0.47341,2.584814 -0.18732,2.182813 0.15535,-0.218281 0.28427,-0.650187 0.2865,-0.95979 0.004,-0.571742 0.69047,-1.35240303 0.95577,-1.087099 0.0799,0.07985 0.0207,0.59614 -0.13151,1.147306 -0.28917,1.047284 -0.20366,1.61012 0.0995,0.654939 0.11346,-0.357505 0.39886,-0.549106 0.8179,-0.549106 0.69138,0 0.85118,0.363611 0.3129,0.71199 -0.20986,0.135824 0.0485,0.2624 0.70692,0.346344 0.57071,0.07276 1.08665,0.28112 1.14653,0.463021 0.0833,0.253132 -0.69289,0.330729 -3.30836,0.330729 -3.41724,0 -3.41724,0 -3.71485,-0.969699 z m 8.67549,0.55525 c 0,-0.29372 0.20601,-0.390062 0.7072,-0.33073 1.03006,0.121941 1.12089,0.745179 0.1086,0.745179 -0.56414,0 -0.8158,-0.12785 -0.8158,-0.414449 z m 2.4474,0.08372 c 0.0811,-0.243332 1.07744,-0.33073 3.77031,-0.33073 2.69287,0 3.6892,0.0874 3.77031,0.33073 0.0849,0.254561 -0.78346,0.330729 -3.77031,0.330729 -2.98685,0 -3.85517,-0.07617 -3.77031,-0.330729 z m 9.25798,0.0073 c 0.0593,-0.177887 0.39544,-0.391331 0.74699,-0.47432 0.4156,-0.09811 0.52846,-0.219311 0.32267,-0.346501 -0.17408,-0.107586 -0.24944,-0.370392 -0.16747,-0.584013 0.11775,-0.306843 -0.10691,-0.388402 -1.06989,-0.388402 -0.9071,0 -1.21893,-0.101528 -1.21893,-0.396875 0,-0.299862 0.32338,-0.396876 1.32292,-0.396876 1.01159,0 1.32292,0.09535 1.32292,0.40518 0,0.222848 0.17406,0.471973 0.3868,0.553609 0.21274,0.08164 0.46174,0.384529 0.55332,0.673094 0.0916,0.288565 0.21916,0.472028 0.28349,0.407696 0.0643,-0.06433 -0.0742,-0.679906 -0.30775,-1.367943 -0.23359,-0.688039 -0.3538,-1.32189803 -0.26712,-1.40857903 0.31653,-0.31653 0.9533,0.66143703 1.08122,1.66056303 0.17428,1.361177 0.28628,1.4144 0.50648,0.240661 0.23464,-1.250751 0.92849,-2.33851403 1.27233,-1.99467003 0.14032,0.140313 0.15943,0.409948 0.0425,0.59918803 -0.11696,0.189241 -0.25483,0.755219 -0.30638,1.257728 -0.0937,0.913653 -0.0937,0.913653 0.42859,0.274293 0.44077,-0.539535 0.57689,-0.582559 0.87183,-0.275558 0.2751,0.28635 0.2791,0.389619 0.0188,0.485069 -0.52146,0.191202 -0.3856,0.606337 0.19844,0.606337 0.29398,0 0.52916,0.176389 0.52916,0.396875 0,0.331751 -0.54631,0.396875 -3.32934,0.396875 -2.50581,0 -3.30267,-0.08 -3.22153,-0.323431 z m 8.20285,-0.0073 c 0.16948,-0.516282 1.78761,-0.591331 1.78761,-0.08291 0,0.298173 -0.26466,0.413639 -0.94809,0.413639 -0.63999,0 -0.91281,-0.107478 -0.83952,-0.330729 z m 2.84594,-0.06615 c 0,-0.333179 0.57326,-0.396875 3.57187,-0.396875 2.99861,0 3.57188,0.0637 3.57188,0.396875 0,0.333179 -0.57327,0.396875 -3.57188,0.396875 -2.99861,0 -3.57187,-0.0637 -3.57187,-0.396875 z M 1.3677493,2.0437822 c -0.50720398,-0.507205 0.08681,-0.625309 3.145005,-0.625309 2.545634,0 3.303498,0.07785 3.219557,0.33073 -0.120018,0.361561 -6.024305,0.634836 -6.364562,0.294579 z m 7.7531639,-0.228433 c 0,-0.33073 0.5291676,-0.396876 3.1750008,-0.396876 2.645834,0 3.175,0.06615 3.175,0.396876 0,0.330729 -0.529166,0.396875 -3.175,0.396875 -2.6458332,0 -3.1750008,-0.06615 -3.1750008,-0.396875 z m 12.4354248,0 c 0,-0.329771 0.51446,-0.396876 3.0427,-0.396876 2.52824,0 3.04271,0.0671 3.04271,0.396876 0,0.329771 -0.51447,0.396875 -3.04271,0.396875 -2.52824,0 -3.0427,-0.0671 -3.0427,-0.396875 z m 7.8493,0.220486 c -0.48477,-0.484776 0.0456,-0.617362 2.46945,-0.617362 2.17546,0 2.64583,0.07056 2.64583,0.396876 0,0.32443 -0.45077,0.396875 -2.46945,0.396875 -1.35819,0 -2.54882,-0.07937 -2.64583,-0.176389 z m 13.22917,0 c -0.48478,-0.484776 0.0456,-0.617362 2.46944,-0.617362 2.17546,0 2.64584,0.07056 2.64584,0.396876 0,0.32443 -0.45078,0.396875 -2.46945,0.396875 -1.35819,0 -2.54882,-0.07937 -2.64583,-0.176389 z m 6.70278,-0.220486 c 0,-0.32632 0.47037,-0.396876 2.64583,-0.396876 2.17546,0 2.64583,0.07056 2.64583,0.396876 0,0.32632 -0.47037,0.396875 -2.64583,0.396875 -2.17546,0 -2.64583,-0.07055 -2.64583,-0.396875 z M -0.93325278,-0.56589689 c 0,-0.304672 0.33807804,-0.396875 1.4552081,-0.396875 1.11712998,0 1.45520798,0.0922 1.45520798,0.396875 0,0.304672 -0.338078,0.396875 -1.45520798,0.396875 -1.11713006,0 -1.4552081,-0.0922 -1.4552081,-0.396875 z m 3.96875008,0 c 0,-0.353519 0.34479,-0.405765 2.250559,-0.34103 1.273019,0.04324 2.250559,0.19137 2.250559,0.34103 0,0.14966 -0.97754,0.297788 -2.250559,0.34103 -1.905769,0.06473 -2.250559,0.01249 -2.250559,-0.34103 z m 5.5562499,0 c 0,-0.331611 0.543865,-0.396875 3.3072918,-0.396875 2.763426,0 3.307292,0.06526 3.307292,0.396875 0,0.331611 -0.543866,0.396875 -3.307292,0.396875 -2.7634268,0 -3.3072918,-0.06526 -3.3072918,-0.396875 z m 8.2020908,0 c 0,-0.327579 0.48506,-0.396875 2.77812,-0.396875 2.29306,0 2.77813,0.0693 2.77813,0.396875 0,0.327579 -0.48507,0.396875 -2.77813,0.396875 -2.29306,0 -2.77812,-0.0693 -2.77812,-0.396875 z m 6.61458,0 c 0,-0.319705 0.41157,-0.396875 2.11667,-0.396875 1.70509,0 2.11666,0.07717 2.11666,0.396875 0,0.319705 -0.41157,0.396875 -2.11666,0.396875 -1.7051,0 -2.11667,-0.07717 -2.11667,-0.396875 z m 5.29167,0 c 0,-0.332425 0.55856,-0.396875 3.43958,-0.396875 2.88102,0 3.43958,0.06445 3.43958,0.396875 0,0.332425 -0.55856,0.396875 -3.43958,0.396875 -2.88102,0 -3.43958,-0.06445 -3.43958,-0.396875 z m 8.20208,0 c 0,-0.327579 0.48507,-0.396875 2.77812,-0.396875 2.29306,0 2.77813,0.0693 2.77813,0.396875 0,0.327579 -0.48507,0.396875 -2.77813,0.396875 -2.29305,0 -2.77812,-0.0693 -2.77812,-0.396875 z m 6.35,0 c 0,-0.32165 0.42627,-0.396875 2.24896,-0.396875 1.82268,0 2.24896,0.07522 2.24896,0.396875 0,0.32165 -0.42628,0.396875 -2.24896,0.396875 -1.82269,0 -2.24896,-0.07522 -2.24896,-0.396875 z m 5.29167,0 c 0,-0.331611 0.54386,-0.396875 3.30729,-0.396875 2.76342,0 3.30729,0.06526 3.30729,0.396875 0,0.331611 -0.54387,0.396875 -3.30729,0.396875 -2.76343,0 -3.30729,-0.06526 -3.30729,-0.396875 z" style="fill:#000000;fill-opacity:1" id="path1" />
  </g>
</svg>
