<?xml version="1.0" encoding="UTF-8" standalone="no"?>
<svg
   width="32"
   height="32"
   viewBox="0 0 32 32"
   version="1.1"
   id="svg1"
   sodipodi:docname="material-symbols--water-ec.svg"
   inkscape:version="1.3.2 (1:1.3.2+202311252150+091e20ef0f)"
   inkscape:export-filename="material-symbols--water-ec.png"
   inkscape:export-xdpi="96"
   inkscape:export-ydpi="96"
   xmlns:inkscape="http://www.inkscape.org/namespaces/inkscape"
   xmlns:sodipodi="http://sodipodi.sourceforge.net/DTD/sodipodi-0.dtd"
   xmlns="http://www.w3.org/2000/svg"
   xmlns:svg="http://www.w3.org/2000/svg">
  <defs
     id="defs1" />
  <sodipodi:namedview
     id="namedview1"
     pagecolor="#ffffff"
     bordercolor="#666666"
     borderopacity="1.0"
     inkscape:showpageshadow="2"
     inkscape:pageopacity="0.0"
     inkscape:pagecheckerboard="0"
     inkscape:deskcolor="#d1d1d1"
     showguides="true"
     inkscape:zoom="16.166667"
     inkscape:cx="4.0824742"
     inkscape:cy="15.092783"
     inkscape:window-width="1920"
     inkscape:window-height="1022"
     inkscape:window-x="1920"
     inkscape:window-y="0"
     inkscape:window-maximized="1"
     inkscape:current-layer="svg1">
    <sodipodi:guide
       position="3.9587629,35.649485"
       orientation="1,0"
       id="guide1"
       inkscape:locked="false" />
  </sodipodi:namedview>
  <path
     fill="currentColor"
     d="M 14.674969,23.950186 H 16 L 21.300124,16 H 17.325031 V 10.699876 H 16 l -5.300124,7.950186 h 3.975093 z M 16,29.250311 q -4.538231,0 -7.5685775,-3.113823 -3.0303464,-3.113823 -3.0316715,-7.751432 0,-3.312578 2.6341618,-7.204194 Q 10.668075,7.2892458 16,2.7496893 q 5.33325,4.5382314 7.967412,8.4311727 2.634162,3.892941 2.632837,7.204194 0,4.637609 -3.030347,7.751432 Q 20.539556,29.250311 16,29.250311"
     id="path2"
     style="stroke-width:4.125;fill:#ffffff;fill-opacity:1;stroke-dasharray:none;stroke:#ffffff;stroke-opacity:1" />
  <path
     fill="currentColor"
     d="M 14.674969,23.950186 H 16 L 21.300124,16 H 17.325031 V 10.699876 H 16 l -5.300124,7.950186 h 3.975093 z M 16,29.250311 q -4.538231,0 -7.5685775,-3.113823 -3.0303464,-3.113823 -3.0316715,-7.751432 0,-3.312578 2.6341618,-7.204194 Q 10.668075,7.2892458 16,2.7496893 q 5.33325,4.5382314 7.967412,8.4311727 2.634162,3.892941 2.632837,7.204194 0,4.637609 -3.030347,7.751432 Q 20.539556,29.250311 16,29.250311"
     id="path1"
     style="stroke-width:1.32503;fill:#1f2937;fill-opacity:1" />
</svg>
