<?xml version="1.0" encoding="UTF-8" standalone="no"?>
<svg
   width="32"
   height="32"
   viewBox="0 0 32 32"
   version="1.1"
   id="svg1"
   sodipodi:docname="metro.svg"
   inkscape:version="1.3.2 (1:1.3.2+202311252150+091e20ef0f)"
   inkscape:export-filename="metro.png"
   inkscape:export-xdpi="96"
   inkscape:export-ydpi="96"
   xmlns:inkscape="http://www.inkscape.org/namespaces/inkscape"
   xmlns:sodipodi="http://sodipodi.sourceforge.net/DTD/sodipodi-0.dtd"
   xmlns="http://www.w3.org/2000/svg"
   xmlns:svg="http://www.w3.org/2000/svg"
   xmlns:rdf="http://www.w3.org/1999/02/22-rdf-syntax-ns#"
   xmlns:cc="http://creativecommons.org/ns#"
   xmlns:dc="http://purl.org/dc/elements/1.1/">
  <title
     id="title1">religious-christian.svg</title>
  <defs
     id="defs1" />
  <sodipodi:namedview
     id="namedview1"
     pagecolor="#ffffff"
     bordercolor="#666666"
     borderopacity="1.0"
     inkscape:showpageshadow="2"
     inkscape:pageopacity="0.0"
     inkscape:pagecheckerboard="0"
     inkscape:deskcolor="#d1d1d1"
     inkscape:zoom="16.166667"
     inkscape:cx="5.3814432"
     inkscape:cy="13.175257"
     inkscape:window-width="1920"
     inkscape:window-height="1022"
     inkscape:window-x="1920"
     inkscape:window-y="0"
     inkscape:window-maximized="1"
     inkscape:current-layer="svg1"
     showguides="true">
    <sodipodi:guide
       position="3.9587629,29.835052"
       orientation="1,0"
       id="guide1"
       inkscape:locked="false" />
  </sodipodi:namedview>
  <path
     fill="currentColor"
     d="m 21.708,22.099 q -0.303,0.228 -0.714,0.228 -0.363,0 -0.688,-0.228 -0.327,-0.229 -0.327,-0.66 v -7.813 h -0.023 l -2.984,6.057 a 1.45,1.45 0 0 1 -0.385,0.505 q -0.217,0.168 -0.578,0.168 -0.36,0 -0.577,-0.168 A 1.44,1.44 0 0 1 15.047,19.683 L 12.063,13.627 H 12.04 v 7.811 a 0.75,0.75 0 0 1 -0.339,0.66 1.23,1.23 0 0 1 -0.7,0.229 q -0.412,0 -0.702,-0.228 -0.29,-0.229 -0.29,-0.66 V 10.958 q 0,-0.457 0.29,-0.853 0.288,-0.396 1.036,-0.396 0.555,0 0.856,0.252 0.3,0.253 0.542,0.757 l 3.277,6.754 h 0.024 l 3.253,-6.754 q 0.24,-0.504 0.543,-0.757 0.3,-0.252 0.855,-0.252 0.748,0 1.036,0.396 0.29,0.398 0.29,0.854 v 10.478 q 0,0.433 -0.302,0.66 z m -5.732,4.156 c 5.658,0 10.279,-4.64 10.279,-10.327 0,-5.62 -4.603,-10.183 -10.279,-10.183 -5.674,0 -10.23,4.536 -10.23,10.183 0,5.59 4.715,10.327 10.23,10.327 m 0,1.745 C 9.495,28 4,22.48 4,15.928 4,9.315 9.34,4 15.976,4 22.612,4 28,9.34 28,15.928 28,22.577 22.6,28 15.976,28"
     id="path2"
     style="fill:#ffffff;fill-opacity:1;stroke:#ffffff;stroke-opacity:1;stroke-width:7.3;stroke-dasharray:none" />
  <path
     fill="currentColor"
     d="m 21.708,22.099 q -0.303,0.228 -0.714,0.228 -0.363,0 -0.688,-0.228 -0.327,-0.229 -0.327,-0.66 v -7.813 h -0.023 l -2.984,6.057 a 1.45,1.45 0 0 1 -0.385,0.505 q -0.217,0.168 -0.578,0.168 -0.36,0 -0.577,-0.168 A 1.44,1.44 0 0 1 15.047,19.683 L 12.063,13.627 H 12.04 v 7.811 a 0.75,0.75 0 0 1 -0.339,0.66 1.23,1.23 0 0 1 -0.7,0.229 q -0.412,0 -0.702,-0.228 -0.29,-0.229 -0.29,-0.66 V 10.958 q 0,-0.457 0.29,-0.853 0.288,-0.396 1.036,-0.396 0.555,0 0.856,0.252 0.3,0.253 0.542,0.757 l 3.277,6.754 h 0.024 l 3.253,-6.754 q 0.24,-0.504 0.543,-0.757 0.3,-0.252 0.855,-0.252 0.748,0 1.036,0.396 0.29,0.398 0.29,0.854 v 10.478 q 0,0.433 -0.302,0.66 z m -5.732,4.156 c 5.658,0 10.279,-4.64 10.279,-10.327 0,-5.62 -4.603,-10.183 -10.279,-10.183 -5.674,0 -10.23,4.536 -10.23,10.183 0,5.59 4.715,10.327 10.23,10.327 m 0,1.745 C 9.495,28 4,22.48 4,15.928 4,9.315 9.34,4 15.976,4 22.612,4 28,9.34 28,15.928 28,22.577 22.6,28 15.976,28"
     id="path1"
     style="fill:#4338ca;fill-opacity:1" />
  <metadata
     id="metadata1">
    <rdf:RDF>
      <cc:Work
         rdf:about="">
        <dc:title>religious-christian.svg</dc:title>
      </cc:Work>
    </rdf:RDF>
  </metadata>
</svg>
