<?xml version="1.0" encoding="UTF-8" standalone="no"?>
<svg
   viewBox="0 0 32 32"
   version="1.1"
   id="svg1"
   sodipodi:docname="question.svg"
   width="32"
   height="32"
   inkscape:version="1.3.2 (1:1.3.2+202311252150+091e20ef0f)"
   inkscape:export-filename="question.png"
   inkscape:export-xdpi="96"
   inkscape:export-ydpi="96"
   xmlns:inkscape="http://www.inkscape.org/namespaces/inkscape"
   xmlns:sodipodi="http://sodipodi.sourceforge.net/DTD/sodipodi-0.dtd"
   xmlns="http://www.w3.org/2000/svg"
   xmlns:svg="http://www.w3.org/2000/svg">
  <defs
     id="defs1" />
  <sodipodi:namedview
     id="namedview1"
     pagecolor="#ffffff"
     bordercolor="#666666"
     borderopacity="1.0"
     inkscape:showpageshadow="2"
     inkscape:pageopacity="0.0"
     inkscape:pagecheckerboard="0"
     inkscape:deskcolor="#d1d1d1"
     showguides="true"
     inkscape:zoom="17.147339"
     inkscape:cx="22.277509"
     inkscape:cy="19.128332"
     inkscape:window-width="1920"
     inkscape:window-height="1022"
     inkscape:window-x="1920"
     inkscape:window-y="0"
     inkscape:window-maximized="1"
     inkscape:current-layer="svg1">
    <sodipodi:guide
       position="3.9656298,29.317368"
       orientation="1,0"
       id="guide1"
       inkscape:locked="false" />
  </sodipodi:namedview>
  <!--!Font Awesome Free 6.6.0 by @fontawesome - https://fontawesome.com License - https://fontawesome.com/license/free Copyright 2024 Fonticons, Inc.-->
  <path
     d="M 25.777926,16 A 9.7779259,9.7779259 0 1 0 6.2220743,16 9.7779259,9.7779259 0 1 0 25.777926,16 Z M 3.9656299,16 A 12.03437,12.03437 0 1 1 28.03437,16 12.03437,12.03437 0 1 1 3.9656299,16 Z m 7.9821721,-4.26374 c 0.371373,-1.048306 1.367969,-1.7534451 2.482089,-1.7534451 h 2.74064 c 1.640623,0 2.966284,1.3303621 2.966284,2.9662841 0,1.062409 -0.568812,2.044903 -1.490194,2.576107 l -1.518399,0.869672 c -0.0094,0.61112 -0.512401,1.109418 -1.128222,1.109418 -0.625223,0 -1.128222,-0.502999 -1.128222,-1.128222 v -0.634625 c 0,-0.40428 0.216242,-0.775653 0.568812,-0.977793 l 2.08251,-1.194035 c 0.220943,-0.126925 0.35727,-0.361971 0.35727,-0.615821 0,-0.394878 -0.319663,-0.70984 -0.709839,-0.70984 h -2.74064 c -0.159832,0 -0.300859,0.09872 -0.35257,0.249149 l -0.0188,0.05641 c -0.206841,0.587616 -0.855569,0.893176 -1.438484,0.686336 -0.582914,-0.206841 -0.893176,-0.855569 -0.686335,-1.438484 l 0.0188,-0.05641 z m 2.547902,8.776629 a 1.5042963,1.5042963 0 1 1 3.008592,0 1.5042963,1.5042963 0 1 1 -3.008592,0 z"
     id="path2"
     style="stroke-width:7.047;fill:#ffffff;fill-opacity:1;stroke:#ffffff;stroke-opacity:1;stroke-dasharray:none" />
  <path
     d="M 25.777926,16 A 9.7779259,9.7779259 0 1 0 6.2220743,16 9.7779259,9.7779259 0 1 0 25.777926,16 Z M 3.9656299,16 A 12.03437,12.03437 0 1 1 28.03437,16 12.03437,12.03437 0 1 1 3.9656299,16 Z m 7.9821721,-4.26374 c 0.371373,-1.048306 1.367969,-1.7534451 2.482089,-1.7534451 h 2.74064 c 1.640623,0 2.966284,1.3303621 2.966284,2.9662841 0,1.062409 -0.568812,2.044903 -1.490194,2.576107 l -1.518399,0.869672 c -0.0094,0.61112 -0.512401,1.109418 -1.128222,1.109418 -0.625223,0 -1.128222,-0.502999 -1.128222,-1.128222 v -0.634625 c 0,-0.40428 0.216242,-0.775653 0.568812,-0.977793 l 2.08251,-1.194035 c 0.220943,-0.126925 0.35727,-0.361971 0.35727,-0.615821 0,-0.394878 -0.319663,-0.70984 -0.709839,-0.70984 h -2.74064 c -0.159832,0 -0.300859,0.09872 -0.35257,0.249149 l -0.0188,0.05641 c -0.206841,0.587616 -0.855569,0.893176 -1.438484,0.686336 -0.582914,-0.206841 -0.893176,-0.855569 -0.686335,-1.438484 l 0.0188,-0.05641 z m 2.547902,8.776629 a 1.5042963,1.5042963 0 1 1 3.008592,0 1.5042963,1.5042963 0 1 1 -3.008592,0 z"
     id="path1"
     style="stroke-width:0.0470093;fill:#1f2937;fill-opacity:1" />
</svg>
