<?xml version="1.0" encoding="UTF-8" standalone="no"?>
<svg
   width="32"
   height="32"
   viewBox="0 0 32 32"
   version="1.1"
   id="svg1"
   sodipodi:docname="refuge-non-garde.svg"
   inkscape:version="1.3.2 (1:1.3.2+202311252150+091e20ef0f)"
   inkscape:export-filename="refuge-non-garde.png"
   inkscape:export-xdpi="96"
   inkscape:export-ydpi="96"
   xmlns:inkscape="http://www.inkscape.org/namespaces/inkscape"
   xmlns:sodipodi="http://sodipodi.sourceforge.net/DTD/sodipodi-0.dtd"
   xmlns="http://www.w3.org/2000/svg"
   xmlns:svg="http://www.w3.org/2000/svg">
  <defs
     id="defs1" />
  <sodipodi:namedview
     id="namedview1"
     pagecolor="#ffffff"
     bordercolor="#666666"
     borderopacity="1.0"
     inkscape:showpageshadow="2"
     inkscape:pageopacity="0.0"
     inkscape:pagecheckerboard="0"
     inkscape:deskcolor="#d1d1d1"
     showguides="true"
     inkscape:zoom="13.857143"
     inkscape:cx="19.195876"
     inkscape:cy="26.484536"
     inkscape:window-width="1920"
     inkscape:window-height="1022"
     inkscape:window-x="1920"
     inkscape:window-y="0"
     inkscape:window-maximized="1"
     inkscape:current-layer="svg1">
    <sodipodi:guide
       position="3.9690722,25.938144"
       orientation="1,0"
       id="guide1"
       inkscape:locked="false" />
  </sodipodi:namedview>
  <path
     fill="currentColor"
     d="M 8.4414064,28.114347 H 23.5699 c 1.635991,0 2.592122,-0.922211 2.592122,-2.546405 V 15.048539 l 1.486058,1.359721 c 0.242351,0.230554 0.507314,0.391793 0.829793,0.391793 0.541235,0 0.979235,-0.334277 0.979235,-0.88731 0,-0.345582 -0.126828,-0.564338 -0.345583,-0.760479 L 25.113474,11.499795 V 4.7144633 c 0,-0.506823 -0.322479,-0.829302 -0.829302,-0.829302 h -1.509163 c -0.495516,0 -0.841591,0.322479 -0.841591,0.829302 V 8.6087908 L 17.382826,4.460806 C 16.979727,4.0921181 16.495517,3.8851613 16,3.8851613 c -0.495517,0 -0.979235,0.2069568 -1.382334,0.5756447 L 2.888475,15.152755 c -0.2074484,0.196143 -0.3455834,0.414897 -0.3455834,0.760481 0,0.553031 0.4375096,0.887308 0.979235,0.887308 0.334277,0 0.5992407,-0.161239 0.8297936,-0.391792 l 1.486058,-1.347923 v 10.507606 c 0,1.624192 0.9566222,2.546404 2.6039198,2.546404 M 19.3177,18.609081 c 0,-0.529927 -0.345584,-0.864204 -0.875511,-0.864204 h -4.885853 c -0.529927,0 -0.886817,0.334277 -0.886817,0.864204 v 7.649537 H 8.8327072 c -0.7373759,0 -1.1404746,-0.403099 -1.1404746,-1.152272 V 13.366831 L 15.59641,6.1656189 c 0.11503,-0.1150306 0.253165,-0.184344 0.403099,-0.184344 0.149932,0 0.288068,0.057515 0.414896,0.184344 l 7.891887,7.2012121 v 11.740006 c 0,0.749174 -0.403098,1.152272 -1.128676,1.152272 H 19.3177 Z"
     id="path2"
     style="fill:#ffffff;fill-opacity:1;stroke:#ffffff;stroke-width:4.46333;stroke-dasharray:none;stroke-opacity:1" />
  <path
     fill="currentColor"
     d="M 8.4414064,28.114347 H 23.5699 c 1.635991,0 2.592122,-0.922211 2.592122,-2.546405 V 15.048539 l 1.486058,1.359721 c 0.242351,0.230554 0.507314,0.391793 0.829793,0.391793 0.541235,0 0.979235,-0.334277 0.979235,-0.88731 0,-0.345582 -0.126828,-0.564338 -0.345583,-0.760479 L 25.113474,11.499795 V 4.7144633 c 0,-0.506823 -0.322479,-0.829302 -0.829302,-0.829302 h -1.509163 c -0.495516,0 -0.841591,0.322479 -0.841591,0.829302 V 8.6087908 L 17.382826,4.460806 C 16.979727,4.0921181 16.495517,3.8851613 16,3.8851613 c -0.495517,0 -0.979235,0.2069568 -1.382334,0.5756447 L 2.888475,15.152755 c -0.2074484,0.196143 -0.3455834,0.414897 -0.3455834,0.760481 0,0.553031 0.4375096,0.887308 0.979235,0.887308 0.334277,0 0.5992407,-0.161239 0.8297936,-0.391792 l 1.486058,-1.347923 v 10.507606 c 0,1.624192 0.9566222,2.546404 2.6039198,2.546404 M 19.3177,18.609081 c 0,-0.529927 -0.345584,-0.864204 -0.875511,-0.864204 h -4.885853 c -0.529927,0 -0.886817,0.334277 -0.886817,0.864204 v 7.649537 H 8.8327072 c -0.7373759,0 -1.1404746,-0.403099 -1.1404746,-1.152272 V 13.366831 L 15.59641,6.1656189 c 0.11503,-0.1150306 0.253165,-0.184344 0.403099,-0.184344 0.149932,0 0.288068,0.057515 0.414896,0.184344 l 7.891887,7.2012121 v 11.740006 c 0,0.749174 -0.403098,1.152272 -1.128676,1.152272 H 19.3177 Z"
     id="path1"
     style="fill:#246138;fill-opacity:1;stroke-width:0.491584" />
</svg>
