<?xml version="1.0" encoding="UTF-8" standalone="no"?>
<svg viewBox="0 0 32 32" version="1.1" id="svg1" sodipodi:docname="refuge-garde.svg" width="32" height="32" inkscape:version="1.3.2 (1:1.3.2+202311252150+091e20ef0f)" inkscape:export-filename="refuge-garde.png" inkscape:export-xdpi="96" inkscape:export-ydpi="96"
  xmlns:inkscape="http://www.inkscape.org/namespaces/inkscape"
  xmlns:sodipodi="http://sodipodi.sourceforge.net/DTD/sodipodi-0.dtd"
  xmlns="http://www.w3.org/2000/svg"
  xmlns:svg="http://www.w3.org/2000/svg">
  <defs id="defs1" />
  <sodipodi:namedview id="namedview1" pagecolor="#ffffff" bordercolor="#666666" borderopacity="1.0" inkscape:showpageshadow="2" inkscape:pageopacity="0.0" inkscape:pagecheckerboard="0" inkscape:deskcolor="#d1d1d1" showguides="true" inkscape:zoom="17.147339" inkscape:cx="15.337656" inkscape:cy="20.236376" inkscape:window-width="1920" inkscape:window-height="1022" inkscape:window-x="1920" inkscape:window-y="0" inkscape:window-maximized="1" inkscape:current-layer="svg1">
    <sodipodi:guide position="3.9656298,24.593603" orientation="1,0" id="guide1" inkscape:locked="false" />
  </sodipodi:namedview>
  <!--!Font Awesome Free 6.6.0 by @fontawesome - https://fontawesome.com License - https://fontawesome.com/license/free Copyright 2024 Fonticons, Inc.-->
  <path d="m 28.059541,15.976952 c 0,0.754312 -0.628593,1.345189 -1.340999,1.345189 h -1.341 l 0.02934,6.713377 c 0,0.113146 -0.0084,0.226293 -0.02095,0.33944 v 0.678881 c 0,0.926127 -0.750122,1.676248 -1.676249,1.676248 h -0.670499 c -0.0461,0 -0.09219,0 -0.138291,-0.0042 -0.05867,0.0042 -0.117337,0.0042 -0.176006,0.0042 l -1.361952,-0.0042 h -1.005749 c -0.926128,0 -1.676249,-0.750121 -1.676249,-1.676249 v -1.00571 -2.681998 c 0,-0.74174 -0.599259,-1.340999 -1.340999,-1.340999 H 14.65794 c -0.741741,0 -1.340999,0.599259 -1.340999,1.340999 v 2.681998 1.005749 c 0,0.926128 -0.750122,1.676249 -1.676249,1.676249 H 10.634935 9.2981264 c -0.062859,0 -0.1257187,-0.0042 -0.188578,-0.0084 -0.050287,0.0042 -0.1005749,0.0084 -0.1508624,0.0084 H 8.2881865 c -0.9261275,0 -1.6762488,-0.750121 -1.6762488,-1.676249 v -4.693496 c 0,-0.03771 0,-0.07962 0.00419,-0.117338 v -2.920892 h -1.340999 c -0.7543119,0 -1.340999,-0.586687 -1.340999,-1.34519 0,-0.377156 0.1257186,-0.712406 0.4190622,-1.005749 L 15.093757,5.6051624 C 15.3871,5.3118188 15.72235,5.2699126 16.015694,5.2699126 c 0.293343,0 0.628593,0.083812 0.88003,0.2933435 l 10.702848,9.4079469 c 0.33525,0.293343 0.502875,0.628593 0.460969,1.005749 z" id="path2" style="stroke-width:7.542;fill:#ffffff;fill-opacity:1;stroke:#ffffff;stroke-opacity:1;stroke-dasharray:none" />
  <path d="m 29.724876,15.973769 c 0,0.858477 -0.715397,1.53095 -1.526181,1.53095 h -1.526183 l 0.03339,7.640445 c 0,0.128771 -0.0096,0.257543 -0.02384,0.386315 v 0.772629 c 0,1.054019 -0.853709,1.907726 -1.907727,1.907726 h -0.76309 c -0.05247,0 -0.104921,0 -0.157388,-0.0048 -0.06677,0.0048 -0.13354,0.0048 -0.200311,0.0048 l -1.550028,-0.0048 h -1.144635 c -1.05402,0 -1.907727,-0.853707 -1.907727,-1.907727 v -1.144591 -3.052363 c 0,-0.844168 -0.682012,-1.526181 -1.526181,-1.526181 h -3.052363 c -0.84417,0 -1.526181,0.682013 -1.526181,1.526181 v 3.052363 1.144635 c 0,1.05402 -0.853708,1.907727 -1.907727,1.907727 H 9.8940587 8.3726466 c -0.071539,0 -0.1430795,-0.0048 -0.2146193,-0.0096 -0.057231,0.0048 -0.1144635,0.0096 -0.1716953,0.0096 H 7.2232414 c -1.054019,0 -1.9077266,-0.853707 -1.9077266,-1.907727 v -5.341633 c 0,-0.04292 0,-0.09061 0.00477,-0.133542 V 17.49995 H 3.7941023 c -0.8584769,0 -1.5261812,-0.667704 -1.5261812,-1.53095 0,-0.429239 0.1430794,-0.810785 0.4769316,-1.144636 L 14.968612,4.1697112 c 0.333851,-0.3338522 0.715397,-0.3815454 1.049249,-0.3815454 0.333852,0 0.715397,0.095386 1.001556,0.3338521 L 29.20025,14.829134 c 0.381546,0.333851 0.572319,0.715397 0.524626,1.144635 z" id="path1" style="fill:#000000;fill-opacity:1;stroke-width:0.0476931" />
</svg>
