<?xml version="1.0" encoding="UTF-8" standalone="no"?>
<svg
   viewBox="0 0 32 32"
   height="32"
   width="32"
   version="1.1"
   id="svg4"
   sodipodi:docname="religion-musulmane.svg"
   inkscape:version="1.3.2 (1:1.3.2+202311252150+091e20ef0f)"
   inkscape:export-filename="religion-musulmane.png"
   inkscape:export-xdpi="96"
   inkscape:export-ydpi="96"
   xmlns:inkscape="http://www.inkscape.org/namespaces/inkscape"
   xmlns:sodipodi="http://sodipodi.sourceforge.net/DTD/sodipodi-0.dtd"
   xmlns="http://www.w3.org/2000/svg"
   xmlns:svg="http://www.w3.org/2000/svg"
   xmlns:rdf="http://www.w3.org/1999/02/22-rdf-syntax-ns#"
   xmlns:cc="http://creativecommons.org/ns#"
   xmlns:dc="http://purl.org/dc/elements/1.1/">
  <defs
     id="defs4" />
  <sodipodi:namedview
     id="namedview4"
     pagecolor="#ffffff"
     bordercolor="#666666"
     borderopacity="1.0"
     inkscape:showpageshadow="2"
     inkscape:pageopacity="0.0"
     inkscape:pagecheckerboard="0"
     inkscape:deskcolor="#d1d1d1"
     inkscape:zoom="23.515152"
     inkscape:cx="16.5"
     inkscape:cy="16.5"
     inkscape:window-width="1920"
     inkscape:window-height="1022"
     inkscape:window-x="1920"
     inkscape:window-y="0"
     inkscape:window-maximized="1"
     inkscape:current-layer="svg4" />
  <title
     id="title1">religious-muslim.svg</title>
  <path
     fill="#ffffff"
     d="m 14.89808,4.8607775 c -6.2952771,0 -11.2729608,4.9776837 -11.2729608,11.2729605 0,6.295277 4.9776837,11.27296 11.2729608,11.27296 3.513581,0 7.320182,-1.171249 9.369826,-3.806434 -1.317593,0.878395 -3.806435,1.9033 -5.709735,1.9033 -4.83134,0 -8.491265,-4.83134 -8.491265,-9.662514 0,-4.831174 3.659925,-9.0769722 8.491265,-9.0769722 1.75679,0 4.245632,1.0247391 5.709735,1.9033003 C 22.218262,6.0320264 18.411827,4.8607775 14.89808,4.8607775 Z m 6.978547,4.9776837 -1.659228,4.1480698 h -4.977684 l 4.14807,2.488842 -1.659228,4.977684 4.14807,-2.488842 4.148069,2.488842 -1.659228,-4.977684 4.14807,-2.488842 h -4.977683 z"
     style="stroke-linejoin:round;stroke-miterlimit:4"
     stroke="#ffffff"
     stroke-width="6.63691"
     id="path3" />
  <path
     fill="#000"
     d="m 14.89808,4.8607775 c -6.2952771,0 -11.2729608,4.9776837 -11.2729608,11.2729605 0,6.295277 4.9776837,11.27296 11.2729608,11.27296 3.513581,0 7.320182,-1.171249 9.369826,-3.806434 -1.317593,0.878395 -3.806435,1.9033 -5.709735,1.9033 -4.83134,0 -8.491265,-4.83134 -8.491265,-9.662514 0,-4.831174 3.659925,-9.0769722 8.491265,-9.0769722 1.75679,0 4.245632,1.0247391 5.709735,1.9033003 C 22.218262,6.0320264 18.411827,4.8607775 14.89808,4.8607775 Z m 6.978547,4.9776837 -1.659228,4.1480698 h -4.977684 l 4.14807,2.488842 -1.659228,4.977684 4.14807,-2.488842 4.148069,2.488842 -1.659228,-4.977684 4.14807,-2.488842 h -4.977683 z"
     id="path4"
     style="fill:#1f2937;fill-opacity:1;stroke-width:1.65923" />
  <metadata
     id="metadata4">
    <rdf:RDF>
      <cc:Work
         rdf:about="">
        <dc:title>religious-muslim.svg</dc:title>
      </cc:Work>
    </rdf:RDF>
  </metadata>
</svg>
