<?xml version="1.0" encoding="UTF-8" standalone="no"?>
<svg
   width="32"
   height="32"
   viewBox="0 0 32 32"
   version="1.1"
   id="svg1"
   sodipodi:docname="silo.svg"
   inkscape:version="1.3.2 (1:1.3.2+202311252150+091e20ef0f)"
   inkscape:export-filename="silo.png"
   inkscape:export-xdpi="96"
   inkscape:export-ydpi="96"
   xmlns:inkscape="http://www.inkscape.org/namespaces/inkscape"
   xmlns:sodipodi="http://sodipodi.sourceforge.net/DTD/sodipodi-0.dtd"
   xmlns="http://www.w3.org/2000/svg"
   xmlns:svg="http://www.w3.org/2000/svg">
  <defs
     id="defs1" />
  <sodipodi:namedview
     id="namedview1"
     pagecolor="#ffffff"
     bordercolor="#666666"
     borderopacity="1.0"
     inkscape:showpageshadow="2"
     inkscape:pageopacity="0.0"
     inkscape:pagecheckerboard="0"
     inkscape:deskcolor="#d1d1d1"
     showguides="true"
     inkscape:zoom="11.43156"
     inkscape:cx="2.0994511"
     inkscape:cy="8.922667"
     inkscape:window-width="1920"
     inkscape:window-height="1022"
     inkscape:window-x="1920"
     inkscape:window-y="0"
     inkscape:window-maximized="1"
     inkscape:current-layer="svg1">
    <sodipodi:guide
       position="4.0239479,28.894562"
       orientation="1,0"
       id="guide1"
       inkscape:locked="false" />
  </sodipodi:namedview>
  <path
     fill="currentColor"
     d="M 19.551612,11.027743 C 19.078064,7.1209699 15.763226,4.1612931 11.856453,4.1612931 c -2.0125806,0 -4.0251607,0.8287095 -5.4458056,2.2493543 C 4.9900026,7.8312923 4.1612931,9.8438724 4.1612931,11.856453 V 27.838707 H 19.551612 V 13.395484 l 3.551612,2.130968 v 12.312255 h 2.367741 v -10.89161 l 2.367742,1.420644 V 16 Z M 14.816129,25.470965 H 8.8967759 v -2.367741 h 5.9193531 z m 0,-4.735482 H 8.8967759 v -2.367742 h 5.9193531 z m 0,-4.735483 H 8.8967759 V 13.632259 H 14.816129 Z M 6.8841957,10.080647 C 7.5945181,7.9496793 9.6070983,6.5290345 11.856453,6.5290345 c 2.249354,0 4.261934,1.4206448 4.972256,3.5516125 z"
     id="path2"
     style="display:inline;fill:#ffffff;fill-opacity:1;stroke-width:7.484;stroke:#ffffff;stroke-opacity:1;stroke-dasharray:none" />
  <path
     fill="currentColor"
     d="M 19.551612,11.027743 C 19.078064,7.1209699 15.763226,4.1612931 11.856453,4.1612931 c -2.0125806,0 -4.0251607,0.8287095 -5.4458056,2.2493543 C 4.9900026,7.8312923 4.1612931,9.8438724 4.1612931,11.856453 V 27.838707 H 19.551612 V 13.395484 l 3.551612,2.130968 v 12.312255 h 2.367741 v -10.89161 l 2.367742,1.420644 V 16 Z M 14.816129,25.470965 H 8.8967759 v -2.367741 h 5.9193531 z m 0,-4.735482 H 8.8967759 v -2.367742 h 5.9193531 z m 0,-4.735483 H 8.8967759 V 13.632259 H 14.816129 Z M 6.8841957,10.080647 C 7.5945181,7.9496793 9.6070983,6.5290345 11.856453,6.5290345 c 2.249354,0 4.261934,1.4206448 4.972256,3.5516125 z"
     id="path1"
     style="display:inline;fill:#1f2937;fill-opacity:1;stroke-width:1.18387" />
</svg>
